<svg width="799" height="143" viewBox="0 0 799 143" fill="none" xmlns="http://www.w3.org/2000/svg">
<path d="M0.976406 140.761V2.8389H84.2145V17.6547H17.6779V60.7554H52.6972C62.5744 60.7554 70.9027 62.3717 77.6821 65.6042C84.5064 68.8368 89.6695 73.3938 93.1714 79.2752C96.7182 85.1567 98.4916 92.0932 98.4916 100.085C98.4916 108.076 96.7182 115.125 93.1714 121.231C89.6695 127.337 84.5064 132.118 77.6821 135.575C70.9027 139.032 62.5744 140.761 52.6972 140.761H0.976406ZM17.6779 126.215H52.6972C58.9827 126.215 64.3029 124.957 68.6579 122.443C73.0578 119.884 76.3801 116.607 78.6249 112.611C80.9146 108.57 82.0595 104.305 82.0595 99.8154C82.0595 93.2156 79.5229 87.5362 74.4496 82.7771C69.3762 77.9732 62.1255 75.5713 52.6972 75.5713H17.6779V126.215ZM125.985 140.761V2.8389H209.223V17.6547H142.687V64.2573H204.913V79.0732H142.687V125.945H210.301V140.761H125.985ZM350.311 45.9396H333.609C332.621 41.1356 330.893 36.9153 328.424 33.2787C325.999 29.6421 323.036 26.5892 319.534 24.1198C316.077 21.6056 312.238 19.72 308.018 18.4629C303.798 17.2058 299.398 16.5772 294.818 16.5772C286.468 16.5772 278.903 18.6874 272.123 22.9076C265.389 27.1279 260.024 33.3461 256.028 41.5621C252.077 49.7782 250.102 59.8575 250.102 71.7999C250.102 83.7424 252.077 93.8217 256.028 102.038C260.024 110.254 265.389 116.472 272.123 120.692C278.903 124.913 286.468 127.023 294.818 127.023C299.398 127.023 303.798 126.394 308.018 125.137C312.238 123.88 316.077 122.017 319.534 119.547C323.036 117.033 325.999 113.958 328.424 110.321C330.893 106.64 332.621 102.419 333.609 97.6603H350.311C349.053 104.709 346.764 111.017 343.441 116.584C340.119 122.151 335.989 126.888 331.05 130.794C326.111 134.655 320.567 137.596 314.416 139.616C308.31 141.636 301.777 142.647 294.818 142.647C283.056 142.647 272.595 139.773 263.436 134.027C254.277 128.28 247.071 120.109 241.818 109.513C236.565 98.9174 233.939 86.3464 233.939 71.7999C233.939 57.2535 236.565 44.6824 241.818 34.0869C247.071 23.4913 254.277 15.3201 263.436 9.57338C272.595 3.82662 283.056 0.953242 294.818 0.953242C301.777 0.953242 308.31 1.96341 314.416 3.98376C320.567 6.0041 326.111 8.96727 331.05 12.8733C335.989 16.7344 340.119 21.4485 343.441 27.0157C346.764 32.5379 349.053 38.8459 350.311 45.9396ZM377.299 2.8389H393.731V111.399H395.078L470.504 2.8389H486.667V140.761H469.965V32.4706H468.618L393.462 140.761H377.299V2.8389ZM520.087 2.8389H536.788V125.406H585.276V2.8389H601.978V125.406H650.466V2.8389H667.168V140.761H520.087V2.8389ZM713.046 60.7554H752.376C762.253 60.7554 770.581 62.3717 777.361 65.6042C784.185 68.8368 789.348 73.3938 792.85 79.2752C796.397 85.1567 798.17 92.0932 798.17 100.085C798.17 108.076 796.397 115.125 792.85 121.231C789.348 127.337 784.185 132.118 777.361 135.575C770.581 139.032 762.253 140.761 752.376 140.761H700.655V2.8389H717.356V126.215H752.376C758.661 126.215 763.981 124.957 768.336 122.443C772.736 119.884 776.059 116.607 778.303 112.611C780.593 108.57 781.738 104.305 781.738 99.8154C781.738 93.2156 779.201 87.5362 774.128 82.7771C769.055 77.9732 761.804 75.5713 752.376 75.5713H713.046V60.7554Z" fill="#EBEBEB"/>
</svg>
