<svg width="778" height="166" viewBox="0 0 778 166" fill="none" xmlns="http://www.w3.org/2000/svg">
<path d="M0.0505371 149.052V11.1299L92.2455 18.5059L90.1717 33.0353L16.752 25.9457V69.0464H51.7713C61.6486 69.0464 69.9768 70.6627 76.7562 73.8952C83.5805 77.1278 88.7436 81.6848 92.2455 87.5662C95.7923 93.4476 97.5658 100.384 97.5658 108.376C97.5658 116.367 95.7923 123.416 92.2455 129.522C88.7436 135.628 83.5805 140.409 76.7562 143.866C69.9768 147.323 61.6486 149.052 51.7713 149.052H0.0505371ZM0.0505371 134.505H51.7713C58.0568 134.505 63.3771 133.248 67.732 130.734C72.1319 128.175 75.4542 124.898 77.6991 120.902C79.9888 116.861 81.1336 112.596 81.1336 108.106C81.1336 101.507 78.597 95.8272 73.5237 91.0681C68.4504 86.2642 61.1996 83.8622 51.7713 83.8622H0.0505371V134.505Z" fill="#EBEBEB"/>
<path d="M519.167 11.123H535.868V133.691H601.058H666.248V11.123V149.045H519.167V11.123Z" fill="#EBEBEB"/>
<rect x="622.973" y="14.7646" width="16.5995" height="121.813" transform="rotate(13.3001 622.973 14.7646)" fill="#EBEBEB"/>
<rect x="638.647" y="13.9033" width="16.5995" height="121.813" transform="rotate(-5.21396 638.647 13.9033)" fill="#EBEBEB"/>
<path d="M125.022 149.079V11.1567H208.261V25.9726H141.724V86.322V134.263H209.338V149.079H125.022Z" fill="#EBEBEB"/>
<rect x="145.935" y="73.7175" width="62.0813" height="16.4736" transform="rotate(13.9417 145.935 73.7175)" fill="#EBEBEB"/>
<path fill-rule="evenodd" clip-rule="evenodd" d="M697.201 165.256L732.083 164.875C741.959 164.767 750.268 162.948 757.009 159.417C763.796 155.886 768.906 151.048 772.341 144.904C775.821 138.76 777.518 131.692 777.43 123.701C777.343 115.71 775.494 108.793 771.883 102.951C768.317 97.108 763.105 92.6077 756.246 89.4498C749.431 86.2915 741.086 84.7662 731.209 84.874L696.328 85.2549L696.489 100.07L731.371 99.689C740.799 99.5861 748.075 101.909 753.201 106.657C758.326 111.36 760.924 117.012 760.996 123.611C761.045 128.101 759.947 132.378 757.702 136.443C755.5 140.463 752.214 143.777 747.842 146.384C743.515 148.946 738.209 150.261 731.924 150.329L697.042 150.71L697.201 165.256Z" fill="#EBEBEB"/>
<path fill-rule="evenodd" clip-rule="evenodd" d="M716.269 83.8556V149.045H699.712V11.1233H716.325V61.9701H716.269V69.0398V83.8556Z" fill="#EBEBEB"/>
<rect x="4.70483" y="73.7175" width="15.4077" height="68.9672" fill="#EBEBEB"/>
<path fill-rule="evenodd" clip-rule="evenodd" d="M332.54 60.0479L349.032 62.6861C348.911 55.483 347.647 48.8925 345.238 42.9148C342.837 36.8927 339.503 31.5853 335.237 26.9925C330.977 22.3555 325.97 18.5536 320.216 15.5871C314.505 12.6276 308.215 10.5982 301.343 9.49894C289.728 7.64085 278.944 8.82572 268.993 13.0536C259.041 17.2814 250.635 24.2117 243.774 33.8445C237.061 43.2699 232.533 54.96 230.188 68.9148L246.148 71.468C248.07 60.0952 251.562 50.7627 256.625 43.4705C261.868 35.9888 268.148 30.6962 275.465 27.5927C282.826 24.4963 290.629 23.6077 298.875 24.9268C303.397 25.6502 307.642 26.9658 311.611 28.8738C315.58 30.7818 319.072 33.2501 322.089 36.2788C325.157 39.2703 327.6 42.753 329.42 46.7269C331.284 50.7079 332.324 55.1483 332.54 60.0479Z" fill="#EBEBEB"/>
<path fill-rule="evenodd" clip-rule="evenodd" d="M234.981 72.0076C234.979 72.3189 234.978 72.6312 234.978 72.9444C234.978 87.4909 237.604 98.1884 242.857 108.784C248.11 119.38 255.316 127.551 264.475 133.297C273.634 139.044 284.095 141.918 295.857 141.918C302.816 141.918 309.349 140.907 315.455 138.887C321.606 136.867 327.15 133.926 332.089 130.065C337.028 126.159 341.158 121.422 344.48 115.855C347.803 110.288 350.092 103.98 351.35 96.9312H334.648C333.66 101.69 331.932 105.911 329.463 109.592C327.038 113.229 324.075 116.304 320.573 118.818C317.116 121.288 313.277 123.151 309.057 124.408C304.837 125.665 300.437 126.294 295.857 126.294C287.507 126.294 279.942 124.183 273.162 119.963C266.428 115.743 261.063 109.525 257.067 101.309C253.116 93.0925 251.14 84.8869 251.14 72.9444C251.14 72.6308 251.142 72.3186 251.144 72.0076H234.981Z" fill="#EBEBEB"/>
<path d="M469.555 21.9217L471.556 48.6047L392.112 159.081L390.173 130.655L469.555 21.9217Z" fill="#EBEBEB"/>
<path fill-rule="evenodd" clip-rule="evenodd" d="M392.845 119.717H392.724V11.1575H376.292V149.08H392.454L392.845 148.536V119.717ZM464.311 149.045V149.08H484.59V11.1575H469.497L469.157 11.6473V149.045H464.311Z" fill="#EBEBEB"/>
</svg>
