<svg width="351" height="1269" viewBox="0 0 351 1269" fill="none" xmlns="http://www.w3.org/2000/svg">
<rect x="41.8989" y="1268.51" width="1258.77" height="308.37" transform="rotate(-91.8893 41.8989 1268.51)" fill="#252525"/>
<path d="M215.248 286.063C189.993 288.386 164.102 290.509 138.17 291.365" stroke="white" stroke-width="5.86" stroke-linecap="round"/>
<path d="M176.39 279.068C176.904 294.652 171.9 310.217 172.424 326.102" stroke="white" stroke-width="5.86" stroke-linecap="round"/>
<path d="M199.984 325.193C186.915 326.817 126.037 341.774 126.026 341.428" stroke="white" stroke-width="5.86" stroke-linecap="round"/>
<path d="M201.256 363.777C178.965 364.513 153.155 366.176 131.471 371.751C120.849 374.481 136.739 440.312 140.595 448.549" stroke="white" stroke-width="5.86" stroke-linecap="round"/>
<path d="M160.189 373.409L161.553 414.749" stroke="white" stroke-width="5.86" stroke-linecap="round"/>
<path d="M195.836 366.715C196.529 387.735 197.449 413.711 206.286 432.587" stroke="white" stroke-width="5.86" stroke-linecap="round"/>
<path d="M212.224 528.956C194.267 532.836 176.932 539.171 158.85 541.906C149.266 543.355 139.09 544.886 130.089 548.219" stroke="white" stroke-width="5.86" stroke-linecap="round"/>
<path d="M209.155 525.143C209.521 536.232 208.306 547.136 208.672 558.21C209.029 569.052 212.846 580.633 216.049 591.018" stroke="white" stroke-width="5.86" stroke-linecap="round"/>
<path d="M185.832 533.782C182.295 551.268 184.47 568.68 177.397 585.56C174.837 591.669 164.58 593.144 158.802 594.393C143.009 597.806 146.988 551.152 148.359 542.887" stroke="white" stroke-width="5.86" stroke-linecap="round"/>
<path d="M203.56 641.794C195.804 642.05 187.635 641.59 179.99 642.921C169.421 644.762 157.754 647.542 147.119 648.377C144.527 648.581 140.943 648.505 140.945 652.078C140.952 661.5 141.568 670.962 141.879 680.377C142.096 686.948 141.977 693.655 142.707 700.198C143.539 707.646 143.472 701.884 145.789 703.506" stroke="white" stroke-width="5.86" stroke-linecap="round"/>
<path d="M161.423 652.627C161.63 658.915 161.838 665.204 162.045 671.492C162.409 682.51 159.725 699.692 164.862 709.172" stroke="white" stroke-width="5.86" stroke-linecap="round"/>
<path d="M202.092 644.99C202.755 665.092 203.404 684.809 207.207 704.628" stroke="white" stroke-width="5.86" stroke-linecap="round"/>
<path d="M209.695 780.091C223.671 763.284 176.471 746.562 165.757 746.915C154.57 747.284 141.747 755.96 141.638 768.521C141.567 776.647 141.782 798.07 153.617 797.679" stroke="white" stroke-width="5.86" stroke-linecap="round"/>
<path d="M213.082 835.064C202.217 838.451 190.442 836.732 179.271 838.541C170.927 839.891 162.464 839.902 154.084 841.033C150.701 841.489 133.268 841.649 131.223 845.109C125.385 854.987 177.824 880.722 184.592 883.22C190.196 885.288 199.863 890.586 206.076 890.381C213.177 890.146 192.903 895.713 186.316 898.377C173.45 903.582 161.584 909.616 149.109 915.518C147.774 916.149 138.973 919.35 140.315 919.306" stroke="white" stroke-width="5.86" stroke-linecap="round"/>
<path d="M155.902 979.288C152.737 979.392 150.866 977.72 147.989 977.975C144.551 978.28 143.685 983.225 146.636 984.665C149.111 985.873 155.808 983.725 152.849 982.187C149.348 980.366 144.039 983.78 145.923 984.251C147.775 984.715 153.756 984.967 152.751 981.84C151.536 978.065 146.768 987.385 152.039 984.137C154.26 982.769 153.449 976.221 150.295 976.325C146.596 976.447 144.984 987.333 148.3 987.408C150.206 987.451 156.691 984.206 152.913 984.108C151.718 984.077 142.721 984.25 143.87 985.631C146.111 988.324 154.166 988.788 157.436 988.681C167.212 988.358 154.429 971.815 151.724 969.283C148.725 966.475 142.938 966.863 144.748 972.486C145.341 974.33 154.958 973.35 156.39 972.889C160.79 971.473 152.724 969.95 151.66 969.985C144.942 970.206 148.431 986.979 149.976 990.5" stroke="white" stroke-width="5.86" stroke-linecap="round"/>
</svg>
