<svg width="351" height="1269" viewBox="0 0 351 1269" fill="none" xmlns="http://www.w3.org/2000/svg">
<rect x="41.9563" y="1268.34" width="1258.77" height="308.37" transform="rotate(-91.8893 41.9563 1268.34)" fill="#252525"/>
<path d="M215.305 285.897C190.051 288.22 164.159 290.343 138.227 291.198" stroke="#AE0000" stroke-width="5.86" stroke-linecap="round"/>
<path d="M176.448 278.901C176.962 294.486 171.957 310.051 172.481 325.935" stroke="#AE0000" stroke-width="5.86" stroke-linecap="round"/>
<path d="M200.041 325.026C186.972 326.651 126.095 341.607 126.083 341.261" stroke="#AE0000" stroke-width="5.86" stroke-linecap="round"/>
<path d="M201.314 363.611C179.023 364.346 153.212 366.009 131.528 371.584C120.907 374.315 136.797 440.146 140.653 448.382" stroke="#AE0000" stroke-width="5.86" stroke-linecap="round"/>
<path d="M160.246 373.242L161.61 414.582" stroke="#AE0000" stroke-width="5.86" stroke-linecap="round"/>
<path d="M195.893 366.548C196.587 387.569 197.506 413.545 206.343 432.42" stroke="#AE0000" stroke-width="5.86" stroke-linecap="round"/>
<path d="M212.281 528.789C194.324 532.67 176.99 539.005 158.908 541.739C149.324 543.189 139.147 544.719 130.146 548.053" stroke="#AE0000" stroke-width="5.86" stroke-linecap="round"/>
<path d="M209.212 524.977C209.578 536.066 208.364 546.97 208.729 558.044C209.087 568.886 212.903 580.467 216.107 590.851" stroke="#AE0000" stroke-width="5.86" stroke-linecap="round"/>
<path d="M185.889 533.615C182.352 551.101 184.527 568.513 177.454 585.394C174.895 591.502 164.637 592.978 158.859 594.226C143.067 597.639 147.045 550.986 148.417 542.721" stroke="#AE0000" stroke-width="5.86" stroke-linecap="round"/>
<path d="M203.618 641.627C195.861 641.883 187.692 641.423 180.047 642.754C169.478 644.595 157.812 647.375 147.176 648.211C144.584 648.414 141 648.338 141.003 651.912C141.009 661.333 141.626 670.796 141.936 680.21C142.153 686.781 142.034 693.489 142.765 700.031C143.597 707.479 143.529 701.718 145.847 703.34" stroke="#AE0000" stroke-width="5.86" stroke-linecap="round"/>
<path d="M161.48 652.46C161.688 658.749 161.895 665.037 162.103 671.326C162.466 682.344 159.782 699.526 164.919 709.006" stroke="#AE0000" stroke-width="5.86" stroke-linecap="round"/>
<path d="M202.149 644.823C202.812 664.926 203.461 684.643 207.264 704.461" stroke="#AE0000" stroke-width="5.86" stroke-linecap="round"/>
<path d="M209.753 779.924C223.728 763.117 176.529 746.396 165.814 746.749C154.628 747.118 141.804 755.793 141.695 768.354C141.625 776.481 141.84 797.903 153.674 797.513" stroke="#AE0000" stroke-width="5.86" stroke-linecap="round"/>
<path d="M213.139 834.898C202.275 838.284 190.499 836.566 179.329 838.374C170.985 839.725 162.522 839.736 154.142 840.866C150.759 841.322 133.325 841.482 131.28 844.943C125.443 854.82 177.882 880.556 184.65 883.054C190.253 885.122 199.92 890.419 206.133 890.214C213.234 889.98 192.96 895.546 186.374 898.211C173.508 903.416 161.641 909.45 149.166 915.351C147.832 915.983 139.03 919.183 140.373 919.139" stroke="#AE0000" stroke-width="5.86" stroke-linecap="round"/>
<path d="M155.959 979.121C152.795 979.226 150.924 977.553 148.046 977.809C144.609 978.114 143.743 983.059 146.693 984.498C149.169 985.706 155.865 983.558 152.907 982.02C149.406 980.2 144.096 983.613 145.98 984.085C147.832 984.549 153.814 984.8 152.808 981.674C151.593 977.898 146.825 987.218 152.097 983.97C154.317 982.603 153.506 976.055 150.353 976.159C146.653 976.281 145.041 987.167 148.357 987.242C150.263 987.284 156.749 984.039 152.97 983.942C151.775 983.911 142.778 984.083 143.927 985.464C146.168 988.157 154.223 988.622 157.493 988.514C167.27 988.192 154.487 971.649 151.782 969.117C148.782 966.308 142.996 966.696 144.805 972.32C145.398 974.164 155.015 973.183 156.447 972.723C160.848 971.307 152.782 969.783 151.717 969.818C145 970.04 148.488 986.813 150.033 990.334" stroke="#AE0000" stroke-width="5.86" stroke-linecap="round"/>
</svg>
