<svg width="449" height="308" viewBox="0 0 449 308" fill="none" xmlns="http://www.w3.org/2000/svg">
<rect width="447.877" height="307.084" transform="translate(0.203125)" fill="#3E3E3E"/>
<rect x="52.6855" y="178.261" width="37.5376" height="92.0112" rx="18.7688" fill="#AE0000"/>
<path fill-rule="evenodd" clip-rule="evenodd" d="M71.4543 178.261C61.0886 178.261 52.6855 186.664 52.6855 197.029V224.266H90.2231V197.029C90.2231 186.664 81.82 178.261 71.4543 178.261Z" fill="#D9D9D9"/>
<rect x="150.641" y="178.261" width="37.5376" height="92.0112" rx="18.7688" fill="#AE0000"/>
<path fill-rule="evenodd" clip-rule="evenodd" d="M169.41 178.261C159.044 178.261 150.641 186.664 150.641 197.029V224.266H188.179V197.029C188.179 186.664 179.776 178.261 169.41 178.261Z" fill="#D9D9D9"/>
<rect x="248.597" y="178.261" width="37.5376" height="92.0112" rx="18.7688" fill="#AE0000"/>
<path fill-rule="evenodd" clip-rule="evenodd" d="M267.366 178.261C257 178.261 248.597 186.664 248.597 197.029V224.266H286.134V197.029C286.134 186.664 277.731 178.261 267.366 178.261Z" fill="#D9D9D9"/>
<rect x="346.554" y="178.261" width="37.5376" height="92.0112" rx="18.7688" fill="#AE0000"/>
<path fill-rule="evenodd" clip-rule="evenodd" d="M365.323 178.261C354.957 178.261 346.554 186.664 346.554 197.029V224.266H384.092V197.029C384.092 186.664 375.688 178.261 365.323 178.261Z" fill="#D9D9D9"/>
<rect x="52.6843" y="36.8125" width="37.5376" height="92.0112" rx="18.7688" fill="#AE0000"/>
<path fill-rule="evenodd" clip-rule="evenodd" d="M71.4532 36.8124C61.0875 36.8124 52.6844 45.2154 52.6844 55.5812V82.8181H90.222V55.5812C90.222 45.2155 81.8189 36.8124 71.4532 36.8124Z" fill="#D9D9D9"/>
<rect x="150.641" y="36.8124" width="37.5376" height="92.0112" rx="18.7688" fill="#AE0000"/>
<path fill-rule="evenodd" clip-rule="evenodd" d="M169.41 36.8124C159.044 36.8124 150.641 45.2154 150.641 55.5812V82.8181H188.179V55.5812C188.179 45.2155 179.776 36.8124 169.41 36.8124Z" fill="#D9D9D9"/>
<rect x="248.597" y="36.8124" width="37.5376" height="92.0112" rx="18.7688" fill="#AE0000"/>
<path fill-rule="evenodd" clip-rule="evenodd" d="M267.366 36.8124C257 36.8124 248.597 45.2154 248.597 55.5812V82.8181H286.134V55.5812C286.134 45.2155 277.731 36.8124 267.366 36.8124Z" fill="#D9D9D9"/>
<rect x="346.554" y="36.8125" width="37.5376" height="92.0112" rx="18.7688" fill="#AE0000"/>
<path fill-rule="evenodd" clip-rule="evenodd" d="M365.323 36.8124C354.957 36.8124 346.554 45.2154 346.554 55.5812V82.8181H384.092V55.5812C384.092 45.2155 375.688 36.8124 365.323 36.8124Z" fill="#D9D9D9"/>
</svg>
