<svg width="449" height="308" viewBox="0 0 449 308" fill="none" xmlns="http://www.w3.org/2000/svg">
<rect width="447.877" height="307.084" transform="translate(0.203125 -0.00976562)" fill="#606060"/>
<rect x="90.2231" y="270.262" width="37.5376" height="92.0112" rx="18.7688" transform="rotate(-180 90.2231 270.262)" fill="#AE0000"/>
<path fill-rule="evenodd" clip-rule="evenodd" d="M71.4544 270.262C81.8201 270.262 90.2231 261.859 90.2231 251.493L90.2231 224.256H52.6856L52.6856 251.493C52.6856 261.859 61.0886 270.262 71.4544 270.262Z" fill="#D9D9D9"/>
<rect x="150.641" y="178.251" width="37.5376" height="92.0112" rx="18.7688" fill="#AE0000"/>
<path fill-rule="evenodd" clip-rule="evenodd" d="M169.41 178.251C159.044 178.251 150.641 186.654 150.641 197.02V224.257H188.179V197.02C188.179 186.654 179.776 178.251 169.41 178.251Z" fill="#D9D9D9"/>
<rect x="248.597" y="178.251" width="37.5376" height="92.0112" rx="18.7688" fill="#AE0000"/>
<path fill-rule="evenodd" clip-rule="evenodd" d="M267.366 178.251C257 178.251 248.597 186.654 248.597 197.02V224.257H286.134V197.02C286.134 186.654 277.731 178.251 267.366 178.251Z" fill="#D9D9D9"/>
<rect x="346.554" y="178.251" width="37.5376" height="92.0112" rx="18.7688" fill="#AE0000"/>
<path fill-rule="evenodd" clip-rule="evenodd" d="M365.323 178.251C354.957 178.251 346.554 186.654 346.554 197.02V224.257H384.092V197.02C384.092 186.654 375.688 178.251 365.323 178.251Z" fill="#D9D9D9"/>
<rect x="52.6843" y="36.8027" width="37.5376" height="92.0112" rx="18.7688" fill="#AE0000"/>
<path fill-rule="evenodd" clip-rule="evenodd" d="M71.4532 36.8026C61.0875 36.8026 52.6844 45.2057 52.6844 55.5714V82.8083H90.222V55.5714C90.222 45.2057 81.8189 36.8026 71.4532 36.8026Z" fill="#D9D9D9"/>
<rect x="150.641" y="36.8026" width="37.5376" height="92.0112" rx="18.7688" fill="#AE0000"/>
<path fill-rule="evenodd" clip-rule="evenodd" d="M169.41 36.8026C159.044 36.8026 150.641 45.2057 150.641 55.5714V82.8083H188.179V55.5714C188.179 45.2057 179.776 36.8026 169.41 36.8026Z" fill="#D9D9D9"/>
<rect x="248.597" y="36.8026" width="37.5376" height="92.0112" rx="18.7688" fill="#AE0000"/>
<path fill-rule="evenodd" clip-rule="evenodd" d="M267.366 36.8026C257 36.8026 248.597 45.2057 248.597 55.5714V82.8083H286.134V55.5714C286.134 45.2057 277.731 36.8026 267.366 36.8026Z" fill="#D9D9D9"/>
<rect x="346.554" y="36.8027" width="37.5376" height="92.0112" rx="18.7688" fill="#AE0000"/>
<path fill-rule="evenodd" clip-rule="evenodd" d="M365.323 36.8026C354.957 36.8026 346.554 45.2057 346.554 55.5714V82.8083H384.092V55.5714C384.092 45.2057 375.688 36.8026 365.323 36.8026Z" fill="#D9D9D9"/>
</svg>
