<svg width="698" height="389" viewBox="0 0 698 389" fill="none" xmlns="http://www.w3.org/2000/svg">
<g clip-path="url(#clip0_202_1000)">
<rect width="696.94" height="388.857" transform="translate(0.773926)" fill="black"/>
<line x1="313.249" y1="429.48" x2="313.249" y2="-36.1322" stroke="#E3E3E3" stroke-width="3.10672"/>
<line x1="629.249" y1="429.48" x2="629.249" y2="-43.6027" stroke="#E3E3E3" stroke-width="3.10672"/>
<line x1="550.249" y1="429.611" x2="550.249" y2="-36.2631" stroke="#E3E3E3" stroke-width="3.10672"/>
<line x1="471.249" y1="429.48" x2="471.249" y2="-36.1322" stroke="#E3E3E3" stroke-width="3.10672"/>
<line x1="392.249" y1="429.48" x2="392.249" y2="-36.1322" stroke="#E3E3E3" stroke-width="3.10672"/>
<line x1="76.2488" y1="457.585" x2="76.2488" y2="-8.02682" stroke="#E3E3E3" stroke-width="3.10672"/>
<line x1="234.249" y1="457.585" x2="234.249" y2="-8.02682" stroke="#E3E3E3" stroke-width="3.10672"/>
<line x1="155.249" y1="457.585" x2="155.249" y2="-8.02682" stroke="#E3E3E3" stroke-width="3.10672"/>
<path d="M700.822 355.634L-57.2348 354.634" stroke="#E3E3E3" stroke-width="3.10672"/>
<path d="M705.079 40.8203L-20.257 40.8203" stroke="#E3E3E3" stroke-width="3.10672"/>
<path d="M700.822 119.274L-65.7733 119.274" stroke="#E3E3E3" stroke-width="3.10672"/>
<line x1="700.822" y1="199.281" x2="-6.46246" y2="199.281" stroke="#E3E3E3" stroke-width="3.10672"/>
<line x1="700.822" y1="277.734" x2="3.89233" y2="277.734" stroke="#E3E3E3" stroke-width="3.10672"/>
</g>
<defs>
<clipPath id="clip0_202_1000">
<rect width="696.94" height="388.857" fill="white" transform="translate(0.773926)"/>
</clipPath>
</defs>
</svg>
