<svg width="698" height="389" viewBox="0 0 698 389" fill="none" xmlns="http://www.w3.org/2000/svg">
<g clip-path="url(#clip0_202_985)">
<rect width="696.94" height="388.857" transform="translate(0.773987)" fill="black"/>
<line x1="309.416" y1="429.48" x2="309.416" y2="-36.1322" stroke="#E3E3E3" stroke-width="3.10672"/>
<line x1="624.228" y1="429.48" x2="624.228" y2="-43.6027" stroke="#E3E3E3" stroke-width="3.10672"/>
<line x1="545.525" y1="429.532" x2="529.913" y2="-36.0802" stroke="#E3E3E3" stroke-width="3.10672"/>
<line x1="466.821" y1="429.48" x2="466.821" y2="-36.1322" stroke="#E3E3E3" stroke-width="3.10672"/>
<line x1="388.119" y1="429.48" x2="388.12" y2="-36.1322" stroke="#E3E3E3" stroke-width="3.10672"/>
<line x1="76.2488" y1="457.585" x2="76.2488" y2="-8.02682" stroke="#E3E3E3" stroke-width="3.10672"/>
<line x1="233.657" y1="457.585" x2="233.657" y2="-8.02682" stroke="#E3E3E3" stroke-width="3.10672"/>
<line x1="154.953" y1="457.585" x2="154.953" y2="-8.02682" stroke="#E3E3E3" stroke-width="3.10672"/>
<path d="M700.822 355.634L-57.2347 328.835" stroke="#E3E3E3" stroke-width="3.10672"/>
<path d="M705.079 40.8203L-20.257 40.8203" stroke="#E3E3E3" stroke-width="3.10672"/>
<path d="M700.822 119.524L-65.7732 119.524" stroke="#E3E3E3" stroke-width="3.10672"/>
<line x1="700.822" y1="198.227" x2="-6.46234" y2="198.227" stroke="#E3E3E3" stroke-width="3.10672"/>
<line x1="700.822" y1="276.931" x2="3.89246" y2="276.931" stroke="#E3E3E3" stroke-width="3.10672"/>
</g>
<defs>
<clipPath id="clip0_202_985">
<rect width="696.94" height="388.857" fill="white" transform="translate(0.773987)"/>
</clipPath>
</defs>
</svg>
