<svg width="969" height="340" viewBox="0 0 969 340" fill="none" xmlns="http://www.w3.org/2000/svg">
<path d="M10.207 0.841919L954.071 0.841919L968.799 339.861L0.343505 339.861L10.207 0.841919Z" fill="#EBEBEB"/>
<mask id="mask0_157_120" style="mask-type:alpha" maskUnits="userSpaceOnUse" x="0" y="0" width="969" height="340">
<path d="M10.207 0.841919L954.071 0.841919L968.799 339.861L0.343505 339.861L10.207 0.841919Z" fill="black"/>
</mask>
<g mask="url(#mask0_157_120)">
<path d="M-585.645 56.9728C-588.647 56.9728 -591.518 56.5225 -594.258 55.6217C-596.998 54.6834 -599.156 53.4825 -600.732 52.0188L-598.649 47.6276C-597.148 48.9412 -595.234 50.0296 -592.907 50.8928C-590.58 51.756 -588.159 52.1876 -585.645 52.1876C-583.355 52.1876 -581.497 51.9249 -580.071 51.3995C-578.645 50.8741 -577.594 50.161 -576.919 49.2602C-576.243 48.322 -575.905 47.2711 -575.905 46.1076C-575.905 44.7565 -576.356 43.6681 -577.256 42.8425C-578.12 42.0168 -579.264 41.36 -580.691 40.8721C-582.079 40.3467 -583.618 39.8963 -585.307 39.521C-586.996 39.1457 -588.703 38.7141 -590.43 38.2262C-592.119 37.7007 -593.676 37.0439 -595.102 36.2558C-596.491 35.4677 -597.617 34.4168 -598.48 33.1032C-599.343 31.7521 -599.775 30.0257 -599.775 27.9239C-599.775 25.8973 -599.25 24.0395 -598.199 22.3506C-597.11 20.6242 -595.459 19.2543 -593.245 18.241C-590.993 17.1901 -588.14 16.6647 -584.688 16.6647C-582.398 16.6647 -580.128 16.9649 -577.876 17.5654C-575.624 18.1659 -573.672 19.0291 -572.021 20.1551L-573.879 24.6588C-575.568 23.5328 -577.35 22.7259 -579.227 22.238C-581.103 21.7126 -582.924 21.4499 -584.688 21.4499C-586.902 21.4499 -588.722 21.7314 -590.148 22.2943C-591.574 22.8573 -592.625 23.6079 -593.301 24.5462C-593.939 25.4844 -594.258 26.5353 -594.258 27.6988C-594.258 29.0874 -593.826 30.1946 -592.963 31.0202C-592.062 31.8459 -590.918 32.5027 -589.529 32.9906C-588.103 33.4785 -586.545 33.9289 -584.856 34.3417C-583.168 34.717 -581.479 35.1486 -579.79 35.6365C-578.063 36.1244 -576.506 36.7625 -575.117 37.5506C-573.691 38.3388 -572.546 39.3896 -571.683 40.7032C-570.82 42.0168 -570.388 43.7057 -570.388 45.7699C-570.388 47.759 -570.933 49.6168 -572.021 51.3432C-573.109 53.0321 -574.798 54.402 -577.088 55.4528C-579.339 56.4662 -582.192 56.9728 -585.645 56.9728ZM-554.888 56.5225V22.0128L-568.399 22.0128V17.1151L-535.804 17.1151V22.0128H-549.315V56.5225H-554.888ZM-512.433 56.9728C-515.435 56.9728 -518.231 56.4662 -520.821 55.4528C-523.373 54.4395 -525.587 53.0321 -527.464 51.2306C-529.34 49.3916 -530.804 47.2523 -531.855 44.8128C-532.906 42.3733 -533.431 39.7086 -533.431 36.8188C-533.431 33.9289 -532.906 31.2642 -531.855 28.8247C-530.804 26.3852 -529.34 24.2647 -527.464 22.4632C-525.587 20.6242 -523.373 19.198 -520.821 18.1847C-518.269 17.1714 -515.473 16.6647 -512.433 16.6647C-509.43 16.6647 -506.672 17.1714 -504.157 18.1847C-501.605 19.1605 -499.391 20.5679 -497.514 22.4069C-495.6 24.2084 -494.136 26.3289 -493.123 28.7684C-492.072 31.2079 -491.547 33.8914 -491.547 36.8188C-491.547 39.7462 -492.072 42.4296 -493.123 44.8691C-494.136 47.3086 -495.6 49.4479 -497.514 51.2869C-499.391 53.0884 -501.605 54.4958 -504.157 55.5091C-506.672 56.4849 -509.43 56.9728 -512.433 56.9728ZM-512.433 51.9625C-510.256 51.9625 -508.248 51.5872 -506.409 50.8365C-504.532 50.0859 -502.919 49.0351 -501.567 47.6839C-500.179 46.2953 -499.109 44.6815 -498.359 42.8425C-497.57 41.0035 -497.176 38.9955 -497.176 36.8188C-497.176 34.642 -497.57 32.6341 -498.359 30.7951C-499.109 28.956 -500.179 27.361 -501.567 26.0099C-502.919 24.6212 -504.532 23.5516 -506.409 22.801C-508.248 22.0504 -510.256 21.6751 -512.433 21.6751C-514.647 21.6751 -516.692 22.0504 -518.569 22.801C-520.408 23.5516 -522.022 24.6212 -523.41 26.0099C-524.799 27.361 -525.887 28.956 -526.676 30.7951C-527.426 32.6341 -527.801 34.642 -527.801 36.8188C-527.801 38.9955 -527.426 41.0035 -526.676 42.8425C-525.887 44.6815 -524.799 46.2953 -523.41 47.6839C-522.022 49.0351 -520.408 50.0859 -518.569 50.8365C-516.692 51.5872 -514.647 51.9625 -512.433 51.9625ZM-482.942 56.5225V17.1151L-467.573 17.1151C-464.12 17.1151 -461.174 17.6593 -458.735 18.7477C-456.295 19.836 -454.419 21.4123 -453.105 23.4765C-451.792 25.5407 -451.135 27.999 -451.135 30.8514C-451.135 33.7037 -451.792 36.162 -453.105 38.2262C-454.419 40.2528 -456.295 41.8291 -458.735 42.9551C-461.174 44.0435 -464.12 44.5876 -467.573 44.5876H-479.846L-477.313 41.9417V56.5225H-482.942ZM-477.313 42.5047L-479.846 39.6899H-467.742C-464.139 39.6899 -461.418 38.9205 -459.579 37.3817C-457.703 35.843 -456.764 33.6662 -456.764 30.8514C-456.764 28.0365 -457.703 25.8598 -459.579 24.321C-461.418 22.7822 -464.139 22.0128 -467.742 22.0128L-479.846 22.0128L-477.313 19.198V42.5047ZM-442.821 44.081L-443.834 17.1151H-437.473L-438.542 44.081H-442.821ZM-440.625 56.8602C-441.676 56.8602 -442.558 56.5037 -443.271 55.7906C-443.984 55.0775 -444.341 54.2331 -444.341 53.2573C-444.341 52.2064 -443.984 51.3432 -443.271 50.6676C-442.558 49.9921 -441.676 49.6543 -440.625 49.6543C-439.575 49.6543 -438.711 49.9921 -438.036 50.6676C-437.36 51.3432 -437.022 52.2064 -437.022 53.2573C-437.022 54.2331 -437.36 55.0775 -438.036 55.7906C-438.711 56.5037 -439.575 56.8602 -440.625 56.8602ZM-427.757 44.081L-428.771 17.1151L-422.409 17.1151L-423.479 44.081H-427.757ZM-425.562 56.8602C-426.613 56.8602 -427.495 56.5037 -428.208 55.7906C-428.921 55.0775 -429.277 54.2331 -429.277 53.2573C-429.277 52.2064 -428.921 51.3432 -428.208 50.6676C-427.495 49.9921 -426.613 49.6543 -425.562 49.6543C-424.511 49.6543 -423.648 49.9921 -422.972 50.6676C-422.297 51.3432 -421.959 52.2064 -421.959 53.2573C-421.959 54.2331 -422.297 55.0775 -422.972 55.7906C-423.648 56.5037 -424.511 56.8602 -425.562 56.8602ZM-412.694 44.081L-413.707 17.1151H-407.345L-408.415 44.081H-412.694ZM-410.498 56.8602C-411.549 56.8602 -412.431 56.5037 -413.144 55.7906C-413.857 55.0775 -414.214 54.2331 -414.214 53.2573C-414.214 52.2064 -413.857 51.3432 -413.144 50.6676C-412.431 49.9921 -411.549 49.6543 -410.498 49.6543C-409.447 49.6543 -408.584 49.9921 -407.908 50.6676C-407.233 51.3432 -406.895 52.2064 -406.895 53.2573C-406.895 54.2331 -407.233 55.0775 -407.908 55.7906C-408.584 56.5037 -409.447 56.8602 -410.498 56.8602ZM-370.52 56.9728C-373.523 56.9728 -376.394 56.5225 -379.134 55.6217C-381.873 54.6834 -384.031 53.4825 -385.608 52.0188L-383.525 47.6276C-382.023 48.9412 -380.109 50.0296 -377.782 50.8928C-375.456 51.756 -373.035 52.1876 -370.52 52.1876C-368.231 52.1876 -366.373 51.9249 -364.947 51.3995C-363.521 50.8741 -362.47 50.161 -361.794 49.2602C-361.119 48.322 -360.781 47.2711 -360.781 46.1076C-360.781 44.7565 -361.231 43.6681 -362.132 42.8425C-362.995 42.0168 -364.14 41.36 -365.566 40.8721C-366.955 40.3467 -368.494 39.8963 -370.182 39.521C-371.871 39.1457 -373.579 38.7141 -375.305 38.2262C-376.994 37.7007 -378.552 37.0439 -379.978 36.2558C-381.367 35.4677 -382.493 34.4168 -383.356 33.1032C-384.219 31.7521 -384.651 30.0257 -384.651 27.9239C-384.651 25.8973 -384.125 24.0395 -383.074 22.3506C-381.986 20.6242 -380.335 19.2543 -378.12 18.241C-375.868 17.1901 -373.016 16.6647 -369.563 16.6647C-367.274 16.6647 -365.003 16.9649 -362.751 17.5654C-360.499 18.1659 -358.548 19.0291 -356.897 20.1551L-358.754 24.6588C-360.443 23.5328 -362.226 22.7259 -364.102 22.238C-365.979 21.7126 -367.799 21.4499 -369.563 21.4499C-371.778 21.4499 -373.598 21.7314 -375.024 22.2943C-376.45 22.8573 -377.501 23.6079 -378.177 24.5462C-378.815 25.4844 -379.134 26.5353 -379.134 27.6988C-379.134 29.0874 -378.702 30.1946 -377.839 31.0202C-376.938 31.8459 -375.793 32.5027 -374.405 32.9906C-372.979 33.4785 -371.421 33.9289 -369.732 34.3417C-368.043 34.717 -366.354 35.1486 -364.665 35.6365C-362.939 36.1244 -361.381 36.7625 -359.993 37.5506C-358.567 38.3388 -357.422 39.3896 -356.559 40.7032C-355.696 42.0168 -355.264 43.7057 -355.264 45.7699C-355.264 47.759 -355.808 49.6168 -356.897 51.3432C-357.985 53.0321 -359.674 54.402 -361.963 55.4528C-364.215 56.4662 -367.067 56.9728 -370.52 56.9728ZM-339.764 56.5225V22.0128L-353.275 22.0128V17.1151L-320.68 17.1151V22.0128L-334.191 22.0128V56.5225H-339.764ZM-297.308 56.9728C-300.311 56.9728 -303.107 56.4662 -305.696 55.4528C-308.248 54.4395 -310.463 53.0321 -312.339 51.2306C-314.216 49.3916 -315.68 47.2523 -316.73 44.8128C-317.781 42.3733 -318.307 39.7086 -318.307 36.8188C-318.307 33.9289 -317.781 31.2642 -316.73 28.8247C-315.68 26.3852 -314.216 24.2647 -312.339 22.4632C-310.463 20.6242 -308.248 19.198 -305.696 18.1847C-303.144 17.1714 -300.348 16.6647 -297.308 16.6647C-294.306 16.6647 -291.547 17.1714 -289.033 18.1847C-286.481 19.1605 -284.266 20.5679 -282.39 22.4069C-280.476 24.2084 -279.012 26.3289 -277.999 28.7684C-276.948 31.2079 -276.422 33.8914 -276.422 36.8188C-276.422 39.7462 -276.948 42.4296 -277.999 44.8691C-279.012 47.3086 -280.476 49.4479 -282.39 51.2869C-284.266 53.0884 -286.481 54.4958 -289.033 55.5091C-291.547 56.4849 -294.306 56.9728 -297.308 56.9728ZM-297.308 51.9625C-295.131 51.9625 -293.124 51.5872 -291.285 50.8365C-289.408 50.0859 -287.794 49.0351 -286.443 47.6839C-285.054 46.2953 -283.985 44.6815 -283.234 42.8425C-282.446 41.0035 -282.052 38.9955 -282.052 36.8188C-282.052 34.642 -282.446 32.6341 -283.234 30.7951C-283.985 28.956 -285.054 27.361 -286.443 26.0099C-287.794 24.6212 -289.408 23.5516 -291.285 22.801C-293.124 22.0504 -295.131 21.6751 -297.308 21.6751C-299.523 21.6751 -301.568 22.0504 -303.445 22.801C-305.284 23.5516 -306.897 24.6212 -308.286 26.0099C-309.675 27.361 -310.763 28.956 -311.551 30.7951C-312.302 32.6341 -312.677 34.642 -312.677 36.8188C-312.677 38.9955 -312.302 41.0035 -311.551 42.8425C-310.763 44.6815 -309.675 46.2953 -308.286 47.6839C-306.897 49.0351 -305.284 50.0859 -303.445 50.8365C-301.568 51.5872 -299.523 51.9625 -297.308 51.9625ZM-267.818 56.5225V17.1151H-252.449C-248.996 17.1151 -246.05 17.6593 -243.61 18.7477C-241.171 19.836 -239.294 21.4123 -237.981 23.4765C-236.667 25.5407 -236.01 27.999 -236.01 30.8514C-236.01 33.7037 -236.667 36.162 -237.981 38.2262C-239.294 40.2528 -241.171 41.8291 -243.61 42.9551C-246.05 44.0435 -248.996 44.5876 -252.449 44.5876H-264.721L-262.188 41.9417V56.5225H-267.818ZM-262.188 42.5047L-264.721 39.6899H-252.618C-249.015 39.6899 -246.294 38.9205 -244.455 37.3817C-242.578 35.843 -241.64 33.6662 -241.64 30.8514C-241.64 28.0365 -242.578 25.8598 -244.455 24.321C-246.294 22.7822 -249.015 22.0128 -252.618 22.0128L-264.721 22.0128L-262.188 19.198V42.5047ZM-227.697 44.081L-228.71 17.1151H-222.348L-223.418 44.081H-227.697ZM-225.501 56.8602C-226.552 56.8602 -227.434 56.5037 -228.147 55.7906C-228.86 55.0775 -229.217 54.2331 -229.217 53.2573C-229.217 52.2064 -228.86 51.3432 -228.147 50.6676C-227.434 49.9921 -226.552 49.6543 -225.501 49.6543C-224.45 49.6543 -223.587 49.9921 -222.911 50.6676C-222.236 51.3432 -221.898 52.2064 -221.898 53.2573C-221.898 54.2331 -222.236 55.0775 -222.911 55.7906C-223.587 56.5037 -224.45 56.8602 -225.501 56.8602ZM-212.633 44.081L-213.646 17.1151H-207.285L-208.354 44.081H-212.633ZM-210.437 56.8602C-211.488 56.8602 -212.37 56.5037 -213.083 55.7906C-213.796 55.0775 -214.153 54.2331 -214.153 53.2573C-214.153 52.2064 -213.796 51.3432 -213.083 50.6676C-212.37 49.9921 -211.488 49.6543 -210.437 49.6543C-209.386 49.6543 -208.523 49.9921 -207.848 50.6676C-207.172 51.3432 -206.834 52.2064 -206.834 53.2573C-206.834 54.2331 -207.172 55.0775 -207.848 55.7906C-208.523 56.5037 -209.386 56.8602 -210.437 56.8602ZM-197.569 44.081L-198.583 17.1151H-192.221L-193.291 44.081L-197.569 44.081ZM-195.374 56.8602C-196.425 56.8602 -197.307 56.5037 -198.02 55.7906C-198.733 55.0775 -199.089 54.2331 -199.089 53.2573C-199.089 52.2064 -198.733 51.3432 -198.02 50.6676C-197.307 49.9921 -196.425 49.6543 -195.374 49.6543C-194.323 49.6543 -193.46 49.9921 -192.784 50.6676C-192.109 51.3432 -191.771 52.2064 -191.771 53.2573C-191.771 54.2331 -192.109 55.0775 -192.784 55.7906C-193.46 56.5037 -194.323 56.8602 -195.374 56.8602ZM-170.514 56.9728C-173.517 56.9728 -176.388 56.5225 -179.128 55.6217C-181.868 54.6834 -184.026 53.4825 -185.602 52.0188L-183.519 47.6276C-182.018 48.9412 -180.104 50.0296 -177.777 50.8928C-175.45 51.756 -173.029 52.1876 -170.514 52.1876C-168.225 52.1876 -166.367 51.9249 -164.941 51.3995C-163.515 50.8741 -162.464 50.161 -161.789 49.2602C-161.113 48.322 -160.775 47.2711 -160.775 46.1076C-160.775 44.7565 -161.226 43.6681 -162.126 42.8425C-162.99 42.0168 -164.134 41.36 -165.56 40.8721C-166.949 40.3467 -168.488 39.8963 -170.177 39.521C-171.866 39.1457 -173.573 38.7141 -175.3 38.2262C-176.989 37.7007 -178.546 37.0439 -179.972 36.2558C-181.361 35.4677 -182.487 34.4168 -183.35 33.1032C-184.213 31.7521 -184.645 30.0257 -184.645 27.9239C-184.645 25.8973 -184.119 24.0395 -183.069 22.3506C-181.98 20.6242 -180.329 19.2543 -178.114 18.241C-175.863 17.1901 -173.01 16.6647 -169.557 16.6647C-167.268 16.6647 -164.997 16.9649 -162.746 17.5654C-160.494 18.1659 -158.542 19.0291 -156.891 20.1551L-158.749 24.6588C-160.437 23.5328 -162.22 22.7259 -164.097 22.238C-165.973 21.7126 -167.793 21.4499 -169.557 21.4499C-171.772 21.4499 -173.592 21.7314 -175.018 22.2943C-176.444 22.8573 -177.495 23.6079 -178.171 24.5462C-178.809 25.4844 -179.128 26.5353 -179.128 27.6988C-179.128 29.0874 -178.696 30.1946 -177.833 31.0202C-176.932 31.8459 -175.788 32.5027 -174.399 32.9906C-172.973 33.4785 -171.415 33.9289 -169.726 34.3417C-168.037 34.717 -166.349 35.1486 -164.66 35.6365C-162.933 36.1244 -161.376 36.7625 -159.987 37.5506C-158.561 38.3388 -157.416 39.3896 -156.553 40.7032C-155.69 42.0168 -155.258 43.7057 -155.258 45.7699C-155.258 47.759 -155.802 49.6168 -156.891 51.3432C-157.979 53.0321 -159.668 54.402 -161.957 55.4528C-164.209 56.4662 -167.062 56.9728 -170.514 56.9728ZM-139.758 56.5225V22.0128L-153.269 22.0128V17.1151L-120.674 17.1151V22.0128L-134.185 22.0128V56.5225H-139.758ZM-97.3025 56.9728C-100.305 56.9728 -103.101 56.4662 -105.691 55.4528C-108.243 54.4395 -110.457 53.0321 -112.334 51.2306C-114.21 49.3916 -115.674 47.2523 -116.725 44.8128C-117.776 42.3733 -118.301 39.7086 -118.301 36.8188C-118.301 33.9289 -117.776 31.2642 -116.725 28.8247C-115.674 26.3852 -114.21 24.2647 -112.334 22.4632C-110.457 20.6242 -108.243 19.198 -105.691 18.1847C-103.139 17.1714 -100.342 16.6647 -97.3025 16.6647C-94.3 16.6647 -91.5415 17.1714 -89.0269 18.1847C-86.4748 19.1605 -84.2605 20.5679 -82.384 22.4069C-80.4699 24.2084 -79.0062 26.3289 -77.9929 28.7684C-76.942 31.2079 -76.4166 33.8914 -76.4166 36.8188C-76.4166 39.7462 -76.942 42.4296 -77.9929 44.8691C-79.0062 47.3086 -80.4699 49.4479 -82.384 51.2869C-84.2605 53.0884 -86.4748 54.4958 -89.0269 55.5091C-91.5415 56.4849 -94.3 56.9728 -97.3025 56.9728ZM-97.3025 51.9625C-95.1257 51.9625 -93.1178 51.5872 -91.2788 50.8365C-89.4023 50.0859 -87.7884 49.0351 -86.4373 47.6839C-85.0487 46.2953 -83.979 44.6815 -83.2284 42.8425C-82.4403 41.0035 -82.0462 38.9955 -82.0462 36.8188C-82.0462 34.642 -82.4403 32.6341 -83.2284 30.7951C-83.979 28.956 -85.0487 27.361 -86.4373 26.0099C-87.7884 24.6212 -89.4023 23.5516 -91.2788 22.801C-93.1178 22.0504 -95.1257 21.6751 -97.3025 21.6751C-99.5168 21.6751 -101.562 22.0504 -103.439 22.801C-105.278 23.5516 -106.892 24.6212 -108.28 26.0099C-109.669 27.361 -110.757 28.956 -111.545 30.7951C-112.296 32.6341 -112.671 34.642 -112.671 36.8188C-112.671 38.9955 -112.296 41.0035 -111.545 42.8425C-110.757 44.6815 -109.669 46.2953 -108.28 47.6839C-106.892 49.0351 -105.278 50.0859 -103.439 50.8365C-101.562 51.5872 -99.5168 51.9625 -97.3025 51.9625ZM-67.812 56.5225V17.1151H-52.4431C-48.9903 17.1151 -46.0441 17.6593 -43.6046 18.7477C-41.1651 19.836 -39.2886 21.4123 -37.975 23.4765C-36.6614 25.5407 -36.0046 27.999 -36.0046 30.8514C-36.0046 33.7037 -36.6614 36.162 -37.975 38.2262C-39.2886 40.2528 -41.1651 41.8291 -43.6046 42.9551C-46.0441 44.0435 -48.9903 44.5876 -52.4431 44.5876H-64.7157L-62.1824 41.9417V56.5225H-67.812ZM-62.1824 42.5047L-64.7157 39.6899H-52.612C-49.0091 39.6899 -46.2881 38.9205 -44.4491 37.3817C-42.5725 35.843 -41.6343 33.6662 -41.6343 30.8514C-41.6343 28.0365 -42.5725 25.8598 -44.4491 24.321C-46.2881 22.7822 -49.0091 22.0128 -52.612 22.0128H-64.7157L-62.1824 19.198V42.5047ZM-27.6908 44.081L-28.7042 17.1151H-22.3427L-23.4123 44.081H-27.6908ZM-25.4953 56.8602C-26.5461 56.8602 -27.4281 56.5037 -28.1412 55.7906C-28.8543 55.0775 -29.2108 54.2331 -29.2108 53.2573C-29.2108 52.2064 -28.8543 51.3432 -28.1412 50.6676C-27.4281 49.9921 -26.5461 49.6543 -25.4953 49.6543C-24.4444 49.6543 -23.5812 49.9921 -22.9056 50.6676C-22.2301 51.3432 -21.8923 52.2064 -21.8923 53.2573C-21.8923 54.2331 -22.2301 55.0775 -22.9056 55.7906C-23.5812 56.5037 -24.4444 56.8602 -25.4953 56.8602ZM-12.6272 44.081L-13.6405 17.1151H-7.27903L-8.34866 44.081H-12.6272ZM-10.4316 56.8602C-11.4825 56.8602 -12.3645 56.5037 -13.0775 55.7906C-13.7906 55.0775 -14.1472 54.2331 -14.1472 53.2573C-14.1472 52.2064 -13.7906 51.3432 -13.0775 50.6676C-12.3645 49.9921 -11.4825 49.6543 -10.4316 49.6543C-9.38075 49.6543 -8.51754 49.9921 -7.84199 50.6676C-7.16643 51.3432 -6.82865 52.2064 -6.82865 53.2573C-6.82865 54.2331 -7.16643 55.0775 -7.84199 55.7906C-8.51754 56.5037 -9.38075 56.8602 -10.4316 56.8602ZM2.43649 44.081L1.42315 17.1151L7.78463 17.1151L6.715 44.081H2.43649ZM4.63204 56.8602C3.58118 56.8602 2.6992 56.5037 1.98612 55.7906C1.27303 55.0775 0.916487 54.2331 0.916487 53.2573C0.916487 52.2064 1.27303 51.3432 1.98612 50.6676C2.6992 49.9921 3.58118 49.6543 4.63204 49.6543C5.68291 49.6543 6.54612 49.9921 7.22167 50.6676C7.89723 51.3432 8.235 52.2064 8.235 53.2573C8.235 54.2331 7.89723 55.0775 7.22167 55.7906C6.54612 56.5037 5.68291 56.8602 4.63204 56.8602ZM44.6099 56.9728C41.6074 56.9728 38.7363 56.5225 35.9966 55.6217C33.2568 54.6834 31.0988 53.4825 29.5225 52.0188L31.6055 47.6276C33.1067 48.9412 35.0208 50.0296 37.3477 50.8928C39.6746 51.756 42.0953 52.1876 44.6099 52.1876C46.8993 52.1876 48.7571 51.9249 50.1832 51.3995C51.6094 50.8741 52.6603 50.161 53.3358 49.2602C54.0114 48.322 54.3492 47.2711 54.3492 46.1076C54.3492 44.7565 53.8988 43.6681 52.9981 42.8425C52.1348 42.0168 50.9902 41.36 49.564 40.8721C48.1753 40.3467 46.6366 39.8963 44.9477 39.521C43.2588 39.1457 41.5511 38.7141 39.8247 38.2262C38.1358 37.7007 36.5783 37.0439 35.1521 36.2558C33.7635 35.4677 32.6376 34.4168 31.7744 33.1032C30.9111 31.7521 30.4795 30.0257 30.4795 27.9239C30.4795 25.8973 31.005 24.0395 32.0558 22.3506C33.1442 20.6242 34.7956 19.2543 37.0099 18.241C39.2618 17.1901 42.1141 16.6647 45.5669 16.6647C47.8563 16.6647 50.1269 16.9649 52.3788 17.5654C54.6306 18.1659 56.5823 19.0291 58.2336 20.1551L56.3758 24.6588C54.6869 23.5328 52.9042 22.7259 51.0277 22.238C49.1511 21.7126 47.3309 21.4499 45.5669 21.4499C43.3526 21.4499 41.5324 21.7314 40.1062 22.2943C38.68 22.8573 37.6292 23.6079 36.9536 24.5462C36.3156 25.4844 35.9966 26.5353 35.9966 27.6988C35.9966 29.0874 36.4282 30.1946 37.2914 31.0202C38.1921 31.8459 39.3368 32.5027 40.7255 32.9906C42.1516 33.4785 43.7092 33.9289 45.3981 34.3417C47.0869 34.717 48.7758 35.1486 50.4647 35.6365C52.1911 36.1244 53.7487 36.7625 55.1373 37.5506C56.5635 38.3388 57.7082 39.3896 58.5714 40.7032C59.4346 42.0168 59.8662 43.7057 59.8662 45.7699C59.8662 47.759 59.322 49.6168 58.2336 51.3432C57.1452 53.0321 55.4563 54.402 53.1669 55.4528C50.9151 56.4662 48.0627 56.9728 44.6099 56.9728ZM75.3661 56.5225V22.0128L61.855 22.0128V17.1151L94.4506 17.1151V22.0128L80.9394 22.0128V56.5225L75.3661 56.5225ZM117.822 56.9728C114.819 56.9728 112.023 56.4662 109.434 55.4528C106.882 54.4395 104.667 53.0321 102.791 51.2306C100.914 49.3916 99.4505 47.2523 98.3997 44.8128C97.3488 42.3733 96.8234 39.7086 96.8234 36.8188C96.8234 33.9289 97.3488 31.2642 98.3997 28.8247C99.4505 26.3852 100.914 24.2647 102.791 22.4632C104.667 20.6242 106.882 19.198 109.434 18.1847C111.986 17.1714 114.782 16.6647 117.822 16.6647C120.824 16.6647 123.583 17.1714 126.097 18.1847C128.65 19.1605 130.864 20.5679 132.74 22.4069C134.654 24.2084 136.118 26.3289 137.132 28.7684C138.182 31.2079 138.708 33.8914 138.708 36.8188C138.708 39.7462 138.182 42.4296 137.132 44.8691C136.118 47.3086 134.654 49.4479 132.74 51.2869C130.864 53.0884 128.65 54.4958 126.097 55.5091C123.583 56.4849 120.824 56.9728 117.822 56.9728ZM117.822 51.9625C119.999 51.9625 122.007 51.5872 123.846 50.8365C125.722 50.0859 127.336 49.0351 128.687 47.6839C130.076 46.2953 131.145 44.6815 131.896 42.8425C132.684 41.0035 133.078 38.9955 133.078 36.8188C133.078 34.642 132.684 32.6341 131.896 30.7951C131.145 28.956 130.076 27.361 128.687 26.0099C127.336 24.6212 125.722 23.5516 123.846 22.801C122.007 22.0504 119.999 21.6751 117.822 21.6751C115.608 21.6751 113.562 22.0504 111.686 22.801C109.847 23.5516 108.233 24.6212 106.844 26.0099C105.455 27.361 104.367 28.956 103.579 30.7951C102.828 32.6341 102.453 34.642 102.453 36.8188C102.453 38.9955 102.828 41.0035 103.579 42.8425C104.367 44.6815 105.455 46.2953 106.844 47.6839C108.233 49.0351 109.847 50.0859 111.686 50.8365C113.562 51.5872 115.608 51.9625 117.822 51.9625ZM147.312 56.5225V17.1151L162.681 17.1151C166.134 17.1151 169.08 17.6593 171.52 18.7477C173.959 19.836 175.836 21.4123 177.149 23.4765C178.463 25.5407 179.12 27.999 179.12 30.8514C179.12 33.7037 178.463 36.162 177.149 38.2262C175.836 40.2528 173.959 41.8291 171.52 42.9551C169.08 44.0435 166.134 44.5876 162.681 44.5876L150.409 44.5876L152.942 41.9417V56.5225H147.312ZM152.942 42.5047L150.409 39.6899L162.512 39.6899C166.115 39.6899 168.836 38.9205 170.675 37.3817C172.552 35.843 173.49 33.6662 173.49 30.8514C173.49 28.0365 172.552 25.8598 170.675 24.321C168.836 22.7822 166.115 22.0128 162.512 22.0128H150.409L152.942 19.198V42.5047ZM187.434 44.081L186.42 17.1151L192.782 17.1151L191.712 44.081H187.434ZM189.629 56.8602C188.578 56.8602 187.696 56.5037 186.983 55.7906C186.27 55.0775 185.914 54.2331 185.914 53.2573C185.914 52.2064 186.27 51.3432 186.983 50.6676C187.696 49.9921 188.578 49.6543 189.629 49.6543C190.68 49.6543 191.543 49.9921 192.219 50.6676C192.894 51.3432 193.232 52.2064 193.232 53.2573C193.232 54.2331 192.894 55.0775 192.219 55.7906C191.543 56.5037 190.68 56.8602 189.629 56.8602ZM202.497 44.081L201.484 17.1151H207.845L206.776 44.081H202.497ZM204.693 56.8602C203.642 56.8602 202.76 56.5037 202.047 55.7906C201.334 55.0775 200.977 54.2331 200.977 53.2573C200.977 52.2064 201.334 51.3432 202.047 50.6676C202.76 49.9921 203.642 49.6543 204.693 49.6543C205.744 49.6543 206.607 49.9921 207.282 50.6676C207.958 51.3432 208.296 52.2064 208.296 53.2573C208.296 54.2331 207.958 55.0775 207.282 55.7906C206.607 56.5037 205.744 56.8602 204.693 56.8602ZM217.561 44.081L216.548 17.1151H222.909L221.839 44.081H217.561ZM219.756 56.8602C218.706 56.8602 217.824 56.5037 217.111 55.7906C216.397 55.0775 216.041 54.2331 216.041 53.2573C216.041 52.2064 216.397 51.3432 217.111 50.6676C217.824 49.9921 218.706 49.6543 219.756 49.6543C220.807 49.6543 221.671 49.9921 222.346 50.6676C223.022 51.3432 223.359 52.2064 223.359 53.2573C223.359 54.2331 223.022 55.0775 222.346 55.7906C221.671 56.5037 220.807 56.8602 219.756 56.8602Z" fill="black"/>
<path d="M259.734 56.9728C256.732 56.9728 253.861 56.5225 251.121 55.6217C248.381 54.6834 246.223 53.4825 244.647 52.0188L246.73 47.6276C248.231 48.9412 250.145 50.0296 252.472 50.8928C254.799 51.756 257.22 52.1876 259.734 52.1876C262.024 52.1876 263.881 51.9249 265.308 51.3995C266.734 50.8741 267.785 50.161 268.46 49.2602C269.136 48.322 269.473 47.2711 269.473 46.1076C269.473 44.7565 269.023 43.6681 268.122 42.8425C267.259 42.0168 266.114 41.36 264.688 40.8721C263.3 40.3467 261.761 39.8963 260.072 39.521C258.383 39.1457 256.675 38.7141 254.949 38.2262C253.26 37.7007 251.703 37.0439 250.276 36.2558C248.888 35.4677 247.762 34.4168 246.899 33.1032C246.035 31.7521 245.604 30.0257 245.604 27.9239C245.604 25.8973 246.129 24.0395 247.18 22.3506C248.269 20.6242 249.92 19.2543 252.134 18.241C254.386 17.1901 257.238 16.6647 260.691 16.6647C262.981 16.6647 265.251 16.9649 267.503 17.5654C269.755 18.1659 271.707 19.0291 273.358 20.1551L271.5 24.6588C269.811 23.5328 268.029 22.7259 266.152 22.238C264.275 21.7126 262.455 21.4499 260.691 21.4499C258.477 21.4499 256.657 21.7314 255.231 22.2943C253.804 22.8573 252.753 23.6079 252.078 24.5462C251.44 25.4844 251.121 26.5353 251.121 27.6988C251.121 29.0874 251.553 30.1946 252.416 31.0202C253.316 31.8459 254.461 32.5027 255.85 32.9906C257.276 33.4785 258.833 33.9289 260.522 34.3417C262.211 34.717 263.9 35.1486 265.589 35.6365C267.315 36.1244 268.873 36.7625 270.262 37.5506C271.688 38.3388 272.833 39.3896 273.696 40.7032C274.559 42.0168 274.991 43.7057 274.991 45.7699C274.991 47.759 274.446 49.6168 273.358 51.3432C272.27 53.0321 270.581 54.402 268.291 55.4528C266.039 56.4662 263.187 56.9728 259.734 56.9728ZM290.491 56.5225V22.0128L276.979 22.0128V17.1151L309.575 17.1151V22.0128L296.064 22.0128V56.5225H290.491ZM332.946 56.9728C329.944 56.9728 327.148 56.4662 324.558 55.4528C322.006 54.4395 319.792 53.0321 317.915 51.2306C316.039 49.3916 314.575 47.2523 313.524 44.8128C312.473 42.3733 311.948 39.7086 311.948 36.8188C311.948 33.9289 312.473 31.2642 313.524 28.8247C314.575 26.3852 316.039 24.2647 317.915 22.4632C319.792 20.6242 322.006 19.198 324.558 18.1847C327.11 17.1714 329.906 16.6647 332.946 16.6647C335.949 16.6647 338.707 17.1714 341.222 18.1847C343.774 19.1605 345.988 20.5679 347.865 22.4069C349.779 24.2084 351.243 26.3289 352.256 28.7684C353.307 31.2079 353.832 33.8914 353.832 36.8188C353.832 39.7462 353.307 42.4296 352.256 44.8691C351.243 47.3086 349.779 49.4479 347.865 51.2869C345.988 53.0884 343.774 54.4958 341.222 55.5091C338.707 56.4849 335.949 56.9728 332.946 56.9728ZM332.946 51.9625C335.123 51.9625 337.131 51.5872 338.97 50.8365C340.847 50.0859 342.46 49.0351 343.811 47.6839C345.2 46.2953 346.27 44.6815 347.02 42.8425C347.809 41.0035 348.203 38.9955 348.203 36.8188C348.203 34.642 347.809 32.6341 347.02 30.7951C346.27 28.956 345.2 27.361 343.811 26.0099C342.46 24.6212 340.847 23.5516 338.97 22.801C337.131 22.0504 335.123 21.6751 332.946 21.6751C330.732 21.6751 328.687 22.0504 326.81 22.801C324.971 23.5516 323.357 24.6212 321.969 26.0099C320.58 27.361 319.491 28.956 318.703 30.7951C317.953 32.6341 317.577 34.642 317.577 36.8188C317.577 38.9955 317.953 41.0035 318.703 42.8425C319.491 44.6815 320.58 46.2953 321.969 47.6839C323.357 49.0351 324.971 50.0859 326.81 50.8365C328.687 51.5872 330.732 51.9625 332.946 51.9625ZM362.437 56.5225V17.1151H377.806C381.258 17.1151 384.205 17.6593 386.644 18.7477C389.084 19.836 390.96 21.4123 392.274 23.4765C393.587 25.5407 394.244 27.999 394.244 30.8514C394.244 33.7037 393.587 36.162 392.274 38.2262C390.96 40.2528 389.084 41.8291 386.644 42.9551C384.205 44.0435 381.258 44.5876 377.806 44.5876H365.533L368.066 41.9417V56.5225H362.437ZM368.066 42.5047L365.533 39.6899H377.637C381.24 39.6899 383.961 38.9205 385.8 37.3817C387.676 35.843 388.614 33.6662 388.614 30.8514C388.614 28.0365 387.676 25.8598 385.8 24.321C383.961 22.7822 381.24 22.0128 377.637 22.0128H365.533L368.066 19.198V42.5047ZM402.558 44.081L401.545 17.1151H407.906L406.836 44.081H402.558ZM404.754 56.8602C403.703 56.8602 402.821 56.5037 402.108 55.7906C401.394 55.0775 401.038 54.2331 401.038 53.2573C401.038 52.2064 401.394 51.3432 402.108 50.6676C402.821 49.9921 403.703 49.6543 404.754 49.6543C405.804 49.6543 406.668 49.9921 407.343 50.6676C408.019 51.3432 408.356 52.2064 408.356 53.2573C408.356 54.2331 408.019 55.0775 407.343 55.7906C406.668 56.5037 405.804 56.8602 404.754 56.8602ZM417.622 44.081L416.608 17.1151L422.97 17.1151L421.9 44.081H417.622ZM419.817 56.8602C418.766 56.8602 417.884 56.5037 417.171 55.7906C416.458 55.0775 416.102 54.2331 416.102 53.2573C416.102 52.2064 416.458 51.3432 417.171 50.6676C417.884 49.9921 418.766 49.6543 419.817 49.6543C420.868 49.6543 421.731 49.9921 422.407 50.6676C423.082 51.3432 423.42 52.2064 423.42 53.2573C423.42 54.2331 423.082 55.0775 422.407 55.7906C421.731 56.5037 420.868 56.8602 419.817 56.8602ZM432.685 44.081L431.672 17.1151H438.033L436.964 44.081H432.685ZM434.881 56.8602C433.83 56.8602 432.948 56.5037 432.235 55.7906C431.522 55.0775 431.165 54.2331 431.165 53.2573C431.165 52.2064 431.522 51.3432 432.235 50.6676C432.948 49.9921 433.83 49.6543 434.881 49.6543C435.932 49.6543 436.795 49.9921 437.47 50.6676C438.146 51.3432 438.484 52.2064 438.484 53.2573C438.484 54.2331 438.146 55.0775 437.47 55.7906C436.795 56.5037 435.932 56.8602 434.881 56.8602ZM474.859 56.9728C471.856 56.9728 468.985 56.5225 466.245 55.6217C463.506 54.6834 461.348 53.4825 459.771 52.0188L461.854 47.6276C463.355 48.9412 465.27 50.0296 467.596 50.8928C469.923 51.756 472.344 52.1876 474.859 52.1876C477.148 52.1876 479.006 51.9249 480.432 51.3995C481.858 50.8741 482.909 50.161 483.585 49.2602C484.26 48.322 484.598 47.2711 484.598 46.1076C484.598 44.7565 484.148 43.6681 483.247 42.8425C482.384 42.0168 481.239 41.36 479.813 40.8721C478.424 40.3467 476.885 39.8963 475.196 39.521C473.508 39.1457 471.8 38.7141 470.074 38.2262C468.385 37.7007 466.827 37.0439 465.401 36.2558C464.012 35.4677 462.886 34.4168 462.023 33.1032C461.16 31.7521 460.728 30.0257 460.728 27.9239C460.728 25.8973 461.254 24.0395 462.305 22.3506C463.393 20.6242 465.044 19.2543 467.259 18.241C469.511 17.1901 472.363 16.6647 475.816 16.6647C478.105 16.6647 480.376 16.9649 482.628 17.5654C484.879 18.1659 486.831 19.0291 488.482 20.1551L486.625 24.6588C484.936 23.5328 483.153 22.7259 481.276 22.238C479.4 21.7126 477.58 21.4499 475.816 21.4499C473.601 21.4499 471.781 21.7314 470.355 22.2943C468.929 22.8573 467.878 23.6079 467.202 24.5462C466.564 25.4844 466.245 26.5353 466.245 27.6988C466.245 29.0874 466.677 30.1946 467.54 31.0202C468.441 31.8459 469.586 32.5027 470.974 32.9906C472.4 33.4785 473.958 33.9289 475.647 34.3417C477.336 34.717 479.025 35.1486 480.714 35.6365C482.44 36.1244 483.997 36.7625 485.386 37.5506C486.812 38.3388 487.957 39.3896 488.82 40.7032C489.683 42.0168 490.115 43.7057 490.115 45.7699C490.115 47.759 489.571 49.6168 488.482 51.3432C487.394 53.0321 485.705 54.402 483.416 55.4528C481.164 56.4662 478.312 56.9728 474.859 56.9728ZM505.615 56.5225V22.0128L492.104 22.0128V17.1151L524.699 17.1151V22.0128L511.188 22.0128V56.5225H505.615ZM548.071 56.9728C545.068 56.9728 542.272 56.4662 539.682 55.4528C537.13 54.4395 534.916 53.0321 533.04 51.2306C531.163 49.3916 529.699 47.2523 528.648 44.8128C527.598 42.3733 527.072 39.7086 527.072 36.8188C527.072 33.9289 527.598 31.2642 528.648 28.8247C529.699 26.3852 531.163 24.2647 533.04 22.4632C534.916 20.6242 537.13 19.198 539.682 18.1847C542.235 17.1714 545.031 16.6647 548.071 16.6647C551.073 16.6647 553.832 17.1714 556.346 18.1847C558.898 19.1605 561.113 20.5679 562.989 22.4069C564.903 24.2084 566.367 26.3289 567.38 28.7684C568.431 31.2079 568.957 33.8914 568.957 36.8188C568.957 39.7462 568.431 42.4296 567.38 44.8691C566.367 47.3086 564.903 49.4479 562.989 51.2869C561.113 53.0884 558.898 54.4958 556.346 55.5091C553.832 56.4849 551.073 56.9728 548.071 56.9728ZM548.071 51.9625C550.247 51.9625 552.255 51.5872 554.094 50.8365C555.971 50.0859 557.585 49.0351 558.936 47.6839C560.324 46.2953 561.394 44.6815 562.145 42.8425C562.933 41.0035 563.327 38.9955 563.327 36.8188C563.327 34.642 562.933 32.6341 562.145 30.7951C561.394 28.956 560.324 27.361 558.936 26.0099C557.585 24.6212 555.971 23.5516 554.094 22.801C552.255 22.0504 550.247 21.6751 548.071 21.6751C545.856 21.6751 543.811 22.0504 541.934 22.801C540.095 23.5516 538.481 24.6212 537.093 26.0099C535.704 27.361 534.616 28.956 533.828 30.7951C533.077 32.6341 532.702 34.642 532.702 36.8188C532.702 38.9955 533.077 41.0035 533.828 42.8425C534.616 44.6815 535.704 46.2953 537.093 47.6839C538.481 49.0351 540.095 50.0859 541.934 50.8365C543.811 51.5872 545.856 51.9625 548.071 51.9625ZM577.561 56.5225V17.1151L592.93 17.1151C596.383 17.1151 599.329 17.6593 601.769 18.7477C604.208 19.836 606.085 21.4123 607.398 23.4765C608.712 25.5407 609.369 27.999 609.369 30.8514C609.369 33.7037 608.712 36.162 607.398 38.2262C606.085 40.2528 604.208 41.8291 601.769 42.9551C599.329 44.0435 596.383 44.5876 592.93 44.5876L580.657 44.5876L583.191 41.9417V56.5225L577.561 56.5225ZM583.191 42.5047L580.657 39.6899L592.761 39.6899C596.364 39.6899 599.085 38.9205 600.924 37.3817C602.801 35.843 603.739 33.6662 603.739 30.8514C603.739 28.0365 602.801 25.8598 600.924 24.321C599.085 22.7822 596.364 22.0128 592.761 22.0128L580.657 22.0128L583.191 19.198V42.5047ZM617.682 44.081L616.669 17.1151H623.03L621.961 44.081L617.682 44.081ZM619.878 56.8602C618.827 56.8602 617.945 56.5037 617.232 55.7906C616.519 55.0775 616.162 54.2331 616.162 53.2573C616.162 52.2064 616.519 51.3432 617.232 50.6676C617.945 49.9921 618.827 49.6543 619.878 49.6543C620.929 49.6543 621.792 49.9921 622.467 50.6676C623.143 51.3432 623.481 52.2064 623.481 53.2573C623.481 54.2331 623.143 55.0775 622.467 55.7906C621.792 56.5037 620.929 56.8602 619.878 56.8602ZM632.746 44.081L631.733 17.1151H638.094L637.025 44.081H632.746ZM634.942 56.8602C633.891 56.8602 633.009 56.5037 632.296 55.7906C631.583 55.0775 631.226 54.2331 631.226 53.2573C631.226 52.2064 631.583 51.3432 632.296 50.6676C633.009 49.9921 633.891 49.6543 634.942 49.6543C635.992 49.6543 636.856 49.9921 637.531 50.6676C638.207 51.3432 638.545 52.2064 638.545 53.2573C638.545 54.2331 638.207 55.0775 637.531 55.7906C636.856 56.5037 635.992 56.8602 634.942 56.8602ZM647.81 44.081L646.796 17.1151H653.158L652.088 44.081H647.81ZM650.005 56.8602C648.954 56.8602 648.072 56.5037 647.359 55.7906C646.646 55.0775 646.29 54.2331 646.29 53.2573C646.29 52.2064 646.646 51.3432 647.359 50.6676C648.072 49.9921 648.954 49.6543 650.005 49.6543C651.056 49.6543 651.919 49.9921 652.595 50.6676C653.27 51.3432 653.608 52.2064 653.608 53.2573C653.608 54.2331 653.27 55.0775 652.595 55.7906C651.919 56.5037 651.056 56.8602 650.005 56.8602ZM689.983 56.9728C686.98 56.9728 684.109 56.5225 681.37 55.6217C678.63 54.6834 676.472 53.4825 674.896 52.0188L676.979 47.6276C678.48 48.9412 680.394 50.0296 682.721 50.8928C685.048 51.756 687.468 52.1876 689.983 52.1876C692.272 52.1876 694.13 51.9249 695.556 51.3995C696.982 50.8741 698.033 50.161 698.709 49.2602C699.384 48.322 699.722 47.2711 699.722 46.1076C699.722 44.7565 699.272 43.6681 698.371 42.8425C697.508 42.0168 696.363 41.36 694.937 40.8721C693.548 40.3467 692.01 39.8963 690.321 39.521C688.632 39.1457 686.924 38.7141 685.198 38.2262C683.509 37.7007 681.951 37.0439 680.525 36.2558C679.137 35.4677 678.011 34.4168 677.147 33.1032C676.284 31.7521 675.853 30.0257 675.853 27.9239C675.853 25.8973 676.378 24.0395 677.429 22.3506C678.517 20.6242 680.169 19.2543 682.383 18.241C684.635 17.1901 687.487 16.6647 690.94 16.6647C693.229 16.6647 695.5 16.9649 697.752 17.5654C700.004 18.1659 701.955 19.0291 703.607 20.1551L701.749 24.6588C700.06 23.5328 698.277 22.7259 696.401 22.238C694.524 21.7126 692.704 21.4499 690.94 21.4499C688.726 21.4499 686.905 21.7314 685.479 22.2943C684.053 22.8573 683.002 23.6079 682.327 24.5462C681.689 25.4844 681.37 26.5353 681.37 27.6988C681.37 29.0874 681.801 30.1946 682.664 31.0202C683.565 31.8459 684.71 32.5027 686.099 32.9906C687.525 33.4785 689.082 33.9289 690.771 34.3417C692.46 34.717 694.149 35.1486 695.838 35.6365C697.564 36.1244 699.122 36.7625 700.51 37.5506C701.937 38.3388 703.081 39.3896 703.944 40.7032C704.808 42.0168 705.239 43.7057 705.239 45.7699C705.239 47.759 704.695 49.6168 703.607 51.3432C702.518 53.0321 700.829 54.402 698.54 55.4528C696.288 56.4662 693.436 56.9728 689.983 56.9728ZM720.739 56.5225V22.0128L707.228 22.0128V17.1151L739.824 17.1151V22.0128L726.313 22.0128V56.5225H720.739ZM763.195 56.9728C760.193 56.9728 757.396 56.4662 754.807 55.4528C752.255 54.4395 750.04 53.0321 748.164 51.2306C746.287 49.3916 744.824 47.2523 743.773 44.8128C742.722 42.3733 742.196 39.7086 742.196 36.8188C742.196 33.9289 742.722 31.2642 743.773 28.8247C744.824 26.3852 746.287 24.2647 748.164 22.4632C750.04 20.6242 752.255 19.198 754.807 18.1847C757.359 17.1714 760.155 16.6647 763.195 16.6647C766.197 16.6647 768.956 17.1714 771.471 18.1847C774.023 19.1605 776.237 20.5679 778.114 22.4069C780.028 24.2084 781.491 26.3289 782.505 28.7684C783.555 31.2079 784.081 33.8914 784.081 36.8188C784.081 39.7462 783.555 42.4296 782.505 44.8691C781.491 47.3086 780.028 49.4479 778.114 51.2869C776.237 53.0884 774.023 54.4958 771.471 55.5091C768.956 56.4849 766.197 56.9728 763.195 56.9728ZM763.195 51.9625C765.372 51.9625 767.38 51.5872 769.219 50.8365C771.095 50.0859 772.709 49.0351 774.06 47.6839C775.449 46.2953 776.518 44.6815 777.269 42.8425C778.057 41.0035 778.451 38.9955 778.451 36.8188C778.451 34.642 778.057 32.6341 777.269 30.7951C776.518 28.956 775.449 27.361 774.06 26.0099C772.709 24.6212 771.095 23.5516 769.219 22.801C767.38 22.0504 765.372 21.6751 763.195 21.6751C760.981 21.6751 758.935 22.0504 757.059 22.801C755.22 23.5516 753.606 24.6212 752.217 26.0099C750.829 27.361 749.74 28.956 748.952 30.7951C748.201 32.6341 747.826 34.642 747.826 36.8188C747.826 38.9955 748.201 41.0035 748.952 42.8425C749.74 44.6815 750.829 46.2953 752.217 47.6839C753.606 49.0351 755.22 50.0859 757.059 50.8365C758.935 51.5872 760.981 51.9625 763.195 51.9625ZM792.685 56.5225V17.1151H808.054C811.507 17.1151 814.453 17.6593 816.893 18.7477C819.332 19.836 821.209 21.4123 822.522 23.4765C823.836 25.5407 824.493 27.999 824.493 30.8514C824.493 33.7037 823.836 36.162 822.522 38.2262C821.209 40.2528 819.332 41.8291 816.893 42.9551C814.453 44.0435 811.507 44.5876 808.054 44.5876H795.782L798.315 41.9417V56.5225H792.685ZM798.315 42.5047L795.782 39.6899H807.885C811.488 39.6899 814.209 38.9205 816.048 37.3817C817.925 35.843 818.863 33.6662 818.863 30.8514C818.863 28.0365 817.925 25.8598 816.048 24.321C814.209 22.7822 811.488 22.0128 807.885 22.0128L795.782 22.0128L798.315 19.198V42.5047ZM832.807 44.081L831.793 17.1151H838.155L837.085 44.081H832.807ZM835.002 56.8602C833.951 56.8602 833.069 56.5037 832.356 55.7906C831.643 55.0775 831.287 54.2331 831.287 53.2573C831.287 52.2064 831.643 51.3432 832.356 50.6676C833.069 49.9921 833.951 49.6543 835.002 49.6543C836.053 49.6543 836.916 49.9921 837.592 50.6676C838.267 51.3432 838.605 52.2064 838.605 53.2573C838.605 54.2331 838.267 55.0775 837.592 55.7906C836.916 56.5037 836.053 56.8602 835.002 56.8602ZM847.87 44.081L846.857 17.1151L853.219 17.1151L852.149 44.081H847.87ZM850.066 56.8602C849.015 56.8602 848.133 56.5037 847.42 55.7906C846.707 55.0775 846.35 54.2331 846.35 53.2573C846.35 52.2064 846.707 51.3432 847.42 50.6676C848.133 49.9921 849.015 49.6543 850.066 49.6543C851.117 49.6543 851.98 49.9921 852.656 50.6676C853.331 51.3432 853.669 52.2064 853.669 53.2573C853.669 54.2331 853.331 55.0775 852.656 55.7906C851.98 56.5037 851.117 56.8602 850.066 56.8602ZM862.934 44.081L861.921 17.1151H868.282L867.213 44.081H862.934ZM865.13 56.8602C864.079 56.8602 863.197 56.5037 862.484 55.7906C861.771 55.0775 861.414 54.2331 861.414 53.2573C861.414 52.2064 861.771 51.3432 862.484 50.6676C863.197 49.9921 864.079 49.6543 865.13 49.6543C866.18 49.6543 867.044 49.9921 867.719 50.6676C868.395 51.3432 868.733 52.2064 868.733 53.2573C868.733 54.2331 868.395 55.0775 867.719 55.7906C867.044 56.5037 866.18 56.8602 865.13 56.8602ZM905.107 56.9728C902.105 56.9728 899.234 56.5225 896.494 55.6217C893.754 54.6834 891.596 53.4825 890.02 52.0188L892.103 47.6276C893.604 48.9412 895.518 50.0296 897.845 50.8928C900.172 51.756 902.593 52.1876 905.107 52.1876C907.397 52.1876 909.255 51.9249 910.681 51.3995C912.107 50.8741 913.158 50.161 913.833 49.2602C914.509 48.322 914.847 47.2711 914.847 46.1076C914.847 44.7565 914.396 43.6681 913.495 42.8425C912.632 42.0168 911.488 41.36 910.061 40.8721C908.673 40.3467 907.134 39.8963 905.445 39.521C903.756 39.1457 902.049 38.7141 900.322 38.2262C898.633 37.7007 897.076 37.0439 895.65 36.2558C894.261 35.4677 893.135 34.4168 892.272 33.1032C891.409 31.7521 890.977 30.0257 890.977 27.9239C890.977 25.8973 891.502 24.0395 892.553 22.3506C893.642 20.6242 895.293 19.2543 897.507 18.241C899.759 17.1901 902.612 16.6647 906.064 16.6647C908.354 16.6647 910.624 16.9649 912.876 17.5654C915.128 18.1659 917.08 19.0291 918.731 20.1551L916.873 24.6588C915.184 23.5328 913.402 22.7259 911.525 22.238C909.649 21.7126 907.828 21.4499 906.064 21.4499C903.85 21.4499 902.03 21.7314 900.604 22.2943C899.177 22.8573 898.127 23.6079 897.451 24.5462C896.813 25.4844 896.494 26.5353 896.494 27.6988C896.494 29.0874 896.926 30.1946 897.789 31.0202C898.69 31.8459 899.834 32.5027 901.223 32.9906C902.649 33.4785 904.207 33.9289 905.895 34.3417C907.584 34.717 909.273 35.1486 910.962 35.6365C912.689 36.1244 914.246 36.7625 915.635 37.5506C917.061 38.3388 918.206 39.3896 919.069 40.7032C919.932 42.0168 920.364 43.7057 920.364 45.7699C920.364 47.759 919.819 49.6168 918.731 51.3432C917.643 53.0321 915.954 54.402 913.664 55.4528C911.413 56.4662 908.56 56.9728 905.107 56.9728ZM935.864 56.5225V22.0128H922.353V17.1151L954.948 17.1151V22.0128H941.437V56.5225H935.864ZM978.319 56.9728C975.317 56.9728 972.521 56.4662 969.931 55.4528C967.379 54.4395 965.165 53.0321 963.288 51.2306C961.412 49.3916 959.948 47.2523 958.897 44.8128C957.846 42.3733 957.321 39.7086 957.321 36.8188C957.321 33.9289 957.846 31.2642 958.897 28.8247C959.948 26.3852 961.412 24.2647 963.288 22.4632C965.165 20.6242 967.379 19.198 969.931 18.1847C972.483 17.1714 975.279 16.6647 978.319 16.6647C981.322 16.6647 984.08 17.1714 986.595 18.1847C989.147 19.1605 991.361 20.5679 993.238 22.4069C995.152 24.2084 996.616 26.3289 997.629 28.7684C998.68 31.2079 999.205 33.8914 999.205 36.8188C999.205 39.7462 998.68 42.4296 997.629 44.8691C996.616 47.3086 995.152 49.4479 993.238 51.2869C991.361 53.0884 989.147 54.4958 986.595 55.5091C984.08 56.4849 981.322 56.9728 978.319 56.9728ZM978.319 51.9625C980.496 51.9625 982.504 51.5872 984.343 50.8365C986.22 50.0859 987.833 49.0351 989.185 47.6839C990.573 46.2953 991.643 44.6815 992.393 42.8425C993.182 41.0035 993.576 38.9955 993.576 36.8188C993.576 34.642 993.182 32.6341 992.393 30.7951C991.643 28.956 990.573 27.361 989.185 26.0099C987.833 24.6212 986.22 23.5516 984.343 22.801C982.504 22.0504 980.496 21.6751 978.319 21.6751C976.105 21.6751 974.06 22.0504 972.183 22.801C970.344 23.5516 968.73 24.6212 967.342 26.0099C965.953 27.361 964.865 28.956 964.076 30.7951C963.326 32.6341 962.951 34.642 962.951 36.8188C962.951 38.9955 963.326 41.0035 964.076 42.8425C964.865 44.6815 965.953 46.2953 967.342 47.6839C968.73 49.0351 970.344 50.0859 972.183 50.8365C974.06 51.5872 976.105 51.9625 978.319 51.9625ZM1007.81 56.5225V17.1151L1023.18 17.1151C1026.63 17.1151 1029.58 17.6593 1032.02 18.7477C1034.46 19.836 1036.33 21.4123 1037.65 23.4765C1038.96 25.5407 1039.62 27.999 1039.62 30.8514C1039.62 33.7037 1038.96 36.162 1037.65 38.2262C1036.33 40.2528 1034.46 41.8291 1032.02 42.9551C1029.58 44.0435 1026.63 44.5876 1023.18 44.5876H1010.91L1013.44 41.9417V56.5225L1007.81 56.5225ZM1013.44 42.5047L1010.91 39.6899H1023.01C1026.61 39.6899 1029.33 38.9205 1031.17 37.3817C1033.05 35.843 1033.99 33.6662 1033.99 30.8514C1033.99 28.0365 1033.05 25.8598 1031.17 24.321C1029.33 22.7822 1026.61 22.0128 1023.01 22.0128L1010.91 22.0128L1013.44 19.198V42.5047ZM1047.93 44.081L1046.92 17.1151L1053.28 17.1151L1052.21 44.081L1047.93 44.081ZM1050.13 56.8602C1049.08 56.8602 1048.19 56.5037 1047.48 55.7906C1046.77 55.0775 1046.41 54.2331 1046.41 53.2573C1046.41 52.2064 1046.77 51.3432 1047.48 50.6676C1048.19 49.9921 1049.08 49.6543 1050.13 49.6543C1051.18 49.6543 1052.04 49.9921 1052.72 50.6676C1053.39 51.3432 1053.73 52.2064 1053.73 53.2573C1053.73 54.2331 1053.39 55.0775 1052.72 55.7906C1052.04 56.5037 1051.18 56.8602 1050.13 56.8602ZM1062.99 44.081L1061.98 17.1151H1068.34L1067.27 44.081H1062.99ZM1065.19 56.8602C1064.14 56.8602 1063.26 56.5037 1062.54 55.7906C1061.83 55.0775 1061.47 54.2331 1061.47 53.2573C1061.47 52.2064 1061.83 51.3432 1062.54 50.6676C1063.26 49.9921 1064.14 49.6543 1065.19 49.6543C1066.24 49.6543 1067.1 49.9921 1067.78 50.6676C1068.46 51.3432 1068.79 52.2064 1068.79 53.2573C1068.79 54.2331 1068.46 55.0775 1067.78 55.7906C1067.1 56.5037 1066.24 56.8602 1065.19 56.8602ZM1078.06 44.081L1077.05 17.1151L1083.41 17.1151L1082.34 44.081H1078.06ZM1080.25 56.8602C1079.2 56.8602 1078.32 56.5037 1077.61 55.7906C1076.89 55.0775 1076.54 54.2331 1076.54 53.2573C1076.54 52.2064 1076.89 51.3432 1077.61 50.6676C1078.32 49.9921 1079.2 49.6543 1080.25 49.6543C1081.3 49.6543 1082.17 49.9921 1082.84 50.6676C1083.52 51.3432 1083.86 52.2064 1083.86 53.2573C1083.86 54.2331 1083.52 55.0775 1082.84 55.7906C1082.17 56.5037 1081.3 56.8602 1080.25 56.8602ZM1120.23 56.9728C1117.23 56.9728 1114.36 56.5225 1111.62 55.6217C1108.88 54.6834 1106.72 53.4825 1105.14 52.0188L1107.23 47.6276C1108.73 48.9412 1110.64 50.0296 1112.97 50.8928C1115.3 51.756 1117.72 52.1876 1120.23 52.1876C1122.52 52.1876 1124.38 51.9249 1125.81 51.3995C1127.23 50.8741 1128.28 50.161 1128.96 49.2602C1129.63 48.322 1129.97 47.2711 1129.97 46.1076C1129.97 44.7565 1129.52 43.6681 1128.62 42.8425C1127.76 42.0168 1126.61 41.36 1125.19 40.8721C1123.8 40.3467 1122.26 39.8963 1120.57 39.521C1118.88 39.1457 1117.17 38.7141 1115.45 38.2262C1113.76 37.7007 1112.2 37.0439 1110.77 36.2558C1109.39 35.4677 1108.26 34.4168 1107.4 33.1032C1106.53 31.7521 1106.1 30.0257 1106.1 27.9239C1106.1 25.8973 1106.63 24.0395 1107.68 22.3506C1108.77 20.6242 1110.42 19.2543 1112.63 18.241C1114.88 17.1901 1117.74 16.6647 1121.19 16.6647C1123.48 16.6647 1125.75 16.9649 1128 17.5654C1130.25 18.1659 1132.2 19.0291 1133.86 20.1551L1132 24.6588C1130.31 23.5328 1128.53 22.7259 1126.65 22.238C1124.77 21.7126 1122.95 21.4499 1121.19 21.4499C1118.97 21.4499 1117.15 21.7314 1115.73 22.2943C1114.3 22.8573 1113.25 23.6079 1112.58 24.5462C1111.94 25.4844 1111.62 26.5353 1111.62 27.6988C1111.62 29.0874 1112.05 30.1946 1112.91 31.0202C1113.81 31.8459 1114.96 32.5027 1116.35 32.9906C1117.77 33.4785 1119.33 33.9289 1121.02 34.3417C1122.71 34.717 1124.4 35.1486 1126.09 35.6365C1127.81 36.1244 1129.37 36.7625 1130.76 37.5506C1132.19 38.3388 1133.33 39.3896 1134.19 40.7032C1135.06 42.0168 1135.49 43.7057 1135.49 45.7699C1135.49 47.759 1134.94 49.6168 1133.86 51.3432C1132.77 53.0321 1131.08 54.402 1128.79 55.4528C1126.54 56.4662 1123.68 56.9728 1120.23 56.9728ZM1150.99 56.5225V22.0128H1137.48V17.1151L1170.07 17.1151V22.0128H1156.56V56.5225H1150.99ZM1193.44 56.9728C1190.44 56.9728 1187.65 56.4662 1185.06 55.4528C1182.5 54.4395 1180.29 53.0321 1178.41 51.2306C1176.54 49.3916 1175.07 47.2523 1174.02 44.8128C1172.97 42.3733 1172.45 39.7086 1172.45 36.8188C1172.45 33.9289 1172.97 31.2642 1174.02 28.8247C1175.07 26.3852 1176.54 24.2647 1178.41 22.4632C1180.29 20.6242 1182.5 19.198 1185.06 18.1847C1187.61 17.1714 1190.4 16.6647 1193.44 16.6647C1196.45 16.6647 1199.2 17.1714 1201.72 18.1847C1204.27 19.1605 1206.49 20.5679 1208.36 22.4069C1210.28 24.2084 1211.74 26.3289 1212.75 28.7684C1213.8 31.2079 1214.33 33.8914 1214.33 36.8188C1214.33 39.7462 1213.8 42.4296 1212.75 44.8691C1211.74 47.3086 1210.28 49.4479 1208.36 51.2869C1206.49 53.0884 1204.27 54.4958 1201.72 55.5091C1199.2 56.4849 1196.45 56.9728 1193.44 56.9728ZM1193.44 51.9625C1195.62 51.9625 1197.63 51.5872 1199.47 50.8365C1201.34 50.0859 1202.96 49.0351 1204.31 47.6839C1205.7 46.2953 1206.77 44.6815 1207.52 42.8425C1208.31 41.0035 1208.7 38.9955 1208.7 36.8188C1208.7 34.642 1208.31 32.6341 1207.52 30.7951C1206.77 28.956 1205.7 27.361 1204.31 26.0099C1202.96 24.6212 1201.34 23.5516 1199.47 22.801C1197.63 22.0504 1195.62 21.6751 1193.44 21.6751C1191.23 21.6751 1189.18 22.0504 1187.31 22.801C1185.47 23.5516 1183.85 24.6212 1182.47 26.0099C1181.08 27.361 1179.99 28.956 1179.2 30.7951C1178.45 32.6341 1178.07 34.642 1178.07 36.8188C1178.07 38.9955 1178.45 41.0035 1179.2 42.8425C1179.99 44.6815 1181.08 46.2953 1182.47 47.6839C1183.85 49.0351 1185.47 50.0859 1187.31 50.8365C1189.18 51.5872 1191.23 51.9625 1193.44 51.9625ZM1222.93 56.5225V17.1151L1238.3 17.1151C1241.76 17.1151 1244.7 17.6593 1247.14 18.7477C1249.58 19.836 1251.46 21.4123 1252.77 23.4765C1254.08 25.5407 1254.74 27.999 1254.74 30.8514C1254.74 33.7037 1254.08 36.162 1252.77 38.2262C1251.46 40.2528 1249.58 41.8291 1247.14 42.9551C1244.7 44.0435 1241.76 44.5876 1238.3 44.5876H1226.03L1228.56 41.9417V56.5225H1222.93ZM1228.56 42.5047L1226.03 39.6899H1238.13C1241.74 39.6899 1244.46 38.9205 1246.3 37.3817C1248.17 35.843 1249.11 33.6662 1249.11 30.8514C1249.11 28.0365 1248.17 25.8598 1246.3 24.321C1244.46 22.7822 1241.74 22.0128 1238.13 22.0128L1226.03 22.0128L1228.56 19.198V42.5047ZM1263.06 44.081L1262.04 17.1151H1268.4L1267.33 44.081H1263.06ZM1265.25 56.8602C1264.2 56.8602 1263.32 56.5037 1262.61 55.7906C1261.89 55.0775 1261.54 54.2331 1261.54 53.2573C1261.54 52.2064 1261.89 51.3432 1262.61 50.6676C1263.32 49.9921 1264.2 49.6543 1265.25 49.6543C1266.3 49.6543 1267.17 49.9921 1267.84 50.6676C1268.52 51.3432 1268.85 52.2064 1268.85 53.2573C1268.85 54.2331 1268.52 55.0775 1267.84 55.7906C1267.17 56.5037 1266.3 56.8602 1265.25 56.8602ZM1278.12 44.081L1277.11 17.1151H1283.47L1282.4 44.081L1278.12 44.081ZM1280.31 56.8602C1279.26 56.8602 1278.38 56.5037 1277.67 55.7906C1276.96 55.0775 1276.6 54.2331 1276.6 53.2573C1276.6 52.2064 1276.96 51.3432 1277.67 50.6676C1278.38 49.9921 1279.26 49.6543 1280.31 49.6543C1281.37 49.6543 1282.23 49.9921 1282.9 50.6676C1283.58 51.3432 1283.92 52.2064 1283.92 53.2573C1283.92 54.2331 1283.58 55.0775 1282.9 55.7906C1282.23 56.5037 1281.37 56.8602 1280.31 56.8602ZM1293.18 44.081L1292.17 17.1151H1298.53L1297.46 44.081H1293.18ZM1295.38 56.8602C1294.33 56.8602 1293.45 56.5037 1292.73 55.7906C1292.02 55.0775 1291.66 54.2331 1291.66 53.2573C1291.66 52.2064 1292.02 51.3432 1292.73 50.6676C1293.45 49.9921 1294.33 49.6543 1295.38 49.6543C1296.43 49.6543 1297.29 49.9921 1297.97 50.6676C1298.64 51.3432 1298.98 52.2064 1298.98 53.2573C1298.98 54.2331 1298.64 55.0775 1297.97 55.7906C1297.29 56.5037 1296.43 56.8602 1295.38 56.8602ZM1335.36 56.9728C1332.35 56.9728 1329.48 56.5225 1326.74 55.6217C1324 54.6834 1321.85 53.4825 1320.27 52.0188L1322.35 47.6276C1323.85 48.9412 1325.77 50.0296 1328.09 50.8928C1330.42 51.756 1332.84 52.1876 1335.36 52.1876C1337.65 52.1876 1339.5 51.9249 1340.93 51.3995C1342.36 50.8741 1343.41 50.161 1344.08 49.2602C1344.76 48.322 1345.1 47.2711 1345.1 46.1076C1345.1 44.7565 1344.65 43.6681 1343.74 42.8425C1342.88 42.0168 1341.74 41.36 1340.31 40.8721C1338.92 40.3467 1337.38 39.8963 1335.69 39.521C1334.01 39.1457 1332.3 38.7141 1330.57 38.2262C1328.88 37.7007 1327.32 37.0439 1325.9 36.2558C1324.51 35.4677 1323.38 34.4168 1322.52 33.1032C1321.66 31.7521 1321.23 30.0257 1321.23 27.9239C1321.23 25.8973 1321.75 24.0395 1322.8 22.3506C1323.89 20.6242 1325.54 19.2543 1327.76 18.241C1330.01 17.1901 1332.86 16.6647 1336.31 16.6647C1338.6 16.6647 1340.87 16.9649 1343.13 17.5654C1345.38 18.1659 1347.33 19.0291 1348.98 20.1551L1347.12 24.6588C1345.43 23.5328 1343.65 22.7259 1341.77 22.238C1339.9 21.7126 1338.08 21.4499 1336.31 21.4499C1334.1 21.4499 1332.28 21.7314 1330.85 22.2943C1329.43 22.8573 1328.38 23.6079 1327.7 24.5462C1327.06 25.4844 1326.74 26.5353 1326.74 27.6988C1326.74 29.0874 1327.17 30.1946 1328.04 31.0202C1328.94 31.8459 1330.08 32.5027 1331.47 32.9906C1332.9 33.4785 1334.46 33.9289 1336.14 34.3417C1337.83 34.717 1339.52 35.1486 1341.21 35.6365C1342.94 36.1244 1344.49 36.7625 1345.88 37.5506C1347.31 38.3388 1348.45 39.3896 1349.32 40.7032C1350.18 42.0168 1350.61 43.7057 1350.61 45.7699C1350.61 47.759 1350.07 49.6168 1348.98 51.3432C1347.89 53.0321 1346.2 54.402 1343.91 55.4528C1341.66 56.4662 1338.81 56.9728 1335.36 56.9728ZM1366.11 56.5225V22.0128H1352.6V17.1151L1385.2 17.1151V22.0128H1371.69V56.5225H1366.11ZM1408.57 56.9728C1405.57 56.9728 1402.77 56.4662 1400.18 55.4528C1397.63 54.4395 1395.41 53.0321 1393.54 51.2306C1391.66 49.3916 1390.2 47.2523 1389.15 44.8128C1388.1 42.3733 1387.57 39.7086 1387.57 36.8188C1387.57 33.9289 1388.1 31.2642 1389.15 28.8247C1390.2 26.3852 1391.66 24.2647 1393.54 22.4632C1395.41 20.6242 1397.63 19.198 1400.18 18.1847C1402.73 17.1714 1405.53 16.6647 1408.57 16.6647C1411.57 16.6647 1414.33 17.1714 1416.84 18.1847C1419.4 19.1605 1421.61 20.5679 1423.49 22.4069C1425.4 24.2084 1426.86 26.3289 1427.88 28.7684C1428.93 31.2079 1429.45 33.8914 1429.45 36.8188C1429.45 39.7462 1428.93 42.4296 1427.88 44.8691C1426.86 47.3086 1425.4 49.4479 1423.49 51.2869C1421.61 53.0884 1419.4 54.4958 1416.84 55.5091C1414.33 56.4849 1411.57 56.9728 1408.57 56.9728ZM1408.57 51.9625C1410.74 51.9625 1412.75 51.5872 1414.59 50.8365C1416.47 50.0859 1418.08 49.0351 1419.43 47.6839C1420.82 46.2953 1421.89 44.6815 1422.64 42.8425C1423.43 41.0035 1423.82 38.9955 1423.82 36.8188C1423.82 34.642 1423.43 32.6341 1422.64 30.7951C1421.89 28.956 1420.82 27.361 1419.43 26.0099C1418.08 24.6212 1416.47 23.5516 1414.59 22.801C1412.75 22.0504 1410.74 21.6751 1408.57 21.6751C1406.35 21.6751 1404.31 22.0504 1402.43 22.801C1400.59 23.5516 1398.98 24.6212 1397.59 26.0099C1396.2 27.361 1395.11 28.956 1394.33 30.7951C1393.57 32.6341 1393.2 34.642 1393.2 36.8188C1393.2 38.9955 1393.57 41.0035 1394.33 42.8425C1395.11 44.6815 1396.2 46.2953 1397.59 47.6839C1398.98 49.0351 1400.59 50.0859 1402.43 50.8365C1404.31 51.5872 1406.35 51.9625 1408.57 51.9625ZM1438.06 56.5225V17.1151L1453.43 17.1151C1456.88 17.1151 1459.83 17.6593 1462.27 18.7477C1464.71 19.836 1466.58 21.4123 1467.9 23.4765C1469.21 25.5407 1469.87 27.999 1469.87 30.8514C1469.87 33.7037 1469.21 36.162 1467.9 38.2262C1466.58 40.2528 1464.71 41.8291 1462.27 42.9551C1459.83 44.0435 1456.88 44.5876 1453.43 44.5876H1441.15L1443.69 41.9417V56.5225H1438.06ZM1443.69 42.5047L1441.15 39.6899H1453.26C1456.86 39.6899 1459.58 38.9205 1461.42 37.3817C1463.3 35.843 1464.24 33.6662 1464.24 30.8514C1464.24 28.0365 1463.3 25.8598 1461.42 24.321C1459.58 22.7822 1456.86 22.0128 1453.26 22.0128L1441.15 22.0128L1443.69 19.198V42.5047ZM1478.18 44.081L1477.17 17.1151L1483.53 17.1151L1482.46 44.081H1478.18ZM1480.38 56.8602C1479.32 56.8602 1478.44 56.5037 1477.73 55.7906C1477.02 55.0775 1476.66 54.2331 1476.66 53.2573C1476.66 52.2064 1477.02 51.3432 1477.73 50.6676C1478.44 49.9921 1479.32 49.6543 1480.38 49.6543C1481.43 49.6543 1482.29 49.9921 1482.96 50.6676C1483.64 51.3432 1483.98 52.2064 1483.98 53.2573C1483.98 54.2331 1483.64 55.0775 1482.96 55.7906C1482.29 56.5037 1481.43 56.8602 1480.38 56.8602ZM1493.24 44.081L1492.23 17.1151H1498.59L1497.52 44.081H1493.24ZM1495.44 56.8602C1494.39 56.8602 1493.51 56.5037 1492.79 55.7906C1492.08 55.0775 1491.72 54.2331 1491.72 53.2573C1491.72 52.2064 1492.08 51.3432 1492.79 50.6676C1493.51 49.9921 1494.39 49.6543 1495.44 49.6543C1496.49 49.6543 1497.35 49.9921 1498.03 50.6676C1498.7 51.3432 1499.04 52.2064 1499.04 53.2573C1499.04 54.2331 1498.7 55.0775 1498.03 55.7906C1497.35 56.5037 1496.49 56.8602 1495.44 56.8602ZM1508.31 44.081L1507.29 17.1151L1513.66 17.1151L1512.59 44.081H1508.31ZM1510.5 56.8602C1509.45 56.8602 1508.57 56.5037 1507.86 55.7906C1507.14 55.0775 1506.79 54.2331 1506.79 53.2573C1506.79 52.2064 1507.14 51.3432 1507.86 50.6676C1508.57 49.9921 1509.45 49.6543 1510.5 49.6543C1511.55 49.6543 1512.42 49.9921 1513.09 50.6676C1513.77 51.3432 1514.11 52.2064 1514.11 53.2573C1514.11 54.2331 1513.77 55.0775 1513.09 55.7906C1512.42 56.5037 1511.55 56.8602 1510.5 56.8602Z" fill="#EBEBEB"/>
</g>
</svg>
