<svg width="969" height="340" viewBox="0 0 969 340" fill="none" xmlns="http://www.w3.org/2000/svg">
<path d="M10.207 0.852783L954.071 0.852783L968.799 339.871L0.343505 339.871L10.207 0.852783Z" fill="#EBEBEB"/>
<mask id="mask0_194_584" style="mask-type:alpha" maskUnits="userSpaceOnUse" x="0" y="0" width="969" height="340">
<path d="M10.207 0.852783L954.071 0.852783L968.799 339.871L0.343505 339.871L10.207 0.852783Z" fill="black"/>
</mask>
<g mask="url(#mask0_194_584)">
<path d="M-585.645 56.9837C-588.647 56.9837 -591.518 56.5333 -594.258 55.6326C-596.998 54.6943 -599.156 53.4933 -600.732 52.0296L-598.649 47.6385C-597.148 48.9521 -595.234 50.0405 -592.907 50.9037C-590.58 51.7669 -588.159 52.1985 -585.645 52.1985C-583.355 52.1985 -581.497 51.9358 -580.071 51.4104C-578.645 50.8849 -577.594 50.1718 -576.919 49.2711C-576.243 48.3328 -575.905 47.282 -575.905 46.1185C-575.905 44.7674 -576.356 43.679 -577.256 42.8533C-578.12 42.0276 -579.264 41.3709 -580.691 40.883C-582.079 40.3575 -583.618 39.9072 -585.307 39.5318C-586.996 39.1565 -588.703 38.7249 -590.43 38.237C-592.119 37.7116 -593.676 37.0548 -595.102 36.2667C-596.491 35.4785 -597.617 34.4277 -598.48 33.1141C-599.343 31.763 -599.775 30.0365 -599.775 27.9348C-599.775 25.9081 -599.25 24.0504 -598.199 22.3615C-597.11 20.6351 -595.459 19.2652 -593.245 18.2519C-590.993 17.201 -588.14 16.6756 -584.688 16.6756C-582.398 16.6756 -580.128 16.9758 -577.876 17.5763C-575.624 18.1768 -573.672 19.04 -572.021 20.1659L-573.879 24.6696C-575.568 23.5437 -577.35 22.7368 -579.227 22.2489C-581.103 21.7235 -582.924 21.4607 -584.688 21.4607C-586.902 21.4607 -588.722 21.7422 -590.148 22.3052C-591.574 22.8681 -592.625 23.6188 -593.301 24.557C-593.939 25.4953 -594.258 26.5462 -594.258 27.7096C-594.258 29.0983 -593.826 30.2054 -592.963 31.0311C-592.062 31.8568 -590.918 32.5136 -589.529 33.0015C-588.103 33.4894 -586.545 33.9397 -584.856 34.3526C-583.168 34.7279 -581.479 35.1595 -579.79 35.6474C-578.063 36.1353 -576.506 36.7733 -575.117 37.5615C-573.691 38.3496 -572.546 39.4005 -571.683 40.7141C-570.82 42.0276 -570.388 43.7165 -570.388 45.7807C-570.388 47.7699 -570.933 49.6276 -572.021 51.3541C-573.109 53.043 -574.798 54.4128 -577.088 55.4637C-579.339 56.477 -582.192 56.9837 -585.645 56.9837ZM-554.888 56.5333V22.0237L-568.399 22.0237V17.1259L-535.804 17.1259V22.0237H-549.315V56.5333H-554.888ZM-512.433 56.9837C-515.435 56.9837 -518.231 56.477 -520.821 55.4637C-523.373 54.4504 -525.587 53.043 -527.464 51.2415C-529.34 49.4025 -530.804 47.2632 -531.855 44.8237C-532.906 42.3842 -533.431 39.7195 -533.431 36.8296C-533.431 33.9397 -532.906 31.2751 -531.855 28.8356C-530.804 26.396 -529.34 24.2756 -527.464 22.4741C-525.587 20.6351 -523.373 19.2089 -520.821 18.1956C-518.269 17.1822 -515.473 16.6756 -512.433 16.6756C-509.43 16.6756 -506.672 17.1822 -504.157 18.1956C-501.605 19.1714 -499.391 20.5788 -497.514 22.4178C-495.6 24.2193 -494.136 26.3398 -493.123 28.7793C-492.072 31.2188 -491.547 33.9022 -491.547 36.8296C-491.547 39.757 -492.072 42.4405 -493.123 44.88C-494.136 47.3195 -495.6 49.4588 -497.514 51.2978C-499.391 53.0993 -501.605 54.5067 -504.157 55.52C-506.672 56.4958 -509.43 56.9837 -512.433 56.9837ZM-512.433 51.9733C-510.256 51.9733 -508.248 51.598 -506.409 50.8474C-504.532 50.0968 -502.919 49.0459 -501.567 47.6948C-500.179 46.3062 -499.109 44.6923 -498.359 42.8533C-497.57 41.0143 -497.176 39.0064 -497.176 36.8296C-497.176 34.6528 -497.57 32.6449 -498.359 30.8059C-499.109 28.9669 -500.179 27.3718 -501.567 26.0207C-502.919 24.6321 -504.532 23.5625 -506.409 22.8118C-508.248 22.0612 -510.256 21.6859 -512.433 21.6859C-514.647 21.6859 -516.692 22.0612 -518.569 22.8118C-520.408 23.5625 -522.022 24.6321 -523.41 26.0207C-524.799 27.3718 -525.887 28.9669 -526.676 30.8059C-527.426 32.6449 -527.801 34.6528 -527.801 36.8296C-527.801 39.0064 -527.426 41.0143 -526.676 42.8533C-525.887 44.6923 -524.799 46.3062 -523.41 47.6948C-522.022 49.0459 -520.408 50.0968 -518.569 50.8474C-516.692 51.598 -514.647 51.9733 -512.433 51.9733ZM-482.942 56.5333V17.1259L-467.573 17.1259C-464.12 17.1259 -461.174 17.6701 -458.735 18.7585C-456.295 19.8469 -454.419 21.4232 -453.105 23.4874C-451.792 25.5516 -451.135 28.0099 -451.135 30.8622C-451.135 33.7146 -451.792 36.1728 -453.105 38.237C-454.419 40.2637 -456.295 41.84 -458.735 42.9659C-461.174 44.0543 -464.12 44.5985 -467.573 44.5985H-479.846L-477.313 41.9526V56.5333H-482.942ZM-477.313 42.5155L-479.846 39.7007H-467.742C-464.139 39.7007 -461.418 38.9314 -459.579 37.3926C-457.703 35.8538 -456.764 33.677 -456.764 30.8622C-456.764 28.0474 -457.703 25.8706 -459.579 24.3318C-461.418 22.7931 -464.139 22.0237 -467.742 22.0237L-479.846 22.0237L-477.313 19.2089V42.5155ZM-442.821 44.0918L-443.834 17.1259H-437.473L-438.542 44.0918H-442.821ZM-440.625 56.8711C-441.676 56.8711 -442.558 56.5146 -443.271 55.8015C-443.984 55.0884 -444.341 54.2439 -444.341 53.2681C-444.341 52.2173 -443.984 51.3541 -443.271 50.6785C-442.558 50.003 -441.676 49.6652 -440.625 49.6652C-439.575 49.6652 -438.711 50.003 -438.036 50.6785C-437.36 51.3541 -437.022 52.2173 -437.022 53.2681C-437.022 54.2439 -437.36 55.0884 -438.036 55.8015C-438.711 56.5146 -439.575 56.8711 -440.625 56.8711ZM-427.757 44.0918L-428.771 17.1259L-422.409 17.1259L-423.479 44.0918H-427.757ZM-425.562 56.8711C-426.613 56.8711 -427.495 56.5146 -428.208 55.8015C-428.921 55.0884 -429.277 54.2439 -429.277 53.2681C-429.277 52.2173 -428.921 51.3541 -428.208 50.6785C-427.495 50.003 -426.613 49.6652 -425.562 49.6652C-424.511 49.6652 -423.648 50.003 -422.972 50.6785C-422.297 51.3541 -421.959 52.2173 -421.959 53.2681C-421.959 54.2439 -422.297 55.0884 -422.972 55.8015C-423.648 56.5146 -424.511 56.8711 -425.562 56.8711ZM-412.694 44.0918L-413.707 17.1259H-407.345L-408.415 44.0918H-412.694ZM-410.498 56.8711C-411.549 56.8711 -412.431 56.5146 -413.144 55.8015C-413.857 55.0884 -414.214 54.2439 -414.214 53.2681C-414.214 52.2173 -413.857 51.3541 -413.144 50.6785C-412.431 50.003 -411.549 49.6652 -410.498 49.6652C-409.447 49.6652 -408.584 50.003 -407.908 50.6785C-407.233 51.3541 -406.895 52.2173 -406.895 53.2681C-406.895 54.2439 -407.233 55.0884 -407.908 55.8015C-408.584 56.5146 -409.447 56.8711 -410.498 56.8711ZM-370.52 56.9837C-373.523 56.9837 -376.394 56.5333 -379.134 55.6326C-381.873 54.6943 -384.031 53.4933 -385.608 52.0296L-383.525 47.6385C-382.023 48.9521 -380.109 50.0405 -377.782 50.9037C-375.456 51.7669 -373.035 52.1985 -370.52 52.1985C-368.231 52.1985 -366.373 51.9358 -364.947 51.4104C-363.521 50.8849 -362.47 50.1718 -361.794 49.2711C-361.119 48.3328 -360.781 47.282 -360.781 46.1185C-360.781 44.7674 -361.231 43.679 -362.132 42.8533C-362.995 42.0276 -364.14 41.3709 -365.566 40.883C-366.955 40.3575 -368.494 39.9072 -370.182 39.5318C-371.871 39.1565 -373.579 38.7249 -375.305 38.237C-376.994 37.7116 -378.552 37.0548 -379.978 36.2667C-381.367 35.4785 -382.493 34.4277 -383.356 33.1141C-384.219 31.763 -384.651 30.0365 -384.651 27.9348C-384.651 25.9081 -384.125 24.0504 -383.074 22.3615C-381.986 20.6351 -380.335 19.2652 -378.12 18.2519C-375.868 17.201 -373.016 16.6756 -369.563 16.6756C-367.274 16.6756 -365.003 16.9758 -362.751 17.5763C-360.499 18.1768 -358.548 19.04 -356.897 20.1659L-358.754 24.6696C-360.443 23.5437 -362.226 22.7368 -364.102 22.2489C-365.979 21.7235 -367.799 21.4607 -369.563 21.4607C-371.778 21.4607 -373.598 21.7422 -375.024 22.3052C-376.45 22.8681 -377.501 23.6188 -378.177 24.557C-378.815 25.4953 -379.134 26.5462 -379.134 27.7096C-379.134 29.0983 -378.702 30.2054 -377.839 31.0311C-376.938 31.8568 -375.793 32.5136 -374.405 33.0015C-372.979 33.4894 -371.421 33.9397 -369.732 34.3526C-368.043 34.7279 -366.354 35.1595 -364.665 35.6474C-362.939 36.1353 -361.381 36.7733 -359.993 37.5615C-358.567 38.3496 -357.422 39.4005 -356.559 40.7141C-355.696 42.0276 -355.264 43.7165 -355.264 45.7807C-355.264 47.7699 -355.808 49.6276 -356.897 51.3541C-357.985 53.043 -359.674 54.4128 -361.963 55.4637C-364.215 56.477 -367.067 56.9837 -370.52 56.9837ZM-339.764 56.5333V22.0237L-353.275 22.0237V17.1259L-320.68 17.1259V22.0237L-334.191 22.0237V56.5333H-339.764ZM-297.308 56.9837C-300.311 56.9837 -303.107 56.477 -305.696 55.4637C-308.248 54.4504 -310.463 53.043 -312.339 51.2415C-314.216 49.4025 -315.68 47.2632 -316.73 44.8237C-317.781 42.3842 -318.307 39.7195 -318.307 36.8296C-318.307 33.9397 -317.781 31.2751 -316.73 28.8356C-315.68 26.396 -314.216 24.2756 -312.339 22.4741C-310.463 20.6351 -308.248 19.2089 -305.696 18.1956C-303.144 17.1822 -300.348 16.6756 -297.308 16.6756C-294.306 16.6756 -291.547 17.1822 -289.033 18.1956C-286.481 19.1714 -284.266 20.5788 -282.39 22.4178C-280.476 24.2193 -279.012 26.3398 -277.999 28.7793C-276.948 31.2188 -276.422 33.9022 -276.422 36.8296C-276.422 39.757 -276.948 42.4405 -277.999 44.88C-279.012 47.3195 -280.476 49.4588 -282.39 51.2978C-284.266 53.0993 -286.481 54.5067 -289.033 55.52C-291.547 56.4958 -294.306 56.9837 -297.308 56.9837ZM-297.308 51.9733C-295.131 51.9733 -293.124 51.598 -291.285 50.8474C-289.408 50.0968 -287.794 49.0459 -286.443 47.6948C-285.054 46.3062 -283.985 44.6923 -283.234 42.8533C-282.446 41.0143 -282.052 39.0064 -282.052 36.8296C-282.052 34.6528 -282.446 32.6449 -283.234 30.8059C-283.985 28.9669 -285.054 27.3718 -286.443 26.0207C-287.794 24.6321 -289.408 23.5625 -291.285 22.8118C-293.124 22.0612 -295.131 21.6859 -297.308 21.6859C-299.523 21.6859 -301.568 22.0612 -303.445 22.8118C-305.284 23.5625 -306.897 24.6321 -308.286 26.0207C-309.675 27.3718 -310.763 28.9669 -311.551 30.8059C-312.302 32.6449 -312.677 34.6528 -312.677 36.8296C-312.677 39.0064 -312.302 41.0143 -311.551 42.8533C-310.763 44.6923 -309.675 46.3062 -308.286 47.6948C-306.897 49.0459 -305.284 50.0968 -303.445 50.8474C-301.568 51.598 -299.523 51.9733 -297.308 51.9733ZM-267.818 56.5333V17.1259H-252.449C-248.996 17.1259 -246.05 17.6701 -243.61 18.7585C-241.171 19.8469 -239.294 21.4232 -237.981 23.4874C-236.667 25.5516 -236.01 28.0099 -236.01 30.8622C-236.01 33.7146 -236.667 36.1728 -237.981 38.237C-239.294 40.2637 -241.171 41.84 -243.61 42.9659C-246.05 44.0543 -248.996 44.5985 -252.449 44.5985H-264.721L-262.188 41.9526V56.5333H-267.818ZM-262.188 42.5155L-264.721 39.7007H-252.618C-249.015 39.7007 -246.294 38.9314 -244.455 37.3926C-242.578 35.8538 -241.64 33.677 -241.64 30.8622C-241.64 28.0474 -242.578 25.8706 -244.455 24.3318C-246.294 22.7931 -249.015 22.0237 -252.618 22.0237L-264.721 22.0237L-262.188 19.2089V42.5155ZM-227.697 44.0918L-228.71 17.1259H-222.348L-223.418 44.0918H-227.697ZM-225.501 56.8711C-226.552 56.8711 -227.434 56.5146 -228.147 55.8015C-228.86 55.0884 -229.217 54.2439 -229.217 53.2681C-229.217 52.2173 -228.86 51.3541 -228.147 50.6785C-227.434 50.003 -226.552 49.6652 -225.501 49.6652C-224.45 49.6652 -223.587 50.003 -222.911 50.6785C-222.236 51.3541 -221.898 52.2173 -221.898 53.2681C-221.898 54.2439 -222.236 55.0884 -222.911 55.8015C-223.587 56.5146 -224.45 56.8711 -225.501 56.8711ZM-212.633 44.0918L-213.646 17.1259H-207.285L-208.354 44.0918H-212.633ZM-210.437 56.8711C-211.488 56.8711 -212.37 56.5146 -213.083 55.8015C-213.796 55.0884 -214.153 54.2439 -214.153 53.2681C-214.153 52.2173 -213.796 51.3541 -213.083 50.6785C-212.37 50.003 -211.488 49.6652 -210.437 49.6652C-209.386 49.6652 -208.523 50.003 -207.848 50.6785C-207.172 51.3541 -206.834 52.2173 -206.834 53.2681C-206.834 54.2439 -207.172 55.0884 -207.848 55.8015C-208.523 56.5146 -209.386 56.8711 -210.437 56.8711ZM-197.569 44.0918L-198.583 17.1259H-192.221L-193.291 44.0918L-197.569 44.0918ZM-195.374 56.8711C-196.425 56.8711 -197.307 56.5146 -198.02 55.8015C-198.733 55.0884 -199.089 54.2439 -199.089 53.2681C-199.089 52.2173 -198.733 51.3541 -198.02 50.6785C-197.307 50.003 -196.425 49.6652 -195.374 49.6652C-194.323 49.6652 -193.46 50.003 -192.784 50.6785C-192.109 51.3541 -191.771 52.2173 -191.771 53.2681C-191.771 54.2439 -192.109 55.0884 -192.784 55.8015C-193.46 56.5146 -194.323 56.8711 -195.374 56.8711ZM-170.514 56.9837C-173.517 56.9837 -176.388 56.5333 -179.128 55.6326C-181.868 54.6943 -184.026 53.4933 -185.602 52.0296L-183.519 47.6385C-182.018 48.9521 -180.104 50.0405 -177.777 50.9037C-175.45 51.7669 -173.029 52.1985 -170.514 52.1985C-168.225 52.1985 -166.367 51.9358 -164.941 51.4104C-163.515 50.8849 -162.464 50.1718 -161.789 49.2711C-161.113 48.3328 -160.775 47.282 -160.775 46.1185C-160.775 44.7674 -161.226 43.679 -162.126 42.8533C-162.99 42.0276 -164.134 41.3709 -165.56 40.883C-166.949 40.3575 -168.488 39.9072 -170.177 39.5318C-171.866 39.1565 -173.573 38.7249 -175.3 38.237C-176.989 37.7116 -178.546 37.0548 -179.972 36.2667C-181.361 35.4785 -182.487 34.4277 -183.35 33.1141C-184.213 31.763 -184.645 30.0365 -184.645 27.9348C-184.645 25.9081 -184.119 24.0504 -183.069 22.3615C-181.98 20.6351 -180.329 19.2652 -178.114 18.2519C-175.863 17.201 -173.01 16.6756 -169.557 16.6756C-167.268 16.6756 -164.997 16.9758 -162.746 17.5763C-160.494 18.1768 -158.542 19.04 -156.891 20.1659L-158.749 24.6696C-160.437 23.5437 -162.22 22.7368 -164.097 22.2489C-165.973 21.7235 -167.793 21.4607 -169.557 21.4607C-171.772 21.4607 -173.592 21.7422 -175.018 22.3052C-176.444 22.8681 -177.495 23.6188 -178.171 24.557C-178.809 25.4953 -179.128 26.5462 -179.128 27.7096C-179.128 29.0983 -178.696 30.2054 -177.833 31.0311C-176.932 31.8568 -175.788 32.5136 -174.399 33.0015C-172.973 33.4894 -171.415 33.9397 -169.726 34.3526C-168.037 34.7279 -166.349 35.1595 -164.66 35.6474C-162.933 36.1353 -161.376 36.7733 -159.987 37.5615C-158.561 38.3496 -157.416 39.4005 -156.553 40.7141C-155.69 42.0276 -155.258 43.7165 -155.258 45.7807C-155.258 47.7699 -155.802 49.6276 -156.891 51.3541C-157.979 53.043 -159.668 54.4128 -161.957 55.4637C-164.209 56.477 -167.062 56.9837 -170.514 56.9837ZM-139.758 56.5333V22.0237L-153.269 22.0237V17.1259L-120.674 17.1259V22.0237L-134.185 22.0237V56.5333H-139.758ZM-97.3025 56.9837C-100.305 56.9837 -103.101 56.477 -105.691 55.4637C-108.243 54.4504 -110.457 53.043 -112.334 51.2415C-114.21 49.4025 -115.674 47.2632 -116.725 44.8237C-117.776 42.3842 -118.301 39.7195 -118.301 36.8296C-118.301 33.9397 -117.776 31.2751 -116.725 28.8356C-115.674 26.396 -114.21 24.2756 -112.334 22.4741C-110.457 20.6351 -108.243 19.2089 -105.691 18.1956C-103.139 17.1822 -100.342 16.6756 -97.3025 16.6756C-94.3 16.6756 -91.5415 17.1822 -89.0269 18.1956C-86.4748 19.1714 -84.2605 20.5788 -82.384 22.4178C-80.4699 24.2193 -79.0062 26.3398 -77.9929 28.7793C-76.942 31.2188 -76.4166 33.9022 -76.4166 36.8296C-76.4166 39.757 -76.942 42.4405 -77.9929 44.88C-79.0062 47.3195 -80.4699 49.4588 -82.384 51.2978C-84.2605 53.0993 -86.4748 54.5067 -89.0269 55.52C-91.5415 56.4958 -94.3 56.9837 -97.3025 56.9837ZM-97.3025 51.9733C-95.1257 51.9733 -93.1178 51.598 -91.2788 50.8474C-89.4023 50.0968 -87.7884 49.0459 -86.4373 47.6948C-85.0487 46.3062 -83.979 44.6923 -83.2284 42.8533C-82.4403 41.0143 -82.0462 39.0064 -82.0462 36.8296C-82.0462 34.6528 -82.4403 32.6449 -83.2284 30.8059C-83.979 28.9669 -85.0487 27.3718 -86.4373 26.0207C-87.7884 24.6321 -89.4023 23.5625 -91.2788 22.8118C-93.1178 22.0612 -95.1257 21.6859 -97.3025 21.6859C-99.5168 21.6859 -101.562 22.0612 -103.439 22.8118C-105.278 23.5625 -106.892 24.6321 -108.28 26.0207C-109.669 27.3718 -110.757 28.9669 -111.545 30.8059C-112.296 32.6449 -112.671 34.6528 -112.671 36.8296C-112.671 39.0064 -112.296 41.0143 -111.545 42.8533C-110.757 44.6923 -109.669 46.3062 -108.28 47.6948C-106.892 49.0459 -105.278 50.0968 -103.439 50.8474C-101.562 51.598 -99.5168 51.9733 -97.3025 51.9733ZM-67.812 56.5333V17.1259H-52.4431C-48.9903 17.1259 -46.0441 17.6701 -43.6046 18.7585C-41.1651 19.8469 -39.2886 21.4232 -37.975 23.4874C-36.6614 25.5516 -36.0046 28.0099 -36.0046 30.8622C-36.0046 33.7146 -36.6614 36.1728 -37.975 38.237C-39.2886 40.2637 -41.1651 41.84 -43.6046 42.9659C-46.0441 44.0543 -48.9903 44.5985 -52.4431 44.5985H-64.7157L-62.1824 41.9526V56.5333H-67.812ZM-62.1824 42.5155L-64.7157 39.7007H-52.612C-49.0091 39.7007 -46.2881 38.9314 -44.4491 37.3926C-42.5725 35.8538 -41.6343 33.677 -41.6343 30.8622C-41.6343 28.0474 -42.5725 25.8706 -44.4491 24.3318C-46.2881 22.7931 -49.0091 22.0237 -52.612 22.0237H-64.7157L-62.1824 19.2089V42.5155ZM-27.6908 44.0918L-28.7042 17.1259H-22.3427L-23.4123 44.0918H-27.6908ZM-25.4953 56.8711C-26.5461 56.8711 -27.4281 56.5146 -28.1412 55.8015C-28.8543 55.0884 -29.2108 54.2439 -29.2108 53.2681C-29.2108 52.2173 -28.8543 51.3541 -28.1412 50.6785C-27.4281 50.003 -26.5461 49.6652 -25.4953 49.6652C-24.4444 49.6652 -23.5812 50.003 -22.9056 50.6785C-22.2301 51.3541 -21.8923 52.2173 -21.8923 53.2681C-21.8923 54.2439 -22.2301 55.0884 -22.9056 55.8015C-23.5812 56.5146 -24.4444 56.8711 -25.4953 56.8711ZM-12.6272 44.0918L-13.6405 17.1259H-7.27903L-8.34866 44.0918H-12.6272ZM-10.4316 56.8711C-11.4825 56.8711 -12.3645 56.5146 -13.0775 55.8015C-13.7906 55.0884 -14.1472 54.2439 -14.1472 53.2681C-14.1472 52.2173 -13.7906 51.3541 -13.0775 50.6785C-12.3645 50.003 -11.4825 49.6652 -10.4316 49.6652C-9.38075 49.6652 -8.51754 50.003 -7.84199 50.6785C-7.16643 51.3541 -6.82865 52.2173 -6.82865 53.2681C-6.82865 54.2439 -7.16643 55.0884 -7.84199 55.8015C-8.51754 56.5146 -9.38075 56.8711 -10.4316 56.8711ZM2.43649 44.0918L1.42315 17.1259L7.78463 17.1259L6.715 44.0918H2.43649ZM4.63204 56.8711C3.58118 56.8711 2.6992 56.5146 1.98612 55.8015C1.27303 55.0884 0.916487 54.2439 0.916487 53.2681C0.916487 52.2173 1.27303 51.3541 1.98612 50.6785C2.6992 50.003 3.58118 49.6652 4.63204 49.6652C5.68291 49.6652 6.54612 50.003 7.22167 50.6785C7.89723 51.3541 8.235 52.2173 8.235 53.2681C8.235 54.2439 7.89723 55.0884 7.22167 55.8015C6.54612 56.5146 5.68291 56.8711 4.63204 56.8711ZM44.6099 56.9837C41.6074 56.9837 38.7363 56.5333 35.9966 55.6326C33.2568 54.6943 31.0988 53.4933 29.5225 52.0296L31.6055 47.6385C33.1067 48.9521 35.0208 50.0405 37.3477 50.9037C39.6746 51.7669 42.0953 52.1985 44.6099 52.1985C46.8993 52.1985 48.7571 51.9358 50.1832 51.4104C51.6094 50.8849 52.6603 50.1718 53.3358 49.2711C54.0114 48.3328 54.3492 47.282 54.3492 46.1185C54.3492 44.7674 53.8988 43.679 52.9981 42.8533C52.1348 42.0276 50.9902 41.3709 49.564 40.883C48.1753 40.3575 46.6366 39.9072 44.9477 39.5318C43.2588 39.1565 41.5511 38.7249 39.8247 38.237C38.1358 37.7116 36.5783 37.0548 35.1521 36.2667C33.7635 35.4785 32.6376 34.4277 31.7744 33.1141C30.9111 31.763 30.4795 30.0365 30.4795 27.9348C30.4795 25.9081 31.005 24.0504 32.0558 22.3615C33.1442 20.6351 34.7956 19.2652 37.0099 18.2519C39.2618 17.201 42.1141 16.6756 45.5669 16.6756C47.8563 16.6756 50.1269 16.9758 52.3788 17.5763C54.6306 18.1768 56.5823 19.04 58.2336 20.1659L56.3758 24.6696C54.6869 23.5437 52.9042 22.7368 51.0277 22.2489C49.1511 21.7235 47.3309 21.4607 45.5669 21.4607C43.3526 21.4607 41.5324 21.7422 40.1062 22.3052C38.68 22.8681 37.6292 23.6188 36.9536 24.557C36.3156 25.4953 35.9966 26.5462 35.9966 27.7096C35.9966 29.0983 36.4282 30.2054 37.2914 31.0311C38.1921 31.8568 39.3368 32.5136 40.7255 33.0015C42.1516 33.4894 43.7092 33.9397 45.3981 34.3526C47.0869 34.7279 48.7758 35.1595 50.4647 35.6474C52.1911 36.1353 53.7487 36.7733 55.1373 37.5615C56.5635 38.3496 57.7082 39.4005 58.5714 40.7141C59.4346 42.0276 59.8662 43.7165 59.8662 45.7807C59.8662 47.7699 59.322 49.6276 58.2336 51.3541C57.1452 53.043 55.4563 54.4128 53.1669 55.4637C50.9151 56.477 48.0627 56.9837 44.6099 56.9837ZM75.3661 56.5333V22.0237L61.855 22.0237V17.1259L94.4506 17.1259V22.0237L80.9394 22.0237V56.5333L75.3661 56.5333ZM117.822 56.9837C114.819 56.9837 112.023 56.477 109.434 55.4637C106.882 54.4504 104.667 53.043 102.791 51.2415C100.914 49.4025 99.4505 47.2632 98.3997 44.8237C97.3488 42.3842 96.8234 39.7195 96.8234 36.8296C96.8234 33.9397 97.3488 31.2751 98.3997 28.8356C99.4505 26.396 100.914 24.2756 102.791 22.4741C104.667 20.6351 106.882 19.2089 109.434 18.1956C111.986 17.1822 114.782 16.6756 117.822 16.6756C120.824 16.6756 123.583 17.1822 126.097 18.1956C128.65 19.1714 130.864 20.5788 132.74 22.4178C134.654 24.2193 136.118 26.3398 137.132 28.7793C138.182 31.2188 138.708 33.9022 138.708 36.8296C138.708 39.757 138.182 42.4405 137.132 44.88C136.118 47.3195 134.654 49.4588 132.74 51.2978C130.864 53.0993 128.65 54.5067 126.097 55.52C123.583 56.4958 120.824 56.9837 117.822 56.9837ZM117.822 51.9733C119.999 51.9733 122.007 51.598 123.846 50.8474C125.722 50.0968 127.336 49.0459 128.687 47.6948C130.076 46.3062 131.145 44.6923 131.896 42.8533C132.684 41.0143 133.078 39.0064 133.078 36.8296C133.078 34.6528 132.684 32.6449 131.896 30.8059C131.145 28.9669 130.076 27.3718 128.687 26.0207C127.336 24.6321 125.722 23.5625 123.846 22.8118C122.007 22.0612 119.999 21.6859 117.822 21.6859C115.608 21.6859 113.562 22.0612 111.686 22.8118C109.847 23.5625 108.233 24.6321 106.844 26.0207C105.455 27.3718 104.367 28.9669 103.579 30.8059C102.828 32.6449 102.453 34.6528 102.453 36.8296C102.453 39.0064 102.828 41.0143 103.579 42.8533C104.367 44.6923 105.455 46.3062 106.844 47.6948C108.233 49.0459 109.847 50.0968 111.686 50.8474C113.562 51.598 115.608 51.9733 117.822 51.9733ZM147.312 56.5333V17.1259L162.681 17.1259C166.134 17.1259 169.08 17.6701 171.52 18.7585C173.959 19.8469 175.836 21.4232 177.149 23.4874C178.463 25.5516 179.12 28.0099 179.12 30.8622C179.12 33.7146 178.463 36.1728 177.149 38.237C175.836 40.2637 173.959 41.84 171.52 42.9659C169.08 44.0543 166.134 44.5985 162.681 44.5985L150.409 44.5985L152.942 41.9526V56.5333H147.312ZM152.942 42.5155L150.409 39.7007L162.512 39.7007C166.115 39.7007 168.836 38.9314 170.675 37.3926C172.552 35.8538 173.49 33.677 173.49 30.8622C173.49 28.0474 172.552 25.8706 170.675 24.3318C168.836 22.7931 166.115 22.0237 162.512 22.0237H150.409L152.942 19.2089V42.5155ZM187.434 44.0918L186.42 17.1259L192.782 17.1259L191.712 44.0918H187.434ZM189.629 56.8711C188.578 56.8711 187.696 56.5146 186.983 55.8015C186.27 55.0884 185.914 54.2439 185.914 53.2681C185.914 52.2173 186.27 51.3541 186.983 50.6785C187.696 50.003 188.578 49.6652 189.629 49.6652C190.68 49.6652 191.543 50.003 192.219 50.6785C192.894 51.3541 193.232 52.2173 193.232 53.2681C193.232 54.2439 192.894 55.0884 192.219 55.8015C191.543 56.5146 190.68 56.8711 189.629 56.8711ZM202.497 44.0918L201.484 17.1259H207.845L206.776 44.0918H202.497ZM204.693 56.8711C203.642 56.8711 202.76 56.5146 202.047 55.8015C201.334 55.0884 200.977 54.2439 200.977 53.2681C200.977 52.2173 201.334 51.3541 202.047 50.6785C202.76 50.003 203.642 49.6652 204.693 49.6652C205.744 49.6652 206.607 50.003 207.282 50.6785C207.958 51.3541 208.296 52.2173 208.296 53.2681C208.296 54.2439 207.958 55.0884 207.282 55.8015C206.607 56.5146 205.744 56.8711 204.693 56.8711ZM217.561 44.0918L216.548 17.1259H222.909L221.839 44.0918H217.561ZM219.756 56.8711C218.706 56.8711 217.824 56.5146 217.111 55.8015C216.397 55.0884 216.041 54.2439 216.041 53.2681C216.041 52.2173 216.397 51.3541 217.111 50.6785C217.824 50.003 218.706 49.6652 219.756 49.6652C220.807 49.6652 221.671 50.003 222.346 50.6785C223.022 51.3541 223.359 52.2173 223.359 53.2681C223.359 54.2439 223.022 55.0884 222.346 55.8015C221.671 56.5146 220.807 56.8711 219.756 56.8711ZM259.734 56.9837C256.732 56.9837 253.861 56.5333 251.121 55.6326C248.381 54.6943 246.223 53.4933 244.647 52.0296L246.73 47.6385C248.231 48.9521 250.145 50.0405 252.472 50.9037C254.799 51.7669 257.22 52.1985 259.734 52.1985C262.024 52.1985 263.881 51.9358 265.308 51.4104C266.734 50.8849 267.785 50.1718 268.46 49.2711C269.136 48.3328 269.473 47.282 269.473 46.1185C269.473 44.7674 269.023 43.679 268.122 42.8533C267.259 42.0276 266.114 41.3709 264.688 40.883C263.3 40.3575 261.761 39.9072 260.072 39.5318C258.383 39.1565 256.675 38.7249 254.949 38.237C253.26 37.7116 251.703 37.0548 250.276 36.2667C248.888 35.4785 247.762 34.4277 246.899 33.1141C246.035 31.763 245.604 30.0365 245.604 27.9348C245.604 25.9081 246.129 24.0504 247.18 22.3615C248.269 20.6351 249.92 19.2652 252.134 18.2519C254.386 17.201 257.238 16.6756 260.691 16.6756C262.981 16.6756 265.251 16.9758 267.503 17.5763C269.755 18.1768 271.707 19.04 273.358 20.1659L271.5 24.6696C269.811 23.5437 268.029 22.7368 266.152 22.2489C264.275 21.7235 262.455 21.4607 260.691 21.4607C258.477 21.4607 256.657 21.7422 255.231 22.3052C253.804 22.8681 252.753 23.6188 252.078 24.557C251.44 25.4953 251.121 26.5462 251.121 27.7096C251.121 29.0983 251.553 30.2054 252.416 31.0311C253.316 31.8568 254.461 32.5136 255.85 33.0015C257.276 33.4894 258.833 33.9397 260.522 34.3526C262.211 34.7279 263.9 35.1595 265.589 35.6474C267.315 36.1353 268.873 36.7733 270.262 37.5615C271.688 38.3496 272.833 39.4005 273.696 40.7141C274.559 42.0276 274.991 43.7165 274.991 45.7807C274.991 47.7699 274.446 49.6276 273.358 51.3541C272.27 53.043 270.581 54.4128 268.291 55.4637C266.039 56.477 263.187 56.9837 259.734 56.9837ZM290.491 56.5333V22.0237L276.979 22.0237V17.1259L309.575 17.1259V22.0237L296.064 22.0237V56.5333H290.491ZM332.946 56.9837C329.944 56.9837 327.148 56.477 324.558 55.4637C322.006 54.4504 319.792 53.043 317.915 51.2415C316.039 49.4025 314.575 47.2632 313.524 44.8237C312.473 42.3842 311.948 39.7195 311.948 36.8296C311.948 33.9397 312.473 31.2751 313.524 28.8356C314.575 26.396 316.039 24.2756 317.915 22.4741C319.792 20.6351 322.006 19.2089 324.558 18.1956C327.11 17.1822 329.906 16.6756 332.946 16.6756C335.949 16.6756 338.707 17.1822 341.222 18.1956C343.774 19.1714 345.988 20.5788 347.865 22.4178C349.779 24.2193 351.243 26.3398 352.256 28.7793C353.307 31.2188 353.832 33.9022 353.832 36.8296C353.832 39.757 353.307 42.4405 352.256 44.88C351.243 47.3195 349.779 49.4588 347.865 51.2978C345.988 53.0993 343.774 54.5067 341.222 55.52C338.707 56.4958 335.949 56.9837 332.946 56.9837ZM332.946 51.9733C335.123 51.9733 337.131 51.598 338.97 50.8474C340.847 50.0968 342.46 49.0459 343.811 47.6948C345.2 46.3062 346.27 44.6923 347.02 42.8533C347.809 41.0143 348.203 39.0064 348.203 36.8296C348.203 34.6528 347.809 32.6449 347.02 30.8059C346.27 28.9669 345.2 27.3718 343.811 26.0207C342.46 24.6321 340.847 23.5625 338.97 22.8118C337.131 22.0612 335.123 21.6859 332.946 21.6859C330.732 21.6859 328.687 22.0612 326.81 22.8118C324.971 23.5625 323.357 24.6321 321.969 26.0207C320.58 27.3718 319.491 28.9669 318.703 30.8059C317.953 32.6449 317.577 34.6528 317.577 36.8296C317.577 39.0064 317.953 41.0143 318.703 42.8533C319.491 44.6923 320.58 46.3062 321.969 47.6948C323.357 49.0459 324.971 50.0968 326.81 50.8474C328.687 51.598 330.732 51.9733 332.946 51.9733ZM362.437 56.5333V17.1259H377.806C381.258 17.1259 384.205 17.6701 386.644 18.7585C389.084 19.8469 390.96 21.4232 392.274 23.4874C393.587 25.5516 394.244 28.0099 394.244 30.8622C394.244 33.7146 393.587 36.1728 392.274 38.237C390.96 40.2637 389.084 41.84 386.644 42.9659C384.205 44.0543 381.258 44.5985 377.806 44.5985H365.533L368.066 41.9526V56.5333H362.437ZM368.066 42.5155L365.533 39.7007H377.637C381.24 39.7007 383.961 38.9314 385.8 37.3926C387.676 35.8538 388.614 33.677 388.614 30.8622C388.614 28.0474 387.676 25.8706 385.8 24.3318C383.961 22.7931 381.24 22.0237 377.637 22.0237H365.533L368.066 19.2089V42.5155ZM402.558 44.0918L401.545 17.1259H407.906L406.836 44.0918H402.558ZM404.754 56.8711C403.703 56.8711 402.821 56.5146 402.108 55.8015C401.394 55.0884 401.038 54.2439 401.038 53.2681C401.038 52.2173 401.394 51.3541 402.108 50.6785C402.821 50.003 403.703 49.6652 404.754 49.6652C405.804 49.6652 406.668 50.003 407.343 50.6785C408.019 51.3541 408.356 52.2173 408.356 53.2681C408.356 54.2439 408.019 55.0884 407.343 55.8015C406.668 56.5146 405.804 56.8711 404.754 56.8711ZM417.622 44.0918L416.608 17.1259L422.97 17.1259L421.9 44.0918H417.622ZM419.817 56.8711C418.766 56.8711 417.884 56.5146 417.171 55.8015C416.458 55.0884 416.102 54.2439 416.102 53.2681C416.102 52.2173 416.458 51.3541 417.171 50.6785C417.884 50.003 418.766 49.6652 419.817 49.6652C420.868 49.6652 421.731 50.003 422.407 50.6785C423.082 51.3541 423.42 52.2173 423.42 53.2681C423.42 54.2439 423.082 55.0884 422.407 55.8015C421.731 56.5146 420.868 56.8711 419.817 56.8711ZM432.685 44.0918L431.672 17.1259H438.033L436.964 44.0918H432.685ZM434.881 56.8711C433.83 56.8711 432.948 56.5146 432.235 55.8015C431.522 55.0884 431.165 54.2439 431.165 53.2681C431.165 52.2173 431.522 51.3541 432.235 50.6785C432.948 50.003 433.83 49.6652 434.881 49.6652C435.932 49.6652 436.795 50.003 437.47 50.6785C438.146 51.3541 438.484 52.2173 438.484 53.2681C438.484 54.2439 438.146 55.0884 437.47 55.8015C436.795 56.5146 435.932 56.8711 434.881 56.8711ZM1335.36 56.9837C1332.35 56.9837 1329.48 56.5333 1326.74 55.6326C1324 54.6943 1321.85 53.4933 1320.27 52.0296L1322.35 47.6385C1323.85 48.9521 1325.77 50.0405 1328.09 50.9037C1330.42 51.7669 1332.84 52.1985 1335.36 52.1985C1337.65 52.1985 1339.5 51.9358 1340.93 51.4104C1342.36 50.8849 1343.41 50.1718 1344.08 49.2711C1344.76 48.3328 1345.1 47.282 1345.1 46.1185C1345.1 44.7674 1344.65 43.679 1343.74 42.8533C1342.88 42.0276 1341.74 41.3709 1340.31 40.883C1338.92 40.3575 1337.38 39.9072 1335.69 39.5318C1334.01 39.1565 1332.3 38.7249 1330.57 38.237C1328.88 37.7116 1327.32 37.0548 1325.9 36.2667C1324.51 35.4785 1323.38 34.4277 1322.52 33.1141C1321.66 31.763 1321.23 30.0365 1321.23 27.9348C1321.23 25.9081 1321.75 24.0504 1322.8 22.3615C1323.89 20.6351 1325.54 19.2652 1327.76 18.2519C1330.01 17.201 1332.86 16.6756 1336.31 16.6756C1338.6 16.6756 1340.87 16.9758 1343.13 17.5763C1345.38 18.1768 1347.33 19.04 1348.98 20.1659L1347.12 24.6696C1345.43 23.5437 1343.65 22.7368 1341.77 22.2489C1339.9 21.7235 1338.08 21.4607 1336.31 21.4607C1334.1 21.4607 1332.28 21.7422 1330.85 22.3052C1329.43 22.8681 1328.38 23.6188 1327.7 24.557C1327.06 25.4953 1326.74 26.5462 1326.74 27.7096C1326.74 29.0983 1327.17 30.2054 1328.04 31.0311C1328.94 31.8568 1330.08 32.5136 1331.47 33.0015C1332.9 33.4894 1334.46 33.9397 1336.14 34.3526C1337.83 34.7279 1339.52 35.1595 1341.21 35.6474C1342.94 36.1353 1344.49 36.7733 1345.88 37.5615C1347.31 38.3496 1348.45 39.4005 1349.32 40.7141C1350.18 42.0276 1350.61 43.7165 1350.61 45.7807C1350.61 47.7699 1350.07 49.6276 1348.98 51.3541C1347.89 53.043 1346.2 54.4128 1343.91 55.4637C1341.66 56.477 1338.81 56.9837 1335.36 56.9837ZM1366.11 56.5333V22.0237H1352.6V17.1259L1385.2 17.1259V22.0237H1371.69V56.5333H1366.11ZM1408.57 56.9837C1405.57 56.9837 1402.77 56.477 1400.18 55.4637C1397.63 54.4504 1395.41 53.043 1393.54 51.2415C1391.66 49.4025 1390.2 47.2632 1389.15 44.8237C1388.1 42.3842 1387.57 39.7195 1387.57 36.8296C1387.57 33.9397 1388.1 31.2751 1389.15 28.8356C1390.2 26.396 1391.66 24.2756 1393.54 22.4741C1395.41 20.6351 1397.63 19.2089 1400.18 18.1956C1402.73 17.1822 1405.53 16.6756 1408.57 16.6756C1411.57 16.6756 1414.33 17.1822 1416.84 18.1956C1419.4 19.1714 1421.61 20.5788 1423.49 22.4178C1425.4 24.2193 1426.86 26.3398 1427.88 28.7793C1428.93 31.2188 1429.45 33.9022 1429.45 36.8296C1429.45 39.757 1428.93 42.4405 1427.88 44.88C1426.86 47.3195 1425.4 49.4588 1423.49 51.2978C1421.61 53.0993 1419.4 54.5067 1416.84 55.52C1414.33 56.4958 1411.57 56.9837 1408.57 56.9837ZM1408.57 51.9733C1410.74 51.9733 1412.75 51.598 1414.59 50.8474C1416.47 50.0968 1418.08 49.0459 1419.43 47.6948C1420.82 46.3062 1421.89 44.6923 1422.64 42.8533C1423.43 41.0143 1423.82 39.0064 1423.82 36.8296C1423.82 34.6528 1423.43 32.6449 1422.64 30.8059C1421.89 28.9669 1420.82 27.3718 1419.43 26.0207C1418.08 24.6321 1416.47 23.5625 1414.59 22.8118C1412.75 22.0612 1410.74 21.6859 1408.57 21.6859C1406.35 21.6859 1404.31 22.0612 1402.43 22.8118C1400.59 23.5625 1398.98 24.6321 1397.59 26.0207C1396.2 27.3718 1395.11 28.9669 1394.33 30.8059C1393.57 32.6449 1393.2 34.6528 1393.2 36.8296C1393.2 39.0064 1393.57 41.0143 1394.33 42.8533C1395.11 44.6923 1396.2 46.3062 1397.59 47.6948C1398.98 49.0459 1400.59 50.0968 1402.43 50.8474C1404.31 51.598 1406.35 51.9733 1408.57 51.9733ZM1438.06 56.5333V17.1259L1453.43 17.1259C1456.88 17.1259 1459.83 17.6701 1462.27 18.7585C1464.71 19.8469 1466.58 21.4232 1467.9 23.4874C1469.21 25.5516 1469.87 28.0099 1469.87 30.8622C1469.87 33.7146 1469.21 36.1728 1467.9 38.237C1466.58 40.2637 1464.71 41.84 1462.27 42.9659C1459.83 44.0543 1456.88 44.5985 1453.43 44.5985H1441.15L1443.69 41.9526V56.5333H1438.06ZM1443.69 42.5155L1441.15 39.7007H1453.26C1456.86 39.7007 1459.58 38.9314 1461.42 37.3926C1463.3 35.8538 1464.24 33.677 1464.24 30.8622C1464.24 28.0474 1463.3 25.8706 1461.42 24.3318C1459.58 22.7931 1456.86 22.0237 1453.26 22.0237L1441.15 22.0237L1443.69 19.2089V42.5155ZM1478.18 44.0918L1477.17 17.1259L1483.53 17.1259L1482.46 44.0918H1478.18ZM1480.38 56.8711C1479.32 56.8711 1478.44 56.5146 1477.73 55.8015C1477.02 55.0884 1476.66 54.2439 1476.66 53.2681C1476.66 52.2173 1477.02 51.3541 1477.73 50.6785C1478.44 50.003 1479.32 49.6652 1480.38 49.6652C1481.43 49.6652 1482.29 50.003 1482.96 50.6785C1483.64 51.3541 1483.98 52.2173 1483.98 53.2681C1483.98 54.2439 1483.64 55.0884 1482.96 55.8015C1482.29 56.5146 1481.43 56.8711 1480.38 56.8711ZM1493.24 44.0918L1492.23 17.1259H1498.59L1497.52 44.0918H1493.24ZM1495.44 56.8711C1494.39 56.8711 1493.51 56.5146 1492.79 55.8015C1492.08 55.0884 1491.72 54.2439 1491.72 53.2681C1491.72 52.2173 1492.08 51.3541 1492.79 50.6785C1493.51 50.003 1494.39 49.6652 1495.44 49.6652C1496.49 49.6652 1497.35 50.003 1498.03 50.6785C1498.7 51.3541 1499.04 52.2173 1499.04 53.2681C1499.04 54.2439 1498.7 55.0884 1498.03 55.8015C1497.35 56.5146 1496.49 56.8711 1495.44 56.8711ZM1508.31 44.0918L1507.29 17.1259L1513.66 17.1259L1512.59 44.0918H1508.31ZM1510.5 56.8711C1509.45 56.8711 1508.57 56.5146 1507.86 55.8015C1507.14 55.0884 1506.79 54.2439 1506.79 53.2681C1506.79 52.2173 1507.14 51.3541 1507.86 50.6785C1508.57 50.003 1509.45 49.6652 1510.5 49.6652C1511.55 49.6652 1512.42 50.003 1513.09 50.6785C1513.77 51.3541 1514.11 52.2173 1514.11 53.2681C1514.11 54.2439 1513.77 55.0884 1513.09 55.8015C1512.42 56.5146 1511.55 56.8711 1510.5 56.8711Z" fill="black"/>
<path d="M474.859 56.9837C471.856 56.9837 468.985 56.5333 466.245 55.6326C463.506 54.6943 461.348 53.4933 459.771 52.0296L461.854 47.6385C463.355 48.9521 465.27 50.0405 467.596 50.9037C469.923 51.7669 472.344 52.1985 474.859 52.1985C477.148 52.1985 479.006 51.9358 480.432 51.4104C481.858 50.8849 482.909 50.1718 483.585 49.2711C484.26 48.3328 484.598 47.282 484.598 46.1185C484.598 44.7674 484.148 43.679 483.247 42.8533C482.384 42.0276 481.239 41.3709 479.813 40.883C478.424 40.3575 476.885 39.9072 475.196 39.5318C473.508 39.1565 471.8 38.7249 470.074 38.237C468.385 37.7116 466.827 37.0548 465.401 36.2667C464.012 35.4785 462.886 34.4277 462.023 33.1141C461.16 31.763 460.728 30.0365 460.728 27.9348C460.728 25.9081 461.254 24.0504 462.305 22.3615C463.393 20.6351 465.044 19.2652 467.259 18.2519C469.511 17.201 472.363 16.6756 475.816 16.6756C478.105 16.6756 480.376 16.9758 482.628 17.5763C484.879 18.1768 486.831 19.04 488.482 20.1659L486.625 24.6696C484.936 23.5437 483.153 22.7368 481.276 22.2489C479.4 21.7235 477.58 21.4607 475.816 21.4607C473.601 21.4607 471.781 21.7422 470.355 22.3052C468.929 22.8681 467.878 23.6188 467.202 24.557C466.564 25.4953 466.245 26.5462 466.245 27.7096C466.245 29.0983 466.677 30.2054 467.54 31.0311C468.441 31.8568 469.586 32.5136 470.974 33.0015C472.4 33.4894 473.958 33.9397 475.647 34.3526C477.336 34.7279 479.025 35.1595 480.714 35.6474C482.44 36.1353 483.997 36.7733 485.386 37.5615C486.812 38.3496 487.957 39.4005 488.82 40.7141C489.683 42.0276 490.115 43.7165 490.115 45.7807C490.115 47.7699 489.571 49.6276 488.482 51.3541C487.394 53.043 485.705 54.4128 483.416 55.4637C481.164 56.477 478.312 56.9837 474.859 56.9837ZM505.615 56.5333V22.0237L492.104 22.0237V17.1259L524.699 17.1259V22.0237L511.188 22.0237V56.5333H505.615ZM548.071 56.9837C545.068 56.9837 542.272 56.477 539.682 55.4637C537.13 54.4504 534.916 53.043 533.04 51.2415C531.163 49.4025 529.699 47.2632 528.648 44.8237C527.598 42.3842 527.072 39.7195 527.072 36.8296C527.072 33.9397 527.598 31.2751 528.648 28.8356C529.699 26.396 531.163 24.2756 533.04 22.4741C534.916 20.6351 537.13 19.2089 539.682 18.1956C542.235 17.1822 545.031 16.6756 548.071 16.6756C551.073 16.6756 553.832 17.1822 556.346 18.1956C558.898 19.1714 561.113 20.5788 562.989 22.4178C564.903 24.2193 566.367 26.3398 567.38 28.7793C568.431 31.2188 568.957 33.9022 568.957 36.8296C568.957 39.757 568.431 42.4405 567.38 44.88C566.367 47.3195 564.903 49.4588 562.989 51.2978C561.113 53.0993 558.898 54.5067 556.346 55.52C553.832 56.4958 551.073 56.9837 548.071 56.9837ZM548.071 51.9733C550.247 51.9733 552.255 51.598 554.094 50.8474C555.971 50.0968 557.585 49.0459 558.936 47.6948C560.324 46.3062 561.394 44.6923 562.145 42.8533C562.933 41.0143 563.327 39.0064 563.327 36.8296C563.327 34.6528 562.933 32.6449 562.145 30.8059C561.394 28.9669 560.324 27.3718 558.936 26.0207C557.585 24.6321 555.971 23.5625 554.094 22.8118C552.255 22.0612 550.247 21.6859 548.071 21.6859C545.856 21.6859 543.811 22.0612 541.934 22.8118C540.095 23.5625 538.481 24.6321 537.093 26.0207C535.704 27.3718 534.616 28.9669 533.828 30.8059C533.077 32.6449 532.702 34.6528 532.702 36.8296C532.702 39.0064 533.077 41.0143 533.828 42.8533C534.616 44.6923 535.704 46.3062 537.093 47.6948C538.481 49.0459 540.095 50.0968 541.934 50.8474C543.811 51.598 545.856 51.9733 548.071 51.9733ZM577.561 56.5333V17.1259L592.93 17.1259C596.383 17.1259 599.329 17.6701 601.769 18.7585C604.208 19.8469 606.085 21.4232 607.398 23.4874C608.712 25.5516 609.369 28.0099 609.369 30.8622C609.369 33.7146 608.712 36.1728 607.398 38.237C606.085 40.2637 604.208 41.84 601.769 42.9659C599.329 44.0543 596.383 44.5985 592.93 44.5985L580.657 44.5985L583.191 41.9526V56.5333L577.561 56.5333ZM583.191 42.5155L580.657 39.7007L592.761 39.7007C596.364 39.7007 599.085 38.9314 600.924 37.3926C602.801 35.8538 603.739 33.677 603.739 30.8622C603.739 28.0474 602.801 25.8706 600.924 24.3318C599.085 22.7931 596.364 22.0237 592.761 22.0237L580.657 22.0237L583.191 19.2089V42.5155ZM617.682 44.0918L616.669 17.1259H623.03L621.961 44.0918L617.682 44.0918ZM619.878 56.8711C618.827 56.8711 617.945 56.5146 617.232 55.8015C616.519 55.0884 616.162 54.2439 616.162 53.2681C616.162 52.2173 616.519 51.3541 617.232 50.6785C617.945 50.003 618.827 49.6652 619.878 49.6652C620.929 49.6652 621.792 50.003 622.467 50.6785C623.143 51.3541 623.481 52.2173 623.481 53.2681C623.481 54.2439 623.143 55.0884 622.467 55.8015C621.792 56.5146 620.929 56.8711 619.878 56.8711ZM632.746 44.0918L631.733 17.1259H638.094L637.025 44.0918H632.746ZM634.942 56.8711C633.891 56.8711 633.009 56.5146 632.296 55.8015C631.583 55.0884 631.226 54.2439 631.226 53.2681C631.226 52.2173 631.583 51.3541 632.296 50.6785C633.009 50.003 633.891 49.6652 634.942 49.6652C635.992 49.6652 636.856 50.003 637.531 50.6785C638.207 51.3541 638.545 52.2173 638.545 53.2681C638.545 54.2439 638.207 55.0884 637.531 55.8015C636.856 56.5146 635.992 56.8711 634.942 56.8711ZM647.81 44.0918L646.796 17.1259H653.158L652.088 44.0918H647.81ZM650.005 56.8711C648.954 56.8711 648.072 56.5146 647.359 55.8015C646.646 55.0884 646.29 54.2439 646.29 53.2681C646.29 52.2173 646.646 51.3541 647.359 50.6785C648.072 50.003 648.954 49.6652 650.005 49.6652C651.056 49.6652 651.919 50.003 652.595 50.6785C653.27 51.3541 653.608 52.2173 653.608 53.2681C653.608 54.2439 653.27 55.0884 652.595 55.8015C651.919 56.5146 651.056 56.8711 650.005 56.8711ZM689.983 56.9837C686.98 56.9837 684.109 56.5333 681.37 55.6326C678.63 54.6943 676.472 53.4933 674.896 52.0296L676.979 47.6385C678.48 48.9521 680.394 50.0405 682.721 50.9037C685.048 51.7669 687.468 52.1985 689.983 52.1985C692.272 52.1985 694.13 51.9358 695.556 51.4104C696.982 50.8849 698.033 50.1718 698.709 49.2711C699.384 48.3328 699.722 47.282 699.722 46.1185C699.722 44.7674 699.272 43.679 698.371 42.8533C697.508 42.0276 696.363 41.3709 694.937 40.883C693.548 40.3575 692.01 39.9072 690.321 39.5318C688.632 39.1565 686.924 38.7249 685.198 38.237C683.509 37.7116 681.951 37.0548 680.525 36.2667C679.137 35.4785 678.011 34.4277 677.147 33.1141C676.284 31.763 675.853 30.0365 675.853 27.9348C675.853 25.9081 676.378 24.0504 677.429 22.3615C678.517 20.6351 680.169 19.2652 682.383 18.2519C684.635 17.201 687.487 16.6756 690.94 16.6756C693.229 16.6756 695.5 16.9758 697.752 17.5763C700.004 18.1768 701.955 19.04 703.607 20.1659L701.749 24.6696C700.06 23.5437 698.277 22.7368 696.401 22.2489C694.524 21.7235 692.704 21.4607 690.94 21.4607C688.726 21.4607 686.905 21.7422 685.479 22.3052C684.053 22.8681 683.002 23.6188 682.327 24.557C681.689 25.4953 681.37 26.5462 681.37 27.7096C681.37 29.0983 681.801 30.2054 682.664 31.0311C683.565 31.8568 684.71 32.5136 686.099 33.0015C687.525 33.4894 689.082 33.9397 690.771 34.3526C692.46 34.7279 694.149 35.1595 695.838 35.6474C697.564 36.1353 699.122 36.7733 700.51 37.5615C701.937 38.3496 703.081 39.4005 703.944 40.7141C704.808 42.0276 705.239 43.7165 705.239 45.7807C705.239 47.7699 704.695 49.6276 703.607 51.3541C702.518 53.043 700.829 54.4128 698.54 55.4637C696.288 56.477 693.436 56.9837 689.983 56.9837ZM720.739 56.5333V22.0237L707.228 22.0237V17.1259L739.824 17.1259V22.0237L726.313 22.0237V56.5333H720.739ZM763.195 56.9837C760.193 56.9837 757.396 56.477 754.807 55.4637C752.255 54.4504 750.04 53.043 748.164 51.2415C746.287 49.4025 744.824 47.2632 743.773 44.8237C742.722 42.3842 742.196 39.7195 742.196 36.8296C742.196 33.9397 742.722 31.2751 743.773 28.8356C744.824 26.396 746.287 24.2756 748.164 22.4741C750.04 20.6351 752.255 19.2089 754.807 18.1956C757.359 17.1822 760.155 16.6756 763.195 16.6756C766.197 16.6756 768.956 17.1822 771.471 18.1956C774.023 19.1714 776.237 20.5788 778.114 22.4178C780.028 24.2193 781.491 26.3398 782.505 28.7793C783.555 31.2188 784.081 33.9022 784.081 36.8296C784.081 39.757 783.555 42.4405 782.505 44.88C781.491 47.3195 780.028 49.4588 778.114 51.2978C776.237 53.0993 774.023 54.5067 771.471 55.52C768.956 56.4958 766.197 56.9837 763.195 56.9837ZM763.195 51.9733C765.372 51.9733 767.38 51.598 769.219 50.8474C771.095 50.0968 772.709 49.0459 774.06 47.6948C775.449 46.3062 776.518 44.6923 777.269 42.8533C778.057 41.0143 778.451 39.0064 778.451 36.8296C778.451 34.6528 778.057 32.6449 777.269 30.8059C776.518 28.9669 775.449 27.3718 774.06 26.0207C772.709 24.6321 771.095 23.5625 769.219 22.8118C767.38 22.0612 765.372 21.6859 763.195 21.6859C760.981 21.6859 758.935 22.0612 757.059 22.8118C755.22 23.5625 753.606 24.6321 752.217 26.0207C750.829 27.3718 749.74 28.9669 748.952 30.8059C748.201 32.6449 747.826 34.6528 747.826 36.8296C747.826 39.0064 748.201 41.0143 748.952 42.8533C749.74 44.6923 750.829 46.3062 752.217 47.6948C753.606 49.0459 755.22 50.0968 757.059 50.8474C758.935 51.598 760.981 51.9733 763.195 51.9733ZM792.685 56.5333V17.1259H808.054C811.507 17.1259 814.453 17.6701 816.893 18.7585C819.332 19.8469 821.209 21.4232 822.522 23.4874C823.836 25.5516 824.493 28.0099 824.493 30.8622C824.493 33.7146 823.836 36.1728 822.522 38.237C821.209 40.2637 819.332 41.84 816.893 42.9659C814.453 44.0543 811.507 44.5985 808.054 44.5985H795.782L798.315 41.9526V56.5333H792.685ZM798.315 42.5155L795.782 39.7007H807.885C811.488 39.7007 814.209 38.9314 816.048 37.3926C817.925 35.8538 818.863 33.677 818.863 30.8622C818.863 28.0474 817.925 25.8706 816.048 24.3318C814.209 22.7931 811.488 22.0237 807.885 22.0237L795.782 22.0237L798.315 19.2089V42.5155ZM832.807 44.0918L831.793 17.1259H838.155L837.085 44.0918H832.807ZM835.002 56.8711C833.951 56.8711 833.069 56.5146 832.356 55.8015C831.643 55.0884 831.287 54.2439 831.287 53.2681C831.287 52.2173 831.643 51.3541 832.356 50.6785C833.069 50.003 833.951 49.6652 835.002 49.6652C836.053 49.6652 836.916 50.003 837.592 50.6785C838.267 51.3541 838.605 52.2173 838.605 53.2681C838.605 54.2439 838.267 55.0884 837.592 55.8015C836.916 56.5146 836.053 56.8711 835.002 56.8711ZM847.87 44.0918L846.857 17.1259L853.219 17.1259L852.149 44.0918H847.87ZM850.066 56.8711C849.015 56.8711 848.133 56.5146 847.42 55.8015C846.707 55.0884 846.35 54.2439 846.35 53.2681C846.35 52.2173 846.707 51.3541 847.42 50.6785C848.133 50.003 849.015 49.6652 850.066 49.6652C851.117 49.6652 851.98 50.003 852.656 50.6785C853.331 51.3541 853.669 52.2173 853.669 53.2681C853.669 54.2439 853.331 55.0884 852.656 55.8015C851.98 56.5146 851.117 56.8711 850.066 56.8711ZM862.934 44.0918L861.921 17.1259H868.282L867.213 44.0918H862.934ZM865.13 56.8711C864.079 56.8711 863.197 56.5146 862.484 55.8015C861.771 55.0884 861.414 54.2439 861.414 53.2681C861.414 52.2173 861.771 51.3541 862.484 50.6785C863.197 50.003 864.079 49.6652 865.13 49.6652C866.18 49.6652 867.044 50.003 867.719 50.6785C868.395 51.3541 868.733 52.2173 868.733 53.2681C868.733 54.2439 868.395 55.0884 867.719 55.8015C867.044 56.5146 866.18 56.8711 865.13 56.8711ZM905.107 56.9837C902.105 56.9837 899.234 56.5333 896.494 55.6326C893.754 54.6943 891.596 53.4933 890.02 52.0296L892.103 47.6385C893.604 48.9521 895.518 50.0405 897.845 50.9037C900.172 51.7669 902.593 52.1985 905.107 52.1985C907.397 52.1985 909.255 51.9358 910.681 51.4104C912.107 50.8849 913.158 50.1718 913.833 49.2711C914.509 48.3328 914.847 47.282 914.847 46.1185C914.847 44.7674 914.396 43.679 913.495 42.8533C912.632 42.0276 911.488 41.3709 910.061 40.883C908.673 40.3575 907.134 39.9072 905.445 39.5318C903.756 39.1565 902.049 38.7249 900.322 38.237C898.633 37.7116 897.076 37.0548 895.65 36.2667C894.261 35.4785 893.135 34.4277 892.272 33.1141C891.409 31.763 890.977 30.0365 890.977 27.9348C890.977 25.9081 891.502 24.0504 892.553 22.3615C893.642 20.6351 895.293 19.2652 897.507 18.2519C899.759 17.201 902.612 16.6756 906.064 16.6756C908.354 16.6756 910.624 16.9758 912.876 17.5763C915.128 18.1768 917.08 19.04 918.731 20.1659L916.873 24.6696C915.184 23.5437 913.402 22.7368 911.525 22.2489C909.649 21.7235 907.828 21.4607 906.064 21.4607C903.85 21.4607 902.03 21.7422 900.604 22.3052C899.177 22.8681 898.127 23.6188 897.451 24.557C896.813 25.4953 896.494 26.5462 896.494 27.7096C896.494 29.0983 896.926 30.2054 897.789 31.0311C898.69 31.8568 899.834 32.5136 901.223 33.0015C902.649 33.4894 904.207 33.9397 905.895 34.3526C907.584 34.7279 909.273 35.1595 910.962 35.6474C912.689 36.1353 914.246 36.7733 915.635 37.5615C917.061 38.3496 918.206 39.4005 919.069 40.7141C919.932 42.0276 920.364 43.7165 920.364 45.7807C920.364 47.7699 919.819 49.6276 918.731 51.3541C917.643 53.043 915.954 54.4128 913.664 55.4637C911.413 56.477 908.56 56.9837 905.107 56.9837ZM935.864 56.5333V22.0237H922.353V17.1259L954.948 17.1259V22.0237H941.437V56.5333H935.864ZM978.319 56.9837C975.317 56.9837 972.521 56.477 969.931 55.4637C967.379 54.4504 965.165 53.043 963.288 51.2415C961.412 49.4025 959.948 47.2632 958.897 44.8237C957.846 42.3842 957.321 39.7195 957.321 36.8296C957.321 33.9397 957.846 31.2751 958.897 28.8356C959.948 26.396 961.412 24.2756 963.288 22.4741C965.165 20.6351 967.379 19.2089 969.931 18.1956C972.483 17.1822 975.279 16.6756 978.319 16.6756C981.322 16.6756 984.08 17.1822 986.595 18.1956C989.147 19.1714 991.361 20.5788 993.238 22.4178C995.152 24.2193 996.616 26.3398 997.629 28.7793C998.68 31.2188 999.205 33.9022 999.205 36.8296C999.205 39.757 998.68 42.4405 997.629 44.88C996.616 47.3195 995.152 49.4588 993.238 51.2978C991.361 53.0993 989.147 54.5067 986.595 55.52C984.08 56.4958 981.322 56.9837 978.319 56.9837ZM978.319 51.9733C980.496 51.9733 982.504 51.598 984.343 50.8474C986.22 50.0968 987.833 49.0459 989.185 47.6948C990.573 46.3062 991.643 44.6923 992.393 42.8533C993.182 41.0143 993.576 39.0064 993.576 36.8296C993.576 34.6528 993.182 32.6449 992.393 30.8059C991.643 28.9669 990.573 27.3718 989.185 26.0207C987.833 24.6321 986.22 23.5625 984.343 22.8118C982.504 22.0612 980.496 21.6859 978.319 21.6859C976.105 21.6859 974.06 22.0612 972.183 22.8118C970.344 23.5625 968.73 24.6321 967.342 26.0207C965.953 27.3718 964.865 28.9669 964.076 30.8059C963.326 32.6449 962.951 34.6528 962.951 36.8296C962.951 39.0064 963.326 41.0143 964.076 42.8533C964.865 44.6923 965.953 46.3062 967.342 47.6948C968.73 49.0459 970.344 50.0968 972.183 50.8474C974.06 51.598 976.105 51.9733 978.319 51.9733ZM1007.81 56.5333V17.1259L1023.18 17.1259C1026.63 17.1259 1029.58 17.6701 1032.02 18.7585C1034.46 19.8469 1036.33 21.4232 1037.65 23.4874C1038.96 25.5516 1039.62 28.0099 1039.62 30.8622C1039.62 33.7146 1038.96 36.1728 1037.65 38.237C1036.33 40.2637 1034.46 41.84 1032.02 42.9659C1029.58 44.0543 1026.63 44.5985 1023.18 44.5985H1010.91L1013.44 41.9526V56.5333L1007.81 56.5333ZM1013.44 42.5155L1010.91 39.7007H1023.01C1026.61 39.7007 1029.33 38.9314 1031.17 37.3926C1033.05 35.8538 1033.99 33.677 1033.99 30.8622C1033.99 28.0474 1033.05 25.8706 1031.17 24.3318C1029.33 22.7931 1026.61 22.0237 1023.01 22.0237L1010.91 22.0237L1013.44 19.2089V42.5155ZM1047.93 44.0918L1046.92 17.1259L1053.28 17.1259L1052.21 44.0918L1047.93 44.0918ZM1050.13 56.8711C1049.08 56.8711 1048.19 56.5146 1047.48 55.8015C1046.77 55.0884 1046.41 54.2439 1046.41 53.2681C1046.41 52.2173 1046.77 51.3541 1047.48 50.6785C1048.19 50.003 1049.08 49.6652 1050.13 49.6652C1051.18 49.6652 1052.04 50.003 1052.72 50.6785C1053.39 51.3541 1053.73 52.2173 1053.73 53.2681C1053.73 54.2439 1053.39 55.0884 1052.72 55.8015C1052.04 56.5146 1051.18 56.8711 1050.13 56.8711ZM1062.99 44.0918L1061.98 17.1259H1068.34L1067.27 44.0918H1062.99ZM1065.19 56.8711C1064.14 56.8711 1063.26 56.5146 1062.54 55.8015C1061.83 55.0884 1061.47 54.2439 1061.47 53.2681C1061.47 52.2173 1061.83 51.3541 1062.54 50.6785C1063.26 50.003 1064.14 49.6652 1065.19 49.6652C1066.24 49.6652 1067.1 50.003 1067.78 50.6785C1068.46 51.3541 1068.79 52.2173 1068.79 53.2681C1068.79 54.2439 1068.46 55.0884 1067.78 55.8015C1067.1 56.5146 1066.24 56.8711 1065.19 56.8711ZM1078.06 44.0918L1077.05 17.1259L1083.41 17.1259L1082.34 44.0918H1078.06ZM1080.25 56.8711C1079.2 56.8711 1078.32 56.5146 1077.61 55.8015C1076.89 55.0884 1076.54 54.2439 1076.54 53.2681C1076.54 52.2173 1076.89 51.3541 1077.61 50.6785C1078.32 50.003 1079.2 49.6652 1080.25 49.6652C1081.3 49.6652 1082.17 50.003 1082.84 50.6785C1083.52 51.3541 1083.86 52.2173 1083.86 53.2681C1083.86 54.2439 1083.52 55.0884 1082.84 55.8015C1082.17 56.5146 1081.3 56.8711 1080.25 56.8711ZM1120.23 56.9837C1117.23 56.9837 1114.36 56.5333 1111.62 55.6326C1108.88 54.6943 1106.72 53.4933 1105.14 52.0296L1107.23 47.6385C1108.73 48.9521 1110.64 50.0405 1112.97 50.9037C1115.3 51.7669 1117.72 52.1985 1120.23 52.1985C1122.52 52.1985 1124.38 51.9358 1125.81 51.4104C1127.23 50.8849 1128.28 50.1718 1128.96 49.2711C1129.63 48.3328 1129.97 47.282 1129.97 46.1185C1129.97 44.7674 1129.52 43.679 1128.62 42.8533C1127.76 42.0276 1126.61 41.3709 1125.19 40.883C1123.8 40.3575 1122.26 39.9072 1120.57 39.5318C1118.88 39.1565 1117.17 38.7249 1115.45 38.237C1113.76 37.7116 1112.2 37.0548 1110.77 36.2667C1109.39 35.4785 1108.26 34.4277 1107.4 33.1141C1106.53 31.763 1106.1 30.0365 1106.1 27.9348C1106.1 25.9081 1106.63 24.0504 1107.68 22.3615C1108.77 20.6351 1110.42 19.2652 1112.63 18.2519C1114.88 17.201 1117.74 16.6756 1121.19 16.6756C1123.48 16.6756 1125.75 16.9758 1128 17.5763C1130.25 18.1768 1132.2 19.04 1133.86 20.1659L1132 24.6696C1130.31 23.5437 1128.53 22.7368 1126.65 22.2489C1124.77 21.7235 1122.95 21.4607 1121.19 21.4607C1118.97 21.4607 1117.15 21.7422 1115.73 22.3052C1114.3 22.8681 1113.25 23.6188 1112.58 24.557C1111.94 25.4953 1111.62 26.5462 1111.62 27.7096C1111.62 29.0983 1112.05 30.2054 1112.91 31.0311C1113.81 31.8568 1114.96 32.5136 1116.35 33.0015C1117.77 33.4894 1119.33 33.9397 1121.02 34.3526C1122.71 34.7279 1124.4 35.1595 1126.09 35.6474C1127.81 36.1353 1129.37 36.7733 1130.76 37.5615C1132.19 38.3496 1133.33 39.4005 1134.19 40.7141C1135.06 42.0276 1135.49 43.7165 1135.49 45.7807C1135.49 47.7699 1134.94 49.6276 1133.86 51.3541C1132.77 53.043 1131.08 54.4128 1128.79 55.4637C1126.54 56.477 1123.68 56.9837 1120.23 56.9837ZM1150.99 56.5333V22.0237H1137.48V17.1259L1170.07 17.1259V22.0237H1156.56V56.5333H1150.99ZM1193.44 56.9837C1190.44 56.9837 1187.65 56.477 1185.06 55.4637C1182.5 54.4504 1180.29 53.043 1178.41 51.2415C1176.54 49.4025 1175.07 47.2632 1174.02 44.8237C1172.97 42.3842 1172.45 39.7195 1172.45 36.8296C1172.45 33.9397 1172.97 31.2751 1174.02 28.8356C1175.07 26.396 1176.54 24.2756 1178.41 22.4741C1180.29 20.6351 1182.5 19.2089 1185.06 18.1956C1187.61 17.1822 1190.4 16.6756 1193.44 16.6756C1196.45 16.6756 1199.2 17.1822 1201.72 18.1956C1204.27 19.1714 1206.49 20.5788 1208.36 22.4178C1210.28 24.2193 1211.74 26.3398 1212.75 28.7793C1213.8 31.2188 1214.33 33.9022 1214.33 36.8296C1214.33 39.757 1213.8 42.4405 1212.75 44.88C1211.74 47.3195 1210.28 49.4588 1208.36 51.2978C1206.49 53.0993 1204.27 54.5067 1201.72 55.52C1199.2 56.4958 1196.45 56.9837 1193.44 56.9837ZM1193.44 51.9733C1195.62 51.9733 1197.63 51.598 1199.47 50.8474C1201.34 50.0968 1202.96 49.0459 1204.31 47.6948C1205.7 46.3062 1206.77 44.6923 1207.52 42.8533C1208.31 41.0143 1208.7 39.0064 1208.7 36.8296C1208.7 34.6528 1208.31 32.6449 1207.52 30.8059C1206.77 28.9669 1205.7 27.3718 1204.31 26.0207C1202.96 24.6321 1201.34 23.5625 1199.47 22.8118C1197.63 22.0612 1195.62 21.6859 1193.44 21.6859C1191.23 21.6859 1189.18 22.0612 1187.31 22.8118C1185.47 23.5625 1183.85 24.6321 1182.47 26.0207C1181.08 27.3718 1179.99 28.9669 1179.2 30.8059C1178.45 32.6449 1178.07 34.6528 1178.07 36.8296C1178.07 39.0064 1178.45 41.0143 1179.2 42.8533C1179.99 44.6923 1181.08 46.3062 1182.47 47.6948C1183.85 49.0459 1185.47 50.0968 1187.31 50.8474C1189.18 51.598 1191.23 51.9733 1193.44 51.9733ZM1222.93 56.5333V17.1259L1238.3 17.1259C1241.76 17.1259 1244.7 17.6701 1247.14 18.7585C1249.58 19.8469 1251.46 21.4232 1252.77 23.4874C1254.08 25.5516 1254.74 28.0099 1254.74 30.8622C1254.74 33.7146 1254.08 36.1728 1252.77 38.237C1251.46 40.2637 1249.58 41.84 1247.14 42.9659C1244.7 44.0543 1241.76 44.5985 1238.3 44.5985H1226.03L1228.56 41.9526V56.5333H1222.93ZM1228.56 42.5155L1226.03 39.7007H1238.13C1241.74 39.7007 1244.46 38.9314 1246.3 37.3926C1248.17 35.8538 1249.11 33.677 1249.11 30.8622C1249.11 28.0474 1248.17 25.8706 1246.3 24.3318C1244.46 22.7931 1241.74 22.0237 1238.13 22.0237L1226.03 22.0237L1228.56 19.2089V42.5155ZM1263.06 44.0918L1262.04 17.1259H1268.4L1267.33 44.0918H1263.06ZM1265.25 56.8711C1264.2 56.8711 1263.32 56.5146 1262.61 55.8015C1261.89 55.0884 1261.54 54.2439 1261.54 53.2681C1261.54 52.2173 1261.89 51.3541 1262.61 50.6785C1263.32 50.003 1264.2 49.6652 1265.25 49.6652C1266.3 49.6652 1267.17 50.003 1267.84 50.6785C1268.52 51.3541 1268.85 52.2173 1268.85 53.2681C1268.85 54.2439 1268.52 55.0884 1267.84 55.8015C1267.17 56.5146 1266.3 56.8711 1265.25 56.8711ZM1278.12 44.0918L1277.11 17.1259H1283.47L1282.4 44.0918L1278.12 44.0918ZM1280.31 56.8711C1279.26 56.8711 1278.38 56.5146 1277.67 55.8015C1276.96 55.0884 1276.6 54.2439 1276.6 53.2681C1276.6 52.2173 1276.96 51.3541 1277.67 50.6785C1278.38 50.003 1279.26 49.6652 1280.31 49.6652C1281.37 49.6652 1282.23 50.003 1282.9 50.6785C1283.58 51.3541 1283.92 52.2173 1283.92 53.2681C1283.92 54.2439 1283.58 55.0884 1282.9 55.8015C1282.23 56.5146 1281.37 56.8711 1280.31 56.8711ZM1293.18 44.0918L1292.17 17.1259H1298.53L1297.46 44.0918H1293.18ZM1295.38 56.8711C1294.33 56.8711 1293.45 56.5146 1292.73 55.8015C1292.02 55.0884 1291.66 54.2439 1291.66 53.2681C1291.66 52.2173 1292.02 51.3541 1292.73 50.6785C1293.45 50.003 1294.33 49.6652 1295.38 49.6652C1296.43 49.6652 1297.29 50.003 1297.97 50.6785C1298.64 51.3541 1298.98 52.2173 1298.98 53.2681C1298.98 54.2439 1298.64 55.0884 1297.97 55.8015C1297.29 56.5146 1296.43 56.8711 1295.38 56.8711Z" fill="#EBEBEB"/>
</g>
</svg>
