<svg width="969" height="340" viewBox="0 0 969 340" fill="none" xmlns="http://www.w3.org/2000/svg">
<path d="M10.207 0.0280762L954.071 0.0280762L968.799 339.047L0.343505 339.047L10.207 0.0280762Z" fill="#EBEBEB"/>
<mask id="mask0_194_594" style="mask-type:alpha" maskUnits="userSpaceOnUse" x="0" y="0" width="969" height="340">
<path d="M10.207 0.0280762L954.071 0.0280762L968.799 339.047L0.343505 339.047L10.207 0.0280762Z" fill="black"/>
</mask>
<g mask="url(#mask0_194_594)">
<path d="M-585.645 56.159C-588.647 56.159 -591.518 55.7086 -594.258 54.8079C-596.998 53.8696 -599.156 52.6686 -600.732 51.2049L-598.649 46.8138C-597.148 48.1274 -595.234 49.2158 -592.907 50.079C-590.58 50.9422 -588.159 51.3738 -585.645 51.3738C-583.355 51.3738 -581.497 51.1111 -580.071 50.5857C-578.645 50.0602 -577.594 49.3471 -576.919 48.4464C-576.243 47.5081 -575.905 46.4573 -575.905 45.2938C-575.905 43.9427 -576.356 42.8543 -577.256 42.0286C-578.12 41.2029 -579.264 40.5462 -580.691 40.0582C-582.079 39.5328 -583.618 39.0824 -585.307 38.7071C-586.996 38.3318 -588.703 37.9002 -590.43 37.4123C-592.119 36.8869 -593.676 36.2301 -595.102 35.442C-596.491 34.6538 -597.617 33.6029 -598.48 32.2894C-599.343 30.9383 -599.775 29.2118 -599.775 27.1101C-599.775 25.0834 -599.25 23.2257 -598.199 21.5368C-597.11 19.8104 -595.459 18.4405 -593.245 17.4271C-590.993 16.3763 -588.14 15.8508 -584.688 15.8508C-582.398 15.8508 -580.128 16.1511 -577.876 16.7516C-575.624 17.3521 -573.672 18.2153 -572.021 19.3412L-573.879 23.8449C-575.568 22.719 -577.35 21.9121 -579.227 21.4242C-581.103 20.8987 -582.924 20.636 -584.688 20.636C-586.902 20.636 -588.722 20.9175 -590.148 21.4805C-591.574 22.0434 -592.625 22.7941 -593.301 23.7323C-593.939 24.6706 -594.258 25.7215 -594.258 26.8849C-594.258 28.2736 -593.826 29.3807 -592.963 30.2064C-592.062 31.0321 -590.918 31.6889 -589.529 32.1768C-588.103 32.6647 -586.545 33.115 -584.856 33.5279C-583.168 33.9032 -581.479 34.3348 -579.79 34.8227C-578.063 35.3106 -576.506 35.9486 -575.117 36.7368C-573.691 37.5249 -572.546 38.5758 -571.683 39.8894C-570.82 41.2029 -570.388 42.8918 -570.388 44.956C-570.388 46.9452 -570.933 48.8029 -572.021 50.5294C-573.109 52.2182 -574.798 53.5881 -577.088 54.639C-579.339 55.6523 -582.192 56.159 -585.645 56.159ZM-554.888 55.7086V21.199L-568.399 21.199V16.3012L-535.804 16.3012V21.199H-549.315V55.7086H-554.888ZM-512.433 56.159C-515.435 56.159 -518.231 55.6523 -520.821 54.639C-523.373 53.6257 -525.587 52.2182 -527.464 50.4168C-529.34 48.5778 -530.804 46.4385 -531.855 43.999C-532.906 41.5595 -533.431 38.8948 -533.431 36.0049C-533.431 33.115 -532.906 30.4504 -531.855 28.0108C-530.804 25.5713 -529.34 23.4508 -527.464 21.6494C-525.587 19.8104 -523.373 18.3842 -520.821 17.3708C-518.269 16.3575 -515.473 15.8508 -512.433 15.8508C-509.43 15.8508 -506.672 16.3575 -504.157 17.3708C-501.605 18.3466 -499.391 19.7541 -497.514 21.5931C-495.6 23.3946 -494.136 25.515 -493.123 27.9545C-492.072 30.3941 -491.547 33.0775 -491.547 36.0049C-491.547 38.9323 -492.072 41.6158 -493.123 44.0553C-494.136 46.4948 -495.6 48.6341 -497.514 50.4731C-499.391 52.2745 -501.605 53.682 -504.157 54.6953C-506.672 55.6711 -509.43 56.159 -512.433 56.159ZM-512.433 51.1486C-510.256 51.1486 -508.248 50.7733 -506.409 50.0227C-504.532 49.2721 -502.919 48.2212 -501.567 46.8701C-500.179 45.4815 -499.109 43.8676 -498.359 42.0286C-497.57 40.1896 -497.176 38.1817 -497.176 36.0049C-497.176 33.8281 -497.57 31.8202 -498.359 29.9812C-499.109 28.1422 -500.179 26.5471 -501.567 25.196C-502.919 23.8074 -504.532 22.7378 -506.409 21.9871C-508.248 21.2365 -510.256 20.8612 -512.433 20.8612C-514.647 20.8612 -516.692 21.2365 -518.569 21.9871C-520.408 22.7378 -522.022 23.8074 -523.41 25.196C-524.799 26.5471 -525.887 28.1422 -526.676 29.9812C-527.426 31.8202 -527.801 33.8281 -527.801 36.0049C-527.801 38.1817 -527.426 40.1896 -526.676 42.0286C-525.887 43.8676 -524.799 45.4815 -523.41 46.8701C-522.022 48.2212 -520.408 49.2721 -518.569 50.0227C-516.692 50.7733 -514.647 51.1486 -512.433 51.1486ZM-482.942 55.7086V16.3012L-467.573 16.3012C-464.12 16.3012 -461.174 16.8454 -458.735 17.9338C-456.295 19.0222 -454.419 20.5985 -453.105 22.6627C-451.792 24.7269 -451.135 27.1852 -451.135 30.0375C-451.135 32.8899 -451.792 35.3481 -453.105 37.4123C-454.419 39.439 -456.295 41.0153 -458.735 42.1412C-461.174 43.2296 -464.12 43.7738 -467.573 43.7738H-479.846L-477.313 41.1279V55.7086H-482.942ZM-477.313 41.6908L-479.846 38.876H-467.742C-464.139 38.876 -461.418 38.1066 -459.579 36.5679C-457.703 35.0291 -456.764 32.8523 -456.764 30.0375C-456.764 27.2227 -457.703 25.0459 -459.579 23.5071C-461.418 21.9684 -464.139 21.199 -467.742 21.199L-479.846 21.199L-477.313 18.3842V41.6908ZM-442.821 43.2671L-443.834 16.3012H-437.473L-438.542 43.2671H-442.821ZM-440.625 56.0464C-441.676 56.0464 -442.558 55.6899 -443.271 54.9768C-443.984 54.2637 -444.341 53.4192 -444.341 52.4434C-444.341 51.3926 -443.984 50.5294 -443.271 49.8538C-442.558 49.1782 -441.676 48.8405 -440.625 48.8405C-439.575 48.8405 -438.711 49.1782 -438.036 49.8538C-437.36 50.5294 -437.022 51.3926 -437.022 52.4434C-437.022 53.4192 -437.36 54.2637 -438.036 54.9768C-438.711 55.6899 -439.575 56.0464 -440.625 56.0464ZM-427.757 43.2671L-428.771 16.3012L-422.409 16.3012L-423.479 43.2671H-427.757ZM-425.562 56.0464C-426.613 56.0464 -427.495 55.6899 -428.208 54.9768C-428.921 54.2637 -429.277 53.4192 -429.277 52.4434C-429.277 51.3926 -428.921 50.5294 -428.208 49.8538C-427.495 49.1782 -426.613 48.8405 -425.562 48.8405C-424.511 48.8405 -423.648 49.1782 -422.972 49.8538C-422.297 50.5294 -421.959 51.3926 -421.959 52.4434C-421.959 53.4192 -422.297 54.2637 -422.972 54.9768C-423.648 55.6899 -424.511 56.0464 -425.562 56.0464ZM-412.694 43.2671L-413.707 16.3012H-407.345L-408.415 43.2671H-412.694ZM-410.498 56.0464C-411.549 56.0464 -412.431 55.6899 -413.144 54.9768C-413.857 54.2637 -414.214 53.4192 -414.214 52.4434C-414.214 51.3926 -413.857 50.5294 -413.144 49.8538C-412.431 49.1782 -411.549 48.8405 -410.498 48.8405C-409.447 48.8405 -408.584 49.1782 -407.908 49.8538C-407.233 50.5294 -406.895 51.3926 -406.895 52.4434C-406.895 53.4192 -407.233 54.2637 -407.908 54.9768C-408.584 55.6899 -409.447 56.0464 -410.498 56.0464ZM-370.52 56.159C-373.523 56.159 -376.394 55.7086 -379.134 54.8079C-381.873 53.8696 -384.031 52.6686 -385.608 51.2049L-383.525 46.8138C-382.023 48.1274 -380.109 49.2158 -377.782 50.079C-375.456 50.9422 -373.035 51.3738 -370.52 51.3738C-368.231 51.3738 -366.373 51.1111 -364.947 50.5857C-363.521 50.0602 -362.47 49.3471 -361.794 48.4464C-361.119 47.5081 -360.781 46.4573 -360.781 45.2938C-360.781 43.9427 -361.231 42.8543 -362.132 42.0286C-362.995 41.2029 -364.14 40.5462 -365.566 40.0582C-366.955 39.5328 -368.494 39.0824 -370.182 38.7071C-371.871 38.3318 -373.579 37.9002 -375.305 37.4123C-376.994 36.8869 -378.552 36.2301 -379.978 35.442C-381.367 34.6538 -382.493 33.6029 -383.356 32.2894C-384.219 30.9383 -384.651 29.2118 -384.651 27.1101C-384.651 25.0834 -384.125 23.2257 -383.074 21.5368C-381.986 19.8104 -380.335 18.4405 -378.12 17.4271C-375.868 16.3763 -373.016 15.8508 -369.563 15.8508C-367.274 15.8508 -365.003 16.1511 -362.751 16.7516C-360.499 17.3521 -358.548 18.2153 -356.897 19.3412L-358.754 23.8449C-360.443 22.719 -362.226 21.9121 -364.102 21.4242C-365.979 20.8987 -367.799 20.636 -369.563 20.636C-371.778 20.636 -373.598 20.9175 -375.024 21.4805C-376.45 22.0434 -377.501 22.7941 -378.177 23.7323C-378.815 24.6706 -379.134 25.7215 -379.134 26.8849C-379.134 28.2736 -378.702 29.3807 -377.839 30.2064C-376.938 31.0321 -375.793 31.6889 -374.405 32.1768C-372.979 32.6647 -371.421 33.115 -369.732 33.5279C-368.043 33.9032 -366.354 34.3348 -364.665 34.8227C-362.939 35.3106 -361.381 35.9486 -359.993 36.7368C-358.567 37.5249 -357.422 38.5758 -356.559 39.8894C-355.696 41.2029 -355.264 42.8918 -355.264 44.956C-355.264 46.9452 -355.808 48.8029 -356.897 50.5294C-357.985 52.2182 -359.674 53.5881 -361.963 54.639C-364.215 55.6523 -367.067 56.159 -370.52 56.159ZM-339.764 55.7086V21.199L-353.275 21.199V16.3012L-320.68 16.3012V21.199L-334.191 21.199V55.7086H-339.764ZM-297.308 56.159C-300.311 56.159 -303.107 55.6523 -305.696 54.639C-308.248 53.6257 -310.463 52.2182 -312.339 50.4168C-314.216 48.5778 -315.68 46.4385 -316.73 43.999C-317.781 41.5595 -318.307 38.8948 -318.307 36.0049C-318.307 33.115 -317.781 30.4504 -316.73 28.0108C-315.68 25.5713 -314.216 23.4508 -312.339 21.6494C-310.463 19.8104 -308.248 18.3842 -305.696 17.3708C-303.144 16.3575 -300.348 15.8508 -297.308 15.8508C-294.306 15.8508 -291.547 16.3575 -289.033 17.3708C-286.481 18.3466 -284.266 19.7541 -282.39 21.5931C-280.476 23.3946 -279.012 25.515 -277.999 27.9545C-276.948 30.3941 -276.422 33.0775 -276.422 36.0049C-276.422 38.9323 -276.948 41.6158 -277.999 44.0553C-279.012 46.4948 -280.476 48.6341 -282.39 50.4731C-284.266 52.2745 -286.481 53.682 -289.033 54.6953C-291.547 55.6711 -294.306 56.159 -297.308 56.159ZM-297.308 51.1486C-295.131 51.1486 -293.124 50.7733 -291.285 50.0227C-289.408 49.2721 -287.794 48.2212 -286.443 46.8701C-285.054 45.4815 -283.985 43.8676 -283.234 42.0286C-282.446 40.1896 -282.052 38.1817 -282.052 36.0049C-282.052 33.8281 -282.446 31.8202 -283.234 29.9812C-283.985 28.1422 -285.054 26.5471 -286.443 25.196C-287.794 23.8074 -289.408 22.7378 -291.285 21.9871C-293.124 21.2365 -295.131 20.8612 -297.308 20.8612C-299.523 20.8612 -301.568 21.2365 -303.445 21.9871C-305.284 22.7378 -306.897 23.8074 -308.286 25.196C-309.675 26.5471 -310.763 28.1422 -311.551 29.9812C-312.302 31.8202 -312.677 33.8281 -312.677 36.0049C-312.677 38.1817 -312.302 40.1896 -311.551 42.0286C-310.763 43.8676 -309.675 45.4815 -308.286 46.8701C-306.897 48.2212 -305.284 49.2721 -303.445 50.0227C-301.568 50.7733 -299.523 51.1486 -297.308 51.1486ZM-267.818 55.7086V16.3012H-252.449C-248.996 16.3012 -246.05 16.8454 -243.61 17.9338C-241.171 19.0222 -239.294 20.5985 -237.981 22.6627C-236.667 24.7269 -236.01 27.1852 -236.01 30.0375C-236.01 32.8899 -236.667 35.3481 -237.981 37.4123C-239.294 39.439 -241.171 41.0153 -243.61 42.1412C-246.05 43.2296 -248.996 43.7738 -252.449 43.7738H-264.721L-262.188 41.1279V55.7086H-267.818ZM-262.188 41.6908L-264.721 38.876H-252.618C-249.015 38.876 -246.294 38.1066 -244.455 36.5679C-242.578 35.0291 -241.64 32.8523 -241.64 30.0375C-241.64 27.2227 -242.578 25.0459 -244.455 23.5071C-246.294 21.9684 -249.015 21.199 -252.618 21.199L-264.721 21.199L-262.188 18.3842V41.6908ZM-227.697 43.2671L-228.71 16.3012H-222.348L-223.418 43.2671H-227.697ZM-225.501 56.0464C-226.552 56.0464 -227.434 55.6899 -228.147 54.9768C-228.86 54.2637 -229.217 53.4192 -229.217 52.4434C-229.217 51.3926 -228.86 50.5294 -228.147 49.8538C-227.434 49.1782 -226.552 48.8405 -225.501 48.8405C-224.45 48.8405 -223.587 49.1782 -222.911 49.8538C-222.236 50.5294 -221.898 51.3926 -221.898 52.4434C-221.898 53.4192 -222.236 54.2637 -222.911 54.9768C-223.587 55.6899 -224.45 56.0464 -225.501 56.0464ZM-212.633 43.2671L-213.646 16.3012H-207.285L-208.354 43.2671H-212.633ZM-210.437 56.0464C-211.488 56.0464 -212.37 55.6899 -213.083 54.9768C-213.796 54.2637 -214.153 53.4192 -214.153 52.4434C-214.153 51.3926 -213.796 50.5294 -213.083 49.8538C-212.37 49.1782 -211.488 48.8405 -210.437 48.8405C-209.386 48.8405 -208.523 49.1782 -207.848 49.8538C-207.172 50.5294 -206.834 51.3926 -206.834 52.4434C-206.834 53.4192 -207.172 54.2637 -207.848 54.9768C-208.523 55.6899 -209.386 56.0464 -210.437 56.0464ZM-197.569 43.2671L-198.583 16.3012H-192.221L-193.291 43.2671L-197.569 43.2671ZM-195.374 56.0464C-196.425 56.0464 -197.307 55.6899 -198.02 54.9768C-198.733 54.2637 -199.089 53.4192 -199.089 52.4434C-199.089 51.3926 -198.733 50.5294 -198.02 49.8538C-197.307 49.1782 -196.425 48.8405 -195.374 48.8405C-194.323 48.8405 -193.46 49.1782 -192.784 49.8538C-192.109 50.5294 -191.771 51.3926 -191.771 52.4434C-191.771 53.4192 -192.109 54.2637 -192.784 54.9768C-193.46 55.6899 -194.323 56.0464 -195.374 56.0464ZM-170.514 56.159C-173.517 56.159 -176.388 55.7086 -179.128 54.8079C-181.868 53.8696 -184.026 52.6686 -185.602 51.2049L-183.519 46.8138C-182.018 48.1274 -180.104 49.2158 -177.777 50.079C-175.45 50.9422 -173.029 51.3738 -170.514 51.3738C-168.225 51.3738 -166.367 51.1111 -164.941 50.5857C-163.515 50.0602 -162.464 49.3471 -161.789 48.4464C-161.113 47.5081 -160.775 46.4573 -160.775 45.2938C-160.775 43.9427 -161.226 42.8543 -162.126 42.0286C-162.99 41.2029 -164.134 40.5462 -165.56 40.0582C-166.949 39.5328 -168.488 39.0824 -170.177 38.7071C-171.866 38.3318 -173.573 37.9002 -175.3 37.4123C-176.989 36.8869 -178.546 36.2301 -179.972 35.442C-181.361 34.6538 -182.487 33.6029 -183.35 32.2894C-184.213 30.9383 -184.645 29.2118 -184.645 27.1101C-184.645 25.0834 -184.119 23.2257 -183.069 21.5368C-181.98 19.8104 -180.329 18.4405 -178.114 17.4271C-175.863 16.3763 -173.01 15.8508 -169.557 15.8508C-167.268 15.8508 -164.997 16.1511 -162.746 16.7516C-160.494 17.3521 -158.542 18.2153 -156.891 19.3412L-158.749 23.8449C-160.437 22.719 -162.22 21.9121 -164.097 21.4242C-165.973 20.8987 -167.793 20.636 -169.557 20.636C-171.772 20.636 -173.592 20.9175 -175.018 21.4805C-176.444 22.0434 -177.495 22.7941 -178.171 23.7323C-178.809 24.6706 -179.128 25.7215 -179.128 26.8849C-179.128 28.2736 -178.696 29.3807 -177.833 30.2064C-176.932 31.0321 -175.788 31.6889 -174.399 32.1768C-172.973 32.6647 -171.415 33.115 -169.726 33.5279C-168.037 33.9032 -166.349 34.3348 -164.66 34.8227C-162.933 35.3106 -161.376 35.9486 -159.987 36.7368C-158.561 37.5249 -157.416 38.5758 -156.553 39.8894C-155.69 41.2029 -155.258 42.8918 -155.258 44.956C-155.258 46.9452 -155.802 48.8029 -156.891 50.5294C-157.979 52.2182 -159.668 53.5881 -161.957 54.639C-164.209 55.6523 -167.062 56.159 -170.514 56.159ZM-139.758 55.7086V21.199L-153.269 21.199V16.3012L-120.674 16.3012V21.199L-134.185 21.199V55.7086H-139.758ZM-97.3025 56.159C-100.305 56.159 -103.101 55.6523 -105.691 54.639C-108.243 53.6257 -110.457 52.2182 -112.334 50.4168C-114.21 48.5778 -115.674 46.4385 -116.725 43.999C-117.776 41.5595 -118.301 38.8948 -118.301 36.0049C-118.301 33.115 -117.776 30.4504 -116.725 28.0108C-115.674 25.5713 -114.21 23.4508 -112.334 21.6494C-110.457 19.8104 -108.243 18.3842 -105.691 17.3708C-103.139 16.3575 -100.342 15.8508 -97.3025 15.8508C-94.3 15.8508 -91.5415 16.3575 -89.0269 17.3708C-86.4748 18.3466 -84.2605 19.7541 -82.384 21.5931C-80.4699 23.3946 -79.0062 25.515 -77.9929 27.9545C-76.942 30.3941 -76.4166 33.0775 -76.4166 36.0049C-76.4166 38.9323 -76.942 41.6158 -77.9929 44.0553C-79.0062 46.4948 -80.4699 48.6341 -82.384 50.4731C-84.2605 52.2745 -86.4748 53.682 -89.0269 54.6953C-91.5415 55.6711 -94.3 56.159 -97.3025 56.159ZM-97.3025 51.1486C-95.1257 51.1486 -93.1178 50.7733 -91.2788 50.0227C-89.4023 49.2721 -87.7884 48.2212 -86.4373 46.8701C-85.0487 45.4815 -83.979 43.8676 -83.2284 42.0286C-82.4403 40.1896 -82.0462 38.1817 -82.0462 36.0049C-82.0462 33.8281 -82.4403 31.8202 -83.2284 29.9812C-83.979 28.1422 -85.0487 26.5471 -86.4373 25.196C-87.7884 23.8074 -89.4023 22.7378 -91.2788 21.9871C-93.1178 21.2365 -95.1257 20.8612 -97.3025 20.8612C-99.5168 20.8612 -101.562 21.2365 -103.439 21.9871C-105.278 22.7378 -106.892 23.8074 -108.28 25.196C-109.669 26.5471 -110.757 28.1422 -111.545 29.9812C-112.296 31.8202 -112.671 33.8281 -112.671 36.0049C-112.671 38.1817 -112.296 40.1896 -111.545 42.0286C-110.757 43.8676 -109.669 45.4815 -108.28 46.8701C-106.892 48.2212 -105.278 49.2721 -103.439 50.0227C-101.562 50.7733 -99.5168 51.1486 -97.3025 51.1486ZM-67.812 55.7086V16.3012H-52.4431C-48.9903 16.3012 -46.0441 16.8454 -43.6046 17.9338C-41.1651 19.0222 -39.2886 20.5985 -37.975 22.6627C-36.6614 24.7269 -36.0046 27.1852 -36.0046 30.0375C-36.0046 32.8899 -36.6614 35.3481 -37.975 37.4123C-39.2886 39.439 -41.1651 41.0153 -43.6046 42.1412C-46.0441 43.2296 -48.9903 43.7738 -52.4431 43.7738H-64.7157L-62.1824 41.1279V55.7086H-67.812ZM-62.1824 41.6908L-64.7157 38.876H-52.612C-49.0091 38.876 -46.2881 38.1066 -44.4491 36.5679C-42.5725 35.0291 -41.6343 32.8523 -41.6343 30.0375C-41.6343 27.2227 -42.5725 25.0459 -44.4491 23.5071C-46.2881 21.9684 -49.0091 21.199 -52.612 21.199H-64.7157L-62.1824 18.3842V41.6908ZM-27.6908 43.2671L-28.7042 16.3012H-22.3427L-23.4123 43.2671H-27.6908ZM-25.4953 56.0464C-26.5461 56.0464 -27.4281 55.6899 -28.1412 54.9768C-28.8543 54.2637 -29.2108 53.4192 -29.2108 52.4434C-29.2108 51.3926 -28.8543 50.5294 -28.1412 49.8538C-27.4281 49.1782 -26.5461 48.8405 -25.4953 48.8405C-24.4444 48.8405 -23.5812 49.1782 -22.9056 49.8538C-22.2301 50.5294 -21.8923 51.3926 -21.8923 52.4434C-21.8923 53.4192 -22.2301 54.2637 -22.9056 54.9768C-23.5812 55.6899 -24.4444 56.0464 -25.4953 56.0464ZM-12.6272 43.2671L-13.6405 16.3012H-7.27903L-8.34866 43.2671H-12.6272ZM-10.4316 56.0464C-11.4825 56.0464 -12.3645 55.6899 -13.0775 54.9768C-13.7906 54.2637 -14.1472 53.4192 -14.1472 52.4434C-14.1472 51.3926 -13.7906 50.5294 -13.0775 49.8538C-12.3645 49.1782 -11.4825 48.8405 -10.4316 48.8405C-9.38075 48.8405 -8.51754 49.1782 -7.84199 49.8538C-7.16643 50.5294 -6.82865 51.3926 -6.82865 52.4434C-6.82865 53.4192 -7.16643 54.2637 -7.84199 54.9768C-8.51754 55.6899 -9.38075 56.0464 -10.4316 56.0464ZM2.43649 43.2671L1.42315 16.3012L7.78463 16.3012L6.715 43.2671H2.43649ZM4.63204 56.0464C3.58118 56.0464 2.6992 55.6899 1.98612 54.9768C1.27303 54.2637 0.916487 53.4192 0.916487 52.4434C0.916487 51.3926 1.27303 50.5294 1.98612 49.8538C2.6992 49.1782 3.58118 48.8405 4.63204 48.8405C5.68291 48.8405 6.54612 49.1782 7.22167 49.8538C7.89723 50.5294 8.235 51.3926 8.235 52.4434C8.235 53.4192 7.89723 54.2637 7.22167 54.9768C6.54612 55.6899 5.68291 56.0464 4.63204 56.0464ZM44.6099 56.159C41.6074 56.159 38.7363 55.7086 35.9966 54.8079C33.2568 53.8696 31.0988 52.6686 29.5225 51.2049L31.6055 46.8138C33.1067 48.1274 35.0208 49.2158 37.3477 50.079C39.6746 50.9422 42.0953 51.3738 44.6099 51.3738C46.8993 51.3738 48.7571 51.1111 50.1832 50.5857C51.6094 50.0602 52.6603 49.3471 53.3358 48.4464C54.0114 47.5081 54.3492 46.4573 54.3492 45.2938C54.3492 43.9427 53.8988 42.8543 52.9981 42.0286C52.1348 41.2029 50.9902 40.5462 49.564 40.0582C48.1753 39.5328 46.6366 39.0824 44.9477 38.7071C43.2588 38.3318 41.5511 37.9002 39.8247 37.4123C38.1358 36.8869 36.5783 36.2301 35.1521 35.442C33.7635 34.6538 32.6376 33.6029 31.7744 32.2894C30.9111 30.9383 30.4795 29.2118 30.4795 27.1101C30.4795 25.0834 31.005 23.2257 32.0558 21.5368C33.1442 19.8104 34.7956 18.4405 37.0099 17.4271C39.2618 16.3763 42.1141 15.8508 45.5669 15.8508C47.8563 15.8508 50.1269 16.1511 52.3788 16.7516C54.6306 17.3521 56.5823 18.2153 58.2336 19.3412L56.3758 23.8449C54.6869 22.719 52.9042 21.9121 51.0277 21.4242C49.1511 20.8987 47.3309 20.636 45.5669 20.636C43.3526 20.636 41.5324 20.9175 40.1062 21.4805C38.68 22.0434 37.6292 22.7941 36.9536 23.7323C36.3156 24.6706 35.9966 25.7215 35.9966 26.8849C35.9966 28.2736 36.4282 29.3807 37.2914 30.2064C38.1921 31.0321 39.3368 31.6889 40.7255 32.1768C42.1516 32.6647 43.7092 33.115 45.3981 33.5279C47.0869 33.9032 48.7758 34.3348 50.4647 34.8227C52.1911 35.3106 53.7487 35.9486 55.1373 36.7368C56.5635 37.5249 57.7082 38.5758 58.5714 39.8894C59.4346 41.2029 59.8662 42.8918 59.8662 44.956C59.8662 46.9452 59.322 48.8029 58.2336 50.5294C57.1452 52.2182 55.4563 53.5881 53.1669 54.639C50.9151 55.6523 48.0627 56.159 44.6099 56.159ZM75.3661 55.7086V21.199L61.855 21.199V16.3012L94.4506 16.3012V21.199L80.9394 21.199V55.7086L75.3661 55.7086ZM117.822 56.159C114.819 56.159 112.023 55.6523 109.434 54.639C106.882 53.6257 104.667 52.2182 102.791 50.4168C100.914 48.5778 99.4505 46.4385 98.3997 43.999C97.3488 41.5595 96.8234 38.8948 96.8234 36.0049C96.8234 33.115 97.3488 30.4504 98.3997 28.0108C99.4505 25.5713 100.914 23.4508 102.791 21.6494C104.667 19.8104 106.882 18.3842 109.434 17.3708C111.986 16.3575 114.782 15.8508 117.822 15.8508C120.824 15.8508 123.583 16.3575 126.097 17.3708C128.65 18.3466 130.864 19.7541 132.74 21.5931C134.654 23.3946 136.118 25.515 137.132 27.9545C138.182 30.3941 138.708 33.0775 138.708 36.0049C138.708 38.9323 138.182 41.6158 137.132 44.0553C136.118 46.4948 134.654 48.6341 132.74 50.4731C130.864 52.2745 128.65 53.682 126.097 54.6953C123.583 55.6711 120.824 56.159 117.822 56.159ZM117.822 51.1486C119.999 51.1486 122.007 50.7733 123.846 50.0227C125.722 49.2721 127.336 48.2212 128.687 46.8701C130.076 45.4815 131.145 43.8676 131.896 42.0286C132.684 40.1896 133.078 38.1817 133.078 36.0049C133.078 33.8281 132.684 31.8202 131.896 29.9812C131.145 28.1422 130.076 26.5471 128.687 25.196C127.336 23.8074 125.722 22.7378 123.846 21.9871C122.007 21.2365 119.999 20.8612 117.822 20.8612C115.608 20.8612 113.562 21.2365 111.686 21.9871C109.847 22.7378 108.233 23.8074 106.844 25.196C105.455 26.5471 104.367 28.1422 103.579 29.9812C102.828 31.8202 102.453 33.8281 102.453 36.0049C102.453 38.1817 102.828 40.1896 103.579 42.0286C104.367 43.8676 105.455 45.4815 106.844 46.8701C108.233 48.2212 109.847 49.2721 111.686 50.0227C113.562 50.7733 115.608 51.1486 117.822 51.1486ZM147.312 55.7086V16.3012L162.681 16.3012C166.134 16.3012 169.08 16.8454 171.52 17.9338C173.959 19.0222 175.836 20.5985 177.149 22.6627C178.463 24.7269 179.12 27.1852 179.12 30.0375C179.12 32.8899 178.463 35.3481 177.149 37.4123C175.836 39.439 173.959 41.0153 171.52 42.1412C169.08 43.2296 166.134 43.7738 162.681 43.7738L150.409 43.7738L152.942 41.1279V55.7086H147.312ZM152.942 41.6908L150.409 38.876L162.512 38.876C166.115 38.876 168.836 38.1066 170.675 36.5679C172.552 35.0291 173.49 32.8523 173.49 30.0375C173.49 27.2227 172.552 25.0459 170.675 23.5071C168.836 21.9684 166.115 21.199 162.512 21.199H150.409L152.942 18.3842V41.6908ZM187.434 43.2671L186.42 16.3012L192.782 16.3012L191.712 43.2671H187.434ZM189.629 56.0464C188.578 56.0464 187.696 55.6899 186.983 54.9768C186.27 54.2637 185.914 53.4192 185.914 52.4434C185.914 51.3926 186.27 50.5294 186.983 49.8538C187.696 49.1782 188.578 48.8405 189.629 48.8405C190.68 48.8405 191.543 49.1782 192.219 49.8538C192.894 50.5294 193.232 51.3926 193.232 52.4434C193.232 53.4192 192.894 54.2637 192.219 54.9768C191.543 55.6899 190.68 56.0464 189.629 56.0464ZM202.497 43.2671L201.484 16.3012H207.845L206.776 43.2671H202.497ZM204.693 56.0464C203.642 56.0464 202.76 55.6899 202.047 54.9768C201.334 54.2637 200.977 53.4192 200.977 52.4434C200.977 51.3926 201.334 50.5294 202.047 49.8538C202.76 49.1782 203.642 48.8405 204.693 48.8405C205.744 48.8405 206.607 49.1782 207.282 49.8538C207.958 50.5294 208.296 51.3926 208.296 52.4434C208.296 53.4192 207.958 54.2637 207.282 54.9768C206.607 55.6899 205.744 56.0464 204.693 56.0464ZM217.561 43.2671L216.548 16.3012H222.909L221.839 43.2671H217.561ZM219.756 56.0464C218.706 56.0464 217.824 55.6899 217.111 54.9768C216.397 54.2637 216.041 53.4192 216.041 52.4434C216.041 51.3926 216.397 50.5294 217.111 49.8538C217.824 49.1782 218.706 48.8405 219.756 48.8405C220.807 48.8405 221.671 49.1782 222.346 49.8538C223.022 50.5294 223.359 51.3926 223.359 52.4434C223.359 53.4192 223.022 54.2637 222.346 54.9768C221.671 55.6899 220.807 56.0464 219.756 56.0464ZM259.734 56.159C256.732 56.159 253.861 55.7086 251.121 54.8079C248.381 53.8696 246.223 52.6686 244.647 51.2049L246.73 46.8138C248.231 48.1274 250.145 49.2158 252.472 50.079C254.799 50.9422 257.22 51.3738 259.734 51.3738C262.024 51.3738 263.881 51.1111 265.308 50.5857C266.734 50.0602 267.785 49.3471 268.46 48.4464C269.136 47.5081 269.473 46.4573 269.473 45.2938C269.473 43.9427 269.023 42.8543 268.122 42.0286C267.259 41.2029 266.114 40.5462 264.688 40.0582C263.3 39.5328 261.761 39.0824 260.072 38.7071C258.383 38.3318 256.675 37.9002 254.949 37.4123C253.26 36.8869 251.703 36.2301 250.276 35.442C248.888 34.6538 247.762 33.6029 246.899 32.2894C246.035 30.9383 245.604 29.2118 245.604 27.1101C245.604 25.0834 246.129 23.2257 247.18 21.5368C248.269 19.8104 249.92 18.4405 252.134 17.4271C254.386 16.3763 257.238 15.8508 260.691 15.8508C262.981 15.8508 265.251 16.1511 267.503 16.7516C269.755 17.3521 271.707 18.2153 273.358 19.3412L271.5 23.8449C269.811 22.719 268.029 21.9121 266.152 21.4242C264.275 20.8987 262.455 20.636 260.691 20.636C258.477 20.636 256.657 20.9175 255.231 21.4805C253.804 22.0434 252.753 22.7941 252.078 23.7323C251.44 24.6706 251.121 25.7215 251.121 26.8849C251.121 28.2736 251.553 29.3807 252.416 30.2064C253.316 31.0321 254.461 31.6889 255.85 32.1768C257.276 32.6647 258.833 33.115 260.522 33.5279C262.211 33.9032 263.9 34.3348 265.589 34.8227C267.315 35.3106 268.873 35.9486 270.262 36.7368C271.688 37.5249 272.833 38.5758 273.696 39.8894C274.559 41.2029 274.991 42.8918 274.991 44.956C274.991 46.9452 274.446 48.8029 273.358 50.5294C272.27 52.2182 270.581 53.5881 268.291 54.639C266.039 55.6523 263.187 56.159 259.734 56.159ZM290.491 55.7086V21.199L276.979 21.199V16.3012L309.575 16.3012V21.199L296.064 21.199V55.7086H290.491ZM332.946 56.159C329.944 56.159 327.148 55.6523 324.558 54.639C322.006 53.6257 319.792 52.2182 317.915 50.4168C316.039 48.5778 314.575 46.4385 313.524 43.999C312.473 41.5595 311.948 38.8948 311.948 36.0049C311.948 33.115 312.473 30.4504 313.524 28.0108C314.575 25.5713 316.039 23.4508 317.915 21.6494C319.792 19.8104 322.006 18.3842 324.558 17.3708C327.11 16.3575 329.906 15.8508 332.946 15.8508C335.949 15.8508 338.707 16.3575 341.222 17.3708C343.774 18.3466 345.988 19.7541 347.865 21.5931C349.779 23.3946 351.243 25.515 352.256 27.9545C353.307 30.3941 353.832 33.0775 353.832 36.0049C353.832 38.9323 353.307 41.6158 352.256 44.0553C351.243 46.4948 349.779 48.6341 347.865 50.4731C345.988 52.2745 343.774 53.682 341.222 54.6953C338.707 55.6711 335.949 56.159 332.946 56.159ZM332.946 51.1486C335.123 51.1486 337.131 50.7733 338.97 50.0227C340.847 49.2721 342.46 48.2212 343.811 46.8701C345.2 45.4815 346.27 43.8676 347.02 42.0286C347.809 40.1896 348.203 38.1817 348.203 36.0049C348.203 33.8281 347.809 31.8202 347.02 29.9812C346.27 28.1422 345.2 26.5471 343.811 25.196C342.46 23.8074 340.847 22.7378 338.97 21.9871C337.131 21.2365 335.123 20.8612 332.946 20.8612C330.732 20.8612 328.687 21.2365 326.81 21.9871C324.971 22.7378 323.357 23.8074 321.969 25.196C320.58 26.5471 319.491 28.1422 318.703 29.9812C317.953 31.8202 317.577 33.8281 317.577 36.0049C317.577 38.1817 317.953 40.1896 318.703 42.0286C319.491 43.8676 320.58 45.4815 321.969 46.8701C323.357 48.2212 324.971 49.2721 326.81 50.0227C328.687 50.7733 330.732 51.1486 332.946 51.1486ZM362.437 55.7086V16.3012H377.806C381.258 16.3012 384.205 16.8454 386.644 17.9338C389.084 19.0222 390.96 20.5985 392.274 22.6627C393.587 24.7269 394.244 27.1852 394.244 30.0375C394.244 32.8899 393.587 35.3481 392.274 37.4123C390.96 39.439 389.084 41.0153 386.644 42.1412C384.205 43.2296 381.258 43.7738 377.806 43.7738H365.533L368.066 41.1279V55.7086H362.437ZM368.066 41.6908L365.533 38.876H377.637C381.24 38.876 383.961 38.1066 385.8 36.5679C387.676 35.0291 388.614 32.8523 388.614 30.0375C388.614 27.2227 387.676 25.0459 385.8 23.5071C383.961 21.9684 381.24 21.199 377.637 21.199H365.533L368.066 18.3842V41.6908ZM402.558 43.2671L401.545 16.3012H407.906L406.836 43.2671H402.558ZM404.754 56.0464C403.703 56.0464 402.821 55.6899 402.108 54.9768C401.394 54.2637 401.038 53.4192 401.038 52.4434C401.038 51.3926 401.394 50.5294 402.108 49.8538C402.821 49.1782 403.703 48.8405 404.754 48.8405C405.804 48.8405 406.668 49.1782 407.343 49.8538C408.019 50.5294 408.356 51.3926 408.356 52.4434C408.356 53.4192 408.019 54.2637 407.343 54.9768C406.668 55.6899 405.804 56.0464 404.754 56.0464ZM417.622 43.2671L416.608 16.3012L422.97 16.3012L421.9 43.2671H417.622ZM419.817 56.0464C418.766 56.0464 417.884 55.6899 417.171 54.9768C416.458 54.2637 416.102 53.4192 416.102 52.4434C416.102 51.3926 416.458 50.5294 417.171 49.8538C417.884 49.1782 418.766 48.8405 419.817 48.8405C420.868 48.8405 421.731 49.1782 422.407 49.8538C423.082 50.5294 423.42 51.3926 423.42 52.4434C423.42 53.4192 423.082 54.2637 422.407 54.9768C421.731 55.6899 420.868 56.0464 419.817 56.0464ZM432.685 43.2671L431.672 16.3012H438.033L436.964 43.2671H432.685ZM434.881 56.0464C433.83 56.0464 432.948 55.6899 432.235 54.9768C431.522 54.2637 431.165 53.4192 431.165 52.4434C431.165 51.3926 431.522 50.5294 432.235 49.8538C432.948 49.1782 433.83 48.8405 434.881 48.8405C435.932 48.8405 436.795 49.1782 437.47 49.8538C438.146 50.5294 438.484 51.3926 438.484 52.4434C438.484 53.4192 438.146 54.2637 437.47 54.9768C436.795 55.6899 435.932 56.0464 434.881 56.0464ZM474.859 56.159C471.856 56.159 468.985 55.7086 466.245 54.8079C463.506 53.8696 461.348 52.6686 459.771 51.2049L461.854 46.8138C463.355 48.1274 465.27 49.2158 467.596 50.079C469.923 50.9422 472.344 51.3738 474.859 51.3738C477.148 51.3738 479.006 51.1111 480.432 50.5857C481.858 50.0602 482.909 49.3471 483.585 48.4464C484.26 47.5081 484.598 46.4573 484.598 45.2938C484.598 43.9427 484.148 42.8543 483.247 42.0286C482.384 41.2029 481.239 40.5462 479.813 40.0582C478.424 39.5328 476.885 39.0824 475.196 38.7071C473.508 38.3318 471.8 37.9002 470.074 37.4123C468.385 36.8869 466.827 36.2301 465.401 35.442C464.012 34.6538 462.886 33.6029 462.023 32.2894C461.16 30.9383 460.728 29.2118 460.728 27.1101C460.728 25.0834 461.254 23.2257 462.305 21.5368C463.393 19.8104 465.044 18.4405 467.259 17.4271C469.511 16.3763 472.363 15.8508 475.816 15.8508C478.105 15.8508 480.376 16.1511 482.628 16.7516C484.879 17.3521 486.831 18.2153 488.482 19.3412L486.625 23.8449C484.936 22.719 483.153 21.9121 481.276 21.4242C479.4 20.8987 477.58 20.636 475.816 20.636C473.601 20.636 471.781 20.9175 470.355 21.4805C468.929 22.0434 467.878 22.7941 467.202 23.7323C466.564 24.6706 466.245 25.7215 466.245 26.8849C466.245 28.2736 466.677 29.3807 467.54 30.2064C468.441 31.0321 469.586 31.6889 470.974 32.1768C472.4 32.6647 473.958 33.115 475.647 33.5279C477.336 33.9032 479.025 34.3348 480.714 34.8227C482.44 35.3106 483.997 35.9486 485.386 36.7368C486.812 37.5249 487.957 38.5758 488.82 39.8894C489.683 41.2029 490.115 42.8918 490.115 44.956C490.115 46.9452 489.571 48.8029 488.482 50.5294C487.394 52.2182 485.705 53.5881 483.416 54.639C481.164 55.6523 478.312 56.159 474.859 56.159ZM505.615 55.7086V21.199L492.104 21.199V16.3012L524.699 16.3012V21.199L511.188 21.199V55.7086H505.615ZM548.071 56.159C545.068 56.159 542.272 55.6523 539.682 54.639C537.13 53.6257 534.916 52.2182 533.04 50.4168C531.163 48.5778 529.699 46.4385 528.648 43.999C527.598 41.5595 527.072 38.8948 527.072 36.0049C527.072 33.115 527.598 30.4504 528.648 28.0108C529.699 25.5713 531.163 23.4508 533.04 21.6494C534.916 19.8104 537.13 18.3842 539.682 17.3708C542.235 16.3575 545.031 15.8508 548.071 15.8508C551.073 15.8508 553.832 16.3575 556.346 17.3708C558.898 18.3466 561.113 19.7541 562.989 21.5931C564.903 23.3946 566.367 25.515 567.38 27.9545C568.431 30.3941 568.957 33.0775 568.957 36.0049C568.957 38.9323 568.431 41.6158 567.38 44.0553C566.367 46.4948 564.903 48.6341 562.989 50.4731C561.113 52.2745 558.898 53.682 556.346 54.6953C553.832 55.6711 551.073 56.159 548.071 56.159ZM548.071 51.1486C550.247 51.1486 552.255 50.7733 554.094 50.0227C555.971 49.2721 557.585 48.2212 558.936 46.8701C560.324 45.4815 561.394 43.8676 562.145 42.0286C562.933 40.1896 563.327 38.1817 563.327 36.0049C563.327 33.8281 562.933 31.8202 562.145 29.9812C561.394 28.1422 560.324 26.5471 558.936 25.196C557.585 23.8074 555.971 22.7378 554.094 21.9871C552.255 21.2365 550.247 20.8612 548.071 20.8612C545.856 20.8612 543.811 21.2365 541.934 21.9871C540.095 22.7378 538.481 23.8074 537.093 25.196C535.704 26.5471 534.616 28.1422 533.828 29.9812C533.077 31.8202 532.702 33.8281 532.702 36.0049C532.702 38.1817 533.077 40.1896 533.828 42.0286C534.616 43.8676 535.704 45.4815 537.093 46.8701C538.481 48.2212 540.095 49.2721 541.934 50.0227C543.811 50.7733 545.856 51.1486 548.071 51.1486ZM577.561 55.7086V16.3012L592.93 16.3012C596.383 16.3012 599.329 16.8454 601.769 17.9338C604.208 19.0222 606.085 20.5985 607.398 22.6627C608.712 24.7269 609.369 27.1852 609.369 30.0375C609.369 32.8899 608.712 35.3481 607.398 37.4123C606.085 39.439 604.208 41.0153 601.769 42.1412C599.329 43.2296 596.383 43.7738 592.93 43.7738L580.657 43.7738L583.191 41.1279V55.7086L577.561 55.7086ZM583.191 41.6908L580.657 38.876L592.761 38.876C596.364 38.876 599.085 38.1066 600.924 36.5679C602.801 35.0291 603.739 32.8523 603.739 30.0375C603.739 27.2227 602.801 25.0459 600.924 23.5071C599.085 21.9684 596.364 21.199 592.761 21.199L580.657 21.199L583.191 18.3842V41.6908ZM617.682 43.2671L616.669 16.3012H623.03L621.961 43.2671L617.682 43.2671ZM619.878 56.0464C618.827 56.0464 617.945 55.6899 617.232 54.9768C616.519 54.2637 616.162 53.4192 616.162 52.4434C616.162 51.3926 616.519 50.5294 617.232 49.8538C617.945 49.1782 618.827 48.8405 619.878 48.8405C620.929 48.8405 621.792 49.1782 622.467 49.8538C623.143 50.5294 623.481 51.3926 623.481 52.4434C623.481 53.4192 623.143 54.2637 622.467 54.9768C621.792 55.6899 620.929 56.0464 619.878 56.0464ZM632.746 43.2671L631.733 16.3012H638.094L637.025 43.2671H632.746ZM634.942 56.0464C633.891 56.0464 633.009 55.6899 632.296 54.9768C631.583 54.2637 631.226 53.4192 631.226 52.4434C631.226 51.3926 631.583 50.5294 632.296 49.8538C633.009 49.1782 633.891 48.8405 634.942 48.8405C635.992 48.8405 636.856 49.1782 637.531 49.8538C638.207 50.5294 638.545 51.3926 638.545 52.4434C638.545 53.4192 638.207 54.2637 637.531 54.9768C636.856 55.6899 635.992 56.0464 634.942 56.0464ZM647.81 43.2671L646.796 16.3012H653.158L652.088 43.2671H647.81ZM650.005 56.0464C648.954 56.0464 648.072 55.6899 647.359 54.9768C646.646 54.2637 646.29 53.4192 646.29 52.4434C646.29 51.3926 646.646 50.5294 647.359 49.8538C648.072 49.1782 648.954 48.8405 650.005 48.8405C651.056 48.8405 651.919 49.1782 652.595 49.8538C653.27 50.5294 653.608 51.3926 653.608 52.4434C653.608 53.4192 653.27 54.2637 652.595 54.9768C651.919 55.6899 651.056 56.0464 650.005 56.0464ZM1007.81 55.7086V16.3012L1023.18 16.3012C1026.63 16.3012 1029.58 16.8454 1032.02 17.9338C1034.46 19.0222 1036.33 20.5985 1037.65 22.6627C1038.96 24.7269 1039.62 27.1852 1039.62 30.0375C1039.62 32.8899 1038.96 35.3481 1037.65 37.4123C1036.33 39.439 1034.46 41.0153 1032.02 42.1412C1029.58 43.2296 1026.63 43.7738 1023.18 43.7738H1010.91L1013.44 41.1279V55.7086L1007.81 55.7086ZM1013.44 41.6908L1010.91 38.876H1023.01C1026.61 38.876 1029.33 38.1066 1031.17 36.5679C1033.05 35.0291 1033.99 32.8523 1033.99 30.0375C1033.99 27.2227 1033.05 25.0459 1031.17 23.5071C1029.33 21.9684 1026.61 21.199 1023.01 21.199L1010.91 21.199L1013.44 18.3842V41.6908ZM1047.93 43.2671L1046.92 16.3012L1053.28 16.3012L1052.21 43.2671L1047.93 43.2671ZM1050.13 56.0464C1049.08 56.0464 1048.19 55.6899 1047.48 54.9768C1046.77 54.2637 1046.41 53.4192 1046.41 52.4434C1046.41 51.3926 1046.77 50.5294 1047.48 49.8538C1048.19 49.1782 1049.08 48.8405 1050.13 48.8405C1051.18 48.8405 1052.04 49.1782 1052.72 49.8538C1053.39 50.5294 1053.73 51.3926 1053.73 52.4434C1053.73 53.4192 1053.39 54.2637 1052.72 54.9768C1052.04 55.6899 1051.18 56.0464 1050.13 56.0464ZM1062.99 43.2671L1061.98 16.3012H1068.34L1067.27 43.2671H1062.99ZM1065.19 56.0464C1064.14 56.0464 1063.26 55.6899 1062.54 54.9768C1061.83 54.2637 1061.47 53.4192 1061.47 52.4434C1061.47 51.3926 1061.83 50.5294 1062.54 49.8538C1063.26 49.1782 1064.14 48.8405 1065.19 48.8405C1066.24 48.8405 1067.1 49.1782 1067.78 49.8538C1068.46 50.5294 1068.79 51.3926 1068.79 52.4434C1068.79 53.4192 1068.46 54.2637 1067.78 54.9768C1067.1 55.6899 1066.24 56.0464 1065.19 56.0464ZM1078.06 43.2671L1077.05 16.3012L1083.41 16.3012L1082.34 43.2671H1078.06ZM1080.25 56.0464C1079.2 56.0464 1078.32 55.6899 1077.61 54.9768C1076.89 54.2637 1076.54 53.4192 1076.54 52.4434C1076.54 51.3926 1076.89 50.5294 1077.61 49.8538C1078.32 49.1782 1079.2 48.8405 1080.25 48.8405C1081.3 48.8405 1082.17 49.1782 1082.84 49.8538C1083.52 50.5294 1083.86 51.3926 1083.86 52.4434C1083.86 53.4192 1083.52 54.2637 1082.84 54.9768C1082.17 55.6899 1081.3 56.0464 1080.25 56.0464ZM1120.23 56.159C1117.23 56.159 1114.36 55.7086 1111.62 54.8079C1108.88 53.8696 1106.72 52.6686 1105.14 51.2049L1107.23 46.8138C1108.73 48.1274 1110.64 49.2158 1112.97 50.079C1115.3 50.9422 1117.72 51.3738 1120.23 51.3738C1122.52 51.3738 1124.38 51.1111 1125.81 50.5857C1127.23 50.0602 1128.28 49.3471 1128.96 48.4464C1129.63 47.5081 1129.97 46.4573 1129.97 45.2938C1129.97 43.9427 1129.52 42.8543 1128.62 42.0286C1127.76 41.2029 1126.61 40.5462 1125.19 40.0582C1123.8 39.5328 1122.26 39.0824 1120.57 38.7071C1118.88 38.3318 1117.17 37.9002 1115.45 37.4123C1113.76 36.8869 1112.2 36.2301 1110.77 35.442C1109.39 34.6538 1108.26 33.6029 1107.4 32.2894C1106.53 30.9383 1106.1 29.2118 1106.1 27.1101C1106.1 25.0834 1106.63 23.2257 1107.68 21.5368C1108.77 19.8104 1110.42 18.4405 1112.63 17.4271C1114.88 16.3763 1117.74 15.8508 1121.19 15.8508C1123.48 15.8508 1125.75 16.1511 1128 16.7516C1130.25 17.3521 1132.2 18.2153 1133.86 19.3412L1132 23.8449C1130.31 22.719 1128.53 21.9121 1126.65 21.4242C1124.77 20.8987 1122.95 20.636 1121.19 20.636C1118.97 20.636 1117.15 20.9175 1115.73 21.4805C1114.3 22.0434 1113.25 22.7941 1112.58 23.7323C1111.94 24.6706 1111.62 25.7215 1111.62 26.8849C1111.62 28.2736 1112.05 29.3807 1112.91 30.2064C1113.81 31.0321 1114.96 31.6889 1116.35 32.1768C1117.77 32.6647 1119.33 33.115 1121.02 33.5279C1122.71 33.9032 1124.4 34.3348 1126.09 34.8227C1127.81 35.3106 1129.37 35.9486 1130.76 36.7368C1132.19 37.5249 1133.33 38.5758 1134.19 39.8894C1135.06 41.2029 1135.49 42.8918 1135.49 44.956C1135.49 46.9452 1134.94 48.8029 1133.86 50.5294C1132.77 52.2182 1131.08 53.5881 1128.79 54.639C1126.54 55.6523 1123.68 56.159 1120.23 56.159ZM1150.99 55.7086V21.199H1137.48V16.3012L1170.07 16.3012V21.199H1156.56V55.7086H1150.99ZM1193.44 56.159C1190.44 56.159 1187.65 55.6523 1185.06 54.639C1182.5 53.6257 1180.29 52.2182 1178.41 50.4168C1176.54 48.5778 1175.07 46.4385 1174.02 43.999C1172.97 41.5595 1172.45 38.8948 1172.45 36.0049C1172.45 33.115 1172.97 30.4504 1174.02 28.0108C1175.07 25.5713 1176.54 23.4508 1178.41 21.6494C1180.29 19.8104 1182.5 18.3842 1185.06 17.3708C1187.61 16.3575 1190.4 15.8508 1193.44 15.8508C1196.45 15.8508 1199.2 16.3575 1201.72 17.3708C1204.27 18.3466 1206.49 19.7541 1208.36 21.5931C1210.28 23.3946 1211.74 25.515 1212.75 27.9545C1213.8 30.3941 1214.33 33.0775 1214.33 36.0049C1214.33 38.9323 1213.8 41.6158 1212.75 44.0553C1211.74 46.4948 1210.28 48.6341 1208.36 50.4731C1206.49 52.2745 1204.27 53.682 1201.72 54.6953C1199.2 55.6711 1196.45 56.159 1193.44 56.159ZM1193.44 51.1486C1195.62 51.1486 1197.63 50.7733 1199.47 50.0227C1201.34 49.2721 1202.96 48.2212 1204.31 46.8701C1205.7 45.4815 1206.77 43.8676 1207.52 42.0286C1208.31 40.1896 1208.7 38.1817 1208.7 36.0049C1208.7 33.8281 1208.31 31.8202 1207.52 29.9812C1206.77 28.1422 1205.7 26.5471 1204.31 25.196C1202.96 23.8074 1201.34 22.7378 1199.47 21.9871C1197.63 21.2365 1195.62 20.8612 1193.44 20.8612C1191.23 20.8612 1189.18 21.2365 1187.31 21.9871C1185.47 22.7378 1183.85 23.8074 1182.47 25.196C1181.08 26.5471 1179.99 28.1422 1179.2 29.9812C1178.45 31.8202 1178.07 33.8281 1178.07 36.0049C1178.07 38.1817 1178.45 40.1896 1179.2 42.0286C1179.99 43.8676 1181.08 45.4815 1182.47 46.8701C1183.85 48.2212 1185.47 49.2721 1187.31 50.0227C1189.18 50.7733 1191.23 51.1486 1193.44 51.1486ZM1222.93 55.7086V16.3012L1238.3 16.3012C1241.76 16.3012 1244.7 16.8454 1247.14 17.9338C1249.58 19.0222 1251.46 20.5985 1252.77 22.6627C1254.08 24.7269 1254.74 27.1852 1254.74 30.0375C1254.74 32.8899 1254.08 35.3481 1252.77 37.4123C1251.46 39.439 1249.58 41.0153 1247.14 42.1412C1244.7 43.2296 1241.76 43.7738 1238.3 43.7738H1226.03L1228.56 41.1279V55.7086H1222.93ZM1228.56 41.6908L1226.03 38.876H1238.13C1241.74 38.876 1244.46 38.1066 1246.3 36.5679C1248.17 35.0291 1249.11 32.8523 1249.11 30.0375C1249.11 27.2227 1248.17 25.0459 1246.3 23.5071C1244.46 21.9684 1241.74 21.199 1238.13 21.199L1226.03 21.199L1228.56 18.3842V41.6908ZM1263.06 43.2671L1262.04 16.3012H1268.4L1267.33 43.2671H1263.06ZM1265.25 56.0464C1264.2 56.0464 1263.32 55.6899 1262.61 54.9768C1261.89 54.2637 1261.54 53.4192 1261.54 52.4434C1261.54 51.3926 1261.89 50.5294 1262.61 49.8538C1263.32 49.1782 1264.2 48.8405 1265.25 48.8405C1266.3 48.8405 1267.17 49.1782 1267.84 49.8538C1268.52 50.5294 1268.85 51.3926 1268.85 52.4434C1268.85 53.4192 1268.52 54.2637 1267.84 54.9768C1267.17 55.6899 1266.3 56.0464 1265.25 56.0464ZM1278.12 43.2671L1277.11 16.3012H1283.47L1282.4 43.2671L1278.12 43.2671ZM1280.31 56.0464C1279.26 56.0464 1278.38 55.6899 1277.67 54.9768C1276.96 54.2637 1276.6 53.4192 1276.6 52.4434C1276.6 51.3926 1276.96 50.5294 1277.67 49.8538C1278.38 49.1782 1279.26 48.8405 1280.31 48.8405C1281.37 48.8405 1282.23 49.1782 1282.9 49.8538C1283.58 50.5294 1283.92 51.3926 1283.92 52.4434C1283.92 53.4192 1283.58 54.2637 1282.9 54.9768C1282.23 55.6899 1281.37 56.0464 1280.31 56.0464ZM1293.18 43.2671L1292.17 16.3012H1298.53L1297.46 43.2671H1293.18ZM1295.38 56.0464C1294.33 56.0464 1293.45 55.6899 1292.73 54.9768C1292.02 54.2637 1291.66 53.4192 1291.66 52.4434C1291.66 51.3926 1292.02 50.5294 1292.73 49.8538C1293.45 49.1782 1294.33 48.8405 1295.38 48.8405C1296.43 48.8405 1297.29 49.1782 1297.97 49.8538C1298.64 50.5294 1298.98 51.3926 1298.98 52.4434C1298.98 53.4192 1298.64 54.2637 1297.97 54.9768C1297.29 55.6899 1296.43 56.0464 1295.38 56.0464ZM1335.36 56.159C1332.35 56.159 1329.48 55.7086 1326.74 54.8079C1324 53.8696 1321.85 52.6686 1320.27 51.2049L1322.35 46.8138C1323.85 48.1274 1325.77 49.2158 1328.09 50.079C1330.42 50.9422 1332.84 51.3738 1335.36 51.3738C1337.65 51.3738 1339.5 51.1111 1340.93 50.5857C1342.36 50.0602 1343.41 49.3471 1344.08 48.4464C1344.76 47.5081 1345.1 46.4573 1345.1 45.2938C1345.1 43.9427 1344.65 42.8543 1343.74 42.0286C1342.88 41.2029 1341.74 40.5462 1340.31 40.0582C1338.92 39.5328 1337.38 39.0824 1335.69 38.7071C1334.01 38.3318 1332.3 37.9002 1330.57 37.4123C1328.88 36.8869 1327.32 36.2301 1325.9 35.442C1324.51 34.6538 1323.38 33.6029 1322.52 32.2894C1321.66 30.9383 1321.23 29.2118 1321.23 27.1101C1321.23 25.0834 1321.75 23.2257 1322.8 21.5368C1323.89 19.8104 1325.54 18.4405 1327.76 17.4271C1330.01 16.3763 1332.86 15.8508 1336.31 15.8508C1338.6 15.8508 1340.87 16.1511 1343.13 16.7516C1345.38 17.3521 1347.33 18.2153 1348.98 19.3412L1347.12 23.8449C1345.43 22.719 1343.65 21.9121 1341.77 21.4242C1339.9 20.8987 1338.08 20.636 1336.31 20.636C1334.1 20.636 1332.28 20.9175 1330.85 21.4805C1329.43 22.0434 1328.38 22.7941 1327.7 23.7323C1327.06 24.6706 1326.74 25.7215 1326.74 26.8849C1326.74 28.2736 1327.17 29.3807 1328.04 30.2064C1328.94 31.0321 1330.08 31.6889 1331.47 32.1768C1332.9 32.6647 1334.46 33.115 1336.14 33.5279C1337.83 33.9032 1339.52 34.3348 1341.21 34.8227C1342.94 35.3106 1344.49 35.9486 1345.88 36.7368C1347.31 37.5249 1348.45 38.5758 1349.32 39.8894C1350.18 41.2029 1350.61 42.8918 1350.61 44.956C1350.61 46.9452 1350.07 48.8029 1348.98 50.5294C1347.89 52.2182 1346.2 53.5881 1343.91 54.639C1341.66 55.6523 1338.81 56.159 1335.36 56.159ZM1366.11 55.7086V21.199H1352.6V16.3012L1385.2 16.3012V21.199H1371.69V55.7086H1366.11ZM1408.57 56.159C1405.57 56.159 1402.77 55.6523 1400.18 54.639C1397.63 53.6257 1395.41 52.2182 1393.54 50.4168C1391.66 48.5778 1390.2 46.4385 1389.15 43.999C1388.1 41.5595 1387.57 38.8948 1387.57 36.0049C1387.57 33.115 1388.1 30.4504 1389.15 28.0108C1390.2 25.5713 1391.66 23.4508 1393.54 21.6494C1395.41 19.8104 1397.63 18.3842 1400.18 17.3708C1402.73 16.3575 1405.53 15.8508 1408.57 15.8508C1411.57 15.8508 1414.33 16.3575 1416.84 17.3708C1419.4 18.3466 1421.61 19.7541 1423.49 21.5931C1425.4 23.3946 1426.86 25.515 1427.88 27.9545C1428.93 30.3941 1429.45 33.0775 1429.45 36.0049C1429.45 38.9323 1428.93 41.6158 1427.88 44.0553C1426.86 46.4948 1425.4 48.6341 1423.49 50.4731C1421.61 52.2745 1419.4 53.682 1416.84 54.6953C1414.33 55.6711 1411.57 56.159 1408.57 56.159ZM1408.57 51.1486C1410.74 51.1486 1412.75 50.7733 1414.59 50.0227C1416.47 49.2721 1418.08 48.2212 1419.43 46.8701C1420.82 45.4815 1421.89 43.8676 1422.64 42.0286C1423.43 40.1896 1423.82 38.1817 1423.82 36.0049C1423.82 33.8281 1423.43 31.8202 1422.64 29.9812C1421.89 28.1422 1420.82 26.5471 1419.43 25.196C1418.08 23.8074 1416.47 22.7378 1414.59 21.9871C1412.75 21.2365 1410.74 20.8612 1408.57 20.8612C1406.35 20.8612 1404.31 21.2365 1402.43 21.9871C1400.59 22.7378 1398.98 23.8074 1397.59 25.196C1396.2 26.5471 1395.11 28.1422 1394.33 29.9812C1393.57 31.8202 1393.2 33.8281 1393.2 36.0049C1393.2 38.1817 1393.57 40.1896 1394.33 42.0286C1395.11 43.8676 1396.2 45.4815 1397.59 46.8701C1398.98 48.2212 1400.59 49.2721 1402.43 50.0227C1404.31 50.7733 1406.35 51.1486 1408.57 51.1486ZM1438.06 55.7086V16.3012L1453.43 16.3012C1456.88 16.3012 1459.83 16.8454 1462.27 17.9338C1464.71 19.0222 1466.58 20.5985 1467.9 22.6627C1469.21 24.7269 1469.87 27.1852 1469.87 30.0375C1469.87 32.8899 1469.21 35.3481 1467.9 37.4123C1466.58 39.439 1464.71 41.0153 1462.27 42.1412C1459.83 43.2296 1456.88 43.7738 1453.43 43.7738H1441.15L1443.69 41.1279V55.7086H1438.06ZM1443.69 41.6908L1441.15 38.876H1453.26C1456.86 38.876 1459.58 38.1066 1461.42 36.5679C1463.3 35.0291 1464.24 32.8523 1464.24 30.0375C1464.24 27.2227 1463.3 25.0459 1461.42 23.5071C1459.58 21.9684 1456.86 21.199 1453.26 21.199L1441.15 21.199L1443.69 18.3842V41.6908ZM1478.18 43.2671L1477.17 16.3012L1483.53 16.3012L1482.46 43.2671H1478.18ZM1480.38 56.0464C1479.32 56.0464 1478.44 55.6899 1477.73 54.9768C1477.02 54.2637 1476.66 53.4192 1476.66 52.4434C1476.66 51.3926 1477.02 50.5294 1477.73 49.8538C1478.44 49.1782 1479.32 48.8405 1480.38 48.8405C1481.43 48.8405 1482.29 49.1782 1482.96 49.8538C1483.64 50.5294 1483.98 51.3926 1483.98 52.4434C1483.98 53.4192 1483.64 54.2637 1482.96 54.9768C1482.29 55.6899 1481.43 56.0464 1480.38 56.0464ZM1493.24 43.2671L1492.23 16.3012H1498.59L1497.52 43.2671H1493.24ZM1495.44 56.0464C1494.39 56.0464 1493.51 55.6899 1492.79 54.9768C1492.08 54.2637 1491.72 53.4192 1491.72 52.4434C1491.72 51.3926 1492.08 50.5294 1492.79 49.8538C1493.51 49.1782 1494.39 48.8405 1495.44 48.8405C1496.49 48.8405 1497.35 49.1782 1498.03 49.8538C1498.7 50.5294 1499.04 51.3926 1499.04 52.4434C1499.04 53.4192 1498.7 54.2637 1498.03 54.9768C1497.35 55.6899 1496.49 56.0464 1495.44 56.0464ZM1508.31 43.2671L1507.29 16.3012L1513.66 16.3012L1512.59 43.2671H1508.31ZM1510.5 56.0464C1509.45 56.0464 1508.57 55.6899 1507.86 54.9768C1507.14 54.2637 1506.79 53.4192 1506.79 52.4434C1506.79 51.3926 1507.14 50.5294 1507.86 49.8538C1508.57 49.1782 1509.45 48.8405 1510.5 48.8405C1511.55 48.8405 1512.42 49.1782 1513.09 49.8538C1513.77 50.5294 1514.11 51.3926 1514.11 52.4434C1514.11 53.4192 1513.77 54.2637 1513.09 54.9768C1512.42 55.6899 1511.55 56.0464 1510.5 56.0464Z" fill="black"/>
<path d="M689.983 56.159C686.98 56.159 684.109 55.7086 681.37 54.8079C678.63 53.8696 676.472 52.6686 674.896 51.2049L676.979 46.8138C678.48 48.1274 680.394 49.2158 682.721 50.079C685.048 50.9422 687.468 51.3738 689.983 51.3738C692.272 51.3738 694.13 51.1111 695.556 50.5857C696.982 50.0602 698.033 49.3471 698.709 48.4464C699.384 47.5081 699.722 46.4573 699.722 45.2938C699.722 43.9427 699.272 42.8543 698.371 42.0286C697.508 41.2029 696.363 40.5462 694.937 40.0582C693.548 39.5328 692.01 39.0824 690.321 38.7071C688.632 38.3318 686.924 37.9002 685.198 37.4123C683.509 36.8869 681.951 36.2301 680.525 35.442C679.137 34.6538 678.011 33.6029 677.147 32.2894C676.284 30.9383 675.853 29.2118 675.853 27.1101C675.853 25.0834 676.378 23.2257 677.429 21.5368C678.517 19.8104 680.169 18.4405 682.383 17.4271C684.635 16.3763 687.487 15.8508 690.94 15.8508C693.229 15.8508 695.5 16.1511 697.752 16.7516C700.004 17.3521 701.955 18.2153 703.607 19.3412L701.749 23.8449C700.06 22.719 698.277 21.9121 696.401 21.4242C694.524 20.8987 692.704 20.636 690.94 20.636C688.726 20.636 686.905 20.9175 685.479 21.4805C684.053 22.0434 683.002 22.7941 682.327 23.7323C681.689 24.6706 681.37 25.7215 681.37 26.8849C681.37 28.2736 681.801 29.3807 682.664 30.2064C683.565 31.0321 684.71 31.6889 686.099 32.1768C687.525 32.6647 689.082 33.115 690.771 33.5279C692.46 33.9032 694.149 34.3348 695.838 34.8227C697.564 35.3106 699.122 35.9486 700.51 36.7368C701.937 37.5249 703.081 38.5758 703.944 39.8894C704.808 41.2029 705.239 42.8918 705.239 44.956C705.239 46.9452 704.695 48.8029 703.607 50.5294C702.518 52.2182 700.829 53.5881 698.54 54.639C696.288 55.6523 693.436 56.159 689.983 56.159ZM720.739 55.7086V21.199L707.228 21.199V16.3012L739.824 16.3012V21.199L726.313 21.199V55.7086H720.739ZM763.195 56.159C760.193 56.159 757.396 55.6523 754.807 54.639C752.255 53.6257 750.04 52.2182 748.164 50.4168C746.287 48.5778 744.824 46.4385 743.773 43.999C742.722 41.5595 742.196 38.8948 742.196 36.0049C742.196 33.115 742.722 30.4504 743.773 28.0108C744.824 25.5713 746.287 23.4508 748.164 21.6494C750.04 19.8104 752.255 18.3842 754.807 17.3708C757.359 16.3575 760.155 15.8508 763.195 15.8508C766.197 15.8508 768.956 16.3575 771.471 17.3708C774.023 18.3466 776.237 19.7541 778.114 21.5931C780.028 23.3946 781.491 25.515 782.505 27.9545C783.555 30.3941 784.081 33.0775 784.081 36.0049C784.081 38.9323 783.555 41.6158 782.505 44.0553C781.491 46.4948 780.028 48.6341 778.114 50.4731C776.237 52.2745 774.023 53.682 771.471 54.6953C768.956 55.6711 766.197 56.159 763.195 56.159ZM763.195 51.1486C765.372 51.1486 767.38 50.7733 769.219 50.0227C771.095 49.2721 772.709 48.2212 774.06 46.8701C775.449 45.4815 776.518 43.8676 777.269 42.0286C778.057 40.1896 778.451 38.1817 778.451 36.0049C778.451 33.8281 778.057 31.8202 777.269 29.9812C776.518 28.1422 775.449 26.5471 774.06 25.196C772.709 23.8074 771.095 22.7378 769.219 21.9871C767.38 21.2365 765.372 20.8612 763.195 20.8612C760.981 20.8612 758.935 21.2365 757.059 21.9871C755.22 22.7378 753.606 23.8074 752.217 25.196C750.829 26.5471 749.74 28.1422 748.952 29.9812C748.201 31.8202 747.826 33.8281 747.826 36.0049C747.826 38.1817 748.201 40.1896 748.952 42.0286C749.74 43.8676 750.829 45.4815 752.217 46.8701C753.606 48.2212 755.22 49.2721 757.059 50.0227C758.935 50.7733 760.981 51.1486 763.195 51.1486ZM792.685 55.7086V16.3012H808.054C811.507 16.3012 814.453 16.8454 816.893 17.9338C819.332 19.0222 821.209 20.5985 822.522 22.6627C823.836 24.7269 824.493 27.1852 824.493 30.0375C824.493 32.8899 823.836 35.3481 822.522 37.4123C821.209 39.439 819.332 41.0153 816.893 42.1412C814.453 43.2296 811.507 43.7738 808.054 43.7738H795.782L798.315 41.1279V55.7086H792.685ZM798.315 41.6908L795.782 38.876H807.885C811.488 38.876 814.209 38.1066 816.048 36.5679C817.925 35.0291 818.863 32.8523 818.863 30.0375C818.863 27.2227 817.925 25.0459 816.048 23.5071C814.209 21.9684 811.488 21.199 807.885 21.199L795.782 21.199L798.315 18.3842V41.6908ZM832.807 43.2671L831.793 16.3012H838.155L837.085 43.2671H832.807ZM835.002 56.0464C833.951 56.0464 833.069 55.6899 832.356 54.9768C831.643 54.2637 831.287 53.4192 831.287 52.4434C831.287 51.3926 831.643 50.5294 832.356 49.8538C833.069 49.1782 833.951 48.8405 835.002 48.8405C836.053 48.8405 836.916 49.1782 837.592 49.8538C838.267 50.5294 838.605 51.3926 838.605 52.4434C838.605 53.4192 838.267 54.2637 837.592 54.9768C836.916 55.6899 836.053 56.0464 835.002 56.0464ZM847.87 43.2671L846.857 16.3012L853.219 16.3012L852.149 43.2671H847.87ZM850.066 56.0464C849.015 56.0464 848.133 55.6899 847.42 54.9768C846.707 54.2637 846.35 53.4192 846.35 52.4434C846.35 51.3926 846.707 50.5294 847.42 49.8538C848.133 49.1782 849.015 48.8405 850.066 48.8405C851.117 48.8405 851.98 49.1782 852.656 49.8538C853.331 50.5294 853.669 51.3926 853.669 52.4434C853.669 53.4192 853.331 54.2637 852.656 54.9768C851.98 55.6899 851.117 56.0464 850.066 56.0464ZM862.934 43.2671L861.921 16.3012H868.282L867.213 43.2671H862.934ZM865.13 56.0464C864.079 56.0464 863.197 55.6899 862.484 54.9768C861.771 54.2637 861.414 53.4192 861.414 52.4434C861.414 51.3926 861.771 50.5294 862.484 49.8538C863.197 49.1782 864.079 48.8405 865.13 48.8405C866.18 48.8405 867.044 49.1782 867.719 49.8538C868.395 50.5294 868.733 51.3926 868.733 52.4434C868.733 53.4192 868.395 54.2637 867.719 54.9768C867.044 55.6899 866.18 56.0464 865.13 56.0464ZM905.107 56.159C902.105 56.159 899.234 55.7086 896.494 54.8079C893.754 53.8696 891.596 52.6686 890.02 51.2049L892.103 46.8138C893.604 48.1274 895.518 49.2158 897.845 50.079C900.172 50.9422 902.593 51.3738 905.107 51.3738C907.397 51.3738 909.255 51.1111 910.681 50.5857C912.107 50.0602 913.158 49.3471 913.833 48.4464C914.509 47.5081 914.847 46.4573 914.847 45.2938C914.847 43.9427 914.396 42.8543 913.495 42.0286C912.632 41.2029 911.488 40.5462 910.061 40.0582C908.673 39.5328 907.134 39.0824 905.445 38.7071C903.756 38.3318 902.049 37.9002 900.322 37.4123C898.633 36.8869 897.076 36.2301 895.65 35.442C894.261 34.6538 893.135 33.6029 892.272 32.2894C891.409 30.9383 890.977 29.2118 890.977 27.1101C890.977 25.0834 891.502 23.2257 892.553 21.5368C893.642 19.8104 895.293 18.4405 897.507 17.4271C899.759 16.3763 902.612 15.8508 906.064 15.8508C908.354 15.8508 910.624 16.1511 912.876 16.7516C915.128 17.3521 917.08 18.2153 918.731 19.3412L916.873 23.8449C915.184 22.719 913.402 21.9121 911.525 21.4242C909.649 20.8987 907.828 20.636 906.064 20.636C903.85 20.636 902.03 20.9175 900.604 21.4805C899.177 22.0434 898.127 22.7941 897.451 23.7323C896.813 24.6706 896.494 25.7215 896.494 26.8849C896.494 28.2736 896.926 29.3807 897.789 30.2064C898.69 31.0321 899.834 31.6889 901.223 32.1768C902.649 32.6647 904.207 33.115 905.895 33.5279C907.584 33.9032 909.273 34.3348 910.962 34.8227C912.689 35.3106 914.246 35.9486 915.635 36.7368C917.061 37.5249 918.206 38.5758 919.069 39.8894C919.932 41.2029 920.364 42.8918 920.364 44.956C920.364 46.9452 919.819 48.8029 918.731 50.5294C917.643 52.2182 915.954 53.5881 913.664 54.639C911.413 55.6523 908.56 56.159 905.107 56.159ZM935.864 55.7086V21.199H922.353V16.3012L954.948 16.3012V21.199H941.437V55.7086H935.864ZM978.319 56.159C975.317 56.159 972.521 55.6523 969.931 54.639C967.379 53.6257 965.165 52.2182 963.288 50.4168C961.412 48.5778 959.948 46.4385 958.897 43.999C957.846 41.5595 957.321 38.8948 957.321 36.0049C957.321 33.115 957.846 30.4504 958.897 28.0108C959.948 25.5713 961.412 23.4508 963.288 21.6494C965.165 19.8104 967.379 18.3842 969.931 17.3708C972.483 16.3575 975.279 15.8508 978.319 15.8508C981.322 15.8508 984.08 16.3575 986.595 17.3708C989.147 18.3466 991.361 19.7541 993.238 21.5931C995.152 23.3946 996.616 25.515 997.629 27.9545C998.68 30.3941 999.205 33.0775 999.205 36.0049C999.205 38.9323 998.68 41.6158 997.629 44.0553C996.616 46.4948 995.152 48.6341 993.238 50.4731C991.361 52.2745 989.147 53.682 986.595 54.6953C984.08 55.6711 981.322 56.159 978.319 56.159ZM978.319 51.1486C980.496 51.1486 982.504 50.7733 984.343 50.0227C986.22 49.2721 987.833 48.2212 989.185 46.8701C990.573 45.4815 991.643 43.8676 992.393 42.0286C993.182 40.1896 993.576 38.1817 993.576 36.0049C993.576 33.8281 993.182 31.8202 992.393 29.9812C991.643 28.1422 990.573 26.5471 989.185 25.196C987.833 23.8074 986.22 22.7378 984.343 21.9871C982.504 21.2365 980.496 20.8612 978.319 20.8612C976.105 20.8612 974.06 21.2365 972.183 21.9871C970.344 22.7378 968.73 23.8074 967.342 25.196C965.953 26.5471 964.865 28.1422 964.076 29.9812C963.326 31.8202 962.951 33.8281 962.951 36.0049C962.951 38.1817 963.326 40.1896 964.076 42.0286C964.865 43.8676 965.953 45.4815 967.342 46.8701C968.73 48.2212 970.344 49.2721 972.183 50.0227C974.06 50.7733 976.105 51.1486 978.319 51.1486Z" fill="#EBEBEB"/>
</g>
</svg>
