<svg width="969" height="340" viewBox="0 0 969 340" fill="none" xmlns="http://www.w3.org/2000/svg">
<path d="M10.207 0.460632L954.071 0.460632L968.799 339.479L0.343505 339.479L10.207 0.460632Z" fill="#EBEBEB"/>
<mask id="mask0_194_572" style="mask-type:alpha" maskUnits="userSpaceOnUse" x="0" y="0" width="969" height="340">
<path d="M10.207 0.460632L954.071 0.460632L968.799 339.479L0.343505 339.479L10.207 0.460632Z" fill="black"/>
</mask>
<g mask="url(#mask0_194_572)">
<path d="M-585.645 56.5915C-588.647 56.5915 -591.518 56.1411 -594.258 55.2404C-596.998 54.3021 -599.156 53.1011 -600.732 51.6374L-598.649 47.2463C-597.148 48.5599 -595.234 49.6483 -592.907 50.5115C-590.58 51.3747 -588.159 51.8063 -585.645 51.8063C-583.355 51.8063 -581.497 51.5436 -580.071 51.0182C-578.645 50.4927 -577.594 49.7796 -576.919 48.8789C-576.243 47.9406 -575.905 46.8898 -575.905 45.7263C-575.905 44.3752 -576.356 43.2868 -577.256 42.4611C-578.12 41.6354 -579.264 40.9786 -580.691 40.4907C-582.079 39.9653 -583.618 39.5149 -585.307 39.1396C-586.996 38.7643 -588.703 38.3327 -590.43 37.8448C-592.119 37.3194 -593.676 36.6626 -595.102 35.8745C-596.491 35.0863 -597.617 34.0354 -598.48 32.7219C-599.343 31.3707 -599.775 29.6443 -599.775 27.5426C-599.775 25.5159 -599.25 23.6582 -598.199 21.9693C-597.11 20.2428 -595.459 18.873 -593.245 17.8596C-590.993 16.8088 -588.14 16.2833 -584.688 16.2833C-582.398 16.2833 -580.128 16.5836 -577.876 17.1841C-575.624 17.7846 -573.672 18.6478 -572.021 19.7737L-573.879 24.2774C-575.568 23.1515 -577.35 22.3446 -579.227 21.8567C-581.103 21.3312 -582.924 21.0685 -584.688 21.0685C-586.902 21.0685 -588.722 21.35 -590.148 21.913C-591.574 22.4759 -592.625 23.2266 -593.301 24.1648C-593.939 25.1031 -594.258 26.154 -594.258 27.3174C-594.258 28.7061 -593.826 29.8132 -592.963 30.6389C-592.062 31.4646 -590.918 32.1214 -589.529 32.6093C-588.103 33.0972 -586.545 33.5475 -584.856 33.9604C-583.168 34.3357 -581.479 34.7673 -579.79 35.2552C-578.063 35.7431 -576.506 36.3811 -575.117 37.1693C-573.691 37.9574 -572.546 39.0083 -571.683 40.3219C-570.82 41.6354 -570.388 43.3243 -570.388 45.3885C-570.388 47.3777 -570.933 49.2354 -572.021 50.9619C-573.109 52.6507 -574.798 54.0206 -577.088 55.0715C-579.339 56.0848 -582.192 56.5915 -585.645 56.5915ZM-554.888 56.1411V21.6315L-568.399 21.6315V16.7337L-535.804 16.7337V21.6315H-549.315V56.1411H-554.888ZM-512.433 56.5915C-515.435 56.5915 -518.231 56.0848 -520.821 55.0715C-523.373 54.0582 -525.587 52.6507 -527.464 50.8493C-529.34 49.0103 -530.804 46.871 -531.855 44.4315C-532.906 41.992 -533.431 39.3273 -533.431 36.4374C-533.431 33.5475 -532.906 30.8828 -531.855 28.4433C-530.804 26.0038 -529.34 23.8833 -527.464 22.0819C-525.587 20.2428 -523.373 18.8167 -520.821 17.8033C-518.269 16.79 -515.473 16.2833 -512.433 16.2833C-509.43 16.2833 -506.672 16.79 -504.157 17.8033C-501.605 18.7791 -499.391 20.1866 -497.514 22.0256C-495.6 23.827 -494.136 25.9475 -493.123 28.387C-492.072 30.8265 -491.547 33.51 -491.547 36.4374C-491.547 39.3648 -492.072 42.0483 -493.123 44.4878C-494.136 46.9273 -495.6 49.0665 -497.514 50.9056C-499.391 52.707 -501.605 54.1144 -504.157 55.1278C-506.672 56.1036 -509.43 56.5915 -512.433 56.5915ZM-512.433 51.5811C-510.256 51.5811 -508.248 51.2058 -506.409 50.4552C-504.532 49.7046 -502.919 48.6537 -501.567 47.3026C-500.179 45.914 -499.109 44.3001 -498.359 42.4611C-497.57 40.6221 -497.176 38.6142 -497.176 36.4374C-497.176 34.2606 -497.57 32.2527 -498.359 30.4137C-499.109 28.5747 -500.179 26.9796 -501.567 25.6285C-502.919 24.2399 -504.532 23.1703 -506.409 22.4196C-508.248 21.669 -510.256 21.2937 -512.433 21.2937C-514.647 21.2937 -516.692 21.669 -518.569 22.4196C-520.408 23.1703 -522.022 24.2399 -523.41 25.6285C-524.799 26.9796 -525.887 28.5747 -526.676 30.4137C-527.426 32.2527 -527.801 34.2606 -527.801 36.4374C-527.801 38.6142 -527.426 40.6221 -526.676 42.4611C-525.887 44.3001 -524.799 45.914 -523.41 47.3026C-522.022 48.6537 -520.408 49.7046 -518.569 50.4552C-516.692 51.2058 -514.647 51.5811 -512.433 51.5811ZM-482.942 56.1411V16.7337L-467.573 16.7337C-464.12 16.7337 -461.174 17.2779 -458.735 18.3663C-456.295 19.4547 -454.419 21.031 -453.105 23.0952C-451.792 25.1594 -451.135 27.6177 -451.135 30.47C-451.135 33.3224 -451.792 35.7806 -453.105 37.8448C-454.419 39.8715 -456.295 41.4478 -458.735 42.5737C-461.174 43.6621 -464.12 44.2063 -467.573 44.2063H-479.846L-477.313 41.5604V56.1411H-482.942ZM-477.313 42.1233L-479.846 39.3085H-467.742C-464.139 39.3085 -461.418 38.5391 -459.579 37.0004C-457.703 35.4616 -456.764 33.2848 -456.764 30.47C-456.764 27.6552 -457.703 25.4784 -459.579 23.9396C-461.418 22.4009 -464.139 21.6315 -467.742 21.6315L-479.846 21.6315L-477.313 18.8167V42.1233ZM-442.821 43.6996L-443.834 16.7337H-437.473L-438.542 43.6996H-442.821ZM-440.625 56.4789C-441.676 56.4789 -442.558 56.1223 -443.271 55.4093C-443.984 54.6962 -444.341 53.8517 -444.341 52.8759C-444.341 51.8251 -443.984 50.9619 -443.271 50.2863C-442.558 49.6107 -441.676 49.273 -440.625 49.273C-439.575 49.273 -438.711 49.6107 -438.036 50.2863C-437.36 50.9619 -437.022 51.8251 -437.022 52.8759C-437.022 53.8517 -437.36 54.6962 -438.036 55.4093C-438.711 56.1223 -439.575 56.4789 -440.625 56.4789ZM-427.757 43.6996L-428.771 16.7337L-422.409 16.7337L-423.479 43.6996H-427.757ZM-425.562 56.4789C-426.613 56.4789 -427.495 56.1223 -428.208 55.4093C-428.921 54.6962 -429.277 53.8517 -429.277 52.8759C-429.277 51.8251 -428.921 50.9619 -428.208 50.2863C-427.495 49.6107 -426.613 49.273 -425.562 49.273C-424.511 49.273 -423.648 49.6107 -422.972 50.2863C-422.297 50.9619 -421.959 51.8251 -421.959 52.8759C-421.959 53.8517 -422.297 54.6962 -422.972 55.4093C-423.648 56.1223 -424.511 56.4789 -425.562 56.4789ZM-412.694 43.6996L-413.707 16.7337H-407.345L-408.415 43.6996H-412.694ZM-410.498 56.4789C-411.549 56.4789 -412.431 56.1223 -413.144 55.4093C-413.857 54.6962 -414.214 53.8517 -414.214 52.8759C-414.214 51.8251 -413.857 50.9619 -413.144 50.2863C-412.431 49.6107 -411.549 49.273 -410.498 49.273C-409.447 49.273 -408.584 49.6107 -407.908 50.2863C-407.233 50.9619 -406.895 51.8251 -406.895 52.8759C-406.895 53.8517 -407.233 54.6962 -407.908 55.4093C-408.584 56.1223 -409.447 56.4789 -410.498 56.4789ZM-370.52 56.5915C-373.523 56.5915 -376.394 56.1411 -379.134 55.2404C-381.873 54.3021 -384.031 53.1011 -385.608 51.6374L-383.525 47.2463C-382.023 48.5599 -380.109 49.6483 -377.782 50.5115C-375.456 51.3747 -373.035 51.8063 -370.52 51.8063C-368.231 51.8063 -366.373 51.5436 -364.947 51.0182C-363.521 50.4927 -362.47 49.7796 -361.794 48.8789C-361.119 47.9406 -360.781 46.8898 -360.781 45.7263C-360.781 44.3752 -361.231 43.2868 -362.132 42.4611C-362.995 41.6354 -364.14 40.9786 -365.566 40.4907C-366.955 39.9653 -368.494 39.5149 -370.182 39.1396C-371.871 38.7643 -373.579 38.3327 -375.305 37.8448C-376.994 37.3194 -378.552 36.6626 -379.978 35.8745C-381.367 35.0863 -382.493 34.0354 -383.356 32.7219C-384.219 31.3707 -384.651 29.6443 -384.651 27.5426C-384.651 25.5159 -384.125 23.6582 -383.074 21.9693C-381.986 20.2428 -380.335 18.873 -378.12 17.8596C-375.868 16.8088 -373.016 16.2833 -369.563 16.2833C-367.274 16.2833 -365.003 16.5836 -362.751 17.1841C-360.499 17.7846 -358.548 18.6478 -356.897 19.7737L-358.754 24.2774C-360.443 23.1515 -362.226 22.3446 -364.102 21.8567C-365.979 21.3312 -367.799 21.0685 -369.563 21.0685C-371.778 21.0685 -373.598 21.35 -375.024 21.913C-376.45 22.4759 -377.501 23.2266 -378.177 24.1648C-378.815 25.1031 -379.134 26.154 -379.134 27.3174C-379.134 28.7061 -378.702 29.8132 -377.839 30.6389C-376.938 31.4646 -375.793 32.1214 -374.405 32.6093C-372.979 33.0972 -371.421 33.5475 -369.732 33.9604C-368.043 34.3357 -366.354 34.7673 -364.665 35.2552C-362.939 35.7431 -361.381 36.3811 -359.993 37.1693C-358.567 37.9574 -357.422 39.0083 -356.559 40.3219C-355.696 41.6354 -355.264 43.3243 -355.264 45.3885C-355.264 47.3777 -355.808 49.2354 -356.897 50.9619C-357.985 52.6507 -359.674 54.0206 -361.963 55.0715C-364.215 56.0848 -367.067 56.5915 -370.52 56.5915ZM-339.764 56.1411V21.6315L-353.275 21.6315V16.7337L-320.68 16.7337V21.6315L-334.191 21.6315V56.1411H-339.764ZM-297.308 56.5915C-300.311 56.5915 -303.107 56.0848 -305.696 55.0715C-308.248 54.0582 -310.463 52.6507 -312.339 50.8493C-314.216 49.0103 -315.68 46.871 -316.73 44.4315C-317.781 41.992 -318.307 39.3273 -318.307 36.4374C-318.307 33.5475 -317.781 30.8828 -316.73 28.4433C-315.68 26.0038 -314.216 23.8833 -312.339 22.0819C-310.463 20.2428 -308.248 18.8167 -305.696 17.8033C-303.144 16.79 -300.348 16.2833 -297.308 16.2833C-294.306 16.2833 -291.547 16.79 -289.033 17.8033C-286.481 18.7791 -284.266 20.1866 -282.39 22.0256C-280.476 23.827 -279.012 25.9475 -277.999 28.387C-276.948 30.8265 -276.422 33.51 -276.422 36.4374C-276.422 39.3648 -276.948 42.0483 -277.999 44.4878C-279.012 46.9273 -280.476 49.0665 -282.39 50.9056C-284.266 52.707 -286.481 54.1144 -289.033 55.1278C-291.547 56.1036 -294.306 56.5915 -297.308 56.5915ZM-297.308 51.5811C-295.131 51.5811 -293.124 51.2058 -291.285 50.4552C-289.408 49.7046 -287.794 48.6537 -286.443 47.3026C-285.054 45.914 -283.985 44.3001 -283.234 42.4611C-282.446 40.6221 -282.052 38.6142 -282.052 36.4374C-282.052 34.2606 -282.446 32.2527 -283.234 30.4137C-283.985 28.5747 -285.054 26.9796 -286.443 25.6285C-287.794 24.2399 -289.408 23.1703 -291.285 22.4196C-293.124 21.669 -295.131 21.2937 -297.308 21.2937C-299.523 21.2937 -301.568 21.669 -303.445 22.4196C-305.284 23.1703 -306.897 24.2399 -308.286 25.6285C-309.675 26.9796 -310.763 28.5747 -311.551 30.4137C-312.302 32.2527 -312.677 34.2606 -312.677 36.4374C-312.677 38.6142 -312.302 40.6221 -311.551 42.4611C-310.763 44.3001 -309.675 45.914 -308.286 47.3026C-306.897 48.6537 -305.284 49.7046 -303.445 50.4552C-301.568 51.2058 -299.523 51.5811 -297.308 51.5811ZM-267.818 56.1411V16.7337H-252.449C-248.996 16.7337 -246.05 17.2779 -243.61 18.3663C-241.171 19.4547 -239.294 21.031 -237.981 23.0952C-236.667 25.1594 -236.01 27.6177 -236.01 30.47C-236.01 33.3224 -236.667 35.7806 -237.981 37.8448C-239.294 39.8715 -241.171 41.4478 -243.61 42.5737C-246.05 43.6621 -248.996 44.2063 -252.449 44.2063H-264.721L-262.188 41.5604V56.1411H-267.818ZM-262.188 42.1233L-264.721 39.3085H-252.618C-249.015 39.3085 -246.294 38.5391 -244.455 37.0004C-242.578 35.4616 -241.64 33.2848 -241.64 30.47C-241.64 27.6552 -242.578 25.4784 -244.455 23.9396C-246.294 22.4009 -249.015 21.6315 -252.618 21.6315L-264.721 21.6315L-262.188 18.8167V42.1233ZM-227.697 43.6996L-228.71 16.7337H-222.348L-223.418 43.6996H-227.697ZM-225.501 56.4789C-226.552 56.4789 -227.434 56.1223 -228.147 55.4093C-228.86 54.6962 -229.217 53.8517 -229.217 52.8759C-229.217 51.8251 -228.86 50.9619 -228.147 50.2863C-227.434 49.6107 -226.552 49.273 -225.501 49.273C-224.45 49.273 -223.587 49.6107 -222.911 50.2863C-222.236 50.9619 -221.898 51.8251 -221.898 52.8759C-221.898 53.8517 -222.236 54.6962 -222.911 55.4093C-223.587 56.1223 -224.45 56.4789 -225.501 56.4789ZM-212.633 43.6996L-213.646 16.7337H-207.285L-208.354 43.6996H-212.633ZM-210.437 56.4789C-211.488 56.4789 -212.37 56.1223 -213.083 55.4093C-213.796 54.6962 -214.153 53.8517 -214.153 52.8759C-214.153 51.8251 -213.796 50.9619 -213.083 50.2863C-212.37 49.6107 -211.488 49.273 -210.437 49.273C-209.386 49.273 -208.523 49.6107 -207.848 50.2863C-207.172 50.9619 -206.834 51.8251 -206.834 52.8759C-206.834 53.8517 -207.172 54.6962 -207.848 55.4093C-208.523 56.1223 -209.386 56.4789 -210.437 56.4789ZM-197.569 43.6996L-198.583 16.7337H-192.221L-193.291 43.6996L-197.569 43.6996ZM-195.374 56.4789C-196.425 56.4789 -197.307 56.1223 -198.02 55.4093C-198.733 54.6962 -199.089 53.8517 -199.089 52.8759C-199.089 51.8251 -198.733 50.9619 -198.02 50.2863C-197.307 49.6107 -196.425 49.273 -195.374 49.273C-194.323 49.273 -193.46 49.6107 -192.784 50.2863C-192.109 50.9619 -191.771 51.8251 -191.771 52.8759C-191.771 53.8517 -192.109 54.6962 -192.784 55.4093C-193.46 56.1223 -194.323 56.4789 -195.374 56.4789ZM-170.514 56.5915C-173.517 56.5915 -176.388 56.1411 -179.128 55.2404C-181.868 54.3021 -184.026 53.1011 -185.602 51.6374L-183.519 47.2463C-182.018 48.5599 -180.104 49.6483 -177.777 50.5115C-175.45 51.3747 -173.029 51.8063 -170.514 51.8063C-168.225 51.8063 -166.367 51.5436 -164.941 51.0182C-163.515 50.4927 -162.464 49.7796 -161.789 48.8789C-161.113 47.9406 -160.775 46.8898 -160.775 45.7263C-160.775 44.3752 -161.226 43.2868 -162.126 42.4611C-162.99 41.6354 -164.134 40.9786 -165.56 40.4907C-166.949 39.9653 -168.488 39.5149 -170.177 39.1396C-171.866 38.7643 -173.573 38.3327 -175.3 37.8448C-176.989 37.3194 -178.546 36.6626 -179.972 35.8745C-181.361 35.0863 -182.487 34.0354 -183.35 32.7219C-184.213 31.3707 -184.645 29.6443 -184.645 27.5426C-184.645 25.5159 -184.119 23.6582 -183.069 21.9693C-181.98 20.2428 -180.329 18.873 -178.114 17.8596C-175.863 16.8088 -173.01 16.2833 -169.557 16.2833C-167.268 16.2833 -164.997 16.5836 -162.746 17.1841C-160.494 17.7846 -158.542 18.6478 -156.891 19.7737L-158.749 24.2774C-160.437 23.1515 -162.22 22.3446 -164.097 21.8567C-165.973 21.3312 -167.793 21.0685 -169.557 21.0685C-171.772 21.0685 -173.592 21.35 -175.018 21.913C-176.444 22.4759 -177.495 23.2266 -178.171 24.1648C-178.809 25.1031 -179.128 26.154 -179.128 27.3174C-179.128 28.7061 -178.696 29.8132 -177.833 30.6389C-176.932 31.4646 -175.788 32.1214 -174.399 32.6093C-172.973 33.0972 -171.415 33.5475 -169.726 33.9604C-168.037 34.3357 -166.349 34.7673 -164.66 35.2552C-162.933 35.7431 -161.376 36.3811 -159.987 37.1693C-158.561 37.9574 -157.416 39.0083 -156.553 40.3219C-155.69 41.6354 -155.258 43.3243 -155.258 45.3885C-155.258 47.3777 -155.802 49.2354 -156.891 50.9619C-157.979 52.6507 -159.668 54.0206 -161.957 55.0715C-164.209 56.0848 -167.062 56.5915 -170.514 56.5915ZM-139.758 56.1411V21.6315L-153.269 21.6315V16.7337L-120.674 16.7337V21.6315L-134.185 21.6315V56.1411H-139.758ZM-97.3025 56.5915C-100.305 56.5915 -103.101 56.0848 -105.691 55.0715C-108.243 54.0582 -110.457 52.6507 -112.334 50.8493C-114.21 49.0103 -115.674 46.871 -116.725 44.4315C-117.776 41.992 -118.301 39.3273 -118.301 36.4374C-118.301 33.5475 -117.776 30.8828 -116.725 28.4433C-115.674 26.0038 -114.21 23.8833 -112.334 22.0819C-110.457 20.2428 -108.243 18.8167 -105.691 17.8033C-103.139 16.79 -100.342 16.2833 -97.3025 16.2833C-94.3 16.2833 -91.5415 16.79 -89.0269 17.8033C-86.4748 18.7791 -84.2605 20.1866 -82.384 22.0256C-80.4699 23.827 -79.0062 25.9475 -77.9929 28.387C-76.942 30.8265 -76.4166 33.51 -76.4166 36.4374C-76.4166 39.3648 -76.942 42.0483 -77.9929 44.4878C-79.0062 46.9273 -80.4699 49.0665 -82.384 50.9056C-84.2605 52.707 -86.4748 54.1144 -89.0269 55.1278C-91.5415 56.1036 -94.3 56.5915 -97.3025 56.5915ZM-97.3025 51.5811C-95.1257 51.5811 -93.1178 51.2058 -91.2788 50.4552C-89.4023 49.7046 -87.7884 48.6537 -86.4373 47.3026C-85.0487 45.914 -83.979 44.3001 -83.2284 42.4611C-82.4403 40.6221 -82.0462 38.6142 -82.0462 36.4374C-82.0462 34.2606 -82.4403 32.2527 -83.2284 30.4137C-83.979 28.5747 -85.0487 26.9796 -86.4373 25.6285C-87.7884 24.2399 -89.4023 23.1703 -91.2788 22.4196C-93.1178 21.669 -95.1257 21.2937 -97.3025 21.2937C-99.5168 21.2937 -101.562 21.669 -103.439 22.4196C-105.278 23.1703 -106.892 24.2399 -108.28 25.6285C-109.669 26.9796 -110.757 28.5747 -111.545 30.4137C-112.296 32.2527 -112.671 34.2606 -112.671 36.4374C-112.671 38.6142 -112.296 40.6221 -111.545 42.4611C-110.757 44.3001 -109.669 45.914 -108.28 47.3026C-106.892 48.6537 -105.278 49.7046 -103.439 50.4552C-101.562 51.2058 -99.5168 51.5811 -97.3025 51.5811ZM-67.812 56.1411V16.7337H-52.4431C-48.9903 16.7337 -46.0441 17.2779 -43.6046 18.3663C-41.1651 19.4547 -39.2886 21.031 -37.975 23.0952C-36.6614 25.1594 -36.0046 27.6177 -36.0046 30.47C-36.0046 33.3224 -36.6614 35.7806 -37.975 37.8448C-39.2886 39.8715 -41.1651 41.4478 -43.6046 42.5737C-46.0441 43.6621 -48.9903 44.2063 -52.4431 44.2063H-64.7157L-62.1824 41.5604V56.1411H-67.812ZM-62.1824 42.1233L-64.7157 39.3085H-52.612C-49.0091 39.3085 -46.2881 38.5391 -44.4491 37.0004C-42.5725 35.4616 -41.6343 33.2848 -41.6343 30.47C-41.6343 27.6552 -42.5725 25.4784 -44.4491 23.9396C-46.2881 22.4009 -49.0091 21.6315 -52.612 21.6315H-64.7157L-62.1824 18.8167V42.1233ZM-27.6908 43.6996L-28.7042 16.7337H-22.3427L-23.4123 43.6996H-27.6908ZM-25.4953 56.4789C-26.5461 56.4789 -27.4281 56.1223 -28.1412 55.4093C-28.8543 54.6962 -29.2108 53.8517 -29.2108 52.8759C-29.2108 51.8251 -28.8543 50.9619 -28.1412 50.2863C-27.4281 49.6107 -26.5461 49.273 -25.4953 49.273C-24.4444 49.273 -23.5812 49.6107 -22.9056 50.2863C-22.2301 50.9619 -21.8923 51.8251 -21.8923 52.8759C-21.8923 53.8517 -22.2301 54.6962 -22.9056 55.4093C-23.5812 56.1223 -24.4444 56.4789 -25.4953 56.4789ZM-12.6272 43.6996L-13.6405 16.7337H-7.27903L-8.34866 43.6996H-12.6272ZM-10.4316 56.4789C-11.4825 56.4789 -12.3645 56.1223 -13.0775 55.4093C-13.7906 54.6962 -14.1472 53.8517 -14.1472 52.8759C-14.1472 51.8251 -13.7906 50.9619 -13.0775 50.2863C-12.3645 49.6107 -11.4825 49.273 -10.4316 49.273C-9.38075 49.273 -8.51754 49.6107 -7.84199 50.2863C-7.16643 50.9619 -6.82865 51.8251 -6.82865 52.8759C-6.82865 53.8517 -7.16643 54.6962 -7.84199 55.4093C-8.51754 56.1223 -9.38075 56.4789 -10.4316 56.4789ZM2.43649 43.6996L1.42315 16.7337L7.78463 16.7337L6.715 43.6996H2.43649ZM4.63204 56.4789C3.58118 56.4789 2.6992 56.1223 1.98612 55.4093C1.27303 54.6962 0.916487 53.8517 0.916487 52.8759C0.916487 51.8251 1.27303 50.9619 1.98612 50.2863C2.6992 49.6107 3.58118 49.273 4.63204 49.273C5.68291 49.273 6.54612 49.6107 7.22167 50.2863C7.89723 50.9619 8.235 51.8251 8.235 52.8759C8.235 53.8517 7.89723 54.6962 7.22167 55.4093C6.54612 56.1223 5.68291 56.4789 4.63204 56.4789ZM44.6099 56.5915C41.6074 56.5915 38.7363 56.1411 35.9966 55.2404C33.2568 54.3021 31.0988 53.1011 29.5225 51.6374L31.6055 47.2463C33.1067 48.5599 35.0208 49.6483 37.3477 50.5115C39.6746 51.3747 42.0953 51.8063 44.6099 51.8063C46.8993 51.8063 48.7571 51.5436 50.1832 51.0182C51.6094 50.4927 52.6603 49.7796 53.3358 48.8789C54.0114 47.9406 54.3492 46.8898 54.3492 45.7263C54.3492 44.3752 53.8988 43.2868 52.9981 42.4611C52.1348 41.6354 50.9902 40.9786 49.564 40.4907C48.1753 39.9653 46.6366 39.5149 44.9477 39.1396C43.2588 38.7643 41.5511 38.3327 39.8247 37.8448C38.1358 37.3194 36.5783 36.6626 35.1521 35.8745C33.7635 35.0863 32.6376 34.0354 31.7744 32.7219C30.9111 31.3707 30.4795 29.6443 30.4795 27.5426C30.4795 25.5159 31.005 23.6582 32.0558 21.9693C33.1442 20.2428 34.7956 18.873 37.0099 17.8596C39.2618 16.8088 42.1141 16.2833 45.5669 16.2833C47.8563 16.2833 50.1269 16.5836 52.3788 17.1841C54.6306 17.7846 56.5823 18.6478 58.2336 19.7737L56.3758 24.2774C54.6869 23.1515 52.9042 22.3446 51.0277 21.8567C49.1511 21.3312 47.3309 21.0685 45.5669 21.0685C43.3526 21.0685 41.5324 21.35 40.1062 21.913C38.68 22.4759 37.6292 23.2266 36.9536 24.1648C36.3156 25.1031 35.9966 26.154 35.9966 27.3174C35.9966 28.7061 36.4282 29.8132 37.2914 30.6389C38.1921 31.4646 39.3368 32.1214 40.7255 32.6093C42.1516 33.0972 43.7092 33.5475 45.3981 33.9604C47.0869 34.3357 48.7758 34.7673 50.4647 35.2552C52.1911 35.7431 53.7487 36.3811 55.1373 37.1693C56.5635 37.9574 57.7082 39.0083 58.5714 40.3219C59.4346 41.6354 59.8662 43.3243 59.8662 45.3885C59.8662 47.3777 59.322 49.2354 58.2336 50.9619C57.1452 52.6507 55.4563 54.0206 53.1669 55.0715C50.9151 56.0848 48.0627 56.5915 44.6099 56.5915ZM75.3661 56.1411V21.6315L61.855 21.6315V16.7337L94.4506 16.7337V21.6315L80.9394 21.6315V56.1411L75.3661 56.1411ZM117.822 56.5915C114.819 56.5915 112.023 56.0848 109.434 55.0715C106.882 54.0582 104.667 52.6507 102.791 50.8493C100.914 49.0103 99.4505 46.871 98.3997 44.4315C97.3488 41.992 96.8234 39.3273 96.8234 36.4374C96.8234 33.5475 97.3488 30.8828 98.3997 28.4433C99.4505 26.0038 100.914 23.8833 102.791 22.0819C104.667 20.2428 106.882 18.8167 109.434 17.8033C111.986 16.79 114.782 16.2833 117.822 16.2833C120.824 16.2833 123.583 16.79 126.097 17.8033C128.65 18.7791 130.864 20.1866 132.74 22.0256C134.654 23.827 136.118 25.9475 137.132 28.387C138.182 30.8265 138.708 33.51 138.708 36.4374C138.708 39.3648 138.182 42.0483 137.132 44.4878C136.118 46.9273 134.654 49.0665 132.74 50.9056C130.864 52.707 128.65 54.1144 126.097 55.1278C123.583 56.1036 120.824 56.5915 117.822 56.5915ZM117.822 51.5811C119.999 51.5811 122.007 51.2058 123.846 50.4552C125.722 49.7046 127.336 48.6537 128.687 47.3026C130.076 45.914 131.145 44.3001 131.896 42.4611C132.684 40.6221 133.078 38.6142 133.078 36.4374C133.078 34.2606 132.684 32.2527 131.896 30.4137C131.145 28.5747 130.076 26.9796 128.687 25.6285C127.336 24.2399 125.722 23.1703 123.846 22.4196C122.007 21.669 119.999 21.2937 117.822 21.2937C115.608 21.2937 113.562 21.669 111.686 22.4196C109.847 23.1703 108.233 24.2399 106.844 25.6285C105.455 26.9796 104.367 28.5747 103.579 30.4137C102.828 32.2527 102.453 34.2606 102.453 36.4374C102.453 38.6142 102.828 40.6221 103.579 42.4611C104.367 44.3001 105.455 45.914 106.844 47.3026C108.233 48.6537 109.847 49.7046 111.686 50.4552C113.562 51.2058 115.608 51.5811 117.822 51.5811ZM147.312 56.1411V16.7337L162.681 16.7337C166.134 16.7337 169.08 17.2779 171.52 18.3663C173.959 19.4547 175.836 21.031 177.149 23.0952C178.463 25.1594 179.12 27.6177 179.12 30.47C179.12 33.3224 178.463 35.7806 177.149 37.8448C175.836 39.8715 173.959 41.4478 171.52 42.5737C169.08 43.6621 166.134 44.2063 162.681 44.2063L150.409 44.2063L152.942 41.5604V56.1411H147.312ZM152.942 42.1233L150.409 39.3085L162.512 39.3085C166.115 39.3085 168.836 38.5391 170.675 37.0004C172.552 35.4616 173.49 33.2848 173.49 30.47C173.49 27.6552 172.552 25.4784 170.675 23.9396C168.836 22.4009 166.115 21.6315 162.512 21.6315H150.409L152.942 18.8167V42.1233ZM187.434 43.6996L186.42 16.7337L192.782 16.7337L191.712 43.6996H187.434ZM189.629 56.4789C188.578 56.4789 187.696 56.1223 186.983 55.4093C186.27 54.6962 185.914 53.8517 185.914 52.8759C185.914 51.8251 186.27 50.9619 186.983 50.2863C187.696 49.6107 188.578 49.273 189.629 49.273C190.68 49.273 191.543 49.6107 192.219 50.2863C192.894 50.9619 193.232 51.8251 193.232 52.8759C193.232 53.8517 192.894 54.6962 192.219 55.4093C191.543 56.1223 190.68 56.4789 189.629 56.4789ZM202.497 43.6996L201.484 16.7337H207.845L206.776 43.6996H202.497ZM204.693 56.4789C203.642 56.4789 202.76 56.1223 202.047 55.4093C201.334 54.6962 200.977 53.8517 200.977 52.8759C200.977 51.8251 201.334 50.9619 202.047 50.2863C202.76 49.6107 203.642 49.273 204.693 49.273C205.744 49.273 206.607 49.6107 207.282 50.2863C207.958 50.9619 208.296 51.8251 208.296 52.8759C208.296 53.8517 207.958 54.6962 207.282 55.4093C206.607 56.1223 205.744 56.4789 204.693 56.4789ZM217.561 43.6996L216.548 16.7337H222.909L221.839 43.6996H217.561ZM219.756 56.4789C218.706 56.4789 217.824 56.1223 217.111 55.4093C216.397 54.6962 216.041 53.8517 216.041 52.8759C216.041 51.8251 216.397 50.9619 217.111 50.2863C217.824 49.6107 218.706 49.273 219.756 49.273C220.807 49.273 221.671 49.6107 222.346 50.2863C223.022 50.9619 223.359 51.8251 223.359 52.8759C223.359 53.8517 223.022 54.6962 222.346 55.4093C221.671 56.1223 220.807 56.4789 219.756 56.4789ZM259.734 56.5915C256.732 56.5915 253.861 56.1411 251.121 55.2404C248.381 54.3021 246.223 53.1011 244.647 51.6374L246.73 47.2463C248.231 48.5599 250.145 49.6483 252.472 50.5115C254.799 51.3747 257.22 51.8063 259.734 51.8063C262.024 51.8063 263.881 51.5436 265.308 51.0182C266.734 50.4927 267.785 49.7796 268.46 48.8789C269.136 47.9406 269.473 46.8898 269.473 45.7263C269.473 44.3752 269.023 43.2868 268.122 42.4611C267.259 41.6354 266.114 40.9786 264.688 40.4907C263.3 39.9653 261.761 39.5149 260.072 39.1396C258.383 38.7643 256.675 38.3327 254.949 37.8448C253.26 37.3194 251.703 36.6626 250.276 35.8745C248.888 35.0863 247.762 34.0354 246.899 32.7219C246.035 31.3707 245.604 29.6443 245.604 27.5426C245.604 25.5159 246.129 23.6582 247.18 21.9693C248.269 20.2428 249.92 18.873 252.134 17.8596C254.386 16.8088 257.238 16.2833 260.691 16.2833C262.981 16.2833 265.251 16.5836 267.503 17.1841C269.755 17.7846 271.707 18.6478 273.358 19.7737L271.5 24.2774C269.811 23.1515 268.029 22.3446 266.152 21.8567C264.275 21.3312 262.455 21.0685 260.691 21.0685C258.477 21.0685 256.657 21.35 255.231 21.913C253.804 22.4759 252.753 23.2266 252.078 24.1648C251.44 25.1031 251.121 26.154 251.121 27.3174C251.121 28.7061 251.553 29.8132 252.416 30.6389C253.316 31.4646 254.461 32.1214 255.85 32.6093C257.276 33.0972 258.833 33.5475 260.522 33.9604C262.211 34.3357 263.9 34.7673 265.589 35.2552C267.315 35.7431 268.873 36.3811 270.262 37.1693C271.688 37.9574 272.833 39.0083 273.696 40.3219C274.559 41.6354 274.991 43.3243 274.991 45.3885C274.991 47.3777 274.446 49.2354 273.358 50.9619C272.27 52.6507 270.581 54.0206 268.291 55.0715C266.039 56.0848 263.187 56.5915 259.734 56.5915ZM290.491 56.1411V21.6315L276.979 21.6315V16.7337L309.575 16.7337V21.6315L296.064 21.6315V56.1411H290.491ZM332.946 56.5915C329.944 56.5915 327.148 56.0848 324.558 55.0715C322.006 54.0582 319.792 52.6507 317.915 50.8493C316.039 49.0103 314.575 46.871 313.524 44.4315C312.473 41.992 311.948 39.3273 311.948 36.4374C311.948 33.5475 312.473 30.8828 313.524 28.4433C314.575 26.0038 316.039 23.8833 317.915 22.0819C319.792 20.2428 322.006 18.8167 324.558 17.8033C327.11 16.79 329.906 16.2833 332.946 16.2833C335.949 16.2833 338.707 16.79 341.222 17.8033C343.774 18.7791 345.988 20.1866 347.865 22.0256C349.779 23.827 351.243 25.9475 352.256 28.387C353.307 30.8265 353.832 33.51 353.832 36.4374C353.832 39.3648 353.307 42.0483 352.256 44.4878C351.243 46.9273 349.779 49.0665 347.865 50.9056C345.988 52.707 343.774 54.1144 341.222 55.1278C338.707 56.1036 335.949 56.5915 332.946 56.5915ZM332.946 51.5811C335.123 51.5811 337.131 51.2058 338.97 50.4552C340.847 49.7046 342.46 48.6537 343.811 47.3026C345.2 45.914 346.27 44.3001 347.02 42.4611C347.809 40.6221 348.203 38.6142 348.203 36.4374C348.203 34.2606 347.809 32.2527 347.02 30.4137C346.27 28.5747 345.2 26.9796 343.811 25.6285C342.46 24.2399 340.847 23.1703 338.97 22.4196C337.131 21.669 335.123 21.2937 332.946 21.2937C330.732 21.2937 328.687 21.669 326.81 22.4196C324.971 23.1703 323.357 24.2399 321.969 25.6285C320.58 26.9796 319.491 28.5747 318.703 30.4137C317.953 32.2527 317.577 34.2606 317.577 36.4374C317.577 38.6142 317.953 40.6221 318.703 42.4611C319.491 44.3001 320.58 45.914 321.969 47.3026C323.357 48.6537 324.971 49.7046 326.81 50.4552C328.687 51.2058 330.732 51.5811 332.946 51.5811ZM362.437 56.1411V16.7337H377.806C381.258 16.7337 384.205 17.2779 386.644 18.3663C389.084 19.4547 390.96 21.031 392.274 23.0952C393.587 25.1594 394.244 27.6177 394.244 30.47C394.244 33.3224 393.587 35.7806 392.274 37.8448C390.96 39.8715 389.084 41.4478 386.644 42.5737C384.205 43.6621 381.258 44.2063 377.806 44.2063H365.533L368.066 41.5604V56.1411H362.437ZM368.066 42.1233L365.533 39.3085H377.637C381.24 39.3085 383.961 38.5391 385.8 37.0004C387.676 35.4616 388.614 33.2848 388.614 30.47C388.614 27.6552 387.676 25.4784 385.8 23.9396C383.961 22.4009 381.24 21.6315 377.637 21.6315H365.533L368.066 18.8167V42.1233ZM402.558 43.6996L401.545 16.7337H407.906L406.836 43.6996H402.558ZM404.754 56.4789C403.703 56.4789 402.821 56.1223 402.108 55.4093C401.394 54.6962 401.038 53.8517 401.038 52.8759C401.038 51.8251 401.394 50.9619 402.108 50.2863C402.821 49.6107 403.703 49.273 404.754 49.273C405.804 49.273 406.668 49.6107 407.343 50.2863C408.019 50.9619 408.356 51.8251 408.356 52.8759C408.356 53.8517 408.019 54.6962 407.343 55.4093C406.668 56.1223 405.804 56.4789 404.754 56.4789ZM417.622 43.6996L416.608 16.7337L422.97 16.7337L421.9 43.6996H417.622ZM419.817 56.4789C418.766 56.4789 417.884 56.1223 417.171 55.4093C416.458 54.6962 416.102 53.8517 416.102 52.8759C416.102 51.8251 416.458 50.9619 417.171 50.2863C417.884 49.6107 418.766 49.273 419.817 49.273C420.868 49.273 421.731 49.6107 422.407 50.2863C423.082 50.9619 423.42 51.8251 423.42 52.8759C423.42 53.8517 423.082 54.6962 422.407 55.4093C421.731 56.1223 420.868 56.4789 419.817 56.4789ZM432.685 43.6996L431.672 16.7337H438.033L436.964 43.6996H432.685ZM434.881 56.4789C433.83 56.4789 432.948 56.1223 432.235 55.4093C431.522 54.6962 431.165 53.8517 431.165 52.8759C431.165 51.8251 431.522 50.9619 432.235 50.2863C432.948 49.6107 433.83 49.273 434.881 49.273C435.932 49.273 436.795 49.6107 437.47 50.2863C438.146 50.9619 438.484 51.8251 438.484 52.8759C438.484 53.8517 438.146 54.6962 437.47 55.4093C436.795 56.1223 435.932 56.4789 434.881 56.4789ZM474.859 56.5915C471.856 56.5915 468.985 56.1411 466.245 55.2404C463.506 54.3021 461.348 53.1011 459.771 51.6374L461.854 47.2463C463.355 48.5599 465.27 49.6483 467.596 50.5115C469.923 51.3747 472.344 51.8063 474.859 51.8063C477.148 51.8063 479.006 51.5436 480.432 51.0182C481.858 50.4927 482.909 49.7796 483.585 48.8789C484.26 47.9406 484.598 46.8898 484.598 45.7263C484.598 44.3752 484.148 43.2868 483.247 42.4611C482.384 41.6354 481.239 40.9786 479.813 40.4907C478.424 39.9653 476.885 39.5149 475.196 39.1396C473.508 38.7643 471.8 38.3327 470.074 37.8448C468.385 37.3194 466.827 36.6626 465.401 35.8745C464.012 35.0863 462.886 34.0354 462.023 32.7219C461.16 31.3707 460.728 29.6443 460.728 27.5426C460.728 25.5159 461.254 23.6582 462.305 21.9693C463.393 20.2428 465.044 18.873 467.259 17.8596C469.511 16.8088 472.363 16.2833 475.816 16.2833C478.105 16.2833 480.376 16.5836 482.628 17.1841C484.879 17.7846 486.831 18.6478 488.482 19.7737L486.625 24.2774C484.936 23.1515 483.153 22.3446 481.276 21.8567C479.4 21.3312 477.58 21.0685 475.816 21.0685C473.601 21.0685 471.781 21.35 470.355 21.913C468.929 22.4759 467.878 23.2266 467.202 24.1648C466.564 25.1031 466.245 26.154 466.245 27.3174C466.245 28.7061 466.677 29.8132 467.54 30.6389C468.441 31.4646 469.586 32.1214 470.974 32.6093C472.4 33.0972 473.958 33.5475 475.647 33.9604C477.336 34.3357 479.025 34.7673 480.714 35.2552C482.44 35.7431 483.997 36.3811 485.386 37.1693C486.812 37.9574 487.957 39.0083 488.82 40.3219C489.683 41.6354 490.115 43.3243 490.115 45.3885C490.115 47.3777 489.571 49.2354 488.482 50.9619C487.394 52.6507 485.705 54.0206 483.416 55.0715C481.164 56.0848 478.312 56.5915 474.859 56.5915ZM505.615 56.1411V21.6315L492.104 21.6315V16.7337L524.699 16.7337V21.6315L511.188 21.6315V56.1411H505.615ZM548.071 56.5915C545.068 56.5915 542.272 56.0848 539.682 55.0715C537.13 54.0582 534.916 52.6507 533.04 50.8493C531.163 49.0103 529.699 46.871 528.648 44.4315C527.598 41.992 527.072 39.3273 527.072 36.4374C527.072 33.5475 527.598 30.8828 528.648 28.4433C529.699 26.0038 531.163 23.8833 533.04 22.0819C534.916 20.2428 537.13 18.8167 539.682 17.8033C542.235 16.79 545.031 16.2833 548.071 16.2833C551.073 16.2833 553.832 16.79 556.346 17.8033C558.898 18.7791 561.113 20.1866 562.989 22.0256C564.903 23.827 566.367 25.9475 567.38 28.387C568.431 30.8265 568.957 33.51 568.957 36.4374C568.957 39.3648 568.431 42.0483 567.38 44.4878C566.367 46.9273 564.903 49.0665 562.989 50.9056C561.113 52.707 558.898 54.1144 556.346 55.1278C553.832 56.1036 551.073 56.5915 548.071 56.5915ZM548.071 51.5811C550.247 51.5811 552.255 51.2058 554.094 50.4552C555.971 49.7046 557.585 48.6537 558.936 47.3026C560.324 45.914 561.394 44.3001 562.145 42.4611C562.933 40.6221 563.327 38.6142 563.327 36.4374C563.327 34.2606 562.933 32.2527 562.145 30.4137C561.394 28.5747 560.324 26.9796 558.936 25.6285C557.585 24.2399 555.971 23.1703 554.094 22.4196C552.255 21.669 550.247 21.2937 548.071 21.2937C545.856 21.2937 543.811 21.669 541.934 22.4196C540.095 23.1703 538.481 24.2399 537.093 25.6285C535.704 26.9796 534.616 28.5747 533.828 30.4137C533.077 32.2527 532.702 34.2606 532.702 36.4374C532.702 38.6142 533.077 40.6221 533.828 42.4611C534.616 44.3001 535.704 45.914 537.093 47.3026C538.481 48.6537 540.095 49.7046 541.934 50.4552C543.811 51.2058 545.856 51.5811 548.071 51.5811ZM577.561 56.1411V16.7337L592.93 16.7337C596.383 16.7337 599.329 17.2779 601.769 18.3663C604.208 19.4547 606.085 21.031 607.398 23.0952C608.712 25.1594 609.369 27.6177 609.369 30.47C609.369 33.3224 608.712 35.7806 607.398 37.8448C606.085 39.8715 604.208 41.4478 601.769 42.5737C599.329 43.6621 596.383 44.2063 592.93 44.2063L580.657 44.2063L583.191 41.5604V56.1411L577.561 56.1411ZM583.191 42.1233L580.657 39.3085L592.761 39.3085C596.364 39.3085 599.085 38.5391 600.924 37.0004C602.801 35.4616 603.739 33.2848 603.739 30.47C603.739 27.6552 602.801 25.4784 600.924 23.9396C599.085 22.4009 596.364 21.6315 592.761 21.6315L580.657 21.6315L583.191 18.8167V42.1233ZM617.682 43.6996L616.669 16.7337H623.03L621.961 43.6996L617.682 43.6996ZM619.878 56.4789C618.827 56.4789 617.945 56.1223 617.232 55.4093C616.519 54.6962 616.162 53.8517 616.162 52.8759C616.162 51.8251 616.519 50.9619 617.232 50.2863C617.945 49.6107 618.827 49.273 619.878 49.273C620.929 49.273 621.792 49.6107 622.467 50.2863C623.143 50.9619 623.481 51.8251 623.481 52.8759C623.481 53.8517 623.143 54.6962 622.467 55.4093C621.792 56.1223 620.929 56.4789 619.878 56.4789ZM632.746 43.6996L631.733 16.7337H638.094L637.025 43.6996H632.746ZM634.942 56.4789C633.891 56.4789 633.009 56.1223 632.296 55.4093C631.583 54.6962 631.226 53.8517 631.226 52.8759C631.226 51.8251 631.583 50.9619 632.296 50.2863C633.009 49.6107 633.891 49.273 634.942 49.273C635.992 49.273 636.856 49.6107 637.531 50.2863C638.207 50.9619 638.545 51.8251 638.545 52.8759C638.545 53.8517 638.207 54.6962 637.531 55.4093C636.856 56.1223 635.992 56.4789 634.942 56.4789ZM647.81 43.6996L646.796 16.7337H653.158L652.088 43.6996H647.81ZM650.005 56.4789C648.954 56.4789 648.072 56.1223 647.359 55.4093C646.646 54.6962 646.29 53.8517 646.29 52.8759C646.29 51.8251 646.646 50.9619 647.359 50.2863C648.072 49.6107 648.954 49.273 650.005 49.273C651.056 49.273 651.919 49.6107 652.595 50.2863C653.27 50.9619 653.608 51.8251 653.608 52.8759C653.608 53.8517 653.27 54.6962 652.595 55.4093C651.919 56.1223 651.056 56.4789 650.005 56.4789ZM689.983 56.5915C686.98 56.5915 684.109 56.1411 681.37 55.2404C678.63 54.3021 676.472 53.1011 674.896 51.6374L676.979 47.2463C678.48 48.5599 680.394 49.6483 682.721 50.5115C685.048 51.3747 687.468 51.8063 689.983 51.8063C692.272 51.8063 694.13 51.5436 695.556 51.0182C696.982 50.4927 698.033 49.7796 698.709 48.8789C699.384 47.9406 699.722 46.8898 699.722 45.7263C699.722 44.3752 699.272 43.2868 698.371 42.4611C697.508 41.6354 696.363 40.9786 694.937 40.4907C693.548 39.9653 692.01 39.5149 690.321 39.1396C688.632 38.7643 686.924 38.3327 685.198 37.8448C683.509 37.3194 681.951 36.6626 680.525 35.8745C679.137 35.0863 678.011 34.0354 677.147 32.7219C676.284 31.3707 675.853 29.6443 675.853 27.5426C675.853 25.5159 676.378 23.6582 677.429 21.9693C678.517 20.2428 680.169 18.873 682.383 17.8596C684.635 16.8088 687.487 16.2833 690.94 16.2833C693.229 16.2833 695.5 16.5836 697.752 17.1841C700.004 17.7846 701.955 18.6478 703.607 19.7737L701.749 24.2774C700.06 23.1515 698.277 22.3446 696.401 21.8567C694.524 21.3312 692.704 21.0685 690.94 21.0685C688.726 21.0685 686.905 21.35 685.479 21.913C684.053 22.4759 683.002 23.2266 682.327 24.1648C681.689 25.1031 681.37 26.154 681.37 27.3174C681.37 28.7061 681.801 29.8132 682.664 30.6389C683.565 31.4646 684.71 32.1214 686.099 32.6093C687.525 33.0972 689.082 33.5475 690.771 33.9604C692.46 34.3357 694.149 34.7673 695.838 35.2552C697.564 35.7431 699.122 36.3811 700.51 37.1693C701.937 37.9574 703.081 39.0083 703.944 40.3219C704.808 41.6354 705.239 43.3243 705.239 45.3885C705.239 47.3777 704.695 49.2354 703.607 50.9619C702.518 52.6507 700.829 54.0206 698.54 55.0715C696.288 56.0848 693.436 56.5915 689.983 56.5915ZM720.739 56.1411V21.6315L707.228 21.6315V16.7337L739.824 16.7337V21.6315L726.313 21.6315V56.1411H720.739ZM763.195 56.5915C760.193 56.5915 757.396 56.0848 754.807 55.0715C752.255 54.0582 750.04 52.6507 748.164 50.8493C746.287 49.0103 744.824 46.871 743.773 44.4315C742.722 41.992 742.196 39.3273 742.196 36.4374C742.196 33.5475 742.722 30.8828 743.773 28.4433C744.824 26.0038 746.287 23.8833 748.164 22.0819C750.04 20.2428 752.255 18.8167 754.807 17.8033C757.359 16.79 760.155 16.2833 763.195 16.2833C766.197 16.2833 768.956 16.79 771.471 17.8033C774.023 18.7791 776.237 20.1866 778.114 22.0256C780.028 23.827 781.491 25.9475 782.505 28.387C783.555 30.8265 784.081 33.51 784.081 36.4374C784.081 39.3648 783.555 42.0483 782.505 44.4878C781.491 46.9273 780.028 49.0665 778.114 50.9056C776.237 52.707 774.023 54.1144 771.471 55.1278C768.956 56.1036 766.197 56.5915 763.195 56.5915ZM763.195 51.5811C765.372 51.5811 767.38 51.2058 769.219 50.4552C771.095 49.7046 772.709 48.6537 774.06 47.3026C775.449 45.914 776.518 44.3001 777.269 42.4611C778.057 40.6221 778.451 38.6142 778.451 36.4374C778.451 34.2606 778.057 32.2527 777.269 30.4137C776.518 28.5747 775.449 26.9796 774.06 25.6285C772.709 24.2399 771.095 23.1703 769.219 22.4196C767.38 21.669 765.372 21.2937 763.195 21.2937C760.981 21.2937 758.935 21.669 757.059 22.4196C755.22 23.1703 753.606 24.2399 752.217 25.6285C750.829 26.9796 749.74 28.5747 748.952 30.4137C748.201 32.2527 747.826 34.2606 747.826 36.4374C747.826 38.6142 748.201 40.6221 748.952 42.4611C749.74 44.3001 750.829 45.914 752.217 47.3026C753.606 48.6537 755.22 49.7046 757.059 50.4552C758.935 51.2058 760.981 51.5811 763.195 51.5811ZM792.685 56.1411V16.7337H808.054C811.507 16.7337 814.453 17.2779 816.893 18.3663C819.332 19.4547 821.209 21.031 822.522 23.0952C823.836 25.1594 824.493 27.6177 824.493 30.47C824.493 33.3224 823.836 35.7806 822.522 37.8448C821.209 39.8715 819.332 41.4478 816.893 42.5737C814.453 43.6621 811.507 44.2063 808.054 44.2063H795.782L798.315 41.5604V56.1411H792.685ZM798.315 42.1233L795.782 39.3085H807.885C811.488 39.3085 814.209 38.5391 816.048 37.0004C817.925 35.4616 818.863 33.2848 818.863 30.47C818.863 27.6552 817.925 25.4784 816.048 23.9396C814.209 22.4009 811.488 21.6315 807.885 21.6315L795.782 21.6315L798.315 18.8167V42.1233ZM832.807 43.6996L831.793 16.7337H838.155L837.085 43.6996H832.807ZM835.002 56.4789C833.951 56.4789 833.069 56.1223 832.356 55.4093C831.643 54.6962 831.287 53.8517 831.287 52.8759C831.287 51.8251 831.643 50.9619 832.356 50.2863C833.069 49.6107 833.951 49.273 835.002 49.273C836.053 49.273 836.916 49.6107 837.592 50.2863C838.267 50.9619 838.605 51.8251 838.605 52.8759C838.605 53.8517 838.267 54.6962 837.592 55.4093C836.916 56.1223 836.053 56.4789 835.002 56.4789ZM847.87 43.6996L846.857 16.7337L853.219 16.7337L852.149 43.6996H847.87ZM850.066 56.4789C849.015 56.4789 848.133 56.1223 847.42 55.4093C846.707 54.6962 846.35 53.8517 846.35 52.8759C846.35 51.8251 846.707 50.9619 847.42 50.2863C848.133 49.6107 849.015 49.273 850.066 49.273C851.117 49.273 851.98 49.6107 852.656 50.2863C853.331 50.9619 853.669 51.8251 853.669 52.8759C853.669 53.8517 853.331 54.6962 852.656 55.4093C851.98 56.1223 851.117 56.4789 850.066 56.4789ZM862.934 43.6996L861.921 16.7337H868.282L867.213 43.6996H862.934ZM865.13 56.4789C864.079 56.4789 863.197 56.1223 862.484 55.4093C861.771 54.6962 861.414 53.8517 861.414 52.8759C861.414 51.8251 861.771 50.9619 862.484 50.2863C863.197 49.6107 864.079 49.273 865.13 49.273C866.18 49.273 867.044 49.6107 867.719 50.2863C868.395 50.9619 868.733 51.8251 868.733 52.8759C868.733 53.8517 868.395 54.6962 867.719 55.4093C867.044 56.1223 866.18 56.4789 865.13 56.4789ZM1120.23 56.5915C1117.23 56.5915 1114.36 56.1411 1111.62 55.2404C1108.88 54.3021 1106.72 53.1011 1105.14 51.6374L1107.23 47.2463C1108.73 48.5599 1110.64 49.6483 1112.97 50.5115C1115.3 51.3747 1117.72 51.8063 1120.23 51.8063C1122.52 51.8063 1124.38 51.5436 1125.81 51.0182C1127.23 50.4927 1128.28 49.7796 1128.96 48.8789C1129.63 47.9406 1129.97 46.8898 1129.97 45.7263C1129.97 44.3752 1129.52 43.2868 1128.62 42.4611C1127.76 41.6354 1126.61 40.9786 1125.19 40.4907C1123.8 39.9653 1122.26 39.5149 1120.57 39.1396C1118.88 38.7643 1117.17 38.3327 1115.45 37.8448C1113.76 37.3194 1112.2 36.6626 1110.77 35.8745C1109.39 35.0863 1108.26 34.0354 1107.4 32.7219C1106.53 31.3707 1106.1 29.6443 1106.1 27.5426C1106.1 25.5159 1106.63 23.6582 1107.68 21.9693C1108.77 20.2428 1110.42 18.873 1112.63 17.8596C1114.88 16.8088 1117.74 16.2833 1121.19 16.2833C1123.48 16.2833 1125.75 16.5836 1128 17.1841C1130.25 17.7846 1132.2 18.6478 1133.86 19.7737L1132 24.2774C1130.31 23.1515 1128.53 22.3446 1126.65 21.8567C1124.77 21.3312 1122.95 21.0685 1121.19 21.0685C1118.97 21.0685 1117.15 21.35 1115.73 21.913C1114.3 22.4759 1113.25 23.2266 1112.58 24.1648C1111.94 25.1031 1111.62 26.154 1111.62 27.3174C1111.62 28.7061 1112.05 29.8132 1112.91 30.6389C1113.81 31.4646 1114.96 32.1214 1116.35 32.6093C1117.77 33.0972 1119.33 33.5475 1121.02 33.9604C1122.71 34.3357 1124.4 34.7673 1126.09 35.2552C1127.81 35.7431 1129.37 36.3811 1130.76 37.1693C1132.19 37.9574 1133.33 39.0083 1134.19 40.3219C1135.06 41.6354 1135.49 43.3243 1135.49 45.3885C1135.49 47.3777 1134.94 49.2354 1133.86 50.9619C1132.77 52.6507 1131.08 54.0206 1128.79 55.0715C1126.54 56.0848 1123.68 56.5915 1120.23 56.5915ZM1150.99 56.1411V21.6315H1137.48V16.7337L1170.07 16.7337V21.6315H1156.56V56.1411H1150.99ZM1193.44 56.5915C1190.44 56.5915 1187.65 56.0848 1185.06 55.0715C1182.5 54.0582 1180.29 52.6507 1178.41 50.8493C1176.54 49.0103 1175.07 46.871 1174.02 44.4315C1172.97 41.992 1172.45 39.3273 1172.45 36.4374C1172.45 33.5475 1172.97 30.8828 1174.02 28.4433C1175.07 26.0038 1176.54 23.8833 1178.41 22.0819C1180.29 20.2428 1182.5 18.8167 1185.06 17.8033C1187.61 16.79 1190.4 16.2833 1193.44 16.2833C1196.45 16.2833 1199.2 16.79 1201.72 17.8033C1204.27 18.7791 1206.49 20.1866 1208.36 22.0256C1210.28 23.827 1211.74 25.9475 1212.75 28.387C1213.8 30.8265 1214.33 33.51 1214.33 36.4374C1214.33 39.3648 1213.8 42.0483 1212.75 44.4878C1211.74 46.9273 1210.28 49.0665 1208.36 50.9056C1206.49 52.707 1204.27 54.1144 1201.72 55.1278C1199.2 56.1036 1196.45 56.5915 1193.44 56.5915ZM1193.44 51.5811C1195.62 51.5811 1197.63 51.2058 1199.47 50.4552C1201.34 49.7046 1202.96 48.6537 1204.31 47.3026C1205.7 45.914 1206.77 44.3001 1207.52 42.4611C1208.31 40.6221 1208.7 38.6142 1208.7 36.4374C1208.7 34.2606 1208.31 32.2527 1207.52 30.4137C1206.77 28.5747 1205.7 26.9796 1204.31 25.6285C1202.96 24.2399 1201.34 23.1703 1199.47 22.4196C1197.63 21.669 1195.62 21.2937 1193.44 21.2937C1191.23 21.2937 1189.18 21.669 1187.31 22.4196C1185.47 23.1703 1183.85 24.2399 1182.47 25.6285C1181.08 26.9796 1179.99 28.5747 1179.2 30.4137C1178.45 32.2527 1178.07 34.2606 1178.07 36.4374C1178.07 38.6142 1178.45 40.6221 1179.2 42.4611C1179.99 44.3001 1181.08 45.914 1182.47 47.3026C1183.85 48.6537 1185.47 49.7046 1187.31 50.4552C1189.18 51.2058 1191.23 51.5811 1193.44 51.5811ZM1222.93 56.1411V16.7337L1238.3 16.7337C1241.76 16.7337 1244.7 17.2779 1247.14 18.3663C1249.58 19.4547 1251.46 21.031 1252.77 23.0952C1254.08 25.1594 1254.74 27.6177 1254.74 30.47C1254.74 33.3224 1254.08 35.7806 1252.77 37.8448C1251.46 39.8715 1249.58 41.4478 1247.14 42.5737C1244.7 43.6621 1241.76 44.2063 1238.3 44.2063H1226.03L1228.56 41.5604V56.1411H1222.93ZM1228.56 42.1233L1226.03 39.3085H1238.13C1241.74 39.3085 1244.46 38.5391 1246.3 37.0004C1248.17 35.4616 1249.11 33.2848 1249.11 30.47C1249.11 27.6552 1248.17 25.4784 1246.3 23.9396C1244.46 22.4009 1241.74 21.6315 1238.13 21.6315L1226.03 21.6315L1228.56 18.8167V42.1233ZM1263.06 43.6996L1262.04 16.7337H1268.4L1267.33 43.6996H1263.06ZM1265.25 56.4789C1264.2 56.4789 1263.32 56.1223 1262.61 55.4093C1261.89 54.6962 1261.54 53.8517 1261.54 52.8759C1261.54 51.8251 1261.89 50.9619 1262.61 50.2863C1263.32 49.6107 1264.2 49.273 1265.25 49.273C1266.3 49.273 1267.17 49.6107 1267.84 50.2863C1268.52 50.9619 1268.85 51.8251 1268.85 52.8759C1268.85 53.8517 1268.52 54.6962 1267.84 55.4093C1267.17 56.1223 1266.3 56.4789 1265.25 56.4789ZM1278.12 43.6996L1277.11 16.7337H1283.47L1282.4 43.6996L1278.12 43.6996ZM1280.31 56.4789C1279.26 56.4789 1278.38 56.1223 1277.67 55.4093C1276.96 54.6962 1276.6 53.8517 1276.6 52.8759C1276.6 51.8251 1276.96 50.9619 1277.67 50.2863C1278.38 49.6107 1279.26 49.273 1280.31 49.273C1281.37 49.273 1282.23 49.6107 1282.9 50.2863C1283.58 50.9619 1283.92 51.8251 1283.92 52.8759C1283.92 53.8517 1283.58 54.6962 1282.9 55.4093C1282.23 56.1223 1281.37 56.4789 1280.31 56.4789ZM1293.18 43.6996L1292.17 16.7337H1298.53L1297.46 43.6996H1293.18ZM1295.38 56.4789C1294.33 56.4789 1293.45 56.1223 1292.73 55.4093C1292.02 54.6962 1291.66 53.8517 1291.66 52.8759C1291.66 51.8251 1292.02 50.9619 1292.73 50.2863C1293.45 49.6107 1294.33 49.273 1295.38 49.273C1296.43 49.273 1297.29 49.6107 1297.97 50.2863C1298.64 50.9619 1298.98 51.8251 1298.98 52.8759C1298.98 53.8517 1298.64 54.6962 1297.97 55.4093C1297.29 56.1223 1296.43 56.4789 1295.38 56.4789ZM1335.36 56.5915C1332.35 56.5915 1329.48 56.1411 1326.74 55.2404C1324 54.3021 1321.85 53.1011 1320.27 51.6374L1322.35 47.2463C1323.85 48.5599 1325.77 49.6483 1328.09 50.5115C1330.42 51.3747 1332.84 51.8063 1335.36 51.8063C1337.65 51.8063 1339.5 51.5436 1340.93 51.0182C1342.36 50.4927 1343.41 49.7796 1344.08 48.8789C1344.76 47.9406 1345.1 46.8898 1345.1 45.7263C1345.1 44.3752 1344.65 43.2868 1343.74 42.4611C1342.88 41.6354 1341.74 40.9786 1340.31 40.4907C1338.92 39.9653 1337.38 39.5149 1335.69 39.1396C1334.01 38.7643 1332.3 38.3327 1330.57 37.8448C1328.88 37.3194 1327.32 36.6626 1325.9 35.8745C1324.51 35.0863 1323.38 34.0354 1322.52 32.7219C1321.66 31.3707 1321.23 29.6443 1321.23 27.5426C1321.23 25.5159 1321.75 23.6582 1322.8 21.9693C1323.89 20.2428 1325.54 18.873 1327.76 17.8596C1330.01 16.8088 1332.86 16.2833 1336.31 16.2833C1338.6 16.2833 1340.87 16.5836 1343.13 17.1841C1345.38 17.7846 1347.33 18.6478 1348.98 19.7737L1347.12 24.2774C1345.43 23.1515 1343.65 22.3446 1341.77 21.8567C1339.9 21.3312 1338.08 21.0685 1336.31 21.0685C1334.1 21.0685 1332.28 21.35 1330.85 21.913C1329.43 22.4759 1328.38 23.2266 1327.7 24.1648C1327.06 25.1031 1326.74 26.154 1326.74 27.3174C1326.74 28.7061 1327.17 29.8132 1328.04 30.6389C1328.94 31.4646 1330.08 32.1214 1331.47 32.6093C1332.9 33.0972 1334.46 33.5475 1336.14 33.9604C1337.83 34.3357 1339.52 34.7673 1341.21 35.2552C1342.94 35.7431 1344.49 36.3811 1345.88 37.1693C1347.31 37.9574 1348.45 39.0083 1349.32 40.3219C1350.18 41.6354 1350.61 43.3243 1350.61 45.3885C1350.61 47.3777 1350.07 49.2354 1348.98 50.9619C1347.89 52.6507 1346.2 54.0206 1343.91 55.0715C1341.66 56.0848 1338.81 56.5915 1335.36 56.5915ZM1366.11 56.1411V21.6315H1352.6V16.7337L1385.2 16.7337V21.6315H1371.69V56.1411H1366.11ZM1408.57 56.5915C1405.57 56.5915 1402.77 56.0848 1400.18 55.0715C1397.63 54.0582 1395.41 52.6507 1393.54 50.8493C1391.66 49.0103 1390.2 46.871 1389.15 44.4315C1388.1 41.992 1387.57 39.3273 1387.57 36.4374C1387.57 33.5475 1388.1 30.8828 1389.15 28.4433C1390.2 26.0038 1391.66 23.8833 1393.54 22.0819C1395.41 20.2428 1397.63 18.8167 1400.18 17.8033C1402.73 16.79 1405.53 16.2833 1408.57 16.2833C1411.57 16.2833 1414.33 16.79 1416.84 17.8033C1419.4 18.7791 1421.61 20.1866 1423.49 22.0256C1425.4 23.827 1426.86 25.9475 1427.88 28.387C1428.93 30.8265 1429.45 33.51 1429.45 36.4374C1429.45 39.3648 1428.93 42.0483 1427.88 44.4878C1426.86 46.9273 1425.4 49.0665 1423.49 50.9056C1421.61 52.707 1419.4 54.1144 1416.84 55.1278C1414.33 56.1036 1411.57 56.5915 1408.57 56.5915ZM1408.57 51.5811C1410.74 51.5811 1412.75 51.2058 1414.59 50.4552C1416.47 49.7046 1418.08 48.6537 1419.43 47.3026C1420.82 45.914 1421.89 44.3001 1422.64 42.4611C1423.43 40.6221 1423.82 38.6142 1423.82 36.4374C1423.82 34.2606 1423.43 32.2527 1422.64 30.4137C1421.89 28.5747 1420.82 26.9796 1419.43 25.6285C1418.08 24.2399 1416.47 23.1703 1414.59 22.4196C1412.75 21.669 1410.74 21.2937 1408.57 21.2937C1406.35 21.2937 1404.31 21.669 1402.43 22.4196C1400.59 23.1703 1398.98 24.2399 1397.59 25.6285C1396.2 26.9796 1395.11 28.5747 1394.33 30.4137C1393.57 32.2527 1393.2 34.2606 1393.2 36.4374C1393.2 38.6142 1393.57 40.6221 1394.33 42.4611C1395.11 44.3001 1396.2 45.914 1397.59 47.3026C1398.98 48.6537 1400.59 49.7046 1402.43 50.4552C1404.31 51.2058 1406.35 51.5811 1408.57 51.5811ZM1438.06 56.1411V16.7337L1453.43 16.7337C1456.88 16.7337 1459.83 17.2779 1462.27 18.3663C1464.71 19.4547 1466.58 21.031 1467.9 23.0952C1469.21 25.1594 1469.87 27.6177 1469.87 30.47C1469.87 33.3224 1469.21 35.7806 1467.9 37.8448C1466.58 39.8715 1464.71 41.4478 1462.27 42.5737C1459.83 43.6621 1456.88 44.2063 1453.43 44.2063H1441.15L1443.69 41.5604V56.1411H1438.06ZM1443.69 42.1233L1441.15 39.3085H1453.26C1456.86 39.3085 1459.58 38.5391 1461.42 37.0004C1463.3 35.4616 1464.24 33.2848 1464.24 30.47C1464.24 27.6552 1463.3 25.4784 1461.42 23.9396C1459.58 22.4009 1456.86 21.6315 1453.26 21.6315L1441.15 21.6315L1443.69 18.8167V42.1233ZM1478.18 43.6996L1477.17 16.7337L1483.53 16.7337L1482.46 43.6996H1478.18ZM1480.38 56.4789C1479.32 56.4789 1478.44 56.1223 1477.73 55.4093C1477.02 54.6962 1476.66 53.8517 1476.66 52.8759C1476.66 51.8251 1477.02 50.9619 1477.73 50.2863C1478.44 49.6107 1479.32 49.273 1480.38 49.273C1481.43 49.273 1482.29 49.6107 1482.96 50.2863C1483.64 50.9619 1483.98 51.8251 1483.98 52.8759C1483.98 53.8517 1483.64 54.6962 1482.96 55.4093C1482.29 56.1223 1481.43 56.4789 1480.38 56.4789ZM1493.24 43.6996L1492.23 16.7337H1498.59L1497.52 43.6996H1493.24ZM1495.44 56.4789C1494.39 56.4789 1493.51 56.1223 1492.79 55.4093C1492.08 54.6962 1491.72 53.8517 1491.72 52.8759C1491.72 51.8251 1492.08 50.9619 1492.79 50.2863C1493.51 49.6107 1494.39 49.273 1495.44 49.273C1496.49 49.273 1497.35 49.6107 1498.03 50.2863C1498.7 50.9619 1499.04 51.8251 1499.04 52.8759C1499.04 53.8517 1498.7 54.6962 1498.03 55.4093C1497.35 56.1223 1496.49 56.4789 1495.44 56.4789ZM1508.31 43.6996L1507.29 16.7337L1513.66 16.7337L1512.59 43.6996H1508.31ZM1510.5 56.4789C1509.45 56.4789 1508.57 56.1223 1507.86 55.4093C1507.14 54.6962 1506.79 53.8517 1506.79 52.8759C1506.79 51.8251 1507.14 50.9619 1507.86 50.2863C1508.57 49.6107 1509.45 49.273 1510.5 49.273C1511.55 49.273 1512.42 49.6107 1513.09 50.2863C1513.77 50.9619 1514.11 51.8251 1514.11 52.8759C1514.11 53.8517 1513.77 54.6962 1513.09 55.4093C1512.42 56.1223 1511.55 56.4789 1510.5 56.4789Z" fill="black"/>
<path d="M905.107 56.5915C902.105 56.5915 899.234 56.1411 896.494 55.2404C893.754 54.3021 891.596 53.1011 890.02 51.6374L892.103 47.2463C893.604 48.5599 895.518 49.6483 897.845 50.5115C900.172 51.3747 902.593 51.8063 905.107 51.8063C907.397 51.8063 909.255 51.5436 910.681 51.0182C912.107 50.4927 913.158 49.7796 913.833 48.8789C914.509 47.9406 914.847 46.8898 914.847 45.7263C914.847 44.3752 914.396 43.2868 913.495 42.4611C912.632 41.6354 911.488 40.9786 910.061 40.4907C908.673 39.9653 907.134 39.5149 905.445 39.1396C903.756 38.7643 902.049 38.3327 900.322 37.8448C898.633 37.3194 897.076 36.6626 895.65 35.8745C894.261 35.0863 893.135 34.0354 892.272 32.7219C891.409 31.3707 890.977 29.6443 890.977 27.5426C890.977 25.5159 891.502 23.6582 892.553 21.9693C893.642 20.2428 895.293 18.873 897.507 17.8596C899.759 16.8088 902.612 16.2833 906.064 16.2833C908.354 16.2833 910.624 16.5836 912.876 17.1841C915.128 17.7846 917.08 18.6478 918.731 19.7737L916.873 24.2774C915.184 23.1515 913.402 22.3446 911.525 21.8567C909.649 21.3312 907.828 21.0685 906.064 21.0685C903.85 21.0685 902.03 21.35 900.604 21.913C899.177 22.4759 898.127 23.2266 897.451 24.1648C896.813 25.1031 896.494 26.154 896.494 27.3174C896.494 28.7061 896.926 29.8132 897.789 30.6389C898.69 31.4646 899.834 32.1214 901.223 32.6093C902.649 33.0972 904.207 33.5475 905.895 33.9604C907.584 34.3357 909.273 34.7673 910.962 35.2552C912.689 35.7431 914.246 36.3811 915.635 37.1693C917.061 37.9574 918.206 39.0083 919.069 40.3219C919.932 41.6354 920.364 43.3243 920.364 45.3885C920.364 47.3777 919.819 49.2354 918.731 50.9619C917.643 52.6507 915.954 54.0206 913.664 55.0715C911.413 56.0848 908.56 56.5915 905.107 56.5915ZM935.864 56.1411V21.6315H922.353V16.7337L954.948 16.7337V21.6315H941.437V56.1411H935.864ZM978.319 56.5915C975.317 56.5915 972.521 56.0848 969.931 55.0715C967.379 54.0582 965.165 52.6507 963.288 50.8493C961.412 49.0103 959.948 46.871 958.897 44.4315C957.846 41.992 957.321 39.3273 957.321 36.4374C957.321 33.5475 957.846 30.8828 958.897 28.4433C959.948 26.0038 961.412 23.8833 963.288 22.0819C965.165 20.2428 967.379 18.8167 969.931 17.8033C972.483 16.79 975.279 16.2833 978.319 16.2833C981.322 16.2833 984.08 16.79 986.595 17.8033C989.147 18.7791 991.361 20.1866 993.238 22.0256C995.152 23.827 996.616 25.9475 997.629 28.387C998.68 30.8265 999.205 33.51 999.205 36.4374C999.205 39.3648 998.68 42.0483 997.629 44.4878C996.616 46.9273 995.152 49.0665 993.238 50.9056C991.361 52.707 989.147 54.1144 986.595 55.1278C984.08 56.1036 981.322 56.5915 978.319 56.5915ZM978.319 51.5811C980.496 51.5811 982.504 51.2058 984.343 50.4552C986.22 49.7046 987.833 48.6537 989.185 47.3026C990.573 45.914 991.643 44.3001 992.393 42.4611C993.182 40.6221 993.576 38.6142 993.576 36.4374C993.576 34.2606 993.182 32.2527 992.393 30.4137C991.643 28.5747 990.573 26.9796 989.185 25.6285C987.833 24.2399 986.22 23.1703 984.343 22.4196C982.504 21.669 980.496 21.2937 978.319 21.2937C976.105 21.2937 974.06 21.669 972.183 22.4196C970.344 23.1703 968.73 24.2399 967.342 25.6285C965.953 26.9796 964.865 28.5747 964.076 30.4137C963.326 32.2527 962.951 34.2606 962.951 36.4374C962.951 38.6142 963.326 40.6221 964.076 42.4611C964.865 44.3001 965.953 45.914 967.342 47.3026C968.73 48.6537 970.344 49.7046 972.183 50.4552C974.06 51.2058 976.105 51.5811 978.319 51.5811ZM1007.81 56.1411V16.7337L1023.18 16.7337C1026.63 16.7337 1029.58 17.2779 1032.02 18.3663C1034.46 19.4547 1036.33 21.031 1037.65 23.0952C1038.96 25.1594 1039.62 27.6177 1039.62 30.47C1039.62 33.3224 1038.96 35.7806 1037.65 37.8448C1036.33 39.8715 1034.46 41.4478 1032.02 42.5737C1029.58 43.6621 1026.63 44.2063 1023.18 44.2063H1010.91L1013.44 41.5604V56.1411L1007.81 56.1411ZM1013.44 42.1233L1010.91 39.3085H1023.01C1026.61 39.3085 1029.33 38.5391 1031.17 37.0004C1033.05 35.4616 1033.99 33.2848 1033.99 30.47C1033.99 27.6552 1033.05 25.4784 1031.17 23.9396C1029.33 22.4009 1026.61 21.6315 1023.01 21.6315L1010.91 21.6315L1013.44 18.8167V42.1233ZM1047.93 43.6996L1046.92 16.7337L1053.28 16.7337L1052.21 43.6996L1047.93 43.6996ZM1050.13 56.4789C1049.08 56.4789 1048.19 56.1223 1047.48 55.4093C1046.77 54.6962 1046.41 53.8517 1046.41 52.8759C1046.41 51.8251 1046.77 50.9619 1047.48 50.2863C1048.19 49.6107 1049.08 49.273 1050.13 49.273C1051.18 49.273 1052.04 49.6107 1052.72 50.2863C1053.39 50.9619 1053.73 51.8251 1053.73 52.8759C1053.73 53.8517 1053.39 54.6962 1052.72 55.4093C1052.04 56.1223 1051.18 56.4789 1050.13 56.4789ZM1062.99 43.6996L1061.98 16.7337H1068.34L1067.27 43.6996H1062.99ZM1065.19 56.4789C1064.14 56.4789 1063.26 56.1223 1062.54 55.4093C1061.83 54.6962 1061.47 53.8517 1061.47 52.8759C1061.47 51.8251 1061.83 50.9619 1062.54 50.2863C1063.26 49.6107 1064.14 49.273 1065.19 49.273C1066.24 49.273 1067.1 49.6107 1067.78 50.2863C1068.46 50.9619 1068.79 51.8251 1068.79 52.8759C1068.79 53.8517 1068.46 54.6962 1067.78 55.4093C1067.1 56.1223 1066.24 56.4789 1065.19 56.4789ZM1078.06 43.6996L1077.05 16.7337L1083.41 16.7337L1082.34 43.6996H1078.06ZM1080.25 56.4789C1079.2 56.4789 1078.32 56.1223 1077.61 55.4093C1076.89 54.6962 1076.54 53.8517 1076.54 52.8759C1076.54 51.8251 1076.89 50.9619 1077.61 50.2863C1078.32 49.6107 1079.2 49.273 1080.25 49.273C1081.3 49.273 1082.17 49.6107 1082.84 50.2863C1083.52 50.9619 1083.86 51.8251 1083.86 52.8759C1083.86 53.8517 1083.52 54.6962 1082.84 55.4093C1082.17 56.1223 1081.3 56.4789 1080.25 56.4789Z" fill="#EBEBEB"/>
</g>
</svg>
