<svg width="969" height="340" viewBox="0 0 969 340" fill="none" xmlns="http://www.w3.org/2000/svg">
<path d="M10.207 0.147125L954.071 0.147125L968.799 339.166L0.343505 339.166L10.207 0.147125Z" fill="#EBEBEB"/>
<mask id="mask0_192_233" style="mask-type:alpha" maskUnits="userSpaceOnUse" x="0" y="0" width="969" height="340">
<path d="M10.207 0.147125L954.071 0.147125L968.799 339.166L0.343505 339.166L10.207 0.147125Z" fill="black"/>
</mask>
<g mask="url(#mask0_192_233)">
<path d="M-585.645 56.278C-588.647 56.278 -591.518 55.8276 -594.258 54.9269C-596.998 53.9886 -599.156 52.7876 -600.732 51.3239L-598.649 46.9328C-597.148 48.2464 -595.234 49.3348 -592.907 50.198C-590.58 51.0612 -588.159 51.4928 -585.645 51.4928C-583.355 51.4928 -581.497 51.2301 -580.071 50.7047C-578.645 50.1792 -577.594 49.4662 -576.919 48.5654C-576.243 47.6271 -575.905 46.5763 -575.905 45.4128C-575.905 44.0617 -576.356 42.9733 -577.256 42.1476C-578.12 41.322 -579.264 40.6652 -580.691 40.1773C-582.079 39.6518 -583.618 39.2015 -585.307 38.8262C-586.996 38.4508 -588.703 38.0192 -590.43 37.5313C-592.119 37.0059 -593.676 36.3491 -595.102 35.561C-596.491 34.7728 -597.617 33.722 -598.48 32.4084C-599.343 31.0573 -599.775 29.3309 -599.775 27.2291C-599.775 25.2025 -599.25 23.3447 -598.199 21.6558C-597.11 19.9294 -595.459 18.5595 -593.245 17.5462C-590.993 16.4953 -588.14 15.9699 -584.688 15.9699C-582.398 15.9699 -580.128 16.2701 -577.876 16.8706C-575.624 17.4711 -573.672 18.3343 -572.021 19.4602L-573.879 23.9639C-575.568 22.838 -577.35 22.0311 -579.227 21.5432C-581.103 21.0178 -582.924 20.7551 -584.688 20.7551C-586.902 20.7551 -588.722 21.0365 -590.148 21.5995C-591.574 22.1625 -592.625 22.9131 -593.301 23.8513C-593.939 24.7896 -594.258 25.8405 -594.258 27.0039C-594.258 28.3926 -593.826 29.4997 -592.963 30.3254C-592.062 31.1511 -590.918 31.8079 -589.529 32.2958C-588.103 32.7837 -586.545 33.2341 -584.856 33.6469C-583.168 34.0222 -581.479 34.4538 -579.79 34.9417C-578.063 35.4296 -576.506 36.0676 -575.117 36.8558C-573.691 37.6439 -572.546 38.6948 -571.683 40.0084C-570.82 41.322 -570.388 43.0108 -570.388 45.075C-570.388 47.0642 -570.933 48.922 -572.021 50.6484C-573.109 52.3373 -574.798 53.7071 -577.088 54.758C-579.339 55.7713 -582.192 56.278 -585.645 56.278ZM-554.888 55.8276V21.318L-568.399 21.318V16.4202L-535.804 16.4202V21.318H-549.315V55.8276H-554.888ZM-512.433 56.278C-515.435 56.278 -518.231 55.7713 -520.821 54.758C-523.373 53.7447 -525.587 52.3373 -527.464 50.5358C-529.34 48.6968 -530.804 46.5575 -531.855 44.118C-532.906 41.6785 -533.431 39.0138 -533.431 36.1239C-533.431 33.2341 -532.906 30.5694 -531.855 28.1299C-530.804 25.6904 -529.34 23.5699 -527.464 21.7684C-525.587 19.9294 -523.373 18.5032 -520.821 17.4899C-518.269 16.4765 -515.473 15.9699 -512.433 15.9699C-509.43 15.9699 -506.672 16.4765 -504.157 17.4899C-501.605 18.4657 -499.391 19.8731 -497.514 21.7121C-495.6 23.5136 -494.136 25.6341 -493.123 28.0736C-492.072 30.5131 -491.547 33.1965 -491.547 36.1239C-491.547 39.0513 -492.072 41.7348 -493.123 44.1743C-494.136 46.6138 -495.6 48.7531 -497.514 50.5921C-499.391 52.3936 -501.605 53.801 -504.157 54.8143C-506.672 55.7901 -509.43 56.278 -512.433 56.278ZM-512.433 51.2676C-510.256 51.2676 -508.248 50.8923 -506.409 50.1417C-504.532 49.3911 -502.919 48.3402 -501.567 46.9891C-500.179 45.6005 -499.109 43.9867 -498.359 42.1476C-497.57 40.3086 -497.176 38.3007 -497.176 36.1239C-497.176 33.9471 -497.57 31.9392 -498.359 30.1002C-499.109 28.2612 -500.179 26.6662 -501.567 25.315C-502.919 23.9264 -504.532 22.8568 -506.409 22.1062C-508.248 21.3555 -510.256 20.9802 -512.433 20.9802C-514.647 20.9802 -516.692 21.3555 -518.569 22.1062C-520.408 22.8568 -522.022 23.9264 -523.41 25.315C-524.799 26.6662 -525.887 28.2612 -526.676 30.1002C-527.426 31.9392 -527.801 33.9471 -527.801 36.1239C-527.801 38.3007 -527.426 40.3086 -526.676 42.1476C-525.887 43.9867 -524.799 45.6005 -523.41 46.9891C-522.022 48.3402 -520.408 49.3911 -518.569 50.1417C-516.692 50.8923 -514.647 51.2676 -512.433 51.2676ZM-482.942 55.8276V16.4202L-467.573 16.4202C-464.12 16.4202 -461.174 16.9644 -458.735 18.0528C-456.295 19.1412 -454.419 20.7175 -453.105 22.7817C-451.792 24.8459 -451.135 27.3042 -451.135 30.1565C-451.135 33.0089 -451.792 35.4671 -453.105 37.5313C-454.419 39.558 -456.295 41.1343 -458.735 42.2602C-461.174 43.3486 -464.12 43.8928 -467.573 43.8928H-479.846L-477.313 41.2469V55.8276H-482.942ZM-477.313 41.8099L-479.846 38.995H-467.742C-464.139 38.995 -461.418 38.2257 -459.579 36.6869C-457.703 35.1481 -456.764 32.9713 -456.764 30.1565C-456.764 27.3417 -457.703 25.1649 -459.579 23.6262C-461.418 22.0874 -464.139 21.318 -467.742 21.318L-479.846 21.318L-477.313 18.5032V41.8099ZM-442.821 43.3862L-443.834 16.4202H-437.473L-438.542 43.3862H-442.821ZM-440.625 56.1654C-441.676 56.1654 -442.558 55.8089 -443.271 55.0958C-443.984 54.3827 -444.341 53.5383 -444.341 52.5625C-444.341 51.5116 -443.984 50.6484 -443.271 49.9728C-442.558 49.2973 -441.676 48.9595 -440.625 48.9595C-439.575 48.9595 -438.711 49.2973 -438.036 49.9728C-437.36 50.6484 -437.022 51.5116 -437.022 52.5625C-437.022 53.5383 -437.36 54.3827 -438.036 55.0958C-438.711 55.8089 -439.575 56.1654 -440.625 56.1654ZM-427.757 43.3862L-428.771 16.4202L-422.409 16.4202L-423.479 43.3862H-427.757ZM-425.562 56.1654C-426.613 56.1654 -427.495 55.8089 -428.208 55.0958C-428.921 54.3827 -429.277 53.5383 -429.277 52.5625C-429.277 51.5116 -428.921 50.6484 -428.208 49.9728C-427.495 49.2973 -426.613 48.9595 -425.562 48.9595C-424.511 48.9595 -423.648 49.2973 -422.972 49.9728C-422.297 50.6484 -421.959 51.5116 -421.959 52.5625C-421.959 53.5383 -422.297 54.3827 -422.972 55.0958C-423.648 55.8089 -424.511 56.1654 -425.562 56.1654ZM-412.694 43.3862L-413.707 16.4202H-407.345L-408.415 43.3862H-412.694ZM-410.498 56.1654C-411.549 56.1654 -412.431 55.8089 -413.144 55.0958C-413.857 54.3827 -414.214 53.5383 -414.214 52.5625C-414.214 51.5116 -413.857 50.6484 -413.144 49.9728C-412.431 49.2973 -411.549 48.9595 -410.498 48.9595C-409.447 48.9595 -408.584 49.2973 -407.908 49.9728C-407.233 50.6484 -406.895 51.5116 -406.895 52.5625C-406.895 53.5383 -407.233 54.3827 -407.908 55.0958C-408.584 55.8089 -409.447 56.1654 -410.498 56.1654ZM-370.52 56.278C-373.523 56.278 -376.394 55.8276 -379.134 54.9269C-381.873 53.9886 -384.031 52.7876 -385.608 51.3239L-383.525 46.9328C-382.023 48.2464 -380.109 49.3348 -377.782 50.198C-375.456 51.0612 -373.035 51.4928 -370.52 51.4928C-368.231 51.4928 -366.373 51.2301 -364.947 50.7047C-363.521 50.1792 -362.47 49.4662 -361.794 48.5654C-361.119 47.6271 -360.781 46.5763 -360.781 45.4128C-360.781 44.0617 -361.231 42.9733 -362.132 42.1476C-362.995 41.322 -364.14 40.6652 -365.566 40.1773C-366.955 39.6518 -368.494 39.2015 -370.182 38.8262C-371.871 38.4508 -373.579 38.0192 -375.305 37.5313C-376.994 37.0059 -378.552 36.3491 -379.978 35.561C-381.367 34.7728 -382.493 33.722 -383.356 32.4084C-384.219 31.0573 -384.651 29.3309 -384.651 27.2291C-384.651 25.2025 -384.125 23.3447 -383.074 21.6558C-381.986 19.9294 -380.335 18.5595 -378.12 17.5462C-375.868 16.4953 -373.016 15.9699 -369.563 15.9699C-367.274 15.9699 -365.003 16.2701 -362.751 16.8706C-360.499 17.4711 -358.548 18.3343 -356.897 19.4602L-358.754 23.9639C-360.443 22.838 -362.226 22.0311 -364.102 21.5432C-365.979 21.0178 -367.799 20.7551 -369.563 20.7551C-371.778 20.7551 -373.598 21.0365 -375.024 21.5995C-376.45 22.1625 -377.501 22.9131 -378.177 23.8513C-378.815 24.7896 -379.134 25.8405 -379.134 27.0039C-379.134 28.3926 -378.702 29.4997 -377.839 30.3254C-376.938 31.1511 -375.793 31.8079 -374.405 32.2958C-372.979 32.7837 -371.421 33.2341 -369.732 33.6469C-368.043 34.0222 -366.354 34.4538 -364.665 34.9417C-362.939 35.4296 -361.381 36.0676 -359.993 36.8558C-358.567 37.6439 -357.422 38.6948 -356.559 40.0084C-355.696 41.322 -355.264 43.0108 -355.264 45.075C-355.264 47.0642 -355.808 48.922 -356.897 50.6484C-357.985 52.3373 -359.674 53.7071 -361.963 54.758C-364.215 55.7713 -367.067 56.278 -370.52 56.278ZM-339.764 55.8276V21.318L-353.275 21.318V16.4202L-320.68 16.4202V21.318L-334.191 21.318V55.8276H-339.764ZM-297.308 56.278C-300.311 56.278 -303.107 55.7713 -305.696 54.758C-308.248 53.7447 -310.463 52.3373 -312.339 50.5358C-314.216 48.6968 -315.68 46.5575 -316.73 44.118C-317.781 41.6785 -318.307 39.0138 -318.307 36.1239C-318.307 33.2341 -317.781 30.5694 -316.73 28.1299C-315.68 25.6904 -314.216 23.5699 -312.339 21.7684C-310.463 19.9294 -308.248 18.5032 -305.696 17.4899C-303.144 16.4765 -300.348 15.9699 -297.308 15.9699C-294.306 15.9699 -291.547 16.4765 -289.033 17.4899C-286.481 18.4657 -284.266 19.8731 -282.39 21.7121C-280.476 23.5136 -279.012 25.6341 -277.999 28.0736C-276.948 30.5131 -276.422 33.1965 -276.422 36.1239C-276.422 39.0513 -276.948 41.7348 -277.999 44.1743C-279.012 46.6138 -280.476 48.7531 -282.39 50.5921C-284.266 52.3936 -286.481 53.801 -289.033 54.8143C-291.547 55.7901 -294.306 56.278 -297.308 56.278ZM-297.308 51.2676C-295.131 51.2676 -293.124 50.8923 -291.285 50.1417C-289.408 49.3911 -287.794 48.3402 -286.443 46.9891C-285.054 45.6005 -283.985 43.9867 -283.234 42.1476C-282.446 40.3086 -282.052 38.3007 -282.052 36.1239C-282.052 33.9471 -282.446 31.9392 -283.234 30.1002C-283.985 28.2612 -285.054 26.6662 -286.443 25.315C-287.794 23.9264 -289.408 22.8568 -291.285 22.1062C-293.124 21.3555 -295.131 20.9802 -297.308 20.9802C-299.523 20.9802 -301.568 21.3555 -303.445 22.1062C-305.284 22.8568 -306.897 23.9264 -308.286 25.315C-309.675 26.6662 -310.763 28.2612 -311.551 30.1002C-312.302 31.9392 -312.677 33.9471 -312.677 36.1239C-312.677 38.3007 -312.302 40.3086 -311.551 42.1476C-310.763 43.9867 -309.675 45.6005 -308.286 46.9891C-306.897 48.3402 -305.284 49.3911 -303.445 50.1417C-301.568 50.8923 -299.523 51.2676 -297.308 51.2676ZM-267.818 55.8276V16.4202H-252.449C-248.996 16.4202 -246.05 16.9644 -243.61 18.0528C-241.171 19.1412 -239.294 20.7175 -237.981 22.7817C-236.667 24.8459 -236.01 27.3042 -236.01 30.1565C-236.01 33.0089 -236.667 35.4671 -237.981 37.5313C-239.294 39.558 -241.171 41.1343 -243.61 42.2602C-246.05 43.3486 -248.996 43.8928 -252.449 43.8928H-264.721L-262.188 41.2469V55.8276H-267.818ZM-262.188 41.8099L-264.721 38.995H-252.618C-249.015 38.995 -246.294 38.2257 -244.455 36.6869C-242.578 35.1481 -241.64 32.9713 -241.64 30.1565C-241.64 27.3417 -242.578 25.1649 -244.455 23.6262C-246.294 22.0874 -249.015 21.318 -252.618 21.318L-264.721 21.318L-262.188 18.5032V41.8099ZM-227.697 43.3862L-228.71 16.4202H-222.348L-223.418 43.3862H-227.697ZM-225.501 56.1654C-226.552 56.1654 -227.434 55.8089 -228.147 55.0958C-228.86 54.3827 -229.217 53.5383 -229.217 52.5625C-229.217 51.5116 -228.86 50.6484 -228.147 49.9728C-227.434 49.2973 -226.552 48.9595 -225.501 48.9595C-224.45 48.9595 -223.587 49.2973 -222.911 49.9728C-222.236 50.6484 -221.898 51.5116 -221.898 52.5625C-221.898 53.5383 -222.236 54.3827 -222.911 55.0958C-223.587 55.8089 -224.45 56.1654 -225.501 56.1654ZM-212.633 43.3862L-213.646 16.4202H-207.285L-208.354 43.3862H-212.633ZM-210.437 56.1654C-211.488 56.1654 -212.37 55.8089 -213.083 55.0958C-213.796 54.3827 -214.153 53.5383 -214.153 52.5625C-214.153 51.5116 -213.796 50.6484 -213.083 49.9728C-212.37 49.2973 -211.488 48.9595 -210.437 48.9595C-209.386 48.9595 -208.523 49.2973 -207.848 49.9728C-207.172 50.6484 -206.834 51.5116 -206.834 52.5625C-206.834 53.5383 -207.172 54.3827 -207.848 55.0958C-208.523 55.8089 -209.386 56.1654 -210.437 56.1654ZM-197.569 43.3862L-198.583 16.4202H-192.221L-193.291 43.3862L-197.569 43.3862ZM-195.374 56.1654C-196.425 56.1654 -197.307 55.8089 -198.02 55.0958C-198.733 54.3827 -199.089 53.5383 -199.089 52.5625C-199.089 51.5116 -198.733 50.6484 -198.02 49.9728C-197.307 49.2973 -196.425 48.9595 -195.374 48.9595C-194.323 48.9595 -193.46 49.2973 -192.784 49.9728C-192.109 50.6484 -191.771 51.5116 -191.771 52.5625C-191.771 53.5383 -192.109 54.3827 -192.784 55.0958C-193.46 55.8089 -194.323 56.1654 -195.374 56.1654ZM-170.514 56.278C-173.517 56.278 -176.388 55.8276 -179.128 54.9269C-181.868 53.9886 -184.026 52.7876 -185.602 51.3239L-183.519 46.9328C-182.018 48.2464 -180.104 49.3348 -177.777 50.198C-175.45 51.0612 -173.029 51.4928 -170.514 51.4928C-168.225 51.4928 -166.367 51.2301 -164.941 50.7047C-163.515 50.1792 -162.464 49.4662 -161.789 48.5654C-161.113 47.6271 -160.775 46.5763 -160.775 45.4128C-160.775 44.0617 -161.226 42.9733 -162.126 42.1476C-162.99 41.322 -164.134 40.6652 -165.56 40.1773C-166.949 39.6518 -168.488 39.2015 -170.177 38.8262C-171.866 38.4508 -173.573 38.0192 -175.3 37.5313C-176.989 37.0059 -178.546 36.3491 -179.972 35.561C-181.361 34.7728 -182.487 33.722 -183.35 32.4084C-184.213 31.0573 -184.645 29.3309 -184.645 27.2291C-184.645 25.2025 -184.119 23.3447 -183.069 21.6558C-181.98 19.9294 -180.329 18.5595 -178.114 17.5462C-175.863 16.4953 -173.01 15.9699 -169.557 15.9699C-167.268 15.9699 -164.997 16.2701 -162.746 16.8706C-160.494 17.4711 -158.542 18.3343 -156.891 19.4602L-158.749 23.9639C-160.437 22.838 -162.22 22.0311 -164.097 21.5432C-165.973 21.0178 -167.793 20.7551 -169.557 20.7551C-171.772 20.7551 -173.592 21.0365 -175.018 21.5995C-176.444 22.1625 -177.495 22.9131 -178.171 23.8513C-178.809 24.7896 -179.128 25.8405 -179.128 27.0039C-179.128 28.3926 -178.696 29.4997 -177.833 30.3254C-176.932 31.1511 -175.788 31.8079 -174.399 32.2958C-172.973 32.7837 -171.415 33.2341 -169.726 33.6469C-168.037 34.0222 -166.349 34.4538 -164.66 34.9417C-162.933 35.4296 -161.376 36.0676 -159.987 36.8558C-158.561 37.6439 -157.416 38.6948 -156.553 40.0084C-155.69 41.322 -155.258 43.0108 -155.258 45.075C-155.258 47.0642 -155.802 48.922 -156.891 50.6484C-157.979 52.3373 -159.668 53.7071 -161.957 54.758C-164.209 55.7713 -167.062 56.278 -170.514 56.278ZM-139.758 55.8276V21.318L-153.269 21.318V16.4202L-120.674 16.4202V21.318L-134.185 21.318V55.8276H-139.758ZM-97.3025 56.278C-100.305 56.278 -103.101 55.7713 -105.691 54.758C-108.243 53.7447 -110.457 52.3373 -112.334 50.5358C-114.21 48.6968 -115.674 46.5575 -116.725 44.118C-117.776 41.6785 -118.301 39.0138 -118.301 36.1239C-118.301 33.2341 -117.776 30.5694 -116.725 28.1299C-115.674 25.6904 -114.21 23.5699 -112.334 21.7684C-110.457 19.9294 -108.243 18.5032 -105.691 17.4899C-103.139 16.4765 -100.342 15.9699 -97.3025 15.9699C-94.3 15.9699 -91.5415 16.4765 -89.0269 17.4899C-86.4748 18.4657 -84.2605 19.8731 -82.384 21.7121C-80.4699 23.5136 -79.0062 25.6341 -77.9929 28.0736C-76.942 30.5131 -76.4166 33.1965 -76.4166 36.1239C-76.4166 39.0513 -76.942 41.7348 -77.9929 44.1743C-79.0062 46.6138 -80.4699 48.7531 -82.384 50.5921C-84.2605 52.3936 -86.4748 53.801 -89.0269 54.8143C-91.5415 55.7901 -94.3 56.278 -97.3025 56.278ZM-97.3025 51.2676C-95.1257 51.2676 -93.1178 50.8923 -91.2788 50.1417C-89.4023 49.3911 -87.7884 48.3402 -86.4373 46.9891C-85.0487 45.6005 -83.979 43.9867 -83.2284 42.1476C-82.4403 40.3086 -82.0462 38.3007 -82.0462 36.1239C-82.0462 33.9471 -82.4403 31.9392 -83.2284 30.1002C-83.979 28.2612 -85.0487 26.6662 -86.4373 25.315C-87.7884 23.9264 -89.4023 22.8568 -91.2788 22.1062C-93.1178 21.3555 -95.1257 20.9802 -97.3025 20.9802C-99.5168 20.9802 -101.562 21.3555 -103.439 22.1062C-105.278 22.8568 -106.892 23.9264 -108.28 25.315C-109.669 26.6662 -110.757 28.2612 -111.545 30.1002C-112.296 31.9392 -112.671 33.9471 -112.671 36.1239C-112.671 38.3007 -112.296 40.3086 -111.545 42.1476C-110.757 43.9867 -109.669 45.6005 -108.28 46.9891C-106.892 48.3402 -105.278 49.3911 -103.439 50.1417C-101.562 50.8923 -99.5168 51.2676 -97.3025 51.2676ZM-67.812 55.8276V16.4202H-52.4431C-48.9903 16.4202 -46.0441 16.9644 -43.6046 18.0528C-41.1651 19.1412 -39.2886 20.7175 -37.975 22.7817C-36.6614 24.8459 -36.0046 27.3042 -36.0046 30.1565C-36.0046 33.0089 -36.6614 35.4671 -37.975 37.5313C-39.2886 39.558 -41.1651 41.1343 -43.6046 42.2602C-46.0441 43.3486 -48.9903 43.8928 -52.4431 43.8928H-64.7157L-62.1824 41.2469V55.8276H-67.812ZM-62.1824 41.8099L-64.7157 38.995H-52.612C-49.0091 38.995 -46.2881 38.2257 -44.4491 36.6869C-42.5725 35.1481 -41.6343 32.9713 -41.6343 30.1565C-41.6343 27.3417 -42.5725 25.1649 -44.4491 23.6262C-46.2881 22.0874 -49.0091 21.318 -52.612 21.318H-64.7157L-62.1824 18.5032V41.8099ZM-27.6908 43.3862L-28.7042 16.4202H-22.3427L-23.4123 43.3862H-27.6908ZM-25.4953 56.1654C-26.5461 56.1654 -27.4281 55.8089 -28.1412 55.0958C-28.8543 54.3827 -29.2108 53.5383 -29.2108 52.5625C-29.2108 51.5116 -28.8543 50.6484 -28.1412 49.9728C-27.4281 49.2973 -26.5461 48.9595 -25.4953 48.9595C-24.4444 48.9595 -23.5812 49.2973 -22.9056 49.9728C-22.2301 50.6484 -21.8923 51.5116 -21.8923 52.5625C-21.8923 53.5383 -22.2301 54.3827 -22.9056 55.0958C-23.5812 55.8089 -24.4444 56.1654 -25.4953 56.1654ZM-12.6272 43.3862L-13.6405 16.4202H-7.27903L-8.34866 43.3862H-12.6272ZM-10.4316 56.1654C-11.4825 56.1654 -12.3645 55.8089 -13.0775 55.0958C-13.7906 54.3827 -14.1472 53.5383 -14.1472 52.5625C-14.1472 51.5116 -13.7906 50.6484 -13.0775 49.9728C-12.3645 49.2973 -11.4825 48.9595 -10.4316 48.9595C-9.38075 48.9595 -8.51754 49.2973 -7.84199 49.9728C-7.16643 50.6484 -6.82865 51.5116 -6.82865 52.5625C-6.82865 53.5383 -7.16643 54.3827 -7.84199 55.0958C-8.51754 55.8089 -9.38075 56.1654 -10.4316 56.1654ZM2.43649 43.3862L1.42315 16.4202L7.78463 16.4202L6.715 43.3862H2.43649ZM4.63204 56.1654C3.58118 56.1654 2.6992 55.8089 1.98612 55.0958C1.27303 54.3827 0.916487 53.5383 0.916487 52.5625C0.916487 51.5116 1.27303 50.6484 1.98612 49.9728C2.6992 49.2973 3.58118 48.9595 4.63204 48.9595C5.68291 48.9595 6.54612 49.2973 7.22167 49.9728C7.89723 50.6484 8.235 51.5116 8.235 52.5625C8.235 53.5383 7.89723 54.3827 7.22167 55.0958C6.54612 55.8089 5.68291 56.1654 4.63204 56.1654ZM44.6099 56.278C41.6074 56.278 38.7363 55.8276 35.9966 54.9269C33.2568 53.9886 31.0988 52.7876 29.5225 51.3239L31.6055 46.9328C33.1067 48.2464 35.0208 49.3348 37.3477 50.198C39.6746 51.0612 42.0953 51.4928 44.6099 51.4928C46.8993 51.4928 48.7571 51.2301 50.1832 50.7047C51.6094 50.1792 52.6603 49.4662 53.3358 48.5654C54.0114 47.6271 54.3492 46.5763 54.3492 45.4128C54.3492 44.0617 53.8988 42.9733 52.9981 42.1476C52.1348 41.322 50.9902 40.6652 49.564 40.1773C48.1753 39.6518 46.6366 39.2015 44.9477 38.8262C43.2588 38.4508 41.5511 38.0192 39.8247 37.5313C38.1358 37.0059 36.5783 36.3491 35.1521 35.561C33.7635 34.7728 32.6376 33.722 31.7744 32.4084C30.9111 31.0573 30.4795 29.3309 30.4795 27.2291C30.4795 25.2025 31.005 23.3447 32.0558 21.6558C33.1442 19.9294 34.7956 18.5595 37.0099 17.5462C39.2618 16.4953 42.1141 15.9699 45.5669 15.9699C47.8563 15.9699 50.1269 16.2701 52.3788 16.8706C54.6306 17.4711 56.5823 18.3343 58.2336 19.4602L56.3758 23.9639C54.6869 22.838 52.9042 22.0311 51.0277 21.5432C49.1511 21.0178 47.3309 20.7551 45.5669 20.7551C43.3526 20.7551 41.5324 21.0365 40.1062 21.5995C38.68 22.1625 37.6292 22.9131 36.9536 23.8513C36.3156 24.7896 35.9966 25.8405 35.9966 27.0039C35.9966 28.3926 36.4282 29.4997 37.2914 30.3254C38.1921 31.1511 39.3368 31.8079 40.7255 32.2958C42.1516 32.7837 43.7092 33.2341 45.3981 33.6469C47.0869 34.0222 48.7758 34.4538 50.4647 34.9417C52.1911 35.4296 53.7487 36.0676 55.1373 36.8558C56.5635 37.6439 57.7082 38.6948 58.5714 40.0084C59.4346 41.322 59.8662 43.0108 59.8662 45.075C59.8662 47.0642 59.322 48.922 58.2336 50.6484C57.1452 52.3373 55.4563 53.7071 53.1669 54.758C50.9151 55.7713 48.0627 56.278 44.6099 56.278ZM75.3661 55.8276V21.318L61.855 21.318V16.4202L94.4506 16.4202V21.318L80.9394 21.318V55.8276L75.3661 55.8276ZM117.822 56.278C114.819 56.278 112.023 55.7713 109.434 54.758C106.882 53.7447 104.667 52.3373 102.791 50.5358C100.914 48.6968 99.4505 46.5575 98.3997 44.118C97.3488 41.6785 96.8234 39.0138 96.8234 36.1239C96.8234 33.2341 97.3488 30.5694 98.3997 28.1299C99.4505 25.6904 100.914 23.5699 102.791 21.7684C104.667 19.9294 106.882 18.5032 109.434 17.4899C111.986 16.4765 114.782 15.9699 117.822 15.9699C120.824 15.9699 123.583 16.4765 126.097 17.4899C128.65 18.4657 130.864 19.8731 132.74 21.7121C134.654 23.5136 136.118 25.6341 137.132 28.0736C138.182 30.5131 138.708 33.1965 138.708 36.1239C138.708 39.0513 138.182 41.7348 137.132 44.1743C136.118 46.6138 134.654 48.7531 132.74 50.5921C130.864 52.3936 128.65 53.801 126.097 54.8143C123.583 55.7901 120.824 56.278 117.822 56.278ZM117.822 51.2676C119.999 51.2676 122.007 50.8923 123.846 50.1417C125.722 49.3911 127.336 48.3402 128.687 46.9891C130.076 45.6005 131.145 43.9867 131.896 42.1476C132.684 40.3086 133.078 38.3007 133.078 36.1239C133.078 33.9471 132.684 31.9392 131.896 30.1002C131.145 28.2612 130.076 26.6662 128.687 25.315C127.336 23.9264 125.722 22.8568 123.846 22.1062C122.007 21.3555 119.999 20.9802 117.822 20.9802C115.608 20.9802 113.562 21.3555 111.686 22.1062C109.847 22.8568 108.233 23.9264 106.844 25.315C105.455 26.6662 104.367 28.2612 103.579 30.1002C102.828 31.9392 102.453 33.9471 102.453 36.1239C102.453 38.3007 102.828 40.3086 103.579 42.1476C104.367 43.9867 105.455 45.6005 106.844 46.9891C108.233 48.3402 109.847 49.3911 111.686 50.1417C113.562 50.8923 115.608 51.2676 117.822 51.2676ZM147.312 55.8276V16.4202L162.681 16.4202C166.134 16.4202 169.08 16.9644 171.52 18.0528C173.959 19.1412 175.836 20.7175 177.149 22.7817C178.463 24.8459 179.12 27.3042 179.12 30.1565C179.12 33.0089 178.463 35.4671 177.149 37.5313C175.836 39.558 173.959 41.1343 171.52 42.2602C169.08 43.3486 166.134 43.8928 162.681 43.8928L150.409 43.8928L152.942 41.2469V55.8276H147.312ZM152.942 41.8099L150.409 38.995L162.512 38.995C166.115 38.995 168.836 38.2257 170.675 36.6869C172.552 35.1481 173.49 32.9713 173.49 30.1565C173.49 27.3417 172.552 25.1649 170.675 23.6262C168.836 22.0874 166.115 21.318 162.512 21.318H150.409L152.942 18.5032V41.8099ZM187.434 43.3862L186.42 16.4202L192.782 16.4202L191.712 43.3862H187.434ZM189.629 56.1654C188.578 56.1654 187.696 55.8089 186.983 55.0958C186.27 54.3827 185.914 53.5383 185.914 52.5625C185.914 51.5116 186.27 50.6484 186.983 49.9728C187.696 49.2973 188.578 48.9595 189.629 48.9595C190.68 48.9595 191.543 49.2973 192.219 49.9728C192.894 50.6484 193.232 51.5116 193.232 52.5625C193.232 53.5383 192.894 54.3827 192.219 55.0958C191.543 55.8089 190.68 56.1654 189.629 56.1654ZM202.497 43.3862L201.484 16.4202H207.845L206.776 43.3862H202.497ZM204.693 56.1654C203.642 56.1654 202.76 55.8089 202.047 55.0958C201.334 54.3827 200.977 53.5383 200.977 52.5625C200.977 51.5116 201.334 50.6484 202.047 49.9728C202.76 49.2973 203.642 48.9595 204.693 48.9595C205.744 48.9595 206.607 49.2973 207.282 49.9728C207.958 50.6484 208.296 51.5116 208.296 52.5625C208.296 53.5383 207.958 54.3827 207.282 55.0958C206.607 55.8089 205.744 56.1654 204.693 56.1654ZM217.561 43.3862L216.548 16.4202H222.909L221.839 43.3862H217.561ZM219.756 56.1654C218.706 56.1654 217.824 55.8089 217.111 55.0958C216.397 54.3827 216.041 53.5383 216.041 52.5625C216.041 51.5116 216.397 50.6484 217.111 49.9728C217.824 49.2973 218.706 48.9595 219.756 48.9595C220.807 48.9595 221.671 49.2973 222.346 49.9728C223.022 50.6484 223.359 51.5116 223.359 52.5625C223.359 53.5383 223.022 54.3827 222.346 55.0958C221.671 55.8089 220.807 56.1654 219.756 56.1654ZM259.734 56.278C256.732 56.278 253.861 55.8276 251.121 54.9269C248.381 53.9886 246.223 52.7876 244.647 51.3239L246.73 46.9328C248.231 48.2464 250.145 49.3348 252.472 50.198C254.799 51.0612 257.22 51.4928 259.734 51.4928C262.024 51.4928 263.881 51.2301 265.308 50.7047C266.734 50.1792 267.785 49.4662 268.46 48.5654C269.136 47.6271 269.473 46.5763 269.473 45.4128C269.473 44.0617 269.023 42.9733 268.122 42.1476C267.259 41.322 266.114 40.6652 264.688 40.1773C263.3 39.6518 261.761 39.2015 260.072 38.8262C258.383 38.4508 256.675 38.0192 254.949 37.5313C253.26 37.0059 251.703 36.3491 250.276 35.561C248.888 34.7728 247.762 33.722 246.899 32.4084C246.035 31.0573 245.604 29.3309 245.604 27.2291C245.604 25.2025 246.129 23.3447 247.18 21.6558C248.269 19.9294 249.92 18.5595 252.134 17.5462C254.386 16.4953 257.238 15.9699 260.691 15.9699C262.981 15.9699 265.251 16.2701 267.503 16.8706C269.755 17.4711 271.707 18.3343 273.358 19.4602L271.5 23.9639C269.811 22.838 268.029 22.0311 266.152 21.5432C264.275 21.0178 262.455 20.7551 260.691 20.7551C258.477 20.7551 256.657 21.0365 255.231 21.5995C253.804 22.1625 252.753 22.9131 252.078 23.8513C251.44 24.7896 251.121 25.8405 251.121 27.0039C251.121 28.3926 251.553 29.4997 252.416 30.3254C253.316 31.1511 254.461 31.8079 255.85 32.2958C257.276 32.7837 258.833 33.2341 260.522 33.6469C262.211 34.0222 263.9 34.4538 265.589 34.9417C267.315 35.4296 268.873 36.0676 270.262 36.8558C271.688 37.6439 272.833 38.6948 273.696 40.0084C274.559 41.322 274.991 43.0108 274.991 45.075C274.991 47.0642 274.446 48.922 273.358 50.6484C272.27 52.3373 270.581 53.7071 268.291 54.758C266.039 55.7713 263.187 56.278 259.734 56.278ZM290.491 55.8276V21.318L276.979 21.318V16.4202L309.575 16.4202V21.318L296.064 21.318V55.8276H290.491ZM332.946 56.278C329.944 56.278 327.148 55.7713 324.558 54.758C322.006 53.7447 319.792 52.3373 317.915 50.5358C316.039 48.6968 314.575 46.5575 313.524 44.118C312.473 41.6785 311.948 39.0138 311.948 36.1239C311.948 33.2341 312.473 30.5694 313.524 28.1299C314.575 25.6904 316.039 23.5699 317.915 21.7684C319.792 19.9294 322.006 18.5032 324.558 17.4899C327.11 16.4765 329.906 15.9699 332.946 15.9699C335.949 15.9699 338.707 16.4765 341.222 17.4899C343.774 18.4657 345.988 19.8731 347.865 21.7121C349.779 23.5136 351.243 25.6341 352.256 28.0736C353.307 30.5131 353.832 33.1965 353.832 36.1239C353.832 39.0513 353.307 41.7348 352.256 44.1743C351.243 46.6138 349.779 48.7531 347.865 50.5921C345.988 52.3936 343.774 53.801 341.222 54.8143C338.707 55.7901 335.949 56.278 332.946 56.278ZM332.946 51.2676C335.123 51.2676 337.131 50.8923 338.97 50.1417C340.847 49.3911 342.46 48.3402 343.811 46.9891C345.2 45.6005 346.27 43.9867 347.02 42.1476C347.809 40.3086 348.203 38.3007 348.203 36.1239C348.203 33.9471 347.809 31.9392 347.02 30.1002C346.27 28.2612 345.2 26.6662 343.811 25.315C342.46 23.9264 340.847 22.8568 338.97 22.1062C337.131 21.3555 335.123 20.9802 332.946 20.9802C330.732 20.9802 328.687 21.3555 326.81 22.1062C324.971 22.8568 323.357 23.9264 321.969 25.315C320.58 26.6662 319.491 28.2612 318.703 30.1002C317.953 31.9392 317.577 33.9471 317.577 36.1239C317.577 38.3007 317.953 40.3086 318.703 42.1476C319.491 43.9867 320.58 45.6005 321.969 46.9891C323.357 48.3402 324.971 49.3911 326.81 50.1417C328.687 50.8923 330.732 51.2676 332.946 51.2676ZM362.437 55.8276V16.4202H377.806C381.258 16.4202 384.205 16.9644 386.644 18.0528C389.084 19.1412 390.96 20.7175 392.274 22.7817C393.587 24.8459 394.244 27.3042 394.244 30.1565C394.244 33.0089 393.587 35.4671 392.274 37.5313C390.96 39.558 389.084 41.1343 386.644 42.2602C384.205 43.3486 381.258 43.8928 377.806 43.8928H365.533L368.066 41.2469V55.8276H362.437ZM368.066 41.8099L365.533 38.995H377.637C381.24 38.995 383.961 38.2257 385.8 36.6869C387.676 35.1481 388.614 32.9713 388.614 30.1565C388.614 27.3417 387.676 25.1649 385.8 23.6262C383.961 22.0874 381.24 21.318 377.637 21.318H365.533L368.066 18.5032V41.8099ZM402.558 43.3862L401.545 16.4202H407.906L406.836 43.3862H402.558ZM404.754 56.1654C403.703 56.1654 402.821 55.8089 402.108 55.0958C401.394 54.3827 401.038 53.5383 401.038 52.5625C401.038 51.5116 401.394 50.6484 402.108 49.9728C402.821 49.2973 403.703 48.9595 404.754 48.9595C405.804 48.9595 406.668 49.2973 407.343 49.9728C408.019 50.6484 408.356 51.5116 408.356 52.5625C408.356 53.5383 408.019 54.3827 407.343 55.0958C406.668 55.8089 405.804 56.1654 404.754 56.1654ZM417.622 43.3862L416.608 16.4202L422.97 16.4202L421.9 43.3862H417.622ZM419.817 56.1654C418.766 56.1654 417.884 55.8089 417.171 55.0958C416.458 54.3827 416.102 53.5383 416.102 52.5625C416.102 51.5116 416.458 50.6484 417.171 49.9728C417.884 49.2973 418.766 48.9595 419.817 48.9595C420.868 48.9595 421.731 49.2973 422.407 49.9728C423.082 50.6484 423.42 51.5116 423.42 52.5625C423.42 53.5383 423.082 54.3827 422.407 55.0958C421.731 55.8089 420.868 56.1654 419.817 56.1654ZM432.685 43.3862L431.672 16.4202H438.033L436.964 43.3862H432.685ZM434.881 56.1654C433.83 56.1654 432.948 55.8089 432.235 55.0958C431.522 54.3827 431.165 53.5383 431.165 52.5625C431.165 51.5116 431.522 50.6484 432.235 49.9728C432.948 49.2973 433.83 48.9595 434.881 48.9595C435.932 48.9595 436.795 49.2973 437.47 49.9728C438.146 50.6484 438.484 51.5116 438.484 52.5625C438.484 53.5383 438.146 54.3827 437.47 55.0958C436.795 55.8089 435.932 56.1654 434.881 56.1654ZM474.859 56.278C471.856 56.278 468.985 55.8276 466.245 54.9269C463.506 53.9886 461.348 52.7876 459.771 51.3239L461.854 46.9328C463.355 48.2464 465.27 49.3348 467.596 50.198C469.923 51.0612 472.344 51.4928 474.859 51.4928C477.148 51.4928 479.006 51.2301 480.432 50.7047C481.858 50.1792 482.909 49.4662 483.585 48.5654C484.26 47.6271 484.598 46.5763 484.598 45.4128C484.598 44.0617 484.148 42.9733 483.247 42.1476C482.384 41.322 481.239 40.6652 479.813 40.1773C478.424 39.6518 476.885 39.2015 475.196 38.8262C473.508 38.4508 471.8 38.0192 470.074 37.5313C468.385 37.0059 466.827 36.3491 465.401 35.561C464.012 34.7728 462.886 33.722 462.023 32.4084C461.16 31.0573 460.728 29.3309 460.728 27.2291C460.728 25.2025 461.254 23.3447 462.305 21.6558C463.393 19.9294 465.044 18.5595 467.259 17.5462C469.511 16.4953 472.363 15.9699 475.816 15.9699C478.105 15.9699 480.376 16.2701 482.628 16.8706C484.879 17.4711 486.831 18.3343 488.482 19.4602L486.625 23.9639C484.936 22.838 483.153 22.0311 481.276 21.5432C479.4 21.0178 477.58 20.7551 475.816 20.7551C473.601 20.7551 471.781 21.0365 470.355 21.5995C468.929 22.1625 467.878 22.9131 467.202 23.8513C466.564 24.7896 466.245 25.8405 466.245 27.0039C466.245 28.3926 466.677 29.4997 467.54 30.3254C468.441 31.1511 469.586 31.8079 470.974 32.2958C472.4 32.7837 473.958 33.2341 475.647 33.6469C477.336 34.0222 479.025 34.4538 480.714 34.9417C482.44 35.4296 483.997 36.0676 485.386 36.8558C486.812 37.6439 487.957 38.6948 488.82 40.0084C489.683 41.322 490.115 43.0108 490.115 45.075C490.115 47.0642 489.571 48.922 488.482 50.6484C487.394 52.3373 485.705 53.7071 483.416 54.758C481.164 55.7713 478.312 56.278 474.859 56.278ZM505.615 55.8276V21.318L492.104 21.318V16.4202L524.699 16.4202V21.318L511.188 21.318V55.8276H505.615ZM548.071 56.278C545.068 56.278 542.272 55.7713 539.682 54.758C537.13 53.7447 534.916 52.3373 533.04 50.5358C531.163 48.6968 529.699 46.5575 528.648 44.118C527.598 41.6785 527.072 39.0138 527.072 36.1239C527.072 33.2341 527.598 30.5694 528.648 28.1299C529.699 25.6904 531.163 23.5699 533.04 21.7684C534.916 19.9294 537.13 18.5032 539.682 17.4899C542.235 16.4765 545.031 15.9699 548.071 15.9699C551.073 15.9699 553.832 16.4765 556.346 17.4899C558.898 18.4657 561.113 19.8731 562.989 21.7121C564.903 23.5136 566.367 25.6341 567.38 28.0736C568.431 30.5131 568.957 33.1965 568.957 36.1239C568.957 39.0513 568.431 41.7348 567.38 44.1743C566.367 46.6138 564.903 48.7531 562.989 50.5921C561.113 52.3936 558.898 53.801 556.346 54.8143C553.832 55.7901 551.073 56.278 548.071 56.278ZM548.071 51.2676C550.247 51.2676 552.255 50.8923 554.094 50.1417C555.971 49.3911 557.585 48.3402 558.936 46.9891C560.324 45.6005 561.394 43.9867 562.145 42.1476C562.933 40.3086 563.327 38.3007 563.327 36.1239C563.327 33.9471 562.933 31.9392 562.145 30.1002C561.394 28.2612 560.324 26.6662 558.936 25.315C557.585 23.9264 555.971 22.8568 554.094 22.1062C552.255 21.3555 550.247 20.9802 548.071 20.9802C545.856 20.9802 543.811 21.3555 541.934 22.1062C540.095 22.8568 538.481 23.9264 537.093 25.315C535.704 26.6662 534.616 28.2612 533.828 30.1002C533.077 31.9392 532.702 33.9471 532.702 36.1239C532.702 38.3007 533.077 40.3086 533.828 42.1476C534.616 43.9867 535.704 45.6005 537.093 46.9891C538.481 48.3402 540.095 49.3911 541.934 50.1417C543.811 50.8923 545.856 51.2676 548.071 51.2676ZM577.561 55.8276V16.4202L592.93 16.4202C596.383 16.4202 599.329 16.9644 601.769 18.0528C604.208 19.1412 606.085 20.7175 607.398 22.7817C608.712 24.8459 609.369 27.3042 609.369 30.1565C609.369 33.0089 608.712 35.4671 607.398 37.5313C606.085 39.558 604.208 41.1343 601.769 42.2602C599.329 43.3486 596.383 43.8928 592.93 43.8928L580.657 43.8928L583.191 41.2469V55.8276L577.561 55.8276ZM583.191 41.8099L580.657 38.995L592.761 38.995C596.364 38.995 599.085 38.2257 600.924 36.6869C602.801 35.1481 603.739 32.9713 603.739 30.1565C603.739 27.3417 602.801 25.1649 600.924 23.6262C599.085 22.0874 596.364 21.318 592.761 21.318L580.657 21.318L583.191 18.5032V41.8099ZM617.682 43.3862L616.669 16.4202H623.03L621.961 43.3862L617.682 43.3862ZM619.878 56.1654C618.827 56.1654 617.945 55.8089 617.232 55.0958C616.519 54.3827 616.162 53.5383 616.162 52.5625C616.162 51.5116 616.519 50.6484 617.232 49.9728C617.945 49.2973 618.827 48.9595 619.878 48.9595C620.929 48.9595 621.792 49.2973 622.467 49.9728C623.143 50.6484 623.481 51.5116 623.481 52.5625C623.481 53.5383 623.143 54.3827 622.467 55.0958C621.792 55.8089 620.929 56.1654 619.878 56.1654ZM632.746 43.3862L631.733 16.4202H638.094L637.025 43.3862H632.746ZM634.942 56.1654C633.891 56.1654 633.009 55.8089 632.296 55.0958C631.583 54.3827 631.226 53.5383 631.226 52.5625C631.226 51.5116 631.583 50.6484 632.296 49.9728C633.009 49.2973 633.891 48.9595 634.942 48.9595C635.992 48.9595 636.856 49.2973 637.531 49.9728C638.207 50.6484 638.545 51.5116 638.545 52.5625C638.545 53.5383 638.207 54.3827 637.531 55.0958C636.856 55.8089 635.992 56.1654 634.942 56.1654ZM647.81 43.3862L646.796 16.4202H653.158L652.088 43.3862H647.81ZM650.005 56.1654C648.954 56.1654 648.072 55.8089 647.359 55.0958C646.646 54.3827 646.29 53.5383 646.29 52.5625C646.29 51.5116 646.646 50.6484 647.359 49.9728C648.072 49.2973 648.954 48.9595 650.005 48.9595C651.056 48.9595 651.919 49.2973 652.595 49.9728C653.27 50.6484 653.608 51.5116 653.608 52.5625C653.608 53.5383 653.27 54.3827 652.595 55.0958C651.919 55.8089 651.056 56.1654 650.005 56.1654ZM689.983 56.278C686.98 56.278 684.109 55.8276 681.37 54.9269C678.63 53.9886 676.472 52.7876 674.896 51.3239L676.979 46.9328C678.48 48.2464 680.394 49.3348 682.721 50.198C685.048 51.0612 687.468 51.4928 689.983 51.4928C692.272 51.4928 694.13 51.2301 695.556 50.7047C696.982 50.1792 698.033 49.4662 698.709 48.5654C699.384 47.6271 699.722 46.5763 699.722 45.4128C699.722 44.0617 699.272 42.9733 698.371 42.1476C697.508 41.322 696.363 40.6652 694.937 40.1773C693.548 39.6518 692.01 39.2015 690.321 38.8262C688.632 38.4508 686.924 38.0192 685.198 37.5313C683.509 37.0059 681.951 36.3491 680.525 35.561C679.137 34.7728 678.011 33.722 677.147 32.4084C676.284 31.0573 675.853 29.3309 675.853 27.2291C675.853 25.2025 676.378 23.3447 677.429 21.6558C678.517 19.9294 680.169 18.5595 682.383 17.5462C684.635 16.4953 687.487 15.9699 690.94 15.9699C693.229 15.9699 695.5 16.2701 697.752 16.8706C700.004 17.4711 701.955 18.3343 703.607 19.4602L701.749 23.9639C700.06 22.838 698.277 22.0311 696.401 21.5432C694.524 21.0178 692.704 20.7551 690.94 20.7551C688.726 20.7551 686.905 21.0365 685.479 21.5995C684.053 22.1625 683.002 22.9131 682.327 23.8513C681.689 24.7896 681.37 25.8405 681.37 27.0039C681.37 28.3926 681.801 29.4997 682.664 30.3254C683.565 31.1511 684.71 31.8079 686.099 32.2958C687.525 32.7837 689.082 33.2341 690.771 33.6469C692.46 34.0222 694.149 34.4538 695.838 34.9417C697.564 35.4296 699.122 36.0676 700.51 36.8558C701.937 37.6439 703.081 38.6948 703.944 40.0084C704.808 41.322 705.239 43.0108 705.239 45.075C705.239 47.0642 704.695 48.922 703.607 50.6484C702.518 52.3373 700.829 53.7071 698.54 54.758C696.288 55.7713 693.436 56.278 689.983 56.278ZM720.739 55.8276V21.318L707.228 21.318V16.4202L739.824 16.4202V21.318L726.313 21.318V55.8276H720.739ZM763.195 56.278C760.193 56.278 757.396 55.7713 754.807 54.758C752.255 53.7447 750.04 52.3373 748.164 50.5358C746.287 48.6968 744.824 46.5575 743.773 44.118C742.722 41.6785 742.196 39.0138 742.196 36.1239C742.196 33.2341 742.722 30.5694 743.773 28.1299C744.824 25.6904 746.287 23.5699 748.164 21.7684C750.04 19.9294 752.255 18.5032 754.807 17.4899C757.359 16.4765 760.155 15.9699 763.195 15.9699C766.197 15.9699 768.956 16.4765 771.471 17.4899C774.023 18.4657 776.237 19.8731 778.114 21.7121C780.028 23.5136 781.491 25.6341 782.505 28.0736C783.555 30.5131 784.081 33.1965 784.081 36.1239C784.081 39.0513 783.555 41.7348 782.505 44.1743C781.491 46.6138 780.028 48.7531 778.114 50.5921C776.237 52.3936 774.023 53.801 771.471 54.8143C768.956 55.7901 766.197 56.278 763.195 56.278ZM763.195 51.2676C765.372 51.2676 767.38 50.8923 769.219 50.1417C771.095 49.3911 772.709 48.3402 774.06 46.9891C775.449 45.6005 776.518 43.9867 777.269 42.1476C778.057 40.3086 778.451 38.3007 778.451 36.1239C778.451 33.9471 778.057 31.9392 777.269 30.1002C776.518 28.2612 775.449 26.6662 774.06 25.315C772.709 23.9264 771.095 22.8568 769.219 22.1062C767.38 21.3555 765.372 20.9802 763.195 20.9802C760.981 20.9802 758.935 21.3555 757.059 22.1062C755.22 22.8568 753.606 23.9264 752.217 25.315C750.829 26.6662 749.74 28.2612 748.952 30.1002C748.201 31.9392 747.826 33.9471 747.826 36.1239C747.826 38.3007 748.201 40.3086 748.952 42.1476C749.74 43.9867 750.829 45.6005 752.217 46.9891C753.606 48.3402 755.22 49.3911 757.059 50.1417C758.935 50.8923 760.981 51.2676 763.195 51.2676ZM792.685 55.8276V16.4202H808.054C811.507 16.4202 814.453 16.9644 816.893 18.0528C819.332 19.1412 821.209 20.7175 822.522 22.7817C823.836 24.8459 824.493 27.3042 824.493 30.1565C824.493 33.0089 823.836 35.4671 822.522 37.5313C821.209 39.558 819.332 41.1343 816.893 42.2602C814.453 43.3486 811.507 43.8928 808.054 43.8928H795.782L798.315 41.2469V55.8276H792.685ZM798.315 41.8099L795.782 38.995H807.885C811.488 38.995 814.209 38.2257 816.048 36.6869C817.925 35.1481 818.863 32.9713 818.863 30.1565C818.863 27.3417 817.925 25.1649 816.048 23.6262C814.209 22.0874 811.488 21.318 807.885 21.318L795.782 21.318L798.315 18.5032V41.8099ZM832.807 43.3862L831.793 16.4202H838.155L837.085 43.3862H832.807ZM835.002 56.1654C833.951 56.1654 833.069 55.8089 832.356 55.0958C831.643 54.3827 831.287 53.5383 831.287 52.5625C831.287 51.5116 831.643 50.6484 832.356 49.9728C833.069 49.2973 833.951 48.9595 835.002 48.9595C836.053 48.9595 836.916 49.2973 837.592 49.9728C838.267 50.6484 838.605 51.5116 838.605 52.5625C838.605 53.5383 838.267 54.3827 837.592 55.0958C836.916 55.8089 836.053 56.1654 835.002 56.1654ZM847.87 43.3862L846.857 16.4202L853.219 16.4202L852.149 43.3862H847.87ZM850.066 56.1654C849.015 56.1654 848.133 55.8089 847.42 55.0958C846.707 54.3827 846.35 53.5383 846.35 52.5625C846.35 51.5116 846.707 50.6484 847.42 49.9728C848.133 49.2973 849.015 48.9595 850.066 48.9595C851.117 48.9595 851.98 49.2973 852.656 49.9728C853.331 50.6484 853.669 51.5116 853.669 52.5625C853.669 53.5383 853.331 54.3827 852.656 55.0958C851.98 55.8089 851.117 56.1654 850.066 56.1654ZM862.934 43.3862L861.921 16.4202H868.282L867.213 43.3862H862.934ZM865.13 56.1654C864.079 56.1654 863.197 55.8089 862.484 55.0958C861.771 54.3827 861.414 53.5383 861.414 52.5625C861.414 51.5116 861.771 50.6484 862.484 49.9728C863.197 49.2973 864.079 48.9595 865.13 48.9595C866.18 48.9595 867.044 49.2973 867.719 49.9728C868.395 50.6484 868.733 51.5116 868.733 52.5625C868.733 53.5383 868.395 54.3827 867.719 55.0958C867.044 55.8089 866.18 56.1654 865.13 56.1654ZM905.107 56.278C902.105 56.278 899.234 55.8276 896.494 54.9269C893.754 53.9886 891.596 52.7876 890.02 51.3239L892.103 46.9328C893.604 48.2464 895.518 49.3348 897.845 50.198C900.172 51.0612 902.593 51.4928 905.107 51.4928C907.397 51.4928 909.255 51.2301 910.681 50.7047C912.107 50.1792 913.158 49.4662 913.833 48.5654C914.509 47.6271 914.847 46.5763 914.847 45.4128C914.847 44.0617 914.396 42.9733 913.495 42.1476C912.632 41.322 911.488 40.6652 910.061 40.1773C908.673 39.6518 907.134 39.2015 905.445 38.8262C903.756 38.4508 902.049 38.0192 900.322 37.5313C898.633 37.0059 897.076 36.3491 895.65 35.561C894.261 34.7728 893.135 33.722 892.272 32.4084C891.409 31.0573 890.977 29.3309 890.977 27.2291C890.977 25.2025 891.502 23.3447 892.553 21.6558C893.642 19.9294 895.293 18.5595 897.507 17.5462C899.759 16.4953 902.612 15.9699 906.064 15.9699C908.354 15.9699 910.624 16.2701 912.876 16.8706C915.128 17.4711 917.08 18.3343 918.731 19.4602L916.873 23.9639C915.184 22.838 913.402 22.0311 911.525 21.5432C909.649 21.0178 907.828 20.7551 906.064 20.7551C903.85 20.7551 902.03 21.0365 900.604 21.5995C899.177 22.1625 898.127 22.9131 897.451 23.8513C896.813 24.7896 896.494 25.8405 896.494 27.0039C896.494 28.3926 896.926 29.4997 897.789 30.3254C898.69 31.1511 899.834 31.8079 901.223 32.2958C902.649 32.7837 904.207 33.2341 905.895 33.6469C907.584 34.0222 909.273 34.4538 910.962 34.9417C912.689 35.4296 914.246 36.0676 915.635 36.8558C917.061 37.6439 918.206 38.6948 919.069 40.0084C919.932 41.322 920.364 43.0108 920.364 45.075C920.364 47.0642 919.819 48.922 918.731 50.6484C917.643 52.3373 915.954 53.7071 913.664 54.758C911.413 55.7713 908.56 56.278 905.107 56.278ZM935.864 55.8276V21.318H922.353V16.4202L954.948 16.4202V21.318H941.437V55.8276H935.864ZM978.319 56.278C975.317 56.278 972.521 55.7713 969.931 54.758C967.379 53.7447 965.165 52.3373 963.288 50.5358C961.412 48.6968 959.948 46.5575 958.897 44.118C957.846 41.6785 957.321 39.0138 957.321 36.1239C957.321 33.2341 957.846 30.5694 958.897 28.1299C959.948 25.6904 961.412 23.5699 963.288 21.7684C965.165 19.9294 967.379 18.5032 969.931 17.4899C972.483 16.4765 975.279 15.9699 978.319 15.9699C981.322 15.9699 984.08 16.4765 986.595 17.4899C989.147 18.4657 991.361 19.8731 993.238 21.7121C995.152 23.5136 996.616 25.6341 997.629 28.0736C998.68 30.5131 999.205 33.1965 999.205 36.1239C999.205 39.0513 998.68 41.7348 997.629 44.1743C996.616 46.6138 995.152 48.7531 993.238 50.5921C991.361 52.3936 989.147 53.801 986.595 54.8143C984.08 55.7901 981.322 56.278 978.319 56.278ZM978.319 51.2676C980.496 51.2676 982.504 50.8923 984.343 50.1417C986.22 49.3911 987.833 48.3402 989.185 46.9891C990.573 45.6005 991.643 43.9867 992.393 42.1476C993.182 40.3086 993.576 38.3007 993.576 36.1239C993.576 33.9471 993.182 31.9392 992.393 30.1002C991.643 28.2612 990.573 26.6662 989.185 25.315C987.833 23.9264 986.22 22.8568 984.343 22.1062C982.504 21.3555 980.496 20.9802 978.319 20.9802C976.105 20.9802 974.06 21.3555 972.183 22.1062C970.344 22.8568 968.73 23.9264 967.342 25.315C965.953 26.6662 964.865 28.2612 964.076 30.1002C963.326 31.9392 962.951 33.9471 962.951 36.1239C962.951 38.3007 963.326 40.3086 964.076 42.1476C964.865 43.9867 965.953 45.6005 967.342 46.9891C968.73 48.3402 970.344 49.3911 972.183 50.1417C974.06 50.8923 976.105 51.2676 978.319 51.2676ZM1007.81 55.8276V16.4202L1023.18 16.4202C1026.63 16.4202 1029.58 16.9644 1032.02 18.0528C1034.46 19.1412 1036.33 20.7175 1037.65 22.7817C1038.96 24.8459 1039.62 27.3042 1039.62 30.1565C1039.62 33.0089 1038.96 35.4671 1037.65 37.5313C1036.33 39.558 1034.46 41.1343 1032.02 42.2602C1029.58 43.3486 1026.63 43.8928 1023.18 43.8928H1010.91L1013.44 41.2469V55.8276L1007.81 55.8276ZM1013.44 41.8099L1010.91 38.995H1023.01C1026.61 38.995 1029.33 38.2257 1031.17 36.6869C1033.05 35.1481 1033.99 32.9713 1033.99 30.1565C1033.99 27.3417 1033.05 25.1649 1031.17 23.6262C1029.33 22.0874 1026.61 21.318 1023.01 21.318L1010.91 21.318L1013.44 18.5032V41.8099ZM1047.93 43.3862L1046.92 16.4202L1053.28 16.4202L1052.21 43.3862L1047.93 43.3862ZM1050.13 56.1654C1049.08 56.1654 1048.19 55.8089 1047.48 55.0958C1046.77 54.3827 1046.41 53.5383 1046.41 52.5625C1046.41 51.5116 1046.77 50.6484 1047.48 49.9728C1048.19 49.2973 1049.08 48.9595 1050.13 48.9595C1051.18 48.9595 1052.04 49.2973 1052.72 49.9728C1053.39 50.6484 1053.73 51.5116 1053.73 52.5625C1053.73 53.5383 1053.39 54.3827 1052.72 55.0958C1052.04 55.8089 1051.18 56.1654 1050.13 56.1654ZM1062.99 43.3862L1061.98 16.4202H1068.34L1067.27 43.3862H1062.99ZM1065.19 56.1654C1064.14 56.1654 1063.26 55.8089 1062.54 55.0958C1061.83 54.3827 1061.47 53.5383 1061.47 52.5625C1061.47 51.5116 1061.83 50.6484 1062.54 49.9728C1063.26 49.2973 1064.14 48.9595 1065.19 48.9595C1066.24 48.9595 1067.1 49.2973 1067.78 49.9728C1068.46 50.6484 1068.79 51.5116 1068.79 52.5625C1068.79 53.5383 1068.46 54.3827 1067.78 55.0958C1067.1 55.8089 1066.24 56.1654 1065.19 56.1654ZM1078.06 43.3862L1077.05 16.4202L1083.41 16.4202L1082.34 43.3862H1078.06ZM1080.25 56.1654C1079.2 56.1654 1078.32 55.8089 1077.61 55.0958C1076.89 54.3827 1076.54 53.5383 1076.54 52.5625C1076.54 51.5116 1076.89 50.6484 1077.61 49.9728C1078.32 49.2973 1079.2 48.9595 1080.25 48.9595C1081.3 48.9595 1082.17 49.2973 1082.84 49.9728C1083.52 50.6484 1083.86 51.5116 1083.86 52.5625C1083.86 53.5383 1083.52 54.3827 1082.84 55.0958C1082.17 55.8089 1081.3 56.1654 1080.25 56.1654ZM1120.23 56.278C1117.23 56.278 1114.36 55.8276 1111.62 54.9269C1108.88 53.9886 1106.72 52.7876 1105.14 51.3239L1107.23 46.9328C1108.73 48.2464 1110.64 49.3348 1112.97 50.198C1115.3 51.0612 1117.72 51.4928 1120.23 51.4928C1122.52 51.4928 1124.38 51.2301 1125.81 50.7047C1127.23 50.1792 1128.28 49.4662 1128.96 48.5654C1129.63 47.6271 1129.97 46.5763 1129.97 45.4128C1129.97 44.0617 1129.52 42.9733 1128.62 42.1476C1127.76 41.322 1126.61 40.6652 1125.19 40.1773C1123.8 39.6518 1122.26 39.2015 1120.57 38.8262C1118.88 38.4508 1117.17 38.0192 1115.45 37.5313C1113.76 37.0059 1112.2 36.3491 1110.77 35.561C1109.39 34.7728 1108.26 33.722 1107.4 32.4084C1106.53 31.0573 1106.1 29.3309 1106.1 27.2291C1106.1 25.2025 1106.63 23.3447 1107.68 21.6558C1108.77 19.9294 1110.42 18.5595 1112.63 17.5462C1114.88 16.4953 1117.74 15.9699 1121.19 15.9699C1123.48 15.9699 1125.75 16.2701 1128 16.8706C1130.25 17.4711 1132.2 18.3343 1133.86 19.4602L1132 23.9639C1130.31 22.838 1128.53 22.0311 1126.65 21.5432C1124.77 21.0178 1122.95 20.7551 1121.19 20.7551C1118.97 20.7551 1117.15 21.0365 1115.73 21.5995C1114.3 22.1625 1113.25 22.9131 1112.58 23.8513C1111.94 24.7896 1111.62 25.8405 1111.62 27.0039C1111.62 28.3926 1112.05 29.4997 1112.91 30.3254C1113.81 31.1511 1114.96 31.8079 1116.35 32.2958C1117.77 32.7837 1119.33 33.2341 1121.02 33.6469C1122.71 34.0222 1124.4 34.4538 1126.09 34.9417C1127.81 35.4296 1129.37 36.0676 1130.76 36.8558C1132.19 37.6439 1133.33 38.6948 1134.19 40.0084C1135.06 41.322 1135.49 43.0108 1135.49 45.075C1135.49 47.0642 1134.94 48.922 1133.86 50.6484C1132.77 52.3373 1131.08 53.7071 1128.79 54.758C1126.54 55.7713 1123.68 56.278 1120.23 56.278ZM1150.99 55.8276V21.318H1137.48V16.4202L1170.07 16.4202V21.318H1156.56V55.8276H1150.99ZM1193.44 56.278C1190.44 56.278 1187.65 55.7713 1185.06 54.758C1182.5 53.7447 1180.29 52.3373 1178.41 50.5358C1176.54 48.6968 1175.07 46.5575 1174.02 44.118C1172.97 41.6785 1172.45 39.0138 1172.45 36.1239C1172.45 33.2341 1172.97 30.5694 1174.02 28.1299C1175.07 25.6904 1176.54 23.5699 1178.41 21.7684C1180.29 19.9294 1182.5 18.5032 1185.06 17.4899C1187.61 16.4765 1190.4 15.9699 1193.44 15.9699C1196.45 15.9699 1199.2 16.4765 1201.72 17.4899C1204.27 18.4657 1206.49 19.8731 1208.36 21.7121C1210.28 23.5136 1211.74 25.6341 1212.75 28.0736C1213.8 30.5131 1214.33 33.1965 1214.33 36.1239C1214.33 39.0513 1213.8 41.7348 1212.75 44.1743C1211.74 46.6138 1210.28 48.7531 1208.36 50.5921C1206.49 52.3936 1204.27 53.801 1201.72 54.8143C1199.2 55.7901 1196.45 56.278 1193.44 56.278ZM1193.44 51.2676C1195.62 51.2676 1197.63 50.8923 1199.47 50.1417C1201.34 49.3911 1202.96 48.3402 1204.31 46.9891C1205.7 45.6005 1206.77 43.9867 1207.52 42.1476C1208.31 40.3086 1208.7 38.3007 1208.7 36.1239C1208.7 33.9471 1208.31 31.9392 1207.52 30.1002C1206.77 28.2612 1205.7 26.6662 1204.31 25.315C1202.96 23.9264 1201.34 22.8568 1199.47 22.1062C1197.63 21.3555 1195.62 20.9802 1193.44 20.9802C1191.23 20.9802 1189.18 21.3555 1187.31 22.1062C1185.47 22.8568 1183.85 23.9264 1182.47 25.315C1181.08 26.6662 1179.99 28.2612 1179.2 30.1002C1178.45 31.9392 1178.07 33.9471 1178.07 36.1239C1178.07 38.3007 1178.45 40.3086 1179.2 42.1476C1179.99 43.9867 1181.08 45.6005 1182.47 46.9891C1183.85 48.3402 1185.47 49.3911 1187.31 50.1417C1189.18 50.8923 1191.23 51.2676 1193.44 51.2676ZM1222.93 55.8276V16.4202L1238.3 16.4202C1241.76 16.4202 1244.7 16.9644 1247.14 18.0528C1249.58 19.1412 1251.46 20.7175 1252.77 22.7817C1254.08 24.8459 1254.74 27.3042 1254.74 30.1565C1254.74 33.0089 1254.08 35.4671 1252.77 37.5313C1251.46 39.558 1249.58 41.1343 1247.14 42.2602C1244.7 43.3486 1241.76 43.8928 1238.3 43.8928H1226.03L1228.56 41.2469V55.8276H1222.93ZM1228.56 41.8099L1226.03 38.995H1238.13C1241.74 38.995 1244.46 38.2257 1246.3 36.6869C1248.17 35.1481 1249.11 32.9713 1249.11 30.1565C1249.11 27.3417 1248.17 25.1649 1246.3 23.6262C1244.46 22.0874 1241.74 21.318 1238.13 21.318L1226.03 21.318L1228.56 18.5032V41.8099ZM1263.06 43.3862L1262.04 16.4202H1268.4L1267.33 43.3862H1263.06ZM1265.25 56.1654C1264.2 56.1654 1263.32 55.8089 1262.61 55.0958C1261.89 54.3827 1261.54 53.5383 1261.54 52.5625C1261.54 51.5116 1261.89 50.6484 1262.61 49.9728C1263.32 49.2973 1264.2 48.9595 1265.25 48.9595C1266.3 48.9595 1267.17 49.2973 1267.84 49.9728C1268.52 50.6484 1268.85 51.5116 1268.85 52.5625C1268.85 53.5383 1268.52 54.3827 1267.84 55.0958C1267.17 55.8089 1266.3 56.1654 1265.25 56.1654ZM1278.12 43.3862L1277.11 16.4202H1283.47L1282.4 43.3862L1278.12 43.3862ZM1280.31 56.1654C1279.26 56.1654 1278.38 55.8089 1277.67 55.0958C1276.96 54.3827 1276.6 53.5383 1276.6 52.5625C1276.6 51.5116 1276.96 50.6484 1277.67 49.9728C1278.38 49.2973 1279.26 48.9595 1280.31 48.9595C1281.37 48.9595 1282.23 49.2973 1282.9 49.9728C1283.58 50.6484 1283.92 51.5116 1283.92 52.5625C1283.92 53.5383 1283.58 54.3827 1282.9 55.0958C1282.23 55.8089 1281.37 56.1654 1280.31 56.1654ZM1293.18 43.3862L1292.17 16.4202H1298.53L1297.46 43.3862H1293.18ZM1295.38 56.1654C1294.33 56.1654 1293.45 55.8089 1292.73 55.0958C1292.02 54.3827 1291.66 53.5383 1291.66 52.5625C1291.66 51.5116 1292.02 50.6484 1292.73 49.9728C1293.45 49.2973 1294.33 48.9595 1295.38 48.9595C1296.43 48.9595 1297.29 49.2973 1297.97 49.9728C1298.64 50.6484 1298.98 51.5116 1298.98 52.5625C1298.98 53.5383 1298.64 54.3827 1297.97 55.0958C1297.29 55.8089 1296.43 56.1654 1295.38 56.1654ZM1335.36 56.278C1332.35 56.278 1329.48 55.8276 1326.74 54.9269C1324 53.9886 1321.85 52.7876 1320.27 51.3239L1322.35 46.9328C1323.85 48.2464 1325.77 49.3348 1328.09 50.198C1330.42 51.0612 1332.84 51.4928 1335.36 51.4928C1337.65 51.4928 1339.5 51.2301 1340.93 50.7047C1342.36 50.1792 1343.41 49.4662 1344.08 48.5654C1344.76 47.6271 1345.1 46.5763 1345.1 45.4128C1345.1 44.0617 1344.65 42.9733 1343.74 42.1476C1342.88 41.322 1341.74 40.6652 1340.31 40.1773C1338.92 39.6518 1337.38 39.2015 1335.69 38.8262C1334.01 38.4508 1332.3 38.0192 1330.57 37.5313C1328.88 37.0059 1327.32 36.3491 1325.9 35.561C1324.51 34.7728 1323.38 33.722 1322.52 32.4084C1321.66 31.0573 1321.23 29.3309 1321.23 27.2291C1321.23 25.2025 1321.75 23.3447 1322.8 21.6558C1323.89 19.9294 1325.54 18.5595 1327.76 17.5462C1330.01 16.4953 1332.86 15.9699 1336.31 15.9699C1338.6 15.9699 1340.87 16.2701 1343.13 16.8706C1345.38 17.4711 1347.33 18.3343 1348.98 19.4602L1347.12 23.9639C1345.43 22.838 1343.65 22.0311 1341.77 21.5432C1339.9 21.0178 1338.08 20.7551 1336.31 20.7551C1334.1 20.7551 1332.28 21.0365 1330.85 21.5995C1329.43 22.1625 1328.38 22.9131 1327.7 23.8513C1327.06 24.7896 1326.74 25.8405 1326.74 27.0039C1326.74 28.3926 1327.17 29.4997 1328.04 30.3254C1328.94 31.1511 1330.08 31.8079 1331.47 32.2958C1332.9 32.7837 1334.46 33.2341 1336.14 33.6469C1337.83 34.0222 1339.52 34.4538 1341.21 34.9417C1342.94 35.4296 1344.49 36.0676 1345.88 36.8558C1347.31 37.6439 1348.45 38.6948 1349.32 40.0084C1350.18 41.322 1350.61 43.0108 1350.61 45.075C1350.61 47.0642 1350.07 48.922 1348.98 50.6484C1347.89 52.3373 1346.2 53.7071 1343.91 54.758C1341.66 55.7713 1338.81 56.278 1335.36 56.278ZM1366.11 55.8276V21.318H1352.6V16.4202L1385.2 16.4202V21.318H1371.69V55.8276H1366.11ZM1408.57 56.278C1405.57 56.278 1402.77 55.7713 1400.18 54.758C1397.63 53.7447 1395.41 52.3373 1393.54 50.5358C1391.66 48.6968 1390.2 46.5575 1389.15 44.118C1388.1 41.6785 1387.57 39.0138 1387.57 36.1239C1387.57 33.2341 1388.1 30.5694 1389.15 28.1299C1390.2 25.6904 1391.66 23.5699 1393.54 21.7684C1395.41 19.9294 1397.63 18.5032 1400.18 17.4899C1402.73 16.4765 1405.53 15.9699 1408.57 15.9699C1411.57 15.9699 1414.33 16.4765 1416.84 17.4899C1419.4 18.4657 1421.61 19.8731 1423.49 21.7121C1425.4 23.5136 1426.86 25.6341 1427.88 28.0736C1428.93 30.5131 1429.45 33.1965 1429.45 36.1239C1429.45 39.0513 1428.93 41.7348 1427.88 44.1743C1426.86 46.6138 1425.4 48.7531 1423.49 50.5921C1421.61 52.3936 1419.4 53.801 1416.84 54.8143C1414.33 55.7901 1411.57 56.278 1408.57 56.278ZM1408.57 51.2676C1410.74 51.2676 1412.75 50.8923 1414.59 50.1417C1416.47 49.3911 1418.08 48.3402 1419.43 46.9891C1420.82 45.6005 1421.89 43.9867 1422.64 42.1476C1423.43 40.3086 1423.82 38.3007 1423.82 36.1239C1423.82 33.9471 1423.43 31.9392 1422.64 30.1002C1421.89 28.2612 1420.82 26.6662 1419.43 25.315C1418.08 23.9264 1416.47 22.8568 1414.59 22.1062C1412.75 21.3555 1410.74 20.9802 1408.57 20.9802C1406.35 20.9802 1404.31 21.3555 1402.43 22.1062C1400.59 22.8568 1398.98 23.9264 1397.59 25.315C1396.2 26.6662 1395.11 28.2612 1394.33 30.1002C1393.57 31.9392 1393.2 33.9471 1393.2 36.1239C1393.2 38.3007 1393.57 40.3086 1394.33 42.1476C1395.11 43.9867 1396.2 45.6005 1397.59 46.9891C1398.98 48.3402 1400.59 49.3911 1402.43 50.1417C1404.31 50.8923 1406.35 51.2676 1408.57 51.2676ZM1438.06 55.8276V16.4202L1453.43 16.4202C1456.88 16.4202 1459.83 16.9644 1462.27 18.0528C1464.71 19.1412 1466.58 20.7175 1467.9 22.7817C1469.21 24.8459 1469.87 27.3042 1469.87 30.1565C1469.87 33.0089 1469.21 35.4671 1467.9 37.5313C1466.58 39.558 1464.71 41.1343 1462.27 42.2602C1459.83 43.3486 1456.88 43.8928 1453.43 43.8928H1441.15L1443.69 41.2469V55.8276H1438.06ZM1443.69 41.8099L1441.15 38.995H1453.26C1456.86 38.995 1459.58 38.2257 1461.42 36.6869C1463.3 35.1481 1464.24 32.9713 1464.24 30.1565C1464.24 27.3417 1463.3 25.1649 1461.42 23.6262C1459.58 22.0874 1456.86 21.318 1453.26 21.318L1441.15 21.318L1443.69 18.5032V41.8099ZM1478.18 43.3862L1477.17 16.4202L1483.53 16.4202L1482.46 43.3862H1478.18ZM1480.38 56.1654C1479.32 56.1654 1478.44 55.8089 1477.73 55.0958C1477.02 54.3827 1476.66 53.5383 1476.66 52.5625C1476.66 51.5116 1477.02 50.6484 1477.73 49.9728C1478.44 49.2973 1479.32 48.9595 1480.38 48.9595C1481.43 48.9595 1482.29 49.2973 1482.96 49.9728C1483.64 50.6484 1483.98 51.5116 1483.98 52.5625C1483.98 53.5383 1483.64 54.3827 1482.96 55.0958C1482.29 55.8089 1481.43 56.1654 1480.38 56.1654ZM1493.24 43.3862L1492.23 16.4202H1498.59L1497.52 43.3862H1493.24ZM1495.44 56.1654C1494.39 56.1654 1493.51 55.8089 1492.79 55.0958C1492.08 54.3827 1491.72 53.5383 1491.72 52.5625C1491.72 51.5116 1492.08 50.6484 1492.79 49.9728C1493.51 49.2973 1494.39 48.9595 1495.44 48.9595C1496.49 48.9595 1497.35 49.2973 1498.03 49.9728C1498.7 50.6484 1499.04 51.5116 1499.04 52.5625C1499.04 53.5383 1498.7 54.3827 1498.03 55.0958C1497.35 55.8089 1496.49 56.1654 1495.44 56.1654ZM1508.31 43.3862L1507.29 16.4202L1513.66 16.4202L1512.59 43.3862H1508.31ZM1510.5 56.1654C1509.45 56.1654 1508.57 55.8089 1507.86 55.0958C1507.14 54.3827 1506.79 53.5383 1506.79 52.5625C1506.79 51.5116 1507.14 50.6484 1507.86 49.9728C1508.57 49.2973 1509.45 48.9595 1510.5 48.9595C1511.55 48.9595 1512.42 49.2973 1513.09 49.9728C1513.77 50.6484 1514.11 51.5116 1514.11 52.5625C1514.11 53.5383 1513.77 54.3827 1513.09 55.0958C1512.42 55.8089 1511.55 56.1654 1510.5 56.1654Z" fill="black"/>
</g>
</svg>
